<?xml version="1.0" encoding="UTF-8" standalone="no"?>
<!-- Created with Inkscape (http://www.inkscape.org/) -->

<svg
   xmlns:dc="http://purl.org/dc/elements/1.1/"
   xmlns:cc="http://creativecommons.org/ns#"
   xmlns:rdf="http://www.w3.org/1999/02/22-rdf-syntax-ns#"
   xmlns:svg="http://www.w3.org/2000/svg"
   xmlns="http://www.w3.org/2000/svg"
   xmlns:sodipodi="http://sodipodi.sourceforge.net/DTD/sodipodi-0.dtd"
   xmlns:inkscape="http://www.inkscape.org/namespaces/inkscape"
   width="210mm"
   height="297mm"
   viewBox="0 0 744.09448819 1052.3622047"
   id="svg4095"
   version="1.1"
   inkscape:version="0.91 r13725"
   sodipodi:docname="arielbacca.svg">
  <defs
     id="defs4097" />
  <sodipodi:namedview
     id="base"
     pagecolor="#ffffff"
     bordercolor="#666666"
     borderopacity="1.0"
     inkscape:pageopacity="0.0"
     inkscape:pageshadow="2"
     inkscape:zoom="0.35"
     inkscape:cx="325"
     inkscape:cy="520"
     inkscape:document-units="px"
     inkscape:current-layer="layer1"
     showgrid="false"
     inkscape:window-width="1280"
     inkscape:window-height="697"
     inkscape:window-x="-8"
     inkscape:window-y="-8"
     inkscape:window-maximized="1" />
  <metadata
     id="metadata4100">
    <rdf:RDF>
      <cc:Work
         rdf:about="">
        <dc:format>image/svg+xml</dc:format>
        <dc:type
           rdf:resource="http://purl.org/dc/dcmitype/StillImage" />
        <dc:title></dc:title>
      </cc:Work>
    </rdf:RDF>
  </metadata>
  <g
     inkscape:label="Layer 1"
     inkscape:groupmode="layer"
     id="layer1">
    <path
       style="display:inline;fill:#e9c6af;fill-rule:evenodd;stroke:#a05a2c;stroke-width:2.7799139px;stroke-linecap:butt;stroke-linejoin:miter;stroke-opacity:1"
       d="m 408.18612,476.16058 4.86484,-4.16987 0.69498,5.55983 4.51736,-4.86485 3.47489,4.51736 1.04247,-5.21234 2.08494,6.2548 4.16987,-7.29727 1.73744,6.25481 4.51736,-7.99226 2.77992,6.25481 9.7297,-13.20459 10.42467,7.64476 -2.77991,-9.03472 7.64476,-1.04247 0,-1.73744 6.25481,0.34749 3.1274,0 -4.86485,-2.43243 11.81464,0 -4.16987,-3.47489 c 0,0 4.51736,2.43243 11.11965,1.73745 6.6023,-0.69498 5.21234,2.43242 -1.73745,-2.43243 -6.94978,-4.86485 -6.94978,-7.64476 -6.94978,-7.64476 0,0 3.1274,4.16987 10.77217,6.25481 7.64476,2.08493 21.19684,-3.82239 21.19684,-3.82239 0,0 -3.82238,3.82239 -13.89957,0.34749 -10.07719,-3.47489 -7.64476,-5.21233 -7.64476,-5.21233 0,0 11.81463,4.16987 20.15437,3.1274 8.33974,-1.04247 13.89957,-3.1274 13.89957,-3.1274 0,0 -6.60229,0.69497 -15.63701,0.34748 -9.03472,-0.34748 -7.64477,-6.2548 -7.64477,-6.2548 0,0 5.21234,4.16987 11.11966,3.82238 5.90731,-0.34749 14.94203,-4.51736 14.94203,-4.51736 0,0 -6.94978,-5.21234 -11.11965,-3.82238 -4.16987,1.38996 -4.86485,-1.38996 2.77991,-6.94979 7.64477,-5.55982 17.37446,-0.69497 17.37446,-0.69497 0,0 -13.20459,-14.59455 -20.15437,-11.81464 -6.94978,2.77992 11.81463,0 15.9845,-4.16987 4.16987,-4.16987 -3.47489,-11.11965 -10.42467,-6.94978 -6.94979,4.16987 -17.37446,6.94978 -17.37446,6.94978 0,0 1.38995,-5.55983 6.2548,-9.7297 4.86485,-4.16987 12.50961,-8.33974 12.50961,-8.33974 0,0 -25.01922,5.55983 -28.49411,9.7297 -3.47489,4.16987 -11.11966,14.59455 -11.11966,14.59455 0,0 4.16987,-14.59455 6.25481,-18.76442 2.08493,-4.16987 11.11965,-6.25481 11.11965,-6.25481 0,0 -20.15437,-2.08493 -20.84935,2.08494 -0.69498,4.16987 -6.94978,20.84935 -6.94978,20.84935 0,0 -3.4749,-4.86485 -1.38996,-11.81463 2.08493,-6.94979 5.55983,-12.50961 5.55983,-12.50961 0,0 -17.37446,17.37446 -17.37446,23.62926 0,6.25481 -1.38996,13.20459 -1.38996,13.20459 0,0 -9.03472,-13.89956 -4.86485,-20.84935 4.16987,-6.94978 1.38996,-5.55983 1.38996,-5.55983 0,0 -8.33975,15.98451 -8.33975,20.15438 0,4.16987 0.69498,10.42467 0.69498,10.42467 l -4.86485,-2.08493 -2.08493,6.94978 -1.38996,-2.77991 -3.47489,6.25481 -4.16987,-5.55983 -8.33974,9.7297 -1.38996,-4.16987 -5.55983,11.81463 -2.77991,-8.33974 -4.16987,11.11965 -2.77992,-4.86485 -2.77991,5.55983"
       id="path3846"
       inkscape:connector-curvature="0" />
    <path
       style="display:inline;fill:#ff9955;fill-rule:evenodd;stroke:#a05a2c;stroke-width:3.66509485px;stroke-linecap:butt;stroke-linejoin:miter;stroke-opacity:1"
       d="m 296.01404,350.36984 c 0,0 -36.73067,38.37137 -41.84507,63.19992 -5.11441,24.82855 -7.43911,57.33136 -7.43911,57.33136 l 5.11438,-3.61144 1.39482,5.41713 5.57934,-4.96573 0,6.77148 4.64949,-5.41713 0.92988,4.9657 5.1144,-4.51427 0.92988,4.9657 4.1845,-4.51427 0.46494,6.7714 3.25461,-7.67426 1.85979,8.57709 3.25464,-6.7714 0.46491,7.67426 4.18455,-7.67426 0.46494,6.32 4.64943,-6.32"
       id="path3828"
       inkscape:connector-curvature="0" />
    <path
       style="display:inline;fill:#ff9955;fill-rule:evenodd;stroke:#a05a2c;stroke-width:3.43036318px;stroke-linecap:butt;stroke-linejoin:miter;stroke-opacity:1"
       d="m 401.44405,351.41626 c 0,0 35.90522,34.38653 40.90468,56.63665 4.99945,22.25013 7.27194,51.37756 7.27194,51.37756 l -4.99945,-3.2364 -1.36349,4.85459 -5.45397,-4.45003 0,6.06819 -4.54496,-4.85453 -0.90898,4.45 -4.99948,-4.04547 -0.90898,4.45 -4.09047,-4.04547 -0.45449,6.06822 -3.1815,-6.87728 -1.81795,7.6864 -3.1815,-6.06822 -0.45449,6.87729 -4.09048,-6.87729 -0.45449,5.66366 -4.54496,-5.66366"
       id="path3828-5"
       inkscape:connector-curvature="0" />
    <path
       style="display:inline;fill:#ffe6d5;fill-rule:evenodd;stroke:#a05a2c;stroke-width:2.7799139px;stroke-linecap:butt;stroke-linejoin:miter;stroke-opacity:1"
       d="m 296.19153,374.78238 c 0,0 -10.87121,23.40376 -14.49149,65.09037 -7.1379,82.19088 -2.97849,105.23959 -2.97849,105.23959 0,0 20.84936,3.97133 34.74893,3.97133 13.89957,0 33.7561,-1.98567 33.7561,-1.98567 l 1.98567,-40.63533 c 0,0 0.12037,7.70172 0.12037,23.23591 0,15.88523 1.98566,16.93829 1.98566,16.93829 0,0 7.78259,3.85088 36.57458,2.85803 28.79195,-0.99282 38.75978,-8.35386 38.75978,-8.35386 0,0 -1.78337,-29.85978 -12.38538,-104.88857 -6.24777,-44.21428 -13.89957,-62.54806 -13.89957,-62.54806"
       id="path3715"
       inkscape:connector-curvature="0"
       sodipodi:nodetypes="cscsccscscsc" />
    <path
       style="fill:#ffe6d5;fill-rule:evenodd;stroke:#a05a2c;stroke-width:2.7799139px;stroke-linecap:butt;stroke-linejoin:miter;stroke-opacity:1"
       d="m 295.37588,282.09716 c 0,0 23.16711,-10.53054 50.54645,-10.53054 27.38835,0 47.73835,8.42439 47.73835,8.42439 0,0 4.21221,-4.21218 8.42441,-9.12643 4.21221,-4.91422 23.86915,-14.74271 26.67728,-12.63659 2.80816,2.10609 3.51017,10.5305 2.10612,16.8488 -1.40408,6.31833 -6.3183,22.11408 -6.3183,22.11408 l 9.12643,11.58357 c 11.76281,14.92974 -7.9078,47.32767 -22.4651,58.26885 -15.88298,11.93753 -37.90985,9.12643 -69.5014,9.12643 -31.59152,0 -52.58832,-0.51809 -64.58713,-9.82847 -12.84906,-9.9701 -31.13445,-40.82064 -18.25288,-57.56679 l 7.02031,-9.12648 c 0,0 -5.61626,-9.12643 -6.31827,-20.35898 -0.70204,-11.23255 0.70201,-18.95492 6.3183,-19.65696 5.61626,-0.70204 15.44475,6.31832 19.65696,11.93458 4.21221,5.61629 9.82847,10.53054 9.82847,10.53054 z"
       id="path3540"
       inkscape:connector-curvature="0"
       sodipodi:nodetypes="cscssscssssscsssc" />
    <path
       style="display:inline;fill:none;fill-rule:evenodd;stroke:#000000;stroke-width:2.7799139px;stroke-linecap:butt;stroke-linejoin:miter;stroke-opacity:1"
       d="m 333.98777,353.70463 c 0,0 11.23255,2.80813 25.27322,-4.21221 14.04068,-7.02034 10.53051,-8.42439 10.53051,-8.42439"
       id="path3543"
       inkscape:connector-curvature="0" />
    <path
       style="display:inline;fill:#d40000;fill-rule:evenodd;stroke:#aa0000;stroke-width:2.7799139px;stroke-linecap:butt;stroke-linejoin:miter;stroke-opacity:1"
       d="m 349.4325,354.40666 c 0,0 4.91425,4.91425 11.23255,7.72238 6.31832,2.80813 11.93458,1.40408 14.0407,-1.40408 2.10609,-2.80813 2.80813,-7.72237 0,-9.82846 -2.80816,-2.1061 -11.23255,-2.80813 -11.23255,-2.80813"
       id="path3545"
       inkscape:connector-curvature="0" />
    <path
       style="display:inline;fill:#000000;fill-rule:evenodd;stroke:#aa0000;stroke-width:2.7799139px;stroke-linecap:butt;stroke-linejoin:miter;stroke-opacity:1"
       d="m 357.15488,351.59851 6.3183,0.70204 5.61628,4.21221"
       id="path3547"
       inkscape:connector-curvature="0" />
    <ellipse
       style="fill:#000000;fill-opacity:1;stroke:#000000;stroke-width:2.7799139;stroke-opacity:1"
       id="path3549"
       cx="345.57129"
       cy="339.66397"
       rx="7.3713598"
       ry="4.2122054" />
    <ellipse
       style="fill:#000000;fill-opacity:1;stroke:#000000;stroke-width:2.7799139;stroke-opacity:1"
       id="path3551"
       cx="296.77994"
       cy="315.79477"
       rx="13.338651"
       ry="12.636616" />
    <ellipse
       style="fill:#000000;fill-opacity:1;stroke:#000000;stroke-width:2.7799139;stroke-opacity:1"
       id="path3551-1"
       cx="390.15051"
       cy="315.09268"
       rx="13.338651"
       ry="12.636616" />
    <ellipse
       style="fill:#ffffff;fill-opacity:1;stroke:#000000;stroke-width:2.24747348;stroke-opacity:1"
       id="path3568"
       cx="397.1709"
       cy="310.88055"
       rx="4.4784255"
       ry="3.7763915" />
    <path
       style="fill:none;fill-rule:evenodd;stroke:#a05a2c;stroke-width:2.7799139px;stroke-linecap:butt;stroke-linejoin:miter;stroke-opacity:1"
       d="m 318.5339,530.02141 -6.25481,-6.94979 6.94978,2.08494 -5.55982,-6.25481 4.16987,0 -5.55983,-6.2548 7.64476,-0.69498 -3.47489,-5.55983 5.55983,0 -3.47489,-5.55983 6.2548,-0.69497"
       id="path3849"
       inkscape:connector-curvature="0" />
    <path
       style="fill:none;fill-rule:evenodd;stroke:#a05a2c;stroke-width:2.7799139px;stroke-linecap:butt;stroke-linejoin:miter;stroke-opacity:1"
       d="m 381.08196,506.39214 6.2548,7.64476 -6.94978,-17.37446 6.2548,4.16987 -6.2548,-14.59454 7.64476,4.86485 -3.47489,-9.7297 7.64476,10.42467 -11.11965,-24.32424"
       id="path3851"
       inkscape:connector-curvature="0" />
    <path
       style="fill:none;fill-rule:evenodd;stroke:#a05a2c;stroke-width:2.7799139px;stroke-linecap:butt;stroke-linejoin:miter;stroke-opacity:1"
       d="m 380.38698,445.23404 5.55982,8.33974 c 0,0 -6.94978,-18.06944 -6.94978,-25.01923 0,-6.94978 8.33974,-0.69497 8.33974,-0.69497 0,0 -0.69498,-6.25481 -4.16987,-10.42468 -3.47489,-4.16987 -8.33974,-6.94978 -8.33974,-6.94978"
       id="path3853"
       inkscape:connector-curvature="0" />
    <path
       style="fill:none;fill-rule:evenodd;stroke:#a05a2c;stroke-width:2.7799139px;stroke-linecap:butt;stroke-linejoin:miter;stroke-opacity:1"
       d="m 313.66905,425.07966 c 0,0 0,-0.69498 0,-6.94978 0,-6.25481 -4.86485,-15.28953 -4.86485,-15.28953 0,0 5.55982,10.42468 9.03472,11.81464 3.47489,1.38995 8.33974,0 8.33974,0 l -10.42468,-9.7297 10.42468,0.69498 -9.03472,-13.20459"
       id="path3855"
       inkscape:connector-curvature="0" />
    <path
       style="fill:none;fill-rule:evenodd;stroke:#c8b7b7;stroke-width:2.7799139px;stroke-linecap:butt;stroke-linejoin:miter;stroke-opacity:1"
       d="m 281.70004,288.86389 -4.86485,0.69497 3.47489,-6.2548 -6.25481,3.47489 4.86485,-6.94978 -4.16987,1.38995 0,-3.47489 -2.77991,0 1.38996,-3.47489 -3.4749,0"
       id="path3857"
       inkscape:connector-curvature="0" />
    <path
       style="fill:none;fill-rule:evenodd;stroke:#c8b7b7;stroke-width:2.7799139px;stroke-linecap:butt;stroke-linejoin:miter;stroke-opacity:1"
       d="m 408.93244,285.89302 4.86485,0.69498 -3.47489,-6.25481 6.2548,3.4749 -4.86485,-6.94979 4.16987,1.38996 0,-3.47489 2.77992,0 -1.38996,-3.4749 3.47489,0"
       id="path3857-7"
       inkscape:connector-curvature="0" />
    <path
       style="fill:none;fill-rule:evenodd;stroke:#d45500;stroke-width:2.7799139px;stroke-linecap:butt;stroke-linejoin:miter;stroke-opacity:1"
       d="m 294.20965,291.6438 2.08493,4.16987 2.08494,-6.25481 0,4.16988 2.08494,-3.4749 -0.69498,4.16987 2.08493,-2.77991 0.69498,3.47489 2.77991,-2.77991 0,3.47489 2.77992,-3.47489 2.08493,6.94978 0.69498,-2.77991 2.08494,2.77991"
       id="path3874"
       inkscape:connector-curvature="0" />
    <path
       style="fill:none;fill-rule:evenodd;stroke:#d45500;stroke-width:2.77160096px;stroke-linecap:butt;stroke-linejoin:miter;stroke-opacity:1"
       d="m 386.85125,292.61644 -1.73083,4.99294 -1.73086,-7.48936 0,4.99286 -1.73083,-4.16069 0.57692,4.99289 -1.73083,-3.32864 -0.57697,4.1608 -2.30778,-3.32864 0,4.16078 -2.3078,-4.16078 -1.73083,8.32156 -0.57697,-3.32864 -1.73083,3.32864"
       id="path3874-6"
       inkscape:connector-curvature="0" />
    <path
       style="fill:none;fill-rule:evenodd;stroke:#a05a2c;stroke-width:2.7799139px;stroke-linecap:butt;stroke-linejoin:miter;stroke-opacity:1"
       d="m 428.83259,434.22797 c 0,0 1.96571,-2.45711 0.98284,-7.37136 -0.98284,-4.91425 -6.38852,-13.26844 -6.38852,-13.26844 0,0 5.89711,3.43997 7.37139,7.37135 1.47427,3.93139 0.98283,5.89709 0.98283,5.89709 0,0 0,-7.86279 -1.9657,-10.81133 -1.96571,-2.94855 -3.93138,-6.87993 -3.93138,-6.87993"
       id="path3891"
       inkscape:connector-curvature="0" />
    <path
       style="fill:none;fill-rule:evenodd;stroke:#a05a2c;stroke-width:2.9238441px;stroke-linecap:butt;stroke-linejoin:miter;stroke-opacity:1"
       d="m 268.03042,433.99006 3.17414,2.69327 -4.76122,-10.09982 3.17414,0.67327 -3.57091,-12.11981 3.96768,5.38658 1.98383,6.73323 1.19031,-10.77314 -3.17414,-4.03994 2.38058,-2.01994 -1.98383,-6.05996 2.77739,2.69326 -2.38064,-11.44643"
       id="path3893"
       inkscape:connector-curvature="0" />
    <ellipse
       style="fill:#ffffff;fill-opacity:1;stroke:#000000;stroke-width:2.32767177;stroke-opacity:1"
       id="path3568-8"
       cx="302.74722"
       cy="310.52951"
       rx="4.0873094"
       ry="4.4383268" />
    <path
       style="fill:none;fill-rule:evenodd;stroke:#000000;stroke-width:2.7799139px;stroke-linecap:butt;stroke-linejoin:miter;stroke-opacity:1"
       d="m 402.61161,310.79276 c 0,0 2.80813,2.10612 5.61626,0.70204 2.80816,-1.40408 3.20304,-1.84283 3.20304,-1.84283"
       id="path3585"
       inkscape:connector-curvature="0"
       sodipodi:nodetypes="csc" />
    <path
       style="fill:none;fill-rule:evenodd;stroke:#000000;stroke-width:2.7799139px;stroke-linecap:butt;stroke-linejoin:miter;stroke-opacity:1"
       d="m 403.91191,317.75044 c 0,0 3.82386,0.84971 5.42829,0.613 4.61126,-0.6803 6.91626,-3.64694 6.91626,-3.64694"
       id="path3585-8"
       inkscape:connector-curvature="0"
       sodipodi:nodetypes="csc" />
    <path
       style="fill:none;fill-rule:evenodd;stroke:#000000;stroke-width:2.7799139px;stroke-linecap:butt;stroke-linejoin:miter;stroke-opacity:1"
       d="m 399.39258,306.25464 c 0,0 4.4261,1.65788 7.37136,0.57041 2.85202,-1.05306 4.38773,-4.69483 4.38773,-4.69483"
       id="path3585-0"
       inkscape:connector-curvature="0"
       sodipodi:nodetypes="csc" />
    <path
       style="fill:none;fill-rule:evenodd;stroke:#000000;stroke-width:2.7799139px;stroke-linecap:butt;stroke-linejoin:miter;stroke-opacity:1"
       d="m 288.81031,306.95665 c 0,0 -6.3183,0.87756 -9.12643,-0.52652 -2.80816,-1.40407 -3.6857,-3.33464 -3.6857,-3.33464"
       id="path3585-9"
       inkscape:connector-curvature="0"
       sodipodi:nodetypes="csc" />
    <path
       style="fill:none;fill-rule:evenodd;stroke:#000000;stroke-width:2.7799139px;stroke-linecap:butt;stroke-linejoin:miter;stroke-opacity:1"
       d="m 284.5981,311.51991 c 0,0 -2.63261,2.28164 -5.44074,0.87756 -2.80816,-1.40408 -3.68569,-2.45714 -3.68569,-2.45714"
       id="path3585-9-8"
       inkscape:connector-curvature="0"
       sodipodi:nodetypes="csc" />
    <path
       style="fill:none;fill-rule:evenodd;stroke:#000000;stroke-width:2.7799139px;stroke-linecap:butt;stroke-linejoin:miter;stroke-opacity:1"
       d="m 284.5981,318.01373 c 0,0 -5.90649,2.86501 -10.70601,0.35102 l -3.68569,-1.9306"
       id="path3585-9-5"
       inkscape:connector-curvature="0"
       sodipodi:nodetypes="csc" />
    <path
       style="fill:#f4e3d7;fill-rule:evenodd;stroke:#917c6f;stroke-width:2.7799139px;stroke-linecap:butt;stroke-linejoin:miter;stroke-opacity:1"
       d="m 433.74681,309.89774 c 0,0 5.89712,1.96568 7.86279,1.96568 1.96571,0 9.8285,-7.37136 9.8285,-7.37136 0,0 -1.96571,7.86279 -5.89709,11.79417 -3.93141,3.93141 -12.77704,5.89709 -12.77704,5.89709 0,0 8.35423,1.47427 12.77704,-0.98284 4.42282,-2.45711 8.84563,-9.82847 8.84563,-9.82847 0,0 -2.45714,12.28558 -7.86279,16.21699 -5.40565,3.93138 -14.74272,5.89709 -14.74272,5.89709 0,0 9.82847,0.98284 13.75988,-0.49143 3.93138,-1.47428 6.87993,-7.37136 6.87993,-7.37136 0,0 0,10.3199 -8.3542,13.26844 -8.35422,2.94855 -18.18269,3.43998 -18.18269,3.43998 0,0 6.87992,3.43998 9.82847,2.45711 2.94854,-0.98284 6.87995,-2.94854 6.87995,-2.94854 0,0 -6.87995,6.38852 -13.26847,6.87995 -6.3885,0.49141 -12.77702,2.94854 -12.77702,2.94854"
       id="path3895"
       inkscape:connector-curvature="0" />
    <path
       style="fill:#f4e3d7;fill-rule:evenodd;stroke:#917c6f;stroke-width:2.7799139px;stroke-linecap:butt;stroke-linejoin:miter;stroke-opacity:1"
       d="m 256.52909,311.86192 c 0,0 -5.89712,1.96568 -7.8628,1.96568 -1.9657,0 -9.82849,-7.37136 -9.82849,-7.37136 0,0 1.9657,7.86279 5.89708,11.79417 3.93141,3.93141 12.77704,5.89709 12.77704,5.89709 0,0 -8.35422,1.47427 -12.77704,-0.98284 -4.42281,-2.45711 -8.84563,-9.82847 -8.84563,-9.82847 0,0 2.45714,12.28558 7.8628,16.21699 5.40565,3.93138 14.74271,5.89709 14.74271,5.89709 0,0 -9.82847,0.98283 -13.75988,-0.49144 -3.93138,-1.47427 -6.87992,-7.37136 -6.87992,-7.37136 0,0 0,10.31991 8.3542,13.26845 8.35422,2.94854 18.18269,3.43998 18.18269,3.43998 0,0 -6.87993,3.43997 -9.82847,2.45711 -2.94854,-0.98284 -6.87995,-2.94855 -6.87995,-2.94855 0,0 6.87995,6.38852 13.26847,6.87996 6.38849,0.4914 12.77701,2.94854 12.77701,2.94854"
       id="path3895-9"
       inkscape:connector-curvature="0" />
    <path
       style="fill:#502d16;fill-rule:evenodd;stroke:#502d16;stroke-width:2.7799139px;stroke-linecap:butt;stroke-linejoin:miter;stroke-opacity:1"
       d="m 279.43969,484.84464 19.16553,0 -1.47427,23.58835 c 0,0 0.49143,0.98286 -7.86276,5.89708 -8.35423,4.91425 -10.81134,1.96571 -10.81134,1.96571"
       id="path3913"
       inkscape:connector-curvature="0" />
    <path
       style="fill:none;fill-rule:evenodd;stroke:#502d16;stroke-width:2.7799139px;stroke-linecap:butt;stroke-linejoin:miter;stroke-opacity:1"
       d="m 299.09665,483.8618 c 0,0 34.89112,-15.72558 51.10811,-37.34822 16.21699,-21.62267 43.24531,-70.76507 43.24531,-70.76507"
       id="path3915"
       inkscape:connector-curvature="0" />
    <path
       style="fill:none;fill-rule:evenodd;stroke:#502d16;stroke-width:3.05316997px;stroke-linecap:butt;stroke-linejoin:miter;stroke-opacity:1"
       d="m 296.8606,490.81314 c 0,0 38.64236,-17.12763 56.60288,-40.67806 17.96053,-23.55048 47.89475,-77.07428 47.89475,-77.07428"
       id="path3915-2"
       inkscape:connector-curvature="0" />
    <path
       style="fill:#502d16;fill-opacity:1;stroke:#502d16;stroke-width:0.49142396;stroke-opacity:1"
       d=""
       id="path3932"
       inkscape:connector-curvature="0" />
    <path
       style="fill:#502d16;fill-opacity:1;stroke:#502d16;stroke-width:0.49142396;stroke-opacity:1"
       d="m 278.42232,517.66208 c -0.57994,-0.33693 -0.72361,-0.65462 -0.38946,-0.86114 0.44642,-0.27604 1.54374,-22.11149 1.55211,-30.8862 l 0.002,-2.08855 9.8285,0 c 7.7043,0 9.82846,-0.13733 9.82846,-0.63476 0,-0.34913 1.23873,-1.24229 2.75273,-1.98484 18.53858,-9.09218 36.97672,-22.59005 45.72366,-33.47255 7.12856,-8.86904 20.91516,-30.78543 36.53619,-58.08115 6.96093,-12.16335 8.31664,-14.2479 9.01281,-13.85829 0.45068,0.25214 0.81944,0.65881 0.81944,0.90355 0,0.61573 -14.07279,25.16342 -21.26887,37.10012 -11.91838,19.76991 -20.09831,31.92445 -25.52779,37.93176 -9.3429,10.33719 -24.80247,21.54244 -41.29108,29.92816 -5.90034,3.00075 -6.26565,3.27146 -6.26565,4.64296 0,0.80103 0.14733,1.45642 0.32764,1.45642 0.59426,0 12.11442,-6.20065 16.87218,-9.08136 5.90576,-3.57578 14.43771,-9.41596 18.90828,-12.94289 5.49119,-4.33208 13.33392,-12.2229 17.18432,-17.28965 9.80967,-12.90861 31.14732,-47.25345 46.389,-74.66721 0.5566,-1.00113 1.21383,-1.12194 2.19614,-0.40367 0.77342,0.56555 0.0595,1.97494 -7.9063,15.60933 -15.21216,26.03717 -20.82823,35.13906 -31.07949,50.3702 -9.6373,14.31889 -14.46509,19.74476 -25.23751,28.36394 -8.50506,6.80506 -22.73524,15.76211 -34.09144,21.45857 -3.683,1.84745 -4.05426,2.16461 -4.05426,3.46338 0,0.78633 -0.23768,4.81968 -0.52821,8.963 -0.59409,8.47301 -0.48215,8.22026 -5.0047,11.30004 -6.61942,4.50772 -12.5472,6.35358 -15.2887,4.76083 z"
       id="path3934"
       inkscape:connector-curvature="0" />
    <path
       style="fill:#502d16;fill-opacity:1;stroke:#502d16;stroke-width:0.49142396;stroke-opacity:1"
       d=""
       id="path3936"
       inkscape:connector-curvature="0" />
    <path
       style="fill:#502d16;fill-opacity:1;stroke:#502d16;stroke-width:0.49142396;stroke-opacity:1"
       d="m 278.30496,517.84978 c -0.37232,-0.24686 -0.42494,-1.36121 -0.16624,-3.51948 0.20821,-1.73714 0.51378,-7.48681 0.67885,-12.77702 0.16513,-5.29023 0.42413,-11.42603 0.5757,-13.63511 l 0.27548,-4.01648 9.17322,-0.16068 c 8.41897,-0.14733 9.29445,-0.24657 10.64751,-1.20506 0.81085,-0.57444 3.28116,-1.95022 5.48958,-3.05729 8.36843,-4.19503 20.66488,-12.05585 28.34164,-18.11809 5.15368,-4.06977 12.30662,-11.15165 15.57594,-15.42118 7.05901,-9.21862 21.9316,-33.09452 37.36318,-59.98151 5.27739,-9.19495 6.22401,-10.57788 6.96791,-10.17974 0.47348,0.25325 0.86086,0.7081 0.86086,1.01047 0,1.2784 -20.55577,36.47586 -30.3675,51.99804 -10.60846,16.78253 -16.18827,23.82739 -24.59401,31.05139 -8.95313,7.69441 -18.74788,14.252 -31.7748,21.2732 -5.72888,3.08771 -7.40636,4.21608 -7.5284,5.06392 -0.21183,1.47197 0.32836,1.38793 4.46924,-0.69534 10.09962,-5.0811 23.92903,-13.85142 31.80711,-20.17136 5.45914,-4.37942 13.31317,-12.29361 16.80663,-16.93537 9.11923,-12.11656 29.90556,-45.3059 42.656,-68.10836 4.12539,-7.37773 5.04785,-8.37872 6.31463,-6.85232 0.60369,0.72739 -2.70494,6.73854 -16.2782,29.57447 -13.41172,22.56414 -24.92565,40.24526 -31.81459,48.85543 -10.24214,12.8012 -24.56398,23.49069 -49.8724,37.22363 l -4.42282,2.39993 -0.60096,8.7935 c -0.58586,8.57281 -0.63521,8.8294 -1.9657,10.22364 -1.78254,1.86793 -7.79755,5.60828 -10.93777,6.80144 -2.47448,0.94026 -6.6505,1.2476 -7.68026,0.56527 z"
       id="path3938"
       inkscape:connector-curvature="0" />
    <path
       style="fill:#502d16;fill-opacity:1;stroke:#502d16;stroke-width:0.245712;stroke-opacity:1"
       d=""
       id="path3940"
       inkscape:connector-curvature="0" />
    <path
       style="fill:#502d16;fill-opacity:1;stroke:#502d16;stroke-width:0.245712;stroke-opacity:1"
       d="m 278.81688,518.2274 c -0.69757,-0.216 -1.43344,-0.98614 -1.19114,-1.24648 0.32303,-0.34708 0.72036,-7.50191 1.37656,-24.7878 0.14622,-3.85152 0.32008,-7.36213 0.38635,-7.80136 l 0.12037,-0.79855 6.56168,-0.0139 c 7.94458,-0.0167 11.93378,-0.26576 12.52679,-0.78069 0.23296,-0.2021 2.69007,-1.55694 5.46048,-3.01059 10.04825,-5.27235 18.63148,-10.6268 26.51568,-16.54118 7.4863,-5.6159 14.60133,-12.5748 19.26719,-18.84442 6.83072,-9.17858 20.45577,-31.117 35.17475,-56.63661 3.62448,-6.2841 6.73554,-11.66499 6.91345,-11.95757 0.38124,-0.62696 1.1406,-0.53589 1.99742,0.23963 l 0.55221,0.49971 -1.60385,3.04793 c -2.80877,5.33766 -12.77106,22.57418 -19.847,34.33872 -11.2842,18.7613 -19.28974,30.72474 -24.9249,37.24756 -8.54976,9.89658 -22.3231,20.11065 -40.23642,29.83862 -6.94986,3.77415 -7.98563,4.50421 -7.98563,5.62841 0,0.6386 0.78038,0.44498 3.4313,-0.8514 10.93318,-5.34658 27.10836,-15.76834 35.02261,-22.56529 3.33634,-2.86531 10.13053,-9.69397 12.57527,-12.63907 6.85207,-8.25445 26.00162,-38.18856 40.11338,-62.70429 8.78072,-15.25436 8.76534,-15.22934 9.41337,-15.3086 0.38179,-0.0467 0.89844,0.1693 1.3857,0.57931 l 0.77693,0.65375 -1.15511,2.12352 c -5.01996,9.22879 -17.62015,30.59173 -25.96211,44.01744 -10.78129,17.35158 -18.9795,29.20977 -24.61522,35.60441 -9.55248,10.83883 -24.40828,21.5222 -46.44046,33.39713 -2.29741,1.23826 -4.31106,2.339 -4.47477,2.44608 -0.20155,0.13204 -0.46008,2.52975 -0.80126,7.43457 -0.75038,10.78812 -0.64794,10.13304 -1.78695,11.42703 -1.81901,2.06651 -8.86632,6.37609 -12.2254,7.47613 -1.81967,0.59591 -5.14476,0.85272 -6.32141,0.48824 z"
       id="path3942"
       inkscape:connector-curvature="0" />
    <path
       style="fill:#502d16;fill-opacity:1;stroke:#502d16;stroke-width:0.245712;stroke-opacity:1"
       d="m 278.87261,518.30757 c -0.86213,-0.21016 -1.3805,-0.84617 -1.2454,-1.52831 0.22629,-1.14235 0.62418,-8.11054 0.99705,-17.46047 0.2021,-5.06781 0.43967,-10.67926 0.52793,-12.46989 l 0.1604,-3.25569 4.20279,-0.0139 c 7.50971,-0.025 13.99886,-0.36273 14.79003,-0.76923 16.09347,-8.26913 28.98894,-16.51939 38.0787,-24.36203 3.54061,-3.05482 9.62932,-9.27893 11.93734,-12.20285 6.76575,-8.57108 20.09288,-29.89797 37.67798,-60.29446 2.80571,-4.84981 5.32932,-9.24497 5.60797,-9.76706 0.27866,-0.52207 0.67283,-0.94923 0.87587,-0.94923 0.44988,0 1.99276,1.02159 1.99509,1.32101 0.003,0.50508 -6.90475,12.81246 -13.46515,23.98732 -2.10245,3.58125 -4.50113,7.67237 -5.33043,9.09135 -1.66217,2.84413 -6.39211,10.61704 -9.94306,16.33983 -3.37604,5.4409 -10.4468,16.03477 -12.95584,19.41125 -3.28772,4.42437 -5.5444,7.00939 -9.4449,10.81898 -8.57486,8.37502 -19.05822,15.7811 -34.28723,24.22261 -3.21956,1.78462 -6.42827,3.609 -7.13051,4.0542 -1.48859,0.9437 -2.26115,1.93843 -1.83583,2.36376 0.20627,0.20627 1.20654,-0.17986 3.89469,-1.50349 11.09005,-5.46067 26.44963,-15.42538 34.60045,-22.44744 4.34687,-3.74485 11.55618,-11.28487 14.31475,-14.97131 9.05918,-12.10639 25.49626,-38.20299 40.61206,-64.47843 6.18806,-10.7566 6.20266,-10.77915 7.02693,-10.85023 0.47084,-0.0406 0.94217,0.15206 1.42796,0.58359 l 0.72514,0.64419 -0.94698,1.75068 c -3.48056,6.43469 -17.06475,29.57194 -23.67675,40.32746 -10.05803,16.36104 -18.92395,29.56938 -24.79616,36.94102 -2.42175,3.04011 -9.20157,9.82185 -12.84412,12.84773 -8.70433,7.23078 -19.16133,14.07565 -33.76639,22.10257 -6.32266,3.47489 -6.7362,3.74446 -6.87289,4.4798 -0.0801,0.43036 -0.36584,3.82313 -0.63513,7.53952 -0.70743,9.76191 -0.60727,9.21352 -1.94366,10.64354 -2.31853,2.48099 -9.50002,6.66264 -12.96354,7.54846 -1.74929,0.4474 -4.21146,0.58743 -5.36924,0.30538 z"
       id="path3944"
       inkscape:connector-curvature="0" />
    <path
       style="fill:#502d16;fill-opacity:1;stroke:#502d16;stroke-width:0.245712;stroke-opacity:1"
       d="m 278.33412,518.19082 c -0.2962,-0.14317 -0.59857,-0.41674 -0.67199,-0.608 -0.0734,-0.19126 -0.0289,-1.69761 0.099,-3.3474 0.23018,-2.97009 0.4332,-7.08367 1.1105,-22.50318 0.19209,-4.37531 0.39563,-8.00134 0.45215,-8.05786 0.0564,-0.0564 3.29523,-0.15929 7.19714,-0.22795 3.90192,-0.069 8.09575,-0.22073 9.31963,-0.33718 l 2.22524,-0.21183 5.88324,-3.18186 c 22.64173,-12.24538 36.52034,-23.02928 46.02031,-35.75848 7.13259,-9.55717 22.73433,-34.90988 39.83397,-64.72996 1.46729,-2.55882 2.43145,-3.99248 2.68462,-3.9919 0.5261,10e-4 1.99214,0.90717 1.99214,1.23103 0,1.29525 -17.55702,31.61015 -28.45912,49.13901 -3.16677,5.09169 -9.05949,14.02175 -11.83615,17.93698 -9.99849,14.09833 -22.61966,24.38451 -45.82582,37.34781 -6.07542,3.3938 -7.06007,3.98812 -7.74926,4.67728 -0.57152,0.57155 -0.63363,1.22022 -0.11676,1.22022 0.69148,0 9.5879,-4.64613 14.37652,-7.5081 8.69098,-5.19427 17.78864,-11.4699 23.08955,-15.92732 2.648,-2.22666 9.61044,-9.17772 12.1589,-12.13903 7.49128,-8.70485 26.24197,-38.09029 43.85642,-68.73028 5.61273,-9.76328 5.73807,-9.95134 6.63226,-9.95134 0.40606,0 1.0334,0.26715 1.44986,0.6177 l 0.73409,0.61769 -1.16906,2.14657 c -2.77424,5.09391 -9.69131,16.96387 -18.07517,31.01772 -11.17102,18.72597 -22.60904,36.18506 -29.42469,44.91401 -2.57584,3.29895 -8.01741,8.93734 -11.97815,12.41135 -8.20466,7.19641 -18.9579,14.37974 -34.61871,23.12574 -3.56527,1.99108 -6.69117,3.74988 -6.94647,3.90842 -0.71105,0.44159 -0.86531,1.44008 -1.43008,9.25675 -0.28805,3.98667 -0.62903,7.65115 -0.75774,8.14331 -0.41252,1.57718 -2.99647,3.74849 -7.65753,6.43458 -2.84838,1.64151 -5.27861,2.70644 -7.0364,3.08343 -1.59187,0.3414 -4.64001,0.33125 -5.3624,-0.0167 l 0,0 z"
       id="path3946"
       inkscape:connector-curvature="0" />
    <path
       style="fill:#502d16;fill-opacity:1;stroke:#502d16;stroke-width:0.245712;stroke-opacity:1"
       d="m 300.37241,486.31788 c 0,-0.48256 1.69645,-1.58724 7.42715,-4.83644 23.89197,-13.54621 35.20764,-22.57923 45.41468,-36.25341 4.03212,-5.40176 13.43646,-19.93495 19.17253,-29.62874 1.1373,-1.92197 2.12311,-3.4941 2.19066,-3.49357 0.0675,5e-4 0.33376,0.1604 0.59154,0.35561 0.54503,0.41248 0.98923,-0.393 -5.21587,9.45818 -7.37275,11.70497 -15.42327,23.50951 -19.15878,28.09273 -1.92737,2.36473 -7.76638,8.37343 -11.08096,11.40298 -7.80686,7.13546 -25.90243,18.95028 -37.04288,24.18575 -2.15524,1.01283 -2.29807,1.0574 -2.29807,0.71691 z"
       id="path3948"
       inkscape:connector-curvature="0" />
    <path
       style="fill:#502d16;fill-opacity:1;stroke:#502d16;stroke-width:0.245712;stroke-opacity:1"
       d="m 278.00656,518.03739 -0.55192,-0.44692 0.27187,-4.16017 c 0.14956,-2.28812 0.49713,-9.41229 0.7724,-15.8315 0.27521,-6.41924 0.58256,-12.22417 0.6828,-12.89988 l 0.18237,-1.22856 5.89708,-0.0603 c 3.24341,-0.0331 7.43522,-0.1693 9.31513,-0.30223 l 3.41805,-0.24186 5.30474,-2.86973 c 12.78374,-6.91567 22.38122,-13.06065 30.22633,-19.35301 5.49431,-4.40683 12.54109,-11.60069 16.39029,-16.73241 6.9785,-9.30359 20.89322,-31.90251 39.71385,-64.49939 1.90777,-3.30421 2.45047,-4.06777 2.93342,-4.12737 0.68089,-0.084 1.91717,0.78502 1.91717,1.34765 0,0.46174 -2.27322,4.6481 -7.38,13.59105 -3.23641,5.66749 -10.74726,18.56068 -12.59621,21.62264 -0.33829,0.56024 -0.38755,0.75439 -0.14122,0.55704 0.30123,-0.24157 0.46967,-0.23601 0.82922,0.0278 0.43367,0.31711 0.42872,0.36698 -0.12815,1.28582 -1.19729,1.97577 -1.30701,2.17834 -1.04998,1.93874 0.58704,-0.54717 12.11943,-19.71759 18.25497,-30.34543 5.40101,-9.35549 6.88518,-11.861 7.3139,-12.34701 0.51748,-0.58662 1.56573,-0.54019 2.42,0.10703 0.38985,0.29542 0.74421,0.56115 0.78741,0.59048 0.26882,0.18264 -8.00104,14.53316 -18.81991,32.65779 -11.90314,19.94101 -23.42024,37.50078 -30.12414,45.92934 -2.45505,3.08665 -8.73819,9.51965 -12.3168,12.61055 -8.06117,6.9626 -18.84356,14.10103 -34.76824,23.01816 -3.31096,1.85401 -6.19732,3.57642 -6.4141,3.82758 -0.46866,0.54292 -0.53494,1.0803 -1.21223,9.82775 -0.59427,7.67495 -0.73312,8.18787 -2.65037,9.79113 -3.05944,2.55838 -9.33451,6.04998 -12.19615,6.78622 -2.1193,0.54525 -5.56912,0.50672 -6.28152,-0.0701 z m 22.61157,-31.35828 c 0,-0.0595 -0.11064,-0.17681 -0.24575,-0.2602 -0.1351,-0.0834 -0.24574,-0.0347 -0.24574,0.10841 0,0.14317 0.11064,0.2602 0.24574,0.2602 0.13511,0 0.24575,-0.0486 0.24575,-0.10841 z m 4.11569,-3.44373 c 1.11491,-0.63772 2.02711,-1.2116 2.02711,-1.27532 0,-0.0637 -0.0828,-0.07 -0.18431,-0.0139 -2.60364,1.44011 -5.49978,3.24408 -5.85964,3.64992 -0.27821,0.31374 0.03,0.17736 0.76112,-0.33704 0.67571,-0.47531 2.14075,-1.38595 3.25569,-2.02366 l 0,2e-5 z m 4.23853,-0.76518 c 0,-0.0675 -0.22128,-0.006 -0.49143,0.14011 -0.27021,0.14456 -0.49143,0.31827 -0.49143,0.38585 0,0.0676 0.221,0.006 0.49143,-0.1401 0.27021,-0.14456 0.49143,-0.3183 0.49143,-0.38588 z m 2.70283,-1.4696 c 0,-0.0676 -0.33173,0.0486 -0.73715,0.25826 -0.40542,0.2096 -0.73712,0.43647 -0.73712,0.50405 0,0.0676 0.3317,-0.0486 0.73712,-0.25825 0.40542,-0.20961 0.73715,-0.43648 0.73715,-0.50406 z m -3.19426,-0.006 c 0,-0.0676 -0.221,-0.006 -0.49143,0.14011 -0.27021,0.14456 -0.49141,0.31827 -0.49141,0.38585 0,0.0675 0.22101,0.006 0.49141,-0.1401 0.27021,-0.14456 0.49143,-0.3183 0.49143,-0.38588 z m 4.91425,-0.97817 c 0,-0.0675 -0.33173,0.0487 -0.73715,0.25826 -0.40542,0.2096 -0.73712,0.43647 -0.73712,0.50405 0,0.0675 0.3317,-0.0487 0.73712,-0.25825 0.40542,-0.20961 0.73715,-0.43648 0.73715,-0.50406 z m -3.19426,-0.006 c 0,-0.0676 -0.221,-0.006 -0.49143,0.1401 -0.27021,0.14456 -0.49144,0.31828 -0.49144,0.38585 0,0.0676 0.22128,0.006 0.49144,-0.1401 0.2702,-0.14456 0.49143,-0.31828 0.49143,-0.38585 z m 4.42281,-0.73713 c 0,-0.0675 -0.221,-0.006 -0.49143,0.14011 -0.27021,0.14456 -0.49143,0.3183 -0.49143,0.38585 0,0.0676 0.221,0.006 0.49143,-0.1401 0.27021,-0.14456 0.49143,-0.3183 0.49143,-0.38586 z m 1.22856,-0.73715 c 0,-0.0675 -0.22128,-0.006 -0.49143,0.14011 -0.27021,0.14456 -0.49141,0.31827 -0.49141,0.38585 0,0.0676 0.221,0.006 0.49141,-0.1401 0.2702,-0.14456 0.49143,-0.31828 0.49143,-0.38586 z m 5.52852,-3.37784 c 4.43969,-2.8272 10.28118,-6.92115 13.98975,-9.80454 5.15174,-4.00546 13.6091,-12.54775 17.45264,-17.62787 1.71626,-2.26844 7.44005,-10.42804 8.36606,-11.92633 1.05098,-1.70042 -0.24129,-0.0111 -2.34927,3.07138 -3.43339,5.02039 -5.94477,8.51051 -7.69102,10.68849 -2.19844,2.74192 -9.2959,10.01823 -12.3111,12.62134 -4.59306,3.9653 -11.54009,8.98869 -18.56277,13.42276 -2.09469,1.32257 -3.91912,2.51741 -4.05425,2.65518 -0.34362,0.35035 1.15694,-0.55129 5.15996,-3.10041 z m 13.42265,-11.1633 c 0.30563,-0.38972 0.29692,-0.39842 -0.0928,-0.0928 -0.23657,0.18542 -0.42999,0.37896 -0.42999,0.43 0,0.2021 0.20182,0.072 0.52279,-0.33724 z m 1.07436,-0.79856 c 0.24463,-0.27021 0.38943,-0.49143 0.32188,-0.49143 -0.0675,0 -0.323,0.22128 -0.5676,0.49143 -0.24463,0.27021 -0.38944,0.49141 -0.32189,0.49141 0.0675,0 0.323,-0.22101 0.56761,-0.49141 z m 1.47427,-1.22856 c 0.24463,-0.2702 0.38944,-0.49143 0.32188,-0.49143 -0.0676,0 -0.323,0.221 -0.5676,0.49143 -0.24463,0.27021 -0.38944,0.49141 -0.32189,0.49141 0.0676,0 0.323,-0.221 0.56761,-0.49141 z m 1.59711,-1.35142 c 0.31741,-0.33785 0.52182,-0.61428 0.45424,-0.61428 -0.0676,0 -0.38254,0.27632 -0.69993,0.61428 -0.31741,0.33784 -0.52181,0.61428 -0.45423,0.61428 0.0675,0 0.38254,-0.27633 0.69992,-0.61428 z m 2.33427,-2.08855 c 0.52785,-0.54056 0.90444,-0.98284 0.83686,-0.98284 -0.0675,0 -0.55473,0.44228 -1.08258,0.98284 -0.52782,0.54055 -0.90441,0.98284 -0.83686,0.98284 0.0676,0 0.55473,-0.44229 1.08258,-0.98284 z m 23.14309,-27.6426 c 1.64037,-2.47932 1.99798,-3.07603 1.6198,-2.70283 -0.24853,0.24519 -2.99361,4.33853 -3.37804,5.03709 -0.50684,0.92093 0.40884,-0.2947 1.75824,-2.33426 z m 3.63373,-5.63514 0.41535,-0.75338 -0.48565,0.59807 c -0.26715,0.32892 -0.67255,0.93705 -0.90097,1.3514 l -0.41535,0.75338 0.48565,-0.59807 c 0.26715,-0.32892 0.67255,-0.93705 0.90097,-1.3514 z m 1.8802,-2.96478 c 0.24129,-0.49143 0.24129,-0.49143 -0.15873,0 -0.22017,0.27021 -0.5087,0.71255 -0.64139,0.98284 -0.24129,0.49144 -0.24129,0.49144 0.15901,0 0.22017,-0.27021 0.50867,-0.71255 0.64139,-0.98284 z m 1.22855,-1.9657 c 0.2413,-0.49143 0.2413,-0.49143 -0.15901,0 -0.22017,0.27021 -0.50869,0.71257 -0.64138,0.98284 -0.2413,0.49143 -0.2413,0.49143 0.15873,0 0.22017,-0.27021 0.5087,-0.71255 0.64139,-0.98284 z m 1.19701,-1.84283 c 0.14455,-0.27021 0.20766,-0.49144 0.1401,-0.49144 -0.0676,0 -0.24129,0.22128 -0.38585,0.49144 -0.14455,0.2702 -0.20766,0.49143 -0.14011,0.49143 0.0676,0 0.2413,-0.221 0.38586,-0.49143 z m 1.22855,-1.96571 c 0.14456,-0.27021 0.20766,-0.4914 0.14011,-0.4914 -0.0675,0 -0.2413,0.221 -0.38585,0.4914 -0.14456,0.27021 -0.20766,0.49143 -0.14011,0.49143 0.0676,0 0.2413,-0.22128 0.38585,-0.49143 z"
       id="path3950"
       inkscape:connector-curvature="0" />
    <path
       style="fill:#502d16;fill-opacity:1;stroke:#502d16;stroke-width:0.245712;stroke-opacity:1"
       d="m 375.19749,412.24847 c -0.47592,-0.34799 -0.47589,-0.35841 0.003,-1.264 0.55498,-1.04972 0.95318,-1.28443 1.46226,-0.86191 0.30982,0.25714 0.31196,0.38705 0.0167,0.94889 -0.73176,1.38735 -0.95281,1.56307 -1.48075,1.17702 z"
       id="path3952"
       inkscape:connector-curvature="0" />
    <path
       style="fill:#502d16;fill-opacity:1;stroke:#502d16;stroke-width:0.245712;stroke-opacity:1"
       d="m 277.92995,517.93145 c -0.52991,-0.53096 -0.54453,-0.65989 -0.36929,-3.25567 0.10036,-1.48656 0.46386,-8.72893 0.80776,-16.09414 0.34391,-7.36522 0.69067,-13.80594 0.77062,-14.31272 l 0.14539,-0.92143 4.83121,-1.4e-4 c 2.65718,-8e-5 6.86244,-0.11564 9.34502,-0.25686 l 4.5138,-0.25687 5.43754,-2.97587 c 24.8566,-13.60359 37.98354,-24.06226 48.20201,-38.40415 6.02838,-8.46102 19.15408,-29.7034 31.80747,-51.47666 8.68806,-14.94996 8.55888,-14.74272 9.19008,-14.74272 0.70396,0 1.86861,0.87732 1.86861,1.40761 0,0.74455 -7.21015,13.62939 -15.5735,27.83053 -2.00368,3.40228 -2.99925,5.31502 -2.79829,5.37629 0.17152,0.0523 0.4811,0.24158 0.68784,0.42072 0.32692,0.28319 0.61172,-0.0653 2.18523,-2.67347 4.66792,-7.73751 10.58583,-17.7539 15.05513,-25.48175 2.69646,-4.66239 5.2135,-8.76821 5.59343,-9.1241 0.80576,-0.75469 1.52534,-0.71346 2.60745,0.14929 0.8551,0.68183 1.2647,-0.24992 -3.74999,8.52994 -11.65418,20.40446 -23.50528,39.88734 -32.62913,53.64141 -7.9078,11.92094 -11.46461,16.703 -16.08641,21.62787 -9.76195,10.40202 -20.33046,18.09496 -41.16811,29.9668 -7.93932,4.52328 -8.20336,4.69066 -8.45855,5.36187 -0.20933,0.55065 -0.43017,2.74486 -1.14222,11.35139 -0.46241,5.58902 -0.67087,6.18778 -2.75959,7.92604 -2.97375,2.47479 -9.4313,6.02146 -12.13535,6.66509 -0.63421,0.15095 -2.15958,0.27438 -3.38972,0.27438 -1.99217,0 -2.29693,-0.0603 -2.78839,-0.55287 z"
       id="path3954"
       inkscape:connector-curvature="0" />
    <path
       style="fill:#502d16;fill-opacity:1;stroke:#502d16;stroke-width:0.245712;stroke-opacity:1"
       d="m 277.79131,517.96289 c -0.50914,-0.47433 -0.54611,-0.66848 -0.40959,-2.14998 0.0826,-0.89572 0.36717,-6.16193 0.63251,-11.70274 0.67586,-14.11285 0.99285,-19.83955 1.12345,-20.2946 0.0981,-0.34226 1.05412,-0.41548 7.54077,-0.57783 11.95315,-0.29912 10.37527,0.0395 17.13647,-3.67808 9.81954,-5.39926 18.261,-10.61376 24.44581,-15.10077 8.54993,-6.20285 16.58299,-13.99214 22.16445,-21.49182 5.8357,-7.84136 19.12522,-29.3056 34.71028,-56.06152 3.54233,-6.08139 6.63196,-11.25534 6.86583,-11.49767 0.50455,-0.52287 1.38509,-0.29016 2.19616,0.58042 l 0.50169,0.5385 -1.00071,1.99512 c -1.33216,2.6559 -5.50145,10.04435 -12.03753,21.33172 -2.9499,5.09433 -5.36348,9.4377 -5.36348,9.65192 0,0.68625 0.77393,0.75068 1.29577,0.10786 0.55293,-0.68108 8.24556,-13.56757 15.09568,-25.28788 6.56163,-11.22671 6.71241,-11.46914 7.3434,-11.80682 0.66298,-0.35483 1.74295,-0.0139 2.45866,0.7776 0.5427,0.59968 0.5596,0.5626 -3.40233,7.4664 -20.03712,34.91539 -37.21415,61.96509 -46.26333,72.85359 -2.50623,3.01565 -8.89116,9.38716 -12.03322,12.00795 -7.60331,6.3419 -17.18715,12.76386 -29.73115,19.92236 -9.89516,5.64687 -10.66925,6.1514 -10.92197,7.11842 -0.12649,0.4837 -0.46314,3.69903 -0.74822,7.14513 -0.66793,8.07339 -0.8544,9.24363 -1.63628,10.26875 -1.29313,1.69536 -5.0804,4.27703 -9.54778,6.50842 -3.11957,1.55817 -4.43513,1.89695 -7.36661,1.89695 -2.19713,0 -2.55468,-0.0611 -3.04873,-0.52142 z"
       id="path3956"
       inkscape:connector-curvature="0" />
    <path
       style="fill:#502d16;fill-opacity:1;stroke:#502d16;stroke-width:0.245712;stroke-opacity:1"
       d="m 279.20765,518.50256 c -1.91653,-0.26493 -2.02308,-0.46436 -1.84614,-3.45463 0.084,-1.42095 0.43425,-8.33324 0.77815,-15.36058 0.34388,-7.02737 0.70479,-13.55102 0.80198,-14.497 l 0.1768,-1.71999 5.77425,-0.17819 c 3.17582,-0.0981 7.34653,-0.27958 9.26826,-0.40339 4.08277,-0.26298 3.98183,-0.2249 11.12582,-4.20332 13.2168,-7.36035 23.12299,-13.94744 30.59115,-20.34149 3.0584,-2.61854 8.92619,-8.53403 11.39192,-11.4846 6.28674,-7.52284 18.1284,-26.32206 38.37112,-60.9162 3.15656,-5.39447 5.97837,-10.08613 6.27065,-10.42595 0.48963,-0.56919 0.59087,-0.59321 1.28654,-0.30504 1.19784,0.49616 1.58878,1.05831 1.2873,1.85123 -0.44028,1.15803 -4.51683,8.48154 -10.8127,19.42501 -7.17156,12.46557 -7.53109,13.14312 -7.11163,13.40235 0.16846,0.10397 0.44406,0.13622 0.61264,0.0717 0.30857,-0.11842 7.73297,-12.44417 15.5902,-25.88239 7.21221,-12.33506 6.85421,-11.79417 7.80672,-11.79417 0.75636,0 2.26374,0.90553 2.26374,1.35991 0,0.62912 -0.58353,1.70303 -6.40414,11.78569 -18.05891,31.28223 -34.06398,56.44721 -42.79013,67.27945 -2.65488,3.29564 -9.88273,10.52097 -13.58514,13.5804 -7.62513,6.30096 -15.81643,11.72104 -30.60226,20.2492 -7.46201,4.30395 -8.97225,5.26274 -9.19215,5.83579 -0.0867,0.22629 -0.42921,3.40128 -0.76086,7.05556 -0.69612,7.67031 -0.80198,8.57768 -1.12339,9.62854 -0.46057,1.50571 -4.07129,4.33808 -8.84913,6.94144 -3.79367,2.06715 -7.30392,2.91783 -10.31946,2.5009 z"
       id="path3958"
       inkscape:connector-curvature="0" />
    <path
       style="fill:#502d16;fill-opacity:1;stroke:#502d16;stroke-width:0.245712;stroke-opacity:1"
       d="m 376.84887,409.18523 c 0.0645,-0.24686 3.32453,-6.07937 7.24446,-12.96132 8.90203,-15.62871 10.64454,-18.82252 10.73563,-19.67696 0.0628,-0.58886 0.23324,-0.72147 1.27465,-0.99126 0.6612,-0.17124 1.27264,-0.28608 1.35874,-0.25519 0.0862,0.0311 -1.33806,2.59955 -3.16482,5.70783 -14.533,24.72808 -18.01885,30.35716 -17.44866,28.17676 z"
       id="path3960"
       inkscape:connector-curvature="0" />
    <path
       style="fill:#cccccc;fill-rule:evenodd;stroke:#000000;stroke-width:2.7799139px;stroke-linecap:butt;stroke-linejoin:miter;stroke-opacity:1"
       d="m 305.3293,472.3382 16.67949,-13.20459 12.50961,16.67948 -19.4594,14.59455 z"
       id="path3963"
       inkscape:connector-curvature="0"
       sodipodi:nodetypes="ccccc" />
    <path
       style="fill:#cccccc;fill-rule:evenodd;stroke:#000000;stroke-width:2.7799139px;stroke-linecap:butt;stroke-linejoin:miter;stroke-opacity:1"
       d="m 333.12844,450.79387 15.28953,15.9845 14.59455,-20.15438 -17.37447,-11.11965 z"
       id="path3965"
       inkscape:connector-curvature="0" />
    <path
       style="fill:#cccccc;fill-rule:evenodd;stroke:#000000;stroke-width:2.7799139px;stroke-linecap:butt;stroke-linejoin:miter;stroke-opacity:1"
       d="m 351.89286,429.24953 17.37446,11.81464 9.7297,-20.15438 -18.06944,-10.42467 z"
       id="path3967"
       inkscape:connector-curvature="0"
       sodipodi:nodetypes="ccccc" />
    <path
       style="fill:#cccccc;fill-rule:evenodd;stroke:#000000;stroke-width:2.7799139px;stroke-linecap:butt;stroke-linejoin:miter;stroke-opacity:1"
       d="m 368.57234,402.14537 19.4594,13.20459 8.33974,-20.15437 -17.37446,-9.7297 z"
       id="path3969"
       inkscape:connector-curvature="0"
       sodipodi:nodetypes="ccccc" />
  </g>
</svg>
