<?xml version="1.0" encoding="UTF-8" standalone="no"?>
<!-- Created with Inkscape (http://www.inkscape.org/) -->

<svg
   xmlns:dc="http://purl.org/dc/elements/1.1/"
   xmlns:cc="http://creativecommons.org/ns#"
   xmlns:rdf="http://www.w3.org/1999/02/22-rdf-syntax-ns#"
   xmlns:svg="http://www.w3.org/2000/svg"
   xmlns="http://www.w3.org/2000/svg"
   xmlns:sodipodi="http://sodipodi.sourceforge.net/DTD/sodipodi-0.dtd"
   xmlns:inkscape="http://www.inkscape.org/namespaces/inkscape"
   width="210mm"
   height="297mm"
   viewBox="0 0 744.09448819 1052.3622047"
   id="svg4757"
   version="1.1"
   inkscape:version="0.91 r13725"
   sodipodi:docname="kelsikenobi.svg">
  <defs
     id="defs4759">
    <inkscape:path-effect
       effect="spiro"
       id="path-effect4241-5-3"
       is_visible="true" />
    <inkscape:path-effect
       effect="spiro"
       id="path-effect4265-5-1"
       is_visible="true" />
    <inkscape:path-effect
       effect="spiro"
       id="path-effect4257-8-6"
       is_visible="true" />
  </defs>
  <sodipodi:namedview
     id="base"
     pagecolor="#ffffff"
     bordercolor="#666666"
     borderopacity="1.0"
     inkscape:pageopacity="0.0"
     inkscape:pageshadow="2"
     inkscape:zoom="0.35"
     inkscape:cx="325"
     inkscape:cy="520"
     inkscape:document-units="px"
     inkscape:current-layer="layer1"
     showgrid="false"
     inkscape:window-width="1280"
     inkscape:window-height="697"
     inkscape:window-x="-8"
     inkscape:window-y="-8"
     inkscape:window-maximized="1" />
  <metadata
     id="metadata4762">
    <rdf:RDF>
      <cc:Work
         rdf:about="">
        <dc:format>image/svg+xml</dc:format>
        <dc:type
           rdf:resource="http://purl.org/dc/dcmitype/StillImage" />
        <dc:title></dc:title>
      </cc:Work>
    </rdf:RDF>
  </metadata>
  <g
     inkscape:label="Layer 1"
     inkscape:groupmode="layer"
     id="layer1">
    <path
       style="display:inline;fill:#ac9393;fill-rule:evenodd;stroke:#000000;stroke-width:6.74945402px;stroke-linecap:butt;stroke-linejoin:miter;stroke-opacity:1"
       d="m 270.8354,433.48227 c -23.85007,-0.70909 -51.45137,11.77206 -61.15507,21.349 -35.16073,30.07531 -46.61056,102.9156 -52.1333,135.96375 -2.59253,18.72783 -5.92217,27.29723 0.92206,44.98126 6.00748,11.82416 13.95858,5.69722 25.7202,5.05913 14.91286,-3.744 16.82726,-15.02821 22.54578,-27.17722 12.77997,-22.51631 13.14653,-57.55805 32.27468,-78.95793 0,0 -7.48353,87.3784 -6.13266,92.61309 -7.56096,35.14621 -15.88188,64.35874 -18.39944,80.02063 -2.51059,15.64355 -7.724,70.23233 -1.01012,78.78955 6.7139,8.55716 25.3857,20.98926 42.688,21.22898 17.3023,0.23962 36.80956,-1.19437 43.70946,-10.21347 6.89998,-9.01915 10.16433,-32.56853 17.66393,-44.48968 0,0 12.92811,40.73529 25.18322,48.79468 12.25514,8.0594 19.62985,2.1709 33.01711,2.28496 13.38733,0.11398 22.99195,-2.48758 35.87321,-13.3045 12.88127,-10.81703 19.50214,-47.5605 15.82187,-71.02162 -3.68028,-23.46116 -8.8544,-52.57593 -15.72663,-84.93228 -5.3478,-25.17911 0.63378,-80.20212 0.78206,-93.55814 0,0 13.75033,63.37033 24.15535,80.56032 6.85501,11.85291 13.55965,22.82456 24.86754,28.06246 9.55433,2.69615 19.35502,2.09956 26.13348,-3.23346 8.84545,-10.69937 5.90187,-38.06442 4.64471,-50.2071 C 486.5517,542.1104 491.38519,490.15473 451.32272,453.51972 438.9592,442.2139 418.55347,439.68684 403.78599,431.77486"
       id="path4248-1"
       inkscape:connector-curvature="0"
       sodipodi:nodetypes="ccccccccczzzczzzzscccccsc" />
    <path
       style="display:inline;fill:#f3bfad;fill-rule:evenodd;stroke:#000000;stroke-width:6.74945402px;stroke-linecap:butt;stroke-linejoin:miter;stroke-opacity:1"
       d="m 265.373,250.17034 c 18.38213,-15.75895 41.05659,-26.46082 64.90668,-30.6346 23.8501,-4.17377 48.81136,-1.80817 71.45279,6.77165 23.94933,9.07544 45.3413,25.22523 59.71523,46.42249 14.37394,21.19727 21.48788,47.43416 18.69154,72.89225 -1.99931,18.20186 -9.00062,35.82905 -20.03508,50.44226 -11.03445,14.61321 -26.0718,26.17238 -43.03112,33.07792 -49.64025,27.78238 -113.42333,28.44679 -163.63155,1.70451 -16.38679,-8.72806 -31.43632,-20.25228 -43.04621,-34.74078 -11.60988,-14.4885 -19.67657,-32.03102 -21.72457,-50.48398 -2.50188,-22.54247 4.31802,-45.97754 18.52512,-63.65749 14.20711,-17.67994 35.62464,-29.38478 58.17717,-31.79423 z"
       id="path4239-4"
       inkscape:path-effect="#path-effect4241-5-3"
       inkscape:original-d="m 265.373,250.17034 c 48.38906,-28.41268 92.51408,-49.97396 136.35947,-23.86295 0,0 80.11129,54.54396 78.40677,119.31474 -1.70448,64.77079 -63.0662,83.52018 -63.0662,83.52018 -58.83832,26.1386 -127.06717,15.659 -163.63155,1.70451 0,0 -63.06626,-20.45396 -64.77078,-85.22476 -1.7045,-64.77071 76.70229,-95.45172 76.70229,-95.45172 z"
       inkscape:connector-curvature="0"
       sodipodi:nodetypes="ccsccsc" />
    <path
       style="display:inline;fill:none;fill-rule:evenodd;stroke:#000000;stroke-width:7.23825693px;stroke-linecap:butt;stroke-linejoin:miter;stroke-opacity:1"
       d="m 281.39094,323.73352 c 0,0 -7.09721,-2.47164 -8.11104,-9.06289"
       id="path4343-3-2-3"
       inkscape:connector-curvature="0" />
    <ellipse
       style="display:inline;fill:#000000;fill-opacity:1;stroke:#000000;stroke-width:7.60197353;stroke-opacity:1"
       id="path4326-4"
       cx="397.27603"
       cy="339.41589"
       rx="11.718264"
       ry="13.209696" />
    <ellipse
       style="display:inline;fill:#000000;fill-opacity:1;stroke:#000000;stroke-width:7.64108515;stroke-opacity:1"
       id="path4326-1-1"
       cx="283.91605"
       cy="336.77731"
       rx="11.485644"
       ry="13.616262" />
    <path
       style="display:inline;fill:none;fill-rule:evenodd;stroke:#000000;stroke-width:8.0368948px;stroke-linecap:butt;stroke-linejoin:miter;stroke-opacity:1"
       d="m 408.45534,331.55567 c 0,0 9.78812,-2.20942 11.18633,-8.10145"
       id="path4343-5"
       inkscape:connector-curvature="0" />
    <path
       style="display:inline;fill:none;fill-rule:evenodd;stroke:#000000;stroke-width:7.23825693px;stroke-linecap:butt;stroke-linejoin:miter;stroke-opacity:1"
       d="m 401.90842,326.28077 c 0,0 7.09719,-2.47166 8.11102,-9.0629"
       id="path4343-3-23"
       inkscape:connector-curvature="0" />
    <path
       style="display:inline;fill:none;fill-rule:evenodd;stroke:#000000;stroke-width:8.0368948px;stroke-linecap:butt;stroke-linejoin:miter;stroke-opacity:1"
       d="m 273.55022,329.0315 c 0,0 -9.78812,-2.20942 -11.18635,-8.10142"
       id="path4343-8-7"
       inkscape:connector-curvature="0" />
    <ellipse
       style="display:inline;fill:#dcc078;fill-opacity:1;stroke:#000000;stroke-width:6.74945402;stroke-opacity:1"
       id="path4394-0"
       ry="8.5224724"
       rx="8.0963488"
       cy="368.19455"
       cx="337.01373" />
    <path
       style="display:inline;fill:#f3bfad;fill-opacity:1;stroke:#000000;stroke-width:0.42612368;stroke-opacity:1"
       d="m 463.78938,648.07743 c -3.45689,-0.7905 -6.74373,-2.90368 -11.0023,-7.07376 -3.80643,-3.72726 -8.47211,-9.88477 -7.68802,-10.14611 0.24298,-0.081 2.12284,0.0607 4.1773,0.31116 11.34468,1.39131 26.5215,-0.35032 36.89603,-4.23408 1.36372,-0.51027 2.55668,-0.85111 2.65099,-0.75681 0.0944,0.0944 -0.0269,1.95389 -0.27066,4.13248 -0.84984,7.61191 -2.9558,13.57004 -5.41557,15.32152 -2.92265,2.08112 -5.55683,2.74758 -11.37572,2.87798 -3.47692,0.0777 -6.44533,-0.0829 -7.97192,-0.43198 z"
       id="path4267-5"
       inkscape:connector-curvature="0" />
    <path
       style="display:inline;fill:#f3bfad;fill-rule:evenodd;stroke:#000000;stroke-width:6.74945402px;stroke-linecap:butt;stroke-linejoin:miter;stroke-opacity:1"
       d="m 439.39064,624.46961 c 8.98358,2.48517 18.41134,3.35542 27.69805,2.55675 9.28339,-0.79839 18.42091,-3.26408 26.84576,-7.24412"
       id="path4263-0"
       inkscape:path-effect="#path-effect4265-5-1"
       inkscape:original-d="m 439.39064,624.46961 c 0,0 3.40902,4.2612 27.69805,2.55675 24.289,-1.7045 26.84576,-7.24412 26.84576,-7.24412"
       inkscape:connector-curvature="0" />
    <path
       style="display:inline;fill:none;fill-rule:evenodd;stroke:#000000;stroke-width:6.74945402px;stroke-linecap:butt;stroke-linejoin:miter;stroke-opacity:1"
       d="m 153.05163,607.36594 c 7.33565,3.40201 15.0794,5.92302 23.01192,7.49163 8.68196,1.71681 17.58907,2.29146 26.41966,1.7045 l 0,0"
       id="path4255-4"
       inkscape:path-effect="#path-effect4257-8-6"
       inkscape:original-d="m 153.05163,607.36594 c 0,0 6.39306,3.65652 23.01192,7.49163 16.61885,3.83512 26.41966,1.7045 26.41966,1.7045 l 0,0"
       inkscape:connector-curvature="0" />
    <path
       style="display:inline;fill:#f1b6a1;fill-opacity:1;stroke:#000000;stroke-width:0.42612368;stroke-opacity:1"
       d="m 162.19443,638.18543 c -1.8129,-1.59173 -3.28226,-4.53994 -4.65772,-9.34557 -1.55068,-5.41777 -2.48926,-14.30491 -1.65004,-15.62404 0.22745,-0.35771 1.68905,-0.0203 5.21347,1.19919 9.82814,3.40327 19.83981,5.30575 30.66629,5.82728 l 5.98318,0.2882 -2.13086,4.34064 c -3.92415,7.99365 -8.99556,11.9771 -16.4516,12.92243 -1.83976,0.23354 -4.85766,0.71105 -6.7064,1.06176 -1.84873,0.35097 -4.57988,0.63783 -6.06923,0.63783 -2.41455,0 -2.86921,-0.14174 -4.19709,-1.30757 z"
       id="path4261-4"
       inkscape:connector-curvature="0" />
    <path
       style="display:inline;fill:#552200;fill-rule:evenodd;stroke:#000000;stroke-width:6.74945402px;stroke-linecap:butt;stroke-linejoin:miter;stroke-opacity:1"
       d="m 367.79129,209.90548 c 0,0 -9.36378,48.55975 -59.9847,50.97032 -50.62089,2.41051 -54.27222,-9.86661 -72.95375,5.80178 -18.68155,15.66837 -16.42784,48.00675 -11.86351,87.24545 8.72623,75.01855 17.76571,49.10542 8.72623,75.01855 -9.0394,25.91304 -29.5111,-34.77509 -29.5111,-34.77509 0,0 -11.32877,63.44433 -16.14991,49.58387 -4.82106,-13.86048 -18.69928,-59.84938 -13.87821,-86.96774 4.82106,-27.11835 -3.87271,-16.37003 -3.87271,-49.51472 0,-33.14462 5.89775,-62.7895 25.78454,-79.66312 19.88678,-16.87365 49.57959,-36.17026 62.83747,-38.58077 13.25789,-2.41048 79.54711,-19.2842 149.45213,1.20526 69.90512,20.48939 57.24988,21.09204 73.52087,34.95245 8.27024,7.045 29.04741,58.95438 15.78954,120.42259 -13.25783,61.46828 -7.09267,52.08623 1.34414,85.83349 8.43681,33.74725 -29.83907,-43.98591 -29.83907,-43.98591 0,0 7.26053,12.13368 -7.4383,44.19264 -19.2842,42.05989 -6.19175,-38.39278 -5.49466,-76.39511 1.30864,-71.33483 4.63195,-10.69375 -3.80486,-57.6989 -8.43683,-47.00511 -82.66414,-87.64504 -82.66414,-87.64504 z"
       id="path4398-1"
       inkscape:connector-curvature="0"
       sodipodi:nodetypes="csssscssssssssscsssc" />
    <path
       style="display:inline;fill:#ececec;fill-opacity:1;stroke:none;stroke-opacity:1"
       d=""
       id="path4262"
       inkscape:connector-curvature="0" />
    <path
       style="display:inline;fill:#ececec;fill-opacity:1;stroke:none;stroke-opacity:1"
       d=""
       id="path4264"
       inkscape:connector-curvature="0" />
    <path
       style="display:inline;fill:#ececec;fill-opacity:1;stroke:none;stroke-opacity:1"
       d=""
       id="path4270"
       inkscape:connector-curvature="0" />
    <path
       style="display:inline;fill:#e6e6e6;fill-opacity:1;stroke:none;stroke-opacity:1"
       d=""
       id="path4274"
       inkscape:connector-curvature="0" />
    <path
       style="display:inline;fill:#e6e6e6;fill-opacity:1;stroke:none;stroke-opacity:1"
       d=""
       id="path4276"
       inkscape:connector-curvature="0" />
    <path
       style="display:inline;fill:#e6e6e6;fill-opacity:1;stroke:none;stroke-opacity:1"
       d=""
       id="path4286"
       inkscape:connector-curvature="0" />
    <path
       style="display:inline;fill:none;fill-rule:evenodd;stroke:#000000;stroke-width:6.74945402px;stroke-linecap:butt;stroke-linejoin:miter;stroke-opacity:1"
       d="m 278.07451,736.63998 c 0,0 -3.40901,11.93149 39.20333,11.93149 42.61239,0 51.13487,-8.52246 51.13487,-8.52246"
       id="path3799"
       inkscape:connector-curvature="0" />
    <path
       style="display:inline;fill:none;fill-rule:evenodd;stroke:#000000;stroke-width:6.74945402px;stroke-linecap:butt;stroke-linejoin:miter;stroke-opacity:1"
       d="m 359.89023,450.28497 c 0,0 -28.9764,18.74944 -40.90788,44.31684 -11.93147,25.56739 -27.27192,92.04271 -27.27192,92.04271"
       id="path3801"
       inkscape:connector-curvature="0" />
    <path
       style="display:inline;fill:none;fill-rule:evenodd;stroke:#000000;stroke-width:6.74945402px;stroke-linecap:butt;stroke-linejoin:miter;stroke-opacity:1"
       d="m 279.77896,443.46694 c 0,0 20.45395,13.636 28.9764,27.27192 8.52248,13.636 8.52248,23.86295 8.52248,23.86295"
       id="path3803"
       inkscape:connector-curvature="0" />
    <path
       style="display:inline;fill:#f3bfad;fill-opacity:1;stroke:#f4e3d7;stroke-width:1.70449436;stroke-opacity:1"
       d="m 316.02764,475.90385 c -1.70896,-4.13187 -6.6385,-11.44017 -10.95449,-16.24063 l -7.84733,-8.72808 5.88816,1.31898 c 3.23854,0.72543 14.03717,1.77957 23.99701,2.34261 l 18.10891,1.02362 -13.04251,13.89807 -13.04252,13.89808 -3.10723,-7.51265 z"
       id="path3805"
       inkscape:connector-curvature="0" />
    <path
       style="display:inline;fill:none;fill-rule:evenodd;stroke:#000000;stroke-width:6.74945402px;stroke-linecap:butt;stroke-linejoin:miter;stroke-opacity:1"
       d="m 291.71043,611.78582 c 0,0 15.34045,10.65307 30.68093,8.94855 15.34044,-1.70448 24.8305,-5.71258 27.27192,-9.37464"
       id="path4613"
       inkscape:connector-curvature="0"
       sodipodi:nodetypes="csc" />
    <path
       style="display:inline;fill:none;fill-rule:evenodd;stroke:#000000;stroke-width:6.74945402px;stroke-linecap:butt;stroke-linejoin:miter;stroke-opacity:1"
       d="m 291.62242,630.39859 c 0,0 18.74944,5.96572 34.08994,4.2612 15.34044,-1.7045 28.97635,-7.67014 28.97635,-7.67014"
       id="path4613-1"
       inkscape:connector-curvature="0"
       sodipodi:nodetypes="csc" />
    <path
       style="display:inline;fill:#2b1100;fill-opacity:1;stroke:#f4e3d7;stroke-width:0.42612368;stroke-opacity:1"
       d="m 310.29513,630.80418 c -3.77883,-0.51771 -10.91049,-1.94724 -13.78367,-2.76344 -2.55063,-0.72463 -2.46286,-0.41712 -1.96026,-6.87318 l 0.272,-3.49163 1.96351,0.99501 c 9.12903,4.626 19.25146,6.56729 27.95992,5.36212 8.71843,-1.20656 16.56088,-3.27404 21.10752,-5.56454 l 2.36245,-1.19011 0.99675,3.61235 c 0.69176,2.50703 0.86076,3.74831 0.55211,4.05671 -0.68528,0.68525 -10.69673,3.65091 -16.45403,4.87412 -4.14632,0.88092 -6.62587,1.12472 -12.61764,1.24081 -4.10142,0.0797 -8.78088,-0.0336 -10.3988,-0.2585 z"
       id="path4630"
       inkscape:connector-curvature="0" />
    <path
       style="display:inline;fill:#552200;fill-rule:evenodd;stroke:#000000;stroke-width:6.74945402px;stroke-linecap:butt;stroke-linejoin:miter;stroke-opacity:1"
       d="m 361.59475,453.69398 c 0,0 -28.97634,97.15616 -10.22699,161.92694 18.74938,64.7708 0,0 18.74938,64.7708 6.91982,23.90469 -3.40894,81.81572 -3.40894,81.81572 0,0 17.04493,-8.52247 32.38536,0 15.34051,8.52249 18.74945,15.34043 28.97642,15.34043 10.22696,0 22.15847,-6.81794 22.15847,-6.81794 0,0 -13.63599,-85.22476 -17.04493,-109.08764 -3.40904,-23.86297 -20.45396,-97.15624 -23.86298,-114.20117 -3.40894,-17.04493 -1.70446,-44.31685 -8.52246,-63.06626 -6.81796,-18.74947 -17.04495,-40.90785 -17.04495,-40.90785"
       id="path3741"
       inkscape:connector-curvature="0"
       sodipodi:nodetypes="czscsscsssc" />
    <path
       style="display:inline;fill:#552200;fill-rule:evenodd;stroke:#000000;stroke-width:6.74945402px;stroke-linecap:butt;stroke-linejoin:miter;stroke-opacity:1"
       d="m 281.64538,444.19116 10.22698,112.49658 c 0,0 5.11353,64.77078 -11.93141,138.06405 -3.01547,12.9665 -3.40902,57.95284 -3.40902,57.95284 0,0 -10.22696,-1.70451 -25.5674,6.81794 -15.3405,8.52247 -25.56741,8.52247 -35.7944,8.52247 -10.22696,0 -22.15843,-6.81795 -22.15843,-6.81795 0,0 13.63598,-85.22473 17.04495,-109.08763 3.409,-23.86295 20.45393,-97.15622 23.86295,-114.20117 3.40893,-17.04493 1.70443,-44.31683 8.52245,-63.06628 6.81797,-18.74944 17.04493,-40.90784 17.04493,-40.90784"
       id="path3741-5"
       inkscape:connector-curvature="0"
       sodipodi:nodetypes="ccscsscsssc" />
    <path
       style="display:inline;fill:none;fill-rule:evenodd;stroke:#000000;stroke-width:6.74945402px;stroke-linecap:butt;stroke-linejoin:miter;stroke-opacity:1"
       d="m 329.20933,780.95689 c 0,0 0,3.40894 39.20338,3.40894 39.20331,0 47.72585,-8.52246 47.72585,-8.52246"
       id="path3758"
       inkscape:connector-curvature="0" />
    <path
       style="display:inline;fill:none;fill-rule:evenodd;stroke:#000000;stroke-width:6.74945402px;stroke-linecap:butt;stroke-linejoin:miter;stroke-opacity:1"
       d="m 308.75536,779.25239 c 0,0 -13.63592,10.22696 -47.72585,8.52247 -34.08987,-1.70451 -51.1348,-10.22699 -51.1348,-10.22699"
       id="path3760"
       inkscape:connector-curvature="0" />
    <path
       style="display:inline;fill:#2b1100;fill-opacity:1;stroke:#502d16;stroke-width:1.70449436;stroke-opacity:1"
       d="m 345.21187,797.40808 c -2.58398,-2.04049 -5.43735,-5.09124 -6.34085,-6.77943 -1.5469,-2.89038 -0.57639,-3.02005 16.62959,-2.223 15.88693,0.73589 34.60504,-0.67493 52.3622,-3.9458 l 5.11352,-0.94201 -5.11352,4.3914 c -9.77793,8.39713 -17.52012,10.83092 -38.35108,12.05602 -18.47974,1.08677 -19.87068,0.94044 -24.29986,-2.55718 z"
       id="path3762"
       inkscape:connector-curvature="0" />
    <path
       style="display:inline;fill:#2b1100;fill-opacity:1;stroke:#502d16;stroke-width:1.70449436;stroke-opacity:1"
       d="m 239.0877,799.10638 c -8.03232,-3.17651 -23.91182,-15.01706 -17.42369,-12.99203 14.74153,4.60104 50.88209,6.662 69.11318,3.94126 8.74387,-1.30491 8.98487,-1.23411 7.19358,2.11294 -3.64465,6.81005 -11.62055,9.29048 -31.58098,9.8214 -15.49693,0.41238 -20.23311,-0.0877 -27.30209,-2.88357 z"
       id="path3764"
       inkscape:connector-curvature="0" />
    <path
       style="display:inline;fill:#552200;fill-opacity:1;stroke:#502d16;stroke-width:1.70449436;stroke-opacity:1"
       d="m 445.36167,622.06011 c -4.57961,-1.01121 -5.68068,-2.64039 -10.54628,-15.60468 -2.98805,-7.96158 -8.33219,-26.17261 -11.87579,-40.46911 -3.83243,-15.46143 -7.26984,-25.99349 -8.48381,-25.99349 -1.32012,0 -2.40712,-4.66549 -3.07782,-13.20982 -2.09158,-26.64535 -4.69113,-38.77049 -12.33346,-57.52673 -4.20181,-10.31216 -7.77166,-19.77585 -7.93313,-21.03044 -0.16808,-1.30865 3.53309,-3.72527 8.68319,-5.66918 l 8.97669,-3.38823 11.47726,3.74775 c 17.91668,5.85042 27.48182,11.7803 36.52406,22.643 18.81071,22.59786 24.27177,42.27696 29.42843,106.04687 3.77839,46.72572 3.81486,46.13651 -2.99028,48.38246 -6.93278,2.28799 -30.92257,3.6011 -37.84906,2.0716 z"
       id="path3766"
       inkscape:connector-curvature="0" />
    <path
       style="display:inline;fill:#552200;fill-opacity:1;stroke:#502d16;stroke-width:1.70449436;stroke-opacity:1"
       d="m 182.01731,612.11027 c -2.34367,-0.39149 -8.35448,-1.86163 -13.3573,-3.26735 l -9.09611,-2.55582 1.1605,-8.85809 c 2.50107,-19.09085 11.21874,-59.58845 16.26646,-75.56514 10.98588,-34.77158 26.54498,-59.48299 44.06878,-69.99114 8.55287,-5.12873 29.02941,-13.12129 30.31716,-11.83355 0.32329,0.32329 -1.65903,5.87888 -4.40525,12.34574 -9.79663,23.06937 -12.05418,32.37417 -14.6083,60.20892 -2.05589,22.4052 -3.25379,28.76286 -6.70149,35.56651 -2.30891,4.55647 -7.38296,18.93087 -11.27547,31.94306 -9.79537,32.74397 -10.09585,33.23762 -20.05514,32.9505 -4.42892,-0.12753 -9.97016,-0.55211 -12.31384,-0.94364 z"
       id="path3768"
       inkscape:connector-curvature="0" />
  </g>
</svg>
