<?xml version="1.0" encoding="UTF-8" standalone="no"?>
<!-- Created with Inkscape (http://www.inkscape.org/) -->

<svg
   xmlns:dc="http://purl.org/dc/elements/1.1/"
   xmlns:cc="http://creativecommons.org/ns#"
   xmlns:rdf="http://www.w3.org/1999/02/22-rdf-syntax-ns#"
   xmlns:svg="http://www.w3.org/2000/svg"
   xmlns="http://www.w3.org/2000/svg"
   xmlns:sodipodi="http://sodipodi.sourceforge.net/DTD/sodipodi-0.dtd"
   xmlns:inkscape="http://www.inkscape.org/namespaces/inkscape"
   width="210mm"
   height="297mm"
   viewBox="0 0 744.09448819 1052.3622047"
   id="svg5483"
   version="1.1"
   inkscape:version="0.91 r13725"
   sodipodi:docname="mikeskywalker.svg">
  <defs
     id="defs5485" />
  <sodipodi:namedview
     id="base"
     pagecolor="#ffffff"
     bordercolor="#666666"
     borderopacity="1.0"
     inkscape:pageopacity="0.0"
     inkscape:pageshadow="2"
     inkscape:zoom="0.35"
     inkscape:cx="72.142857"
     inkscape:cy="520"
     inkscape:document-units="px"
     inkscape:current-layer="layer1"
     showgrid="false"
     inkscape:window-width="1280"
     inkscape:window-height="697"
     inkscape:window-x="-8"
     inkscape:window-y="-8"
     inkscape:window-maximized="1" />
  <metadata
     id="metadata5488">
    <rdf:RDF>
      <cc:Work
         rdf:about="">
        <dc:format>image/svg+xml</dc:format>
        <dc:type
           rdf:resource="http://purl.org/dc/dcmitype/StillImage" />
        <dc:title></dc:title>
      </cc:Work>
    </rdf:RDF>
  </metadata>
  <g
     inkscape:label="Layer 1"
     inkscape:groupmode="layer"
     id="layer1">
    <path
       style="fill:none;fill-rule:evenodd;stroke:#000000;stroke-width:8.69949818px;stroke-linecap:butt;stroke-linejoin:miter;stroke-opacity:1"
       d="m 229.55085,993.84037 93.2088,6.21403"
       id="path4014"
       inkscape:connector-curvature="0" />
    <path
       style="fill:none;fill-rule:evenodd;stroke:#000000;stroke-width:8.69949818px;stroke-linecap:butt;stroke-linejoin:miter;stroke-opacity:1"
       d="m 502.96348,928.59435 c 0,0 -31.06966,24.8555 -77.67398,21.7486 -46.60448,-3.10688 -49.71138,-12.42794 -49.71138,-12.42794"
       id="path4087"
       inkscape:connector-curvature="0" />
    <path
       style="fill:none;fill-rule:evenodd;stroke:#000000;stroke-width:8.69949818px;stroke-linecap:butt;stroke-linejoin:miter;stroke-opacity:1"
       d="m 344.50845,941.0221 c -37.28363,9.32085 -31.06965,15.53483 -77.67416,9.32085 -46.60449,-6.21396 -55.92536,-12.42794 -55.92536,-12.42794"
       id="path4095"
       inkscape:connector-curvature="0" />
    <path
       style="display:inline;fill:#f3bfad;fill-opacity:1;fill-rule:evenodd;stroke:#000000;stroke-width:8.69949818px;stroke-linecap:butt;stroke-linejoin:miter;stroke-opacity:1"
       d="m 192.45558,364.60229 c 0,0 -0.67765,79.98786 81.59534,118.46568 L 429.254,483.5496 c 0,0 84.28501,-16.7936 92.3512,-126.63565 0,0 -2.57373,-118.75391 -80.78086,-130.49263 0,0 -108.11379,-17.54331 -164.82524,0.72058 -71.5735,31.54439 -89.1183,51.99203 -83.54352,137.46133 z"
       id="path4035"
       inkscape:connector-curvature="0"
       sodipodi:nodetypes="cccccccc" />
    <path
       style="display:inline;fill:none;fill-rule:evenodd;stroke:#000000;stroke-width:8.69949818px;stroke-linecap:butt;stroke-linejoin:miter;stroke-opacity:1"
       d="m 263.7274,506.04717 c 0,0 -152.24124,83.88795 -170.882966,251.66402 0,0 9.320856,74.56709 80.781046,-6.21396 l 59.03226,-71.4602"
       id="path4049"
       inkscape:connector-curvature="0" />
    <path
       style="display:inline;fill:none;fill-rule:evenodd;stroke:#000000;stroke-width:8.69949818px;stroke-linecap:butt;stroke-linejoin:miter;stroke-opacity:1"
       d="m 450.55832,507.2253 c 0,0 152.24124,83.88795 170.88297,251.66401 0,0 -9.32087,74.56709 -80.78105,-6.21377 l -59.03226,-71.46039"
       id="path4049-7"
       inkscape:connector-curvature="0" />
    <path
       style="display:inline;fill:none;fill-rule:evenodd;stroke:#000000;stroke-width:8.69949818px;stroke-linecap:butt;stroke-linejoin:miter;stroke-opacity:1"
       d="m 442.08778,481.26821 c 0,0 62.13915,183.31089 37.28345,208.16659 0,0 49.71138,304.48249 0,304.48249"
       id="path4010-5"
       inkscape:connector-curvature="0" />
    <path
       style="display:inline;fill:none;fill-rule:evenodd;stroke:#000000;stroke-width:8.95505714px;stroke-linecap:butt;stroke-linejoin:miter;stroke-opacity:1"
       d="m 322.87838,996.83487 36.31495,-74.36003 33.01355,74.36003 89.1366,0"
       id="path4016"
       inkscape:connector-curvature="0" />
    <path
       style="display:inline;fill:none;fill-rule:evenodd;stroke:#000000;stroke-width:8.69949818px;stroke-linecap:butt;stroke-linejoin:miter;stroke-opacity:1"
       d="m 328.97344,972.09175 c 0,0 -46.60432,6.21379 -80.78086,3.1069 -34.17676,-3.1069 -37.28365,-9.32086 -37.28365,-9.32086"
       id="path4097"
       inkscape:connector-curvature="0" />
    <path
       style="display:inline;fill:none;fill-rule:evenodd;stroke:#000000;stroke-width:8.69949818px;stroke-linecap:butt;stroke-linejoin:miter;stroke-opacity:1"
       d="m 269.94137,481.19147 c 0,0 -62.13932,183.31092 -37.28363,208.16661 0,0 -49.71139,304.48249 0,304.48249"
       id="path4010"
       inkscape:connector-curvature="0" />
    <path
       style="fill:none;fill-rule:evenodd;stroke:#000000;stroke-width:8.69949818px;stroke-linecap:butt;stroke-linejoin:miter;stroke-opacity:1"
       d="m 377.02712,975.43759 c 0,0 46.60449,6.21398 80.78106,3.10708 34.17654,-3.10708 37.28362,-9.32103 37.28362,-9.32103"
       id="path4097-2"
       inkscape:connector-curvature="0" />
    <path
       style="fill:none;fill-rule:evenodd;stroke:#000000;stroke-width:8.69949818px;stroke-linecap:butt;stroke-linejoin:miter;stroke-opacity:1"
       d="m 335.18759,782.56688 46.60431,0 0,37.28365 -46.60431,0 z"
       id="path4208"
       inkscape:connector-curvature="0" />
    <path
       style="fill:none;fill-rule:evenodd;stroke:#000000;stroke-width:8.69949818px;stroke-linecap:butt;stroke-linejoin:miter;stroke-opacity:1"
       d="m 381.7919,791.88775 c 0,0 102.52986,6.21396 108.74382,-9.32087"
       id="path4214"
       inkscape:connector-curvature="0" />
    <path
       style="fill:none;fill-rule:evenodd;stroke:#000000;stroke-width:8.69949818px;stroke-linecap:butt;stroke-linejoin:miter;stroke-opacity:1"
       d="m 388.00587,813.63655 c 0,0 108.74382,18.6419 105.63674,-6.21397"
       id="path4218"
       inkscape:connector-curvature="0" />
    <path
       style="fill:none;fill-rule:evenodd;stroke:#000000;stroke-width:8.69949818px;stroke-linecap:butt;stroke-linejoin:miter;stroke-opacity:1"
       d="m 328.97362,791.88775 c 0,0 -102.52985,3.10708 -111.85071,-9.32087"
       id="path4220"
       inkscape:connector-curvature="0" />
    <path
       style="fill:none;fill-rule:evenodd;stroke:#000000;stroke-width:8.69949818px;stroke-linecap:butt;stroke-linejoin:miter;stroke-opacity:1"
       d="m 328.97362,813.63655 c 0,0 -68.35311,9.32086 -111.85071,0"
       id="path4222"
       inkscape:connector-curvature="0" />
    <path
       style="fill:none;fill-rule:evenodd;stroke:#000000;stroke-width:8.69949818px;stroke-linecap:butt;stroke-linejoin:miter;stroke-opacity:1"
       d="m 440.82434,487.40545 c 0,0 -186.41781,226.80832 -186.41781,301.3754"
       id="path4230"
       inkscape:connector-curvature="0" />
    <path
       style="fill:none;fill-rule:evenodd;stroke:#000000;stroke-width:8.69949818px;stroke-linecap:butt;stroke-linejoin:miter;stroke-opacity:1"
       d="m 266.83429,490.51234 c 0,0 62.13933,142.92038 80.78105,124.27865"
       id="path4232"
       inkscape:connector-curvature="0" />
    <path
       style="fill:none;fill-rule:evenodd;stroke:#000000;stroke-width:8.69949818px;stroke-linecap:butt;stroke-linejoin:miter;stroke-opacity:1"
       d="m 251.29946,819.85053 -3.10688,62.13912 -34.17657,-18.64172"
       id="path4238"
       inkscape:connector-curvature="0" />
    <path
       style="fill:#2b0000;fill-opacity:1;stroke:none;stroke-opacity:1"
       d="m 230.25519,865.73929 -11.99821,-6.91924 1.62783,-18.11062 c 0.89606,-9.96062 2.22652,-18.70874 2.95773,-19.43996 0.73179,-0.73178 5.74729,-0.44617 11.14677,0.63469 l 9.81706,1.96349 0,24.46741 c 0,13.4569 -0.34909,24.4351 -0.77659,24.3959 -0.42748,-0.0374 -6.17587,-3.18512 -12.77497,-6.99074 z"
       id="path4240"
       inkscape:connector-curvature="0" />
    <path
       style="fill:none;fill-rule:evenodd;stroke:#000000;stroke-width:8.69949818px;stroke-linecap:butt;stroke-linejoin:miter;stroke-opacity:1"
       d="M 608.60041,717.32066 558.88883,776.3529"
       id="path4242"
       inkscape:connector-curvature="0" />
    <path
       style="fill:#ffffff;fill-rule:evenodd;stroke:#000000;stroke-width:8.69949818px;stroke-linecap:butt;stroke-linejoin:miter;stroke-opacity:1"
       d="m 102.16529,723.53463 49.7114,46.6045"
       id="path4244"
       inkscape:connector-curvature="0" />
    <path
       style="fill:#ffff00;fill-opacity:1;stroke:none;stroke-opacity:1"
       d="m 261.26828,777.26222 c 7.00307,-29.25738 39.44034,-89.64622 76.89907,-143.16381 17.76135,-25.37596 84.47281,-115.13103 96.03158,-129.20268 l 7.43466,-9.05147 12.89949,46.33492 c 21.77251,78.2077 28.65479,120.27664 22.65214,138.46474 -2.7369,8.29282 -2.17779,19.70169 2.6415,53.90699 4.12933,29.31003 5.09129,44.41213 2.96446,46.54476 -1.75478,1.76038 -23.71005,3.6001 -49.6063,4.1577 -40.59512,0.87366 -46.45776,0.38456 -46.45776,-3.88366 0,-4.0793 -4.60871,-4.88425 -27.96259,-4.88425 -22.78449,0 -27.96276,0.86244 -27.96276,4.66042 0,3.87284 -6.04784,4.66043 -35.78929,4.66043 l -35.78926,0 2.04506,-8.54409 z"
       id="path4246"
       inkscape:connector-curvature="0" />
    <path
       style="fill:#ffff00;fill-opacity:1;stroke:none;stroke-opacity:1"
       d="m 237.59277,782.67907 c -12.63776,-1.82944 -12.32545,2.21234 -4.38246,-56.7208 4.20699,-31.21302 4.56933,-41.35397 1.7025,-47.64671 -6.45926,-14.17638 5.71462,-81.49678 28.31821,-156.59701 l 4.20793,-13.98148 20.83053,40.39053 c 11.45683,22.21474 26.2386,47.5293 32.84852,56.25447 l 12.01781,15.86394 -23.10129,35.40097 c -27.35252,41.91514 -53.10109,92.24313 -58.03389,113.43264 -3.50936,15.07485 -3.60663,15.16671 -14.40767,13.60345 z"
       id="path4249"
       inkscape:connector-curvature="0" />
    <path
       style="fill:#ffff00;fill-opacity:1;stroke:none;stroke-opacity:1"
       d="m 523.82742,723.02294 -33.96691,-41.03474 -0.0933,-22.10182 c -0.0933,-21.46506 -9.62851,-70.7635 -22.19944,-114.6662 -3.39308,-11.8498 -5.66552,-22.04898 -5.04985,-22.66465 2.40759,-2.40759 47.97752,36.45647 66.65713,56.84849 10.85127,11.84588 27.40984,33.07495 36.79698,47.17592 20.37726,30.60949 45.56152,87.70793 38.7218,87.79101 -1.12195,0.0174 -11.12717,11.18747 -22.23454,24.83106 -11.10738,13.64322 -21.20239,24.81724 -22.43335,24.83086 -1.23022,0.0174 -17.52315,-18.44085 -36.2052,-41.00993 z"
       id="path4251"
       inkscape:connector-curvature="0" />
    <path
       style="fill:#ffff00;fill-opacity:1;stroke:none;stroke-opacity:1"
       d="m 270.21598,945.27425 c -5.12638,-0.63843 -19.45733,-3.32193 -31.84643,-5.96045 l -22.52539,-4.79709 0,-25.94308 c 0,-37.30698 0.42936,-37.87672 20.1415,-26.7518 l 16.30097,9.19972 1.97412,-18.88685 c 1.08647,-10.38773 1.97394,-25.45846 1.97394,-33.49051 l 0,-14.60367 36.50686,-1.96312 c 22.84517,-1.22834 36.89441,-0.82511 37.54236,1.07901 1.42436,4.18477 55.62108,3.95442 57.01986,-0.24269 0.76538,-2.29578 9.48906,-2.22596 28.99847,0.23148 15.34703,1.93362 38.38971,3.06172 51.20593,2.50692 l 23.30235,-1.00807 1.92391,23.30234 c 1.05847,12.81605 2.10704,36.06257 2.3303,51.65901 l 0.40697,28.35666 -16.31143,7.06895 c -19.75581,8.56164 -53.1095,11.28342 -76.89738,6.27503 -9.39853,-1.97881 -19.88464,-3.87078 -23.30234,-4.20458 -4.03077,-0.39388 -8.51627,-5.5029 -12.76752,-14.54393 l -6.55372,-13.93743 -6.54289,12.8252 c -5.97035,11.70288 -8.42966,13.39829 -28.10521,19.37443 -20.30578,6.16767 -32.86532,7.18919 -54.7743,4.45509 z"
       id="path4253"
       inkscape:connector-curvature="0" />
    <path
       style="fill:#008000;fill-opacity:1;stroke:none;stroke-opacity:1"
       d="m 382.50894,960.96516 c -6.32224,-13.2581 -5.57796,-14.80493 5.15904,-10.72264 24.54283,9.33113 73.03052,6.78036 96.44059,-5.07354 11.02206,-5.58114 12.2855,-4.32778 9.67331,9.59601 -1.78279,9.50476 -3.74926,11.59965 -13.40482,14.28166 -6.22349,1.72865 -29.58166,3.15058 -51.9073,3.16011 l -40.59176,0.0175 -5.36906,-11.25915 z"
       id="path4258"
       inkscape:connector-curvature="0" />
    <path
       style="fill:#ececec;fill-opacity:1;stroke:none;stroke-opacity:1"
       d="m 227.49533,966.89182 c -7.09958,-1.07526 -8.54427,-2.84553 -8.54427,-10.468 0,-9.69272 -0.22775,-9.64848 21.74879,-4.21968 2.56329,0.63284 16.59292,2.60248 31.17738,4.37594 21.58434,2.62487 29.90217,2.34299 44.71623,-1.51583 10.00973,-2.60717 18.81293,-4.12692 19.56262,-3.37739 3.58255,3.58272 -6.2177,13.71919 -14.95314,15.46631 -10.47248,2.09435 -79.42557,1.90207 -93.70761,-0.26135 z"
       id="path4260"
       inkscape:connector-curvature="0" />
    <path
       style="fill:#008000;fill-opacity:1;stroke:none;stroke-opacity:1"
       d="m 232.93254,966.49271 c -10.64218,-1.74358 -12.42795,-3.15208 -12.42795,-9.80343 0,-5.27665 1.48783,-7.43746 4.63952,-6.73872 24.90965,5.52307 73.45635,9.42242 84.77858,6.80948 7.21139,-1.66517 16.5681,-3.05986 20.79283,-3.10167 l 7.68108,-0.0747 -6.98794,6.99074 c -6.45441,6.45683 -10.00635,7.02752 -46.51825,7.4731 -21.74152,0.2651 -45.12264,-0.43308 -51.95787,-1.55316 z"
       id="path4278"
       inkscape:connector-curvature="0" />
    <path
       style="fill:#008000;fill-opacity:1;stroke:none;stroke-opacity:1"
       d="m 414.68989,811.73112 c -24.49764,-3.75784 -27.96277,-4.82845 -27.96277,-8.63856 0,-3.25288 10.17361,-4.48344 45.82773,-5.54305 25.20515,-0.74857 47.84181,-1.95023 50.30372,-2.66894 6.77942,-1.97935 7.98349,10.04537 1.48222,14.79933 -5.30129,3.87638 -49.30573,5.1723 -69.65071,2.05122 z"
       id="path4282"
       inkscape:connector-curvature="0" />
    <path
       style="fill:#008000;fill-opacity:1;stroke:none;stroke-opacity:1"
       d="m 223.94489,808.09425 c -0.87366,-1.4113 -0.86805,-5.32109 0.0173,-8.68615 1.44489,-5.527 3.30813,-5.90484 19.26859,-3.9085 9.71774,1.21528 33.39756,2.32825 52.62191,2.47237 27.45911,0.20535 34.95332,1.17794 34.95332,4.53424 0,2.34973 -4.36904,5.14598 -9.70917,6.21397 -14.38713,2.87746 -95.30482,2.35608 -97.14771,-0.62538 z"
       id="path4284"
       inkscape:connector-curvature="0" />
    <path
       style="fill:#e6e6e6;fill-opacity:1;stroke:none;stroke-opacity:1"
       d="m 415.46648,991.66893 c 11.53468,-0.59738 30.40957,-0.59738 41.94406,0 11.5345,0.59737 2.09715,1.08647 -20.97202,1.08647 -23.06918,0 -32.50654,-0.4891 -20.97204,-1.08647 z"
       id="path4288"
       inkscape:connector-curvature="0" />
    <path
       style="fill:#e6e6e6;fill-opacity:1;stroke:none;stroke-opacity:1"
       d="m 264.91766,990.75532 c -32.08182,-2.37082 -39.75265,-4.03355 -39.75265,-8.61689 0,-1.17982 22.1959,-2.1468 49.32404,-2.1468 48.01224,0 49.26336,0.168 47.04487,6.21377 -2.73111,7.44605 -9.76926,8.01169 -56.61626,4.54992 z"
       id="path4292"
       inkscape:connector-curvature="0" />
    <path
       style="fill:#e6e6e6;fill-opacity:1;stroke:none;stroke-opacity:1"
       d="m 395.0123,988.79464 c -4.98377,-4.98395 0.54509,-5.7036 44.79054,-5.83034 39.03505,-0.11204 45.91359,0.5339 41.33324,3.88384 -5.81485,4.25197 -82.09415,5.97595 -86.12378,1.9465 z"
       id="path4294"
       inkscape:connector-curvature="0" />
    <path
       style="fill:#666666;fill-opacity:1;stroke:none;stroke-opacity:1"
       d="m 340.12263,801.34115 0,-12.42794 18.6419,0 18.64174,0 0,12.42794 0,12.42775 -18.64174,0 -18.6419,0 0,-12.42775 z"
       id="path4296"
       inkscape:connector-curvature="0" />
    <path
       style="fill:#ffe6d5;fill-opacity:1;stroke:none;stroke-opacity:1"
       d="m 333.43058,600.18583 c -10.77267,-11.68814 -28.027,-41.1561 -44.67107,-76.29219 -17.09734,-36.09262 -17.50019,-39.94622 -3.78547,-36.21396 5.66886,1.54197 40.07783,1.71745 78.45094,0.39763 37.59426,-1.29369 68.82054,-2.0585 69.39177,-1.70064 0.57124,0.35841 -9.30965,13.69773 -21.9575,29.6453 -12.64784,15.94739 -32.57821,42.27766 -44.28967,58.51142 -11.71148,16.23394 -22.18246,30.57404 -23.2693,31.86697 -1.08647,1.29368 -5.52794,-1.50278 -9.8697,-6.21398 z"
       id="path4298"
       inkscape:connector-curvature="0" />
    <path
       style="fill:#ffe6d5;fill-opacity:1;stroke:none;stroke-opacity:1"
       d="m 586.74016,782.25626 c -18.15486,-4.93579 -17.85394,-8.70819 2.63778,-33.05221 10.40919,-12.36595 19.40206,-22.00715 19.98449,-21.42472 0.58244,0.58244 2.33965,7.91461 3.90513,16.29405 4.99141,26.71726 -6.71614,43.56892 -26.5274,38.18288 z"
       id="path4300"
       inkscape:connector-curvature="0" />
    <path
       style="fill:#ffe6d5;fill-opacity:1;stroke:none;stroke-opacity:1"
       d="m 127.82763,739.47567 -22.03461,-21.47494 5.6937,-18.13881 c 13.43115,-42.78841 40.04349,-85.52306 77.73614,-124.82992 23.15805,-24.14967 60.79785,-56.205 60.79785,-51.77736 0,1.04727 -3.40782,14.06119 -7.5728,28.92101 -12.0445,42.97059 -20.38978,88.4078 -20.38978,111.0142 l 0,20.8813 -22.24033,26.78856 c -27.73186,33.40315 -43.42685,50.0909 -47.11132,50.0909 -1.56437,0 -12.75967,-9.66377 -24.87885,-21.47494 z"
       id="path4304"
       inkscape:connector-curvature="0" />
    <path
       style="fill:#ffff00;fill-opacity:1;stroke:none;stroke-opacity:1"
       d="m 128.95947,739.50666 -23.05257,-20.96139 8.66804,-24.62496 c 10.65282,-30.26414 22.41189,-51.77213 44.88893,-82.10386 24.99046,-33.72384 87.44996,-93.67307 87.44996,-83.93535 0,1.96984 -3.40278,17.11731 -7.56179,33.66076 -11.47905,45.66214 -17.27972,79.83273 -17.4272,102.65942 l -0.13067,20.62873 -30.5492,35.38996 c -16.80221,19.46441 -32.50262,36.48296 -34.89005,37.81903 -2.97827,1.66703 -11.57557,-4.14949 -27.39303,-18.53234 z"
       id="path4311"
       inkscape:connector-curvature="0" />
    <path
       style="fill:#f3bfad;fill-opacity:1;stroke:none;stroke-opacity:1"
       d="m 107.66056,778.71383 c -6.86174,-8.2678 -9.560564,-20.84359 -7.27935,-33.92024 l 2.3305,-13.3591 20.87739,19.95072 20.87757,19.95072 -8.58553,5.66121 c -10.00673,6.59852 -23.48847,7.41861 -28.22058,1.71745 z"
       id="path4313"
       inkscape:connector-curvature="0" />
    <path
       style="fill:#f3bfad;fill-opacity:1;stroke:none;stroke-opacity:1"
       d="m 580.13566,779.49564 c -3.84482,-1.54569 -6.99074,-4.12765 -6.99074,-5.73794 0,-3.50807 21.31011,-30.65561 30.38773,-38.71171 6.38255,-5.66459 6.4503,-5.59737 8.565,8.50414 4.63691,30.922 -8.29022,45.46033 -31.96199,35.94551 z"
       id="path4315"
       inkscape:connector-curvature="0" />
    <path
       style="fill:#f3bfad;fill-opacity:1;stroke:none;stroke-opacity:1"
       d="m 335.67314,600.70908 c -12.46603,-12.46602 -51.94425,-83.25455 -58.78284,-105.40377 -1.87874,-6.08479 -0.30056,-6.23114 75.891,-7.04189 63.76176,-0.67952 77.35569,-0.0933 75.29626,3.26855 -4.51801,7.36428 -85.40937,114.07052 -86.4742,114.07052 -0.57124,0 -3.23887,-2.20206 -5.93022,-4.89341 z"
       id="path4317"
       inkscape:connector-curvature="0" />
    <ellipse
       style="fill:#000000;fill-opacity:1;stroke:none;stroke-opacity:1"
       id="path4323"
       cx="294.79694"
       cy="327.39694"
       rx="21.748745"
       ry="20.195261" />
    <ellipse
       style="fill:#000000;fill-opacity:1;stroke:none;stroke-opacity:1"
       id="path4323-5"
       cx="431.5033"
       cy="328.94992"
       rx="21.748745"
       ry="20.195261" />
    <ellipse
       style="display:inline;fill:#dcc078;fill-opacity:1;stroke:#000000;stroke-width:8.69949818;stroke-opacity:1"
       id="path4394-9"
       cx="360.04327"
       cy="372.44751"
       rx="10.435536"
       ry="10.984776" />
    <path
       style="display:inline;fill:none;fill-rule:evenodd;stroke:#000000;stroke-width:8.69949818px;stroke-linecap:butt;stroke-linejoin:miter;stroke-opacity:1"
       d="m 321.45141,415.92118 c 0,0 18.125,12.08333 39.54523,12.08333 21.42026,0 37.34823,-12.63254 37.34823,-12.63254"
       id="path4396-7"
       inkscape:connector-curvature="0" />
    <path
       style="fill:#000000;fill-rule:evenodd;stroke:#000000;stroke-width:8.69949818px;stroke-linecap:butt;stroke-linejoin:miter;stroke-opacity:1"
       d="M 403.54069,453.22889 356.9364,521.582 313.4388,462.54975 c 0,0 34.17654,15.53483 27.96257,18.64172 -6.21378,3.1069 31.06967,-21.74879 31.06967,-21.74879 l 3.10708,15.53482 z"
       id="path4404"
       inkscape:connector-curvature="0" />
    <path
       style="fill:none;fill-rule:evenodd;stroke:#000000;stroke-width:8.69949818px;stroke-linecap:butt;stroke-linejoin:miter;stroke-opacity:1"
       d="m 202.66913,285.96711 c 0,0 22.98686,15.55145 65.90856,7.68931 40.41479,-7.40294 63.71172,-38.44666 63.71172,-38.44666 0,0 2.19702,6.59089 -2.19683,23.06806 -4.39386,16.4772 -7.68929,16.4772 -7.68929,16.4772 0,0 77.41597,6.50163 105.4538,-3.29563 45.01249,-15.72861 67.00715,-27.46173 67.00715,-27.46173"
       id="path3459"
       inkscape:connector-curvature="0"
       sodipodi:nodetypes="cscscsc" />
    <path
       style="display:inline;fill:#502d16;fill-opacity:1;stroke:none;stroke-opacity:1"
       d="m 336.84287,290.85305 c -4.89059,-0.38269 -5.27088,-0.61417 -4.62273,-2.82276 4.17451,-14.22659 5.19695,-20.26396 4.75452,-28.07421 -0.26134,-4.61209 -1.0902,-9.86839 -1.84065,-11.68087 l -1.36462,-3.29543 -2.35906,3.29543 c -12.35625,17.26162 -35.18573,32.87317 -57.34429,39.21352 -7.70199,2.20393 -11.23077,2.51344 -28.56033,2.50598 -18.84484,-0.009 -20.18463,-0.14935 -28.54987,-3.09476 -4.82734,-1.6969 -8.95872,-3.26781 -9.18105,-3.48996 -0.22215,-0.22214 1.39076,-3.3576 3.58329,-6.96759 14.25684,-23.46941 55.98491,-45.79524 94.56391,-50.59476 28.29244,-3.51982 68.56499,-2.54012 113.69231,2.76547 33.7946,3.97346 44.58966,8.07889 59.13584,22.49029 10.57983,10.48201 10.57199,10.29755 0.63285,14.82657 -12.37587,5.63993 -42.47853,17.40946 -52.69638,20.60334 -4.87026,1.52143 -13.62473,3.29973 -19.45472,3.94974 -9.75227,1.08834 -57.95268,1.34036 -70.38977,0.36963 z"
       id="path3464"
       inkscape:connector-curvature="0" />
  </g>
</svg>
