<?xml version="1.0" encoding="UTF-8" standalone="no"?>
<!-- Created with Inkscape (http://www.inkscape.org/) -->

<svg
   xmlns:dc="http://purl.org/dc/elements/1.1/"
   xmlns:cc="http://creativecommons.org/ns#"
   xmlns:rdf="http://www.w3.org/1999/02/22-rdf-syntax-ns#"
   xmlns:svg="http://www.w3.org/2000/svg"
   xmlns="http://www.w3.org/2000/svg"
   xmlns:sodipodi="http://sodipodi.sourceforge.net/DTD/sodipodi-0.dtd"
   xmlns:inkscape="http://www.inkscape.org/namespaces/inkscape"
   width="210mm"
   height="297mm"
   viewBox="0 0 744.09448819 1052.3622047"
   id="svg4133"
   version="1.1"
   inkscape:version="0.91 r13725"
   sodipodi:docname="milleniumfalcon.svg">
  <defs
     id="defs4135" />
  <sodipodi:namedview
     id="base"
     pagecolor="#ffffff"
     bordercolor="#666666"
     borderopacity="1.0"
     inkscape:pageopacity="0.0"
     inkscape:pageshadow="2"
     inkscape:zoom="0.35"
     inkscape:cx="325"
     inkscape:cy="520"
     inkscape:document-units="px"
     inkscape:current-layer="layer1"
     showgrid="false"
     inkscape:window-width="1280"
     inkscape:window-height="697"
     inkscape:window-x="-8"
     inkscape:window-y="-8"
     inkscape:window-maximized="1" />
  <metadata
     id="metadata4138">
    <rdf:RDF>
      <cc:Work
         rdf:about="">
        <dc:format>image/svg+xml</dc:format>
        <dc:type
           rdf:resource="http://purl.org/dc/dcmitype/StillImage" />
        <dc:title></dc:title>
      </cc:Work>
    </rdf:RDF>
  </metadata>
  <g
     inkscape:label="Layer 1"
     inkscape:groupmode="layer"
     id="layer1">
    <path
       style="display:inline;fill:#cccccc;fill-rule:evenodd;stroke:#000000;stroke-width:2.02886438px;stroke-linecap:butt;stroke-linejoin:miter;stroke-opacity:1"
       d="m 659.43623,470.63985 0,15.37096 -162.93228,-4.09892 1.02474,-16.3957 z"
       id="path3560"
       inkscape:connector-curvature="0" />
    <path
       style="display:inline;fill:#999999;fill-rule:evenodd;stroke:#000000;stroke-width:2.02886438px;stroke-linecap:butt;stroke-linejoin:miter;stroke-opacity:1"
       d="m 497.01632,465.90045 -3.84273,0.89667 -9.09451,-0.25619 -5.25172,-1.79329 -0.12803,16.52378 4.48319,2.30566 9.22257,0.12802 4.09892,-2.17756 z"
       id="path3562"
       inkscape:connector-curvature="0"
       sodipodi:nodetypes="ccccccccc" />
    <path
       style="display:inline;fill:#cccccc;fill-rule:evenodd;stroke:#000000;stroke-width:2.02886438px;stroke-linecap:butt;stroke-linejoin:miter;stroke-opacity:1"
       d="m 478.05879,464.49146 -48.16236,-0.51237 -0.76855,17.42044 48.93091,0.25618 z"
       id="path3564"
       inkscape:connector-curvature="0"
       sodipodi:nodetypes="ccccc" />
    <path
       style="fill:none;fill-rule:evenodd;stroke:#000000;stroke-width:2.02886438px;stroke-linecap:butt;stroke-linejoin:miter;stroke-opacity:1"
       d="m 659.92288,470.35764 6.52137,-6.52135 5.90286,5.43446 0.10612,6.96401 -2.02371,3.24245 -9.69414,6.35308 z"
       id="path3566"
       inkscape:connector-curvature="0"
       sodipodi:nodetypes="ccccccc" />
    <path
       style="fill:none;fill-rule:evenodd;stroke:#000000;stroke-width:2.02886438px;stroke-linecap:butt;stroke-linejoin:miter;stroke-opacity:1"
       d="m 660.28521,470.71992 4.02922,2.64221 0.25618,6.68964 -3.56081,5.16005 z"
       id="path3569"
       inkscape:connector-curvature="0"
       sodipodi:nodetypes="ccccc" />
    <path
       style="fill:none;fill-rule:evenodd;stroke:#000000;stroke-width:2.02886438px;stroke-linecap:butt;stroke-linejoin:miter;stroke-opacity:1"
       d="m 671.79082,468.75837 -7.88265,4.85996"
       id="path3571"
       inkscape:connector-curvature="0"
       sodipodi:nodetypes="cc" />
    <path
       style="fill:none;fill-rule:evenodd;stroke:#000000;stroke-width:2.02886438px;stroke-linecap:butt;stroke-linejoin:miter;stroke-opacity:1"
       d="M 666.6383,464.0303 501.32748,428.98814 479.08353,463.97909"
       id="path3573"
       inkscape:connector-curvature="0"
       sodipodi:nodetypes="ccc" />
    <path
       style="fill:#cccccc;fill-rule:evenodd;stroke:#000000;stroke-width:2.02886438px;stroke-linecap:butt;stroke-linejoin:miter;stroke-opacity:1"
       d="m 664.81607,479.60624 7.68548,-3.33038"
       id="path3575"
       inkscape:connector-curvature="0" />
    <path
       style="fill:#ececec;fill-opacity:1;stroke:#502d16;stroke-width:0.51236564;stroke-opacity:1"
       d="m 644.70898,468.96282 c -11.24962,-0.39397 -34.17963,-1.13048 -111.69569,-3.58764 -26.75933,-0.84823 -35.34767,-0.9694 -37.02579,-0.52245 -4.47429,1.19171 -14.97932,0.41973 -14.97932,-1.1008 0,-0.2727 4.54441,-7.97298 10.09868,-17.11171 8.6773,-14.27713 10.24583,-16.58159 11.14397,-16.37249 0.57488,0.13392 37.01331,7.89981 80.97429,17.25765 43.96096,9.35785 80.02856,17.10384 80.15019,17.21326 0.37012,0.33307 -3.19287,3.77022 -3.90823,3.77022 -0.36742,0 -0.66804,0.23056 -0.66804,0.51237 0,0.2818 -0.51875,0.47679 -1.15282,0.43332 -0.63407,-0.0435 -6.45581,-0.26476 -12.93724,-0.49173 z"
       id="path3577"
       inkscape:connector-curvature="0" />
    <path
       style="fill:#ececec;fill-opacity:1;stroke:none;stroke-width:0.25253814;stroke-opacity:1"
       d="m 662.79034,470.88479 c -0.79791,-0.60623 -0.67587,-0.86223 1.36663,-2.8668 l 2.24277,-2.2011 1.57949,1.1247 c 0.86871,0.61858 1.5722,1.28192 1.5633,1.47407 -0.0223,0.4823 -4.51697,3.17118 -5.26722,3.15111 -0.33484,-0.008 -1.00306,-0.31585 -1.48497,-0.68198 z"
       id="path3579"
       inkscape:connector-curvature="0" />
    <path
       style="fill:#ececec;fill-opacity:1;stroke:none;stroke-width:0.25253814;stroke-opacity:1"
       d="m 665.75623,477.34473 c -0.16311,-0.16312 -0.29643,-0.94681 -0.29643,-1.74172 0,-1.13344 0.4506,-1.72973 2.08845,-2.76366 3.44317,-2.17358 3.54757,-2.16138 3.54757,0.41384 0,2.2622 -0.0331,2.30588 -2.52157,3.34009 -1.38685,0.57634 -2.65496,0.91451 -2.81802,0.75145 z"
       id="path3583"
       inkscape:connector-curvature="0" />
    <path
       style="fill:#ececec;fill-opacity:1;stroke:#502d16;stroke-width:0.1811486;stroke-opacity:1"
       d="m 661.90103,480.64041 c -0.0599,-0.67834 -0.15703,-2.53762 -0.21516,-4.13172 -0.0582,-1.5941 -0.14304,-3.07893 -0.18868,-3.29963 -0.0797,-0.38647 -0.0504,-0.38104 0.79838,0.14648 l 0.88124,0.54781 0.11687,1.64748 c 0.0643,0.90612 0.11664,2.22594 0.11651,2.93297 -5.1e-4,1.18923 -0.053,1.36431 -0.70014,2.3377 l -0.69957,1.05219 -0.10939,-1.23333 z"
       id="path3588"
       inkscape:connector-curvature="0" />
    <path
       style="fill:#ececec;fill-opacity:1;stroke:none;stroke-width:0.04464286;stroke-opacity:1"
       d="m 664.56801,481.9452 c 0.003,-0.0415 0.24025,-0.40155 0.52467,-0.80005 l 0.51712,-0.7246 1.93236,-0.84139 c 1.06281,-0.46276 1.94684,-0.82693 1.96454,-0.80921 0.0292,0.0292 -4.68904,3.15002 -4.86913,3.22054 -0.0423,0.0162 -0.0736,-0.003 -0.0695,-0.0453 z"
       id="path3590"
       inkscape:connector-curvature="0" />
    <path
       style="display:inline;fill:#b3b3b3;fill-rule:evenodd;stroke:#000000;stroke-width:2.02886438px;stroke-linecap:butt;stroke-linejoin:miter;stroke-opacity:1"
       d="m 412.77611,445.14589 c 16.76868,0.36229 25.15385,11.789 25.08017,28.21653 -0.062,13.85962 -12.79404,24.7072 -24.60421,24.7072 -12.17244,0 -22.29542,-11.63435 -22.95787,-26.45654 0.29735,-13.01489 7.301,-25.61108 22.48191,-26.46719 z"
       id="path3595"
       inkscape:connector-curvature="0"
       sodipodi:nodetypes="csscc" />
    <path
       style="display:inline;fill:#333333;fill-rule:evenodd;stroke:#000000;stroke-width:2.02886438px;stroke-linecap:butt;stroke-linejoin:miter;stroke-opacity:1"
       d="m 421.321,463.04765 c 4.00559,0.10311 8.05856,6.17177 7.73256,10.5085 -0.33622,4.47271 -4.83322,10.37081 -9.50576,9.52396 -4.6725,-0.84682 -8.0499,-3.01151 -7.6704,-9.69789 0.3795,-6.68639 5.63543,-10.43258 9.4436,-10.33457 z"
       id="path3597"
       inkscape:connector-curvature="0"
       sodipodi:nodetypes="sazzs" />
    <path
       style="display:inline;fill:#4d4d4d;fill-rule:evenodd;stroke:#000000;stroke-width:2.02886438px;stroke-linecap:butt;stroke-linejoin:miter;stroke-opacity:1"
       d="m 408.76678,477.52512 -14.85605,-1.43478 c 0,0 -1.02471,-3.65059 -0.16819,-8.56892 0.7688,-4.41494 1.93769,-6.79762 1.93769,-6.79762 l 14.87615,6.30911 c 0,0 -1.50533,3.48749 -1.78952,5.11801 -0.28418,1.6305 0,5.3742 0,5.3742 z"
       id="path3599"
       inkscape:connector-curvature="0"
       sodipodi:nodetypes="ccscczc" />
    <path
       style="display:inline;fill:#4d4d4d;fill-rule:evenodd;stroke:#000000;stroke-width:2.02886438px;stroke-linecap:butt;stroke-linejoin:miter;stroke-opacity:1"
       d="m 412.19764,464.77501 -15.02624,-7.22587 c 0,0 2.20383,-3.75589 5.65047,-6.03284 3.64494,-2.408 8.43894,-3.13071 8.43894,-3.13071 l 5.79675,12.61824 c 0,0 -1.79457,0.70513 -2.81235,1.66142 -0.82477,0.77497 -2.04757,2.10976 -2.04757,2.10976 z"
       id="path3601"
       inkscape:connector-curvature="0"
       sodipodi:nodetypes="ccsccsc" />
    <path
       style="display:inline;fill:#808080;fill-rule:evenodd;stroke:#000000;stroke-width:2.02886438px;stroke-linecap:butt;stroke-linejoin:miter;stroke-opacity:1"
       d="m 420.18826,460.17124 -5.35032,-11.89363 c 0,0 3.55893,0.15012 8.26878,2.32385 4.70987,2.17376 7.01364,5.60648 7.01364,5.60648 l -3.36681,6.30724 c 0,0 -1.53518,-1.40524 -3.13447,-2.06577 -1.20733,-0.49868 -3.43082,-0.27817 -3.43082,-0.27817 z"
       id="path3603"
       inkscape:connector-curvature="0"
       sodipodi:nodetypes="ccsccsc" />
    <path
       style="display:inline;fill:#333333;fill-rule:evenodd;stroke:#000000;stroke-width:2.02886438px;stroke-linecap:butt;stroke-linejoin:miter;stroke-opacity:1"
       d="m 428.88338,464.62302 3.09053,-5.66865 c 0,0 1.02286,1.72547 2.10974,6.07304 1.0869,4.34756 0.95881,8.27067 0.95881,8.27067 l -3.13258,-0.80872 c 0,0 -0.21575,-2.42866 -1.15284,-4.51962 -1.05159,-2.34642 -1.87366,-3.34672 -1.87366,-3.34672 z"
       id="path3605"
       inkscape:connector-curvature="0"
       sodipodi:nodetypes="ccsccsc" />
    <path
       style="display:inline;fill:none;fill-rule:evenodd;stroke:#000000;stroke-width:2.02886438px;stroke-linecap:butt;stroke-linejoin:miter;stroke-opacity:1"
       d="m 412.83621,497.89222 -78.87156,5.44512 -102.78187,-19.00018 c 0,0 -17.29483,-12.28168 -17.29483,-31.12114 0,-18.83944 0.43203,-26.42196 13.97953,-41.51412 14.52085,-16.17649 50.19417,-13.8037 50.19417,-13.8037 l 72.45942,14.49189 72.7146,34.16857"
       id="path3607"
       inkscape:connector-curvature="0"
       sodipodi:nodetypes="cccssccc" />
    <path
       style="display:inline;fill:#4d4d4d;fill-rule:evenodd;stroke:#000000;stroke-width:2.02886438px;stroke-linecap:butt;stroke-linejoin:miter;stroke-opacity:1"
       d="m 387.45531,467.48123 -33.50715,2.27989 c 0,0 0.38548,-6.53614 1.83912,-12.30555 0.94776,-3.7617 3.64116,-9.79645 3.64116,-9.79645 l 30.30863,10.80674 c 0,0 -1.22784,3.22049 -1.59014,5.032 -0.36229,1.81149 -0.69162,3.98337 -0.69162,3.98337 z"
       id="path3609"
       inkscape:connector-curvature="0"
       sodipodi:nodetypes="ccsccsc" />
    <path
       style="display:inline;fill:#4d4d4d;fill-rule:evenodd;stroke:#000000;stroke-width:2.02886438px;stroke-linecap:butt;stroke-linejoin:miter;stroke-opacity:1"
       d="m 399.72945,445.91357 c 0,0 -2.89648,1.83344 -5.09225,4.30547 -2.06969,2.33013 -3.75106,5.35034 -3.75106,5.35034 l -30.07256,-11.08301 c 0,0 2.02561,-4.19941 4.19938,-6.37318 2.17379,-2.17379 7.11787,-5.58454 7.11787,-5.58454 z"
       id="path3611"
       inkscape:connector-curvature="0"
       sodipodi:nodetypes="csccscc" />
    <path
       style="display:inline;fill:#4d4d4d;fill-rule:evenodd;stroke:#000000;stroke-width:2.02886438px;stroke-linecap:butt;stroke-linejoin:miter;stroke-opacity:1"
       d="m 369.14832,430.88922 c 0,0 -4.43359,2.92037 -6.96967,5.45645 -2.53609,2.53607 -4.77392,6.77752 -4.77392,6.77752 l -11.23121,-4.64771 4.34755,-6.15906 13.04272,-4.34755 z"
       id="path3613"
       inkscape:connector-curvature="0"
       sodipodi:nodetypes="csccccc" />
    <path
       style="display:inline;fill:#4d4d4d;fill-rule:evenodd;stroke:#000000;stroke-width:2.02886438px;stroke-linecap:butt;stroke-linejoin:miter;stroke-opacity:1"
       d="m 356.00138,446.65823 c 0,0 -2.72765,6.56671 -3.67886,9.98329 -1.01384,3.64156 -2.14177,11.13608 -2.14177,11.13608 l -11.25317,-14.81024 5.39239,-11.16906 z"
       id="path3615"
       inkscape:connector-curvature="0"
       sodipodi:nodetypes="cacccc" />
    <path
       style="display:inline;fill:#808080;fill-rule:evenodd;stroke:#000000;stroke-width:2.02886438px;stroke-linecap:butt;stroke-linejoin:miter;stroke-opacity:1"
       d="m 366.84644,426.13729 36.00556,18.16696 c 0,0 1.2698,-0.58198 1.93219,-0.79868 1.14925,-0.37599 3.52331,-0.86369 3.52331,-0.86369 l -38.0541,-17.97575 c 0,0 -0.9688,0.20064 -1.42531,0.38426 -0.69895,0.2812 -1.98165,1.0869 -1.98165,1.0869 z"
       id="path3617"
       inkscape:connector-curvature="0"
       sodipodi:nodetypes="ccaccac" />
    <path
       style="display:inline;fill:#e6e6e6;fill-opacity:1;stroke:#b3b3b3;stroke-width:0.25618282;stroke-opacity:1"
       d="m 241.06399,485.03455 -9.44375,-1.76386 -1.18783,-0.96466 c -5.09754,-4.13969 -10.47583,-11.20478 -12.82461,-16.84681 -2.24034,-5.38156 -2.71066,-8.80049 -2.50048,-18.17719 0.24865,-11.09224 1.08285,-15.51461 4.05889,-21.51716 2.05302,-4.14089 6.66261,-10.39853 10.44932,-14.18523 5.84787,-5.84788 15.32071,-9.752 28.07247,-11.56977 3.01736,-0.43012 9.49476,-1.04634 10.86778,-1.03388 0.21841,0.002 -0.40987,0.44509 -1.39617,0.98471 -5.00782,2.73976 -8.97956,5.61579 -12.74069,9.22579 -18.24637,17.51333 -19.67065,42.1542 -4.32949,74.90263 1.04578,2.23244 1.20756,2.74975 0.85419,2.73163 -0.23973,-0.0122 -4.68559,-0.81608 -9.87963,-1.7862 z"
       id="path3703"
       inkscape:connector-curvature="0" />
    <path
       style="display:inline;fill:none;fill-rule:evenodd;stroke:#000000;stroke-width:2.02886438px;stroke-linecap:butt;stroke-linejoin:miter;stroke-opacity:1"
       d="m 213.67813,461.41726 -54.31075,-1.02473"
       id="path3705"
       inkscape:connector-curvature="0" />
    <path
       style="fill:none;fill-rule:evenodd;stroke:#b3b3b3;stroke-width:2.02886438px;stroke-linecap:butt;stroke-linejoin:miter;stroke-opacity:1"
       d="m 350.99211,412.74253 c 0,0 -28.18009,10.60312 -30.74192,40.47688 -2.06916,24.1285 14.34623,51.74892 14.34623,51.74892"
       id="path3619"
       inkscape:connector-curvature="0"
       sodipodi:nodetypes="csc" />
    <path
       style="fill:none;fill-rule:evenodd;stroke:#b3b3b3;stroke-width:2.02886438px;stroke-linecap:butt;stroke-linejoin:miter;stroke-opacity:1"
       d="m 327.84304,407.32209 c 0,0 -28.1801,10.60313 -30.74192,40.47688 -2.06916,24.12851 14.34621,51.74893 14.34621,51.74893"
       id="path3619-1"
       inkscape:connector-curvature="0"
       sodipodi:nodetypes="csc" />
    <path
       style="fill:none;fill-rule:evenodd;stroke:#b3b3b3;stroke-width:2.02886438px;stroke-linecap:butt;stroke-linejoin:miter;stroke-opacity:1"
       d="m 319.13282,405.78501 c 0,0 -28.1801,10.60313 -30.74193,40.47687 -2.06915,24.12851 5.12364,33.30377 5.12364,33.30377"
       id="path3619-4"
       inkscape:connector-curvature="0"
       sodipodi:nodetypes="csc" />
    <path
       style="fill:none;fill-rule:evenodd;stroke:#b3b3b3;stroke-width:2.02886438px;stroke-linecap:butt;stroke-linejoin:miter;stroke-opacity:1"
       d="m 297.61346,403.22318 c 0,0 -28.18009,10.60313 -30.74191,40.47687 -2.06916,24.12852 14.34622,51.74893 14.34622,51.74893"
       id="path3619-8"
       inkscape:connector-curvature="0"
       sodipodi:nodetypes="csc" />
    <path
       style="fill:none;fill-rule:evenodd;stroke:#b3b3b3;stroke-width:2.02886438px;stroke-linecap:butt;stroke-linejoin:miter;stroke-opacity:1"
       d="m 271.48283,399.12426 c 0,0 -28.1801,10.60313 -30.74192,40.47688 -2.06916,24.12852 14.34622,51.74892 14.34622,51.74892"
       id="path3619-5"
       inkscape:connector-curvature="0"
       sodipodi:nodetypes="csc" />
    <path
       style="fill:none;fill-rule:evenodd;stroke:#b3b3b3;stroke-width:2.02886438px;stroke-linecap:butt;stroke-linejoin:miter;stroke-opacity:1"
       d="m 389.93191,478.32533 -67.11992,-3.0742"
       id="path3654"
       inkscape:connector-curvature="0" />
    <path
       style="fill:none;fill-rule:evenodd;stroke:#b3b3b3;stroke-width:2.02886438px;stroke-linecap:butt;stroke-linejoin:miter;stroke-opacity:1"
       d="m 395.05555,488.06029 -67.11988,0.51234"
       id="path3656"
       inkscape:connector-curvature="0" />
    <path
       style="fill:none;fill-rule:evenodd;stroke:#999999;stroke-width:2.02886438px;stroke-linecap:butt;stroke-linejoin:miter;stroke-opacity:1"
       d="m 350.47975,474.73875 0.51236,-5.63601"
       id="path3658"
       inkscape:connector-curvature="0" />
    <path
       style="fill:none;fill-rule:evenodd;stroke:#b3b3b3;stroke-width:2.02886438px;stroke-linecap:butt;stroke-linejoin:miter;stroke-opacity:1"
       d="m 323.32438,474.73875 -24.08119,-4.0989"
       id="path3660"
       inkscape:connector-curvature="0" />
    <path
       style="fill:none;fill-rule:evenodd;stroke:#b3b3b3;stroke-width:2.02886438px;stroke-linecap:butt;stroke-linejoin:miter;stroke-opacity:1"
       d="m 302.31738,481.39953 -9.22259,-2.56184"
       id="path3662"
       inkscape:connector-curvature="0" />
    <path
       style="fill:none;fill-rule:evenodd;stroke:#b3b3b3;stroke-width:2.02886438px;stroke-linecap:butt;stroke-linejoin:miter;stroke-opacity:1"
       d="m 288.48351,468.59038 -19.46989,-4.61129"
       id="path3664"
       inkscape:connector-curvature="0" />
    <path
       style="fill:none;fill-rule:evenodd;stroke:#b3b3b3;stroke-width:2.02886438px;stroke-linecap:butt;stroke-linejoin:miter;stroke-opacity:1"
       d="m 265.93942,441.43501 -24.59354,-5.12367"
       id="path3666"
       inkscape:connector-curvature="0" />
    <path
       style="display:inline;fill:#e6e6e6;fill-opacity:1;stroke:#b3b3b3;stroke-width:0.51236564;stroke-opacity:1"
       d="m 369.51686,476.21967 c -9.72213,-0.49241 -17.73072,-0.92194 -17.79685,-0.95452 -0.0662,-0.0327 0.0244,-1.44262 0.20107,-3.13342 0.20408,-1.95266 0.13126,-3.0742 -0.19965,-3.0742 -0.32676,0 -0.18017,-1.89777 0.39312,-5.08959 1.10583,-6.15681 2.01473,-9.3699 4.03934,-14.27961 l 1.53742,-3.72828 -1.13221,-0.44415 c -0.62274,-0.24427 -3.64486,-1.50313 -6.71585,-2.79748 -3.07099,-1.29435 -5.74557,-2.35337 -5.94352,-2.35337 -0.63026,0 -6.23423,12.36163 -5.9453,13.11458 0.15236,0.39725 2.82035,4.04477 5.92869,8.10561 5.61482,7.33536 5.65154,7.40167 5.65154,10.20312 0,1.77644 0.23697,2.91542 0.64045,3.07823 1.06214,0.42856 -3.18885,0.36823 -15.14371,-0.215 -6.6188,-0.32289 -11.49863,-0.77442 -11.68841,-1.08151 -1.82025,-2.94521 -2.34321,-21.83724 -0.76311,-27.5678 3.53216,-12.81029 12.57734,-23.74477 25.15744,-30.41226 1.40675,-0.74558 2.82107,-1.35561 3.14293,-1.35561 1.0914,0 19.73081,8.94343 19.05336,9.14206 -1.54963,0.45437 -5.02799,2.34355 -5.02799,2.73082 0,0.23057 4.86679,2.85473 10.81504,5.83144 5.94827,2.9767 10.71178,5.51547 10.58556,5.64168 -0.12619,0.12619 -3.41273,-1.28309 -7.30336,-3.13182 -4.95682,-2.3553 -7.2355,-3.19967 -7.61384,-2.82133 -0.84175,0.84173 -1.56328,0.63401 -0.83709,-0.241 0.7929,-0.95536 0.99952,-0.77418 -3.34067,-2.92929 l -3.58654,-1.78091 -7.01579,2.36128 -7.01578,2.36132 -2.63412,3.75697 c -1.4488,2.06634 -2.55713,3.82764 -2.46301,3.91401 0.3165,0.29039 12.86141,5.39434 13.25865,5.39434 0.21604,0 1.02613,-1.08063 1.80015,-2.4014 1.5748,-2.68721 5.20729,-6.8212 5.99369,-6.8212 0.28178,0 -0.42484,1.01676 -1.5703,2.25944 -1.85218,2.00936 -5.03886,7.34255 -4.61496,7.72348 0.41543,0.37329 31.22015,11.53645 31.83485,11.53645 0.38412,0 0.93565,-0.51876 1.22557,-1.15283 0.78305,-1.71235 4.70368,-6.53265 5.31342,-6.53265 0.29074,0 -0.53792,1.30926 -1.84144,2.9095 -4.67864,5.7435 -6.62696,11.56094 -6.61868,19.76267 0.006,5.22573 -0.048,5.50435 -1.03894,5.43772 -0.57447,-0.0385 -8.99897,-0.47309 -18.72111,-0.96549 z m 2.30565,-6.40749 c 16.85262,-1.07004 16.58814,-1.02773 16.92138,-2.70712 0.15033,-0.75784 0.75867,-3.17221 1.35175,-5.36526 0.59309,-2.19304 0.9897,-4.05417 0.88138,-4.13585 -0.27494,-0.20731 -30.78269,-11.00568 -31.62443,-11.19364 -1.68592,-0.37641 -5.60966,12.36778 -6.48187,21.05292 l -0.37755,3.75936 3.51628,-0.3148 c 1.93396,-0.17305 9.04982,-0.66618 15.81306,-1.09561 z"
       id="path3669"
       inkscape:connector-curvature="0" />
    <path
       style="display:inline;fill:#e6e6e6;fill-opacity:1;stroke:#b3b3b3;stroke-width:0.51236564;stroke-opacity:1"
       d="m 325.95996,482.5887 c -0.92495,-2.79243 -1.76646,-5.30962 -1.86999,-5.59376 -0.12154,-0.33354 10.39076,-0.0276 29.66434,0.8636 16.41893,0.75912 31.35137,1.39509 33.18322,1.41327 l 3.3306,0.0331 1.07534,2.94612 c 0.59143,1.62035 1.25005,3.34956 1.46358,3.84272 0.36493,0.84277 -0.54625,0.8967 -15.16562,0.89748 -8.55463,4.4e-4 -23.30418,0.15236 -32.77679,0.33774 l -17.22291,0.33691 -1.68177,-5.07711 z"
       id="path3671"
       inkscape:connector-curvature="0" />
    <path
       style="display:inline;fill:#e6e6e6;fill-opacity:1;stroke:#b3b3b3;stroke-width:0.51236564;stroke-opacity:1"
       d="m 331.31,495.99539 c -1.53031,-3.21946 -2.78239,-5.95877 -2.78239,-6.08736 0,-0.12864 14.90996,-0.32544 33.13327,-0.43747 l 33.13326,-0.20368 2.34804,2.52872 c 1.29143,1.39081 3.34183,3.16439 4.55644,3.94129 l 2.20835,1.41258 -3.2331,0.31361 c -5.00934,0.48585 -62.51406,4.38585 -64.6688,4.38585 l -1.91269,0 -2.78238,-5.85354 z"
       id="path3673"
       inkscape:connector-curvature="0" />
    <path
       style="display:inline;fill:#e6e6e6;fill-opacity:1;stroke:#b3b3b3;stroke-width:0.51236564;stroke-opacity:1"
       d="m 320.50264,499.79564 c -4.27282,-0.77957 -8.02522,-1.57592 -8.33869,-1.76965 -1.70368,-1.05293 -11.60569,-24.73872 -10.7147,-25.62972 0.10061,-0.10062 4.54338,0.55726 9.87292,1.46181 6.68769,1.13506 9.80877,1.87646 10.07316,2.39287 0.21069,0.41153 1.23046,3.39835 2.26613,6.63736 1.0357,3.23904 3.0304,8.42674 4.43269,11.52825 1.40228,3.1015 2.67455,5.92729 2.82727,6.27955 0.39264,0.90571 -1.34012,0.75595 -10.41878,-0.90047 z"
       id="path3675"
       inkscape:connector-curvature="0" />
    <path
       style="display:inline;fill:#e6e6e6;fill-opacity:1;stroke:#b3b3b3;stroke-width:0.51236564;stroke-opacity:1"
       d="m 310.20359,471.37951 c -5.1467,-0.90901 -9.47535,-1.77046 -9.6192,-1.9143 -0.14384,-0.14384 -0.65301,-1.96602 -1.13145,-4.04926 -0.63666,-2.77212 -0.87378,-6.19189 -0.88433,-12.75413 -0.0122,-7.85835 0.13107,-9.46861 1.16242,-13.03037 3.34714,-11.55902 11.49561,-21.67674 22.79068,-28.29858 l 4.10462,-2.40638 10.1732,1.99204 c 5.5953,1.09563 10.17324,2.17462 10.17324,2.39777 0,0.22317 -0.21546,0.40574 -0.47878,0.40574 -1.24989,0 -9.9414,6.4958 -13.48191,10.07598 -11.80967,11.94209 -16.16232,26.66976 -13.14897,44.49097 0.28589,1.6908 0.63866,3.47766 0.78394,3.97082 0.32084,1.08913 1.05983,1.15142 -10.44346,-0.8803 z"
       id="path3677"
       inkscape:connector-curvature="0" />
    <path
       style="display:inline;fill:#e6e6e6;fill-opacity:1;stroke:#b3b3b3;stroke-width:0.51236564;stroke-opacity:1"
       d="m 297.01712,478.83119 c -2.73193,-0.76854 -3.18558,-1.0898 -4.07471,-2.8855 -4.07096,-8.22175 -4.95891,-26.80595 -1.8179,-38.04768 3.37079,-12.06417 12.02844,-22.32891 24.59395,-29.15916 2.56001,-1.39156 3.02911,-1.48585 5.12365,-1.02969 2.00352,0.43632 2.18304,0.57784 1.36997,1.07995 -7.57017,4.67494 -13.70554,10.08313 -17.55367,15.47312 -1.22152,1.71099 -3.14999,5.05416 -4.28547,7.4293 -5.58827,11.68922 -5.97923,24.12273 -1.29586,41.21098 0.98053,3.57767 1.78278,6.59706 1.78278,6.70976 0,0.27719 -0.29251,0.21771 -3.84274,-0.78108 z"
       id="path3679"
       inkscape:connector-curvature="0" />
    <path
       style="display:inline;fill:#e6e6e6;fill-opacity:1;stroke:#b3b3b3;stroke-width:0.51236564;stroke-opacity:1"
       d="m 294.49279,495.26171 c -15.35843,-2.75071 -13.42129,-1.55354 -17.52901,-10.83322 -2.17552,-4.91464 -6.96979,-18.492 -6.64454,-18.81724 0.0755,-0.0755 4.19494,0.82895 9.15453,2.00969 l 9.01748,2.14675 0.55688,2.21158 c 0.80085,3.1805 2.93766,7.81493 3.71657,8.06075 0.36623,0.11567 2.63166,0.71042 5.03431,1.32186 l 4.36842,1.11172 0.96025,2.38645 c 0.52813,1.31256 2.0624,4.74974 3.40948,7.63822 1.34708,2.88844 2.1771,5.22718 1.84444,5.19717 -0.33264,-0.03 -6.58261,-1.12519 -13.88881,-2.43373 z"
       id="path3681"
       inkscape:connector-curvature="0" />
    <path
       style="display:inline;fill:#e6e6e6;fill-opacity:1;stroke:#b3b3b3;stroke-width:0.51236564;stroke-opacity:1"
       d="m 278.12741,464.98219 c -4.47151,-1.07329 -8.30324,-2.23169 -8.51493,-2.57422 -0.9448,-1.52872 -1.66688,-10.00159 -1.40556,-16.4929 0.32633,-8.10556 1.411,-12.39348 4.79007,-18.93598 4.19555,-8.1234 11.3556,-15.29466 20.14235,-20.174 2.53737,-1.40899 4.62082,-2.81612 4.62986,-3.12692 0.0162,-0.56193 15.46003,2.2479 16.14035,2.9366 0.17488,0.17711 -0.78749,0.96417 -2.13877,1.74902 -5.65064,3.28197 -12.90742,9.98579 -16.47158,15.21646 -2.54537,3.73555 -5.58519,10.454 -6.78302,14.99154 -1.25183,4.74205 -1.92943,20.42068 -1.10165,25.49017 0.41867,2.56398 0.37483,2.94128 -0.33801,2.90888 -0.45049,-0.0205 -4.47759,-0.91537 -8.94911,-1.98865 z"
       id="path3683"
       inkscape:connector-curvature="0" />
    <path
       style="display:inline;fill:#e6e6e6;fill-opacity:1;stroke:#b3b3b3;stroke-width:0.51236564;stroke-opacity:1"
       d="m 265.07153,490.14468 c -12.0088,-2.1578 -10.24793,-0.88966 -14.48144,-10.42927 -2.72329,-6.13662 -6.08128,-16.11914 -7.37691,-21.92993 -0.93494,-4.19313 -1.68712,-19.97961 -0.9523,-19.98635 0.24503,-0.002 5.63619,1.0645 11.98039,2.37057 l 11.53491,2.37467 -0.19295,3.81899 c -0.5302,10.49976 3.37119,26.14863 10.24231,41.08289 1.08779,2.36428 1.97779,4.38172 1.97779,4.4832 0,0.39636 -2.69803,0.0183 -12.73187,-1.78477 z"
       id="path3685"
       inkscape:connector-curvature="0" />
    <path
       style="display:inline;fill:#e6e6e6;fill-opacity:1;stroke:#b3b3b3;stroke-width:0.51236564;stroke-opacity:1"
       d="m 254.40479,437.85448 c -6.24695,-1.29629 -11.48913,-2.48824 -11.6493,-2.64875 -0.543,-0.54414 1.75604,-7.69622 3.74622,-11.65396 4.61543,-9.17851 11.52411,-15.99052 22.11922,-21.80973 5.05631,-2.77709 7.67328,-2.89138 18.32406,-0.8002 l 8.68824,1.70588 -3.91933,2.28562 c -7.12845,4.15713 -14.01518,10.33387 -17.93406,16.08508 -2.57805,3.78349 -5.59947,10.49318 -6.73208,14.95002 -0.56712,2.23156 -1.08824,4.09916 -1.15802,4.15018 -0.0698,0.051 -5.23805,-0.96783 -11.48495,-2.26414 z"
       id="path3687"
       inkscape:connector-curvature="0" />
    <path
       style="display:inline;fill:#e6e6e6;fill-opacity:1;stroke:#b3b3b3;stroke-width:0.1811486;stroke-opacity:1"
       d="m 397.79166,449.98951 c 0,-0.0575 0.0873,-0.26746 0.19376,-0.46653 0.13797,-0.25781 0.13715,-0.43004 -0.002,-0.59844 -0.21175,-0.25515 0.69054,-1.02001 2.75248,-2.3332 0.57286,-0.36485 1.03957,-0.72552 1.03707,-0.80147 -0.002,-0.0758 -3.63511,-1.89073 -8.07252,-4.0328 -5.48395,-2.64728 -7.93382,-3.91506 -7.649,-3.95826 0.23043,-0.0349 0.47141,-0.1479 0.53545,-0.251 0.0698,-0.11241 3.34069,1.4509 8.16075,3.90014 l 8.04428,4.08762 0.80612,-0.36132 c 1.2873,-0.57704 2.81023,-1.01321 5.33482,-1.52787 1.29522,-0.26405 2.41005,-0.53225 2.47744,-0.59598 0.0673,-0.0637 -9.1033,-4.46633 -20.37924,-9.78356 -11.27594,-5.31723 -20.60275,-9.7947 -20.72626,-9.94995 -0.12357,-0.15521 -0.18768,-0.3192 -0.14244,-0.36437 0.0453,-0.0453 10.20901,4.67686 22.58628,10.49339 l 22.50416,10.57551 -2.52593,0.11483 c -5.47528,0.24867 -9.95332,1.89522 -13.89302,5.10839 -0.57289,0.46723 -1.04159,0.80246 -1.04159,0.74496 z"
       id="path3693"
       inkscape:connector-curvature="0" />
    <path
       style="display:inline;fill:none;fill-rule:evenodd;stroke:#000000;stroke-width:2.02886438px;stroke-linecap:butt;stroke-linejoin:miter;stroke-opacity:1"
       d="m 340.63293,409.8358 0.46844,-48.89192 -36.95433,-5.79676 -42.75108,42.75108"
       id="path3695"
       inkscape:connector-curvature="0"
       sodipodi:nodetypes="cccc" />
    <path
       style="display:inline;fill:none;fill-rule:evenodd;stroke:#000000;stroke-width:2.02886438px;stroke-linecap:butt;stroke-linejoin:miter;stroke-opacity:1"
       d="M 317.91432,356.5963 283.1338,398.62278"
       id="path3697"
       inkscape:connector-curvature="0"
       sodipodi:nodetypes="cc" />
    <path
       style="display:inline;fill:#cccccc;fill-opacity:1;stroke:#999999;stroke-width:0.25618282;stroke-opacity:1"
       d="m 334.55493,408.0551 c -2.32485,-0.47563 -5.034,-1.03985 -6.0203,-1.25383 -0.9863,-0.21397 -11.13113,-2.24531 -22.54409,-4.5141 -11.41295,-2.26877 -20.78178,-4.1546 -20.81964,-4.19073 -0.0976,-0.0931 32.48366,-39.44885 32.73687,-39.54384 0.11457,-0.043 5.0108,0.67748 10.8802,1.60113 5.86937,0.92368 10.7872,1.67939 10.92846,1.67939 0.17084,0 0.20563,6.41775 0.10385,19.14968 -0.17915,22.44192 -0.32745,27.99888 -0.74573,27.96252 -0.1609,-0.0143 -2.19485,-0.41457 -4.51971,-0.89022 z"
       id="path3795"
       inkscape:connector-curvature="0" />
    <path
       style="display:inline;fill:#e6e6e6;fill-opacity:1;stroke:#999999;stroke-width:0.25618282;stroke-opacity:1"
       d="m 280.11607,397.12813 c -2.0551,-0.44173 -3.05441,-0.48225 -9.19622,-0.37291 l -6.89056,0.12274 20.26511,-20.2651 20.26511,-20.26512 5.17857,0.82258 c 2.84822,0.45242 5.22365,0.86767 5.27878,0.9228 0.084,0.084 -31.45947,38.39893 -32.31146,39.24795 -0.20689,0.2062 -0.90767,0.14851 -2.58933,-0.21285 z"
       id="path3797"
       inkscape:connector-curvature="0" />
    <path
       style="display:inline;fill:#e6e6e6;fill-opacity:1;stroke:#999999;stroke-width:0.25618282;stroke-opacity:1"
       d="m 336.3482,408.19838 c -3.96692,-0.8252 -50.81189,-10.24347 -50.94943,-10.24347 -0.0742,0 0.27536,-0.43232 0.77683,-0.9607 0.50146,-0.52837 3.6598,-4.30387 7.01856,-8.38998 3.35872,-4.08611 10.30644,-12.48063 15.43935,-18.65449 l 9.33258,-11.22519 0.92917,0.14325 c 0.51102,0.0789 5.13696,0.77761 10.27983,1.55293 5.14286,0.7753 9.62834,1.47468 9.96772,1.55417 l 0.61704,0.14446 -0.2038,20.79978 c -0.21022,21.45301 -0.33489,25.58896 -0.77411,25.67936 -0.1408,0.029 -1.23609,-0.15114 -2.43374,-0.40025 z"
       id="path3800"
       inkscape:connector-curvature="0" />
    <path
       style="display:inline;fill:none;fill-rule:evenodd;stroke:#000000;stroke-width:2.02886438px;stroke-linecap:butt;stroke-linejoin:miter;stroke-opacity:1"
       d="m 77.645046,458.08688 3.842744,-3.33037"
       id="path3802"
       inkscape:connector-curvature="0"
       sodipodi:nodetypes="cc" />
    <path
       style="display:inline;fill:none;fill-rule:evenodd;stroke:#000000;stroke-width:2.02886438px;stroke-linecap:butt;stroke-linejoin:miter;stroke-opacity:1"
       d="m 87.123823,473.20167 -6.148397,5.63602 -23.568811,-14.34624 -0.51237,-18.95752 21.007009,12.80913"
       id="path3804"
       inkscape:connector-curvature="0" />
    <path
       style="display:inline;fill:none;fill-rule:evenodd;stroke:#000000;stroke-width:2.02886438px;stroke-linecap:butt;stroke-linejoin:miter;stroke-opacity:1"
       d="M 56.894245,442.9721 C 45.6222,428.62585 45.365123,423.65431 46.646939,413.2549 c 4.844624,-39.30495 24.936042,-58.37944 44.06344,-67.63228 22.941311,-11.09781 40.989251,-14.34624 77.879561,-22.54409 44.39931,-9.86649 168.05596,-33.81612 168.05596,-33.81612"
       id="path3806"
       inkscape:connector-curvature="0"
       sodipodi:nodetypes="csssc" />
    <path
       style="display:inline;fill:none;fill-rule:evenodd;stroke:#000000;stroke-width:2.02886438px;stroke-linecap:butt;stroke-linejoin:miter;stroke-opacity:1"
       d="M 48.696396,393.785 30.25124,383.5377 c 0,0 14.346241,-33.81615 28.692463,-42.014 14.346242,-8.19785 60.459147,-23.56883 60.459147,-23.56883 l 27.66774,9.2226"
       id="path3808"
       inkscape:connector-curvature="0"
       sodipodi:nodetypes="ccscc" />
    <path
       style="display:inline;fill:#4d4d4d;fill-rule:evenodd;stroke:#000000;stroke-width:2.02886438px;stroke-linecap:butt;stroke-linejoin:miter;stroke-opacity:1"
       d="m 41.523286,364.0678 19.469894,1.02471 -2.049477,-28.69245 -10.247307,2.04945 z"
       id="path3810"
       inkscape:connector-curvature="0" />
    <path
       style="display:inline;fill:#4d4d4d;fill-rule:evenodd;stroke:#000000;stroke-width:1.45879638px;stroke-linecap:butt;stroke-linejoin:miter;stroke-opacity:1"
       d="m 109.40984,330.91476 13.99929,0.73679 -1.47363,-20.6305 -7.36803,1.4736 z"
       id="path3810-7"
       inkscape:connector-curvature="0" />
    <path
       style="display:inline;fill:none;fill-rule:evenodd;stroke:#000000;stroke-width:2.02886438px;stroke-linecap:butt;stroke-linejoin:miter;stroke-opacity:1"
       d="m 44.597481,416.32909 -17.420437,-8.19785 23.568809,-13.3215"
       id="path3827"
       inkscape:connector-curvature="0" />
    <path
       style="display:inline;fill:#666666;fill-opacity:1;stroke:#4d4d4d;stroke-width:1.02473128;stroke-opacity:1"
       d="m 37.263806,411.38991 c -3.22348,-1.50001 -5.874983,-2.98139 -5.892186,-3.29196 -0.03936,-0.71114 15.357042,-9.51308 15.778943,-9.02058 0.694805,0.81106 -2.140026,14.58593 -3.046664,14.80414 -0.538542,0.12965 -3.616593,-0.99161 -6.840093,-2.4916 z"
       id="path3829"
       inkscape:connector-curvature="0" />
    <path
       style="display:inline;fill:#cccccc;fill-opacity:1;stroke:#4d4d4d;stroke-width:1.02473128;stroke-opacity:1"
       d="m 62.076107,362.43477 c -0.0041,-2.1912 -0.296903,-7.71849 -0.65228,-12.2829 l -0.646152,-8.29888 11.668141,-4.92935 c 12.752376,-5.38741 36.839744,-14.10197 37.407924,-13.53381 0.19578,0.19577 -0.0975,1.93619 -0.65138,3.86775 -0.55395,1.93157 -1.0072,3.86083 -1.0072,4.28723 0,0.42643 2.88205,0.80076 6.40455,0.83183 l 6.40459,0.0566 -9.2226,3.04536 c -5.07241,1.67493 -14.446469,5.59346 -20.831211,8.70781 -9.747809,4.75479 -12.991983,6.99052 -20.238439,13.94743 l -8.629795,8.28494 -0.006,-3.98395 z"
       id="path3831"
       inkscape:connector-curvature="0" />
    <path
       style="display:inline;fill:#cccccc;fill-opacity:1;stroke:#4d4d4d;stroke-width:1.02473128;stroke-opacity:1"
       d="m 41.587621,388.03447 c -4.227017,-2.42348 -8.077519,-4.55307 -8.556655,-4.73245 -0.479137,-0.17936 1.064606,-4.2303 3.430566,-9.0021 l 4.301719,-8.676 9.890938,0.35639 c 5.440036,0.19599 10.065135,0.52391 10.278004,0.72862 0.212869,0.20472 -1.932189,5.11676 -4.766776,10.91564 -2.834588,5.79889 -5.544967,11.50482 -6.02307,12.67983 -0.841553,2.06835 -1.114069,1.99604 -8.554726,-2.26993 z"
       id="path3833"
       inkscape:connector-curvature="0" />
    <path
       style="display:inline;fill:#cccccc;fill-opacity:1;stroke:#4d4d4d;stroke-width:1.02473128;stroke-opacity:1"
       d="m 124.31521,326.51994 c -0.30959,-2.72772 -0.4632,-5.06264 -0.34135,-5.18871 0.45951,-0.47551 17.01269,5.30527 17.01269,5.94126 0,0.36617 -2.65149,1.23749 -5.8922,1.93626 -3.24071,0.69873 -6.86511,1.49549 -8.0542,1.77057 -1.91841,0.44374 -2.22544,-0.0588 -2.72494,-4.45938 z"
       id="path3835"
       inkscape:connector-curvature="0" />
    <path
       style="display:inline;fill:#999999;fill-rule:evenodd;stroke:#000000;stroke-width:1.78085315px;stroke-linecap:butt;stroke-linejoin:miter;stroke-opacity:1"
       d="m 334.07809,294.76015 c -28.81906,0.51845 -57.08139,4.59162 -55.96581,14.96914 0.99262,9.23381 37.96816,11.42385 57.50618,11.42385 24.64548,0 60.82032,-2.00548 60.07339,-12.6056 -0.72301,-10.26095 -31.57229,-14.32782 -61.61376,-13.78739 z"
       id="path3837"
       inkscape:connector-curvature="0"
       sodipodi:nodetypes="sssss" />
    <path
       style="display:inline;fill:#e6e6e6;fill-rule:evenodd;stroke:#000000;stroke-width:1.78085315px;stroke-linecap:butt;stroke-linejoin:miter;stroke-opacity:1"
       d="m 334.34435,288.38639 c -28.81906,0.51846 -57.08141,4.59162 -55.96581,14.96915 0.99262,9.23381 37.96814,11.42383 57.50616,11.42383 24.6455,0 60.82032,-2.00547 60.0734,-12.60558 -0.723,-10.26098 -31.57229,-14.32784 -61.61375,-13.7874 z"
       id="path3837-8"
       inkscape:connector-curvature="0"
       sodipodi:nodetypes="sssss" />
    <path
       style="display:inline;fill:none;fill-rule:evenodd;stroke:#000000;stroke-width:2.02886438px;stroke-linecap:butt;stroke-linejoin:miter;stroke-opacity:1"
       d="m 278.23621,303.09629 0,6.14838"
       id="path3854"
       inkscape:connector-curvature="0" />
    <path
       style="display:inline;fill:none;fill-rule:evenodd;stroke:#000000;stroke-width:2.02886438px;stroke-linecap:butt;stroke-linejoin:miter;stroke-opacity:1"
       d="m 395.82412,301.04682 -0.76857,9.22259"
       id="path3856"
       inkscape:connector-curvature="0"
       sodipodi:nodetypes="cc" />
    <path
       style="display:inline;fill:#4d4d4d;fill-opacity:1;stroke:none;stroke-opacity:1"
       d="m 69.476553,470.37091 -10.56801,-6.47542 -0.319769,-3.05935 c -0.580783,-5.55672 -0.39498,-12.78245 0.321615,-12.50748 0.35276,0.13533 4.656366,2.71374 9.56358,5.7297 l 8.922199,5.48358 2.142271,-1.51003 2.142281,-1.51002 0.613896,4.01027 c 0.337649,2.20563 1.180383,5.92265 1.872759,8.26001 l 1.258873,4.24974 -2.116298,1.92138 c -1.163952,1.05675 -2.374822,1.91276 -2.690836,1.9022 -0.316013,-0.009 -5.330174,-2.93309 -11.142561,-6.49458 z"
       id="path3982"
       inkscape:connector-curvature="0" />
    <path
       style="display:inline;fill:#4d4d4d;fill-rule:evenodd;stroke:#000000;stroke-width:1.78492701px;stroke-linecap:butt;stroke-linejoin:miter;stroke-opacity:1"
       d="m 346.32952,285.45806 -12.43073,5.73727 -1.27496,7.01221 22.31159,1.27495 0,-12.11199 z"
       id="path3859"
       inkscape:connector-curvature="0" />
    <path
       style="display:inline;fill:#b3b3b3;fill-rule:evenodd;stroke:#000000;stroke-width:2.02886438px;stroke-linecap:butt;stroke-linejoin:miter;stroke-opacity:1"
       d="m 355.23094,287.75983 28.25918,2.17379 0.3623,2.89839 -28.62148,-0.36231 z"
       id="path3865"
       inkscape:connector-curvature="0"
       sodipodi:nodetypes="ccccc" />
    <path
       style="display:inline;fill:#b3b3b3;fill-rule:evenodd;stroke:#000000;stroke-width:2.02886438px;stroke-linecap:butt;stroke-linejoin:miter;stroke-opacity:1"
       d="m 354.61924,293.95209 28.25917,2.17379 0.3623,2.89836 -28.62147,-0.36228 z"
       id="path3865-6"
       inkscape:connector-curvature="0"
       sodipodi:nodetypes="ccccc" />
    <path
       style="display:inline;fill:#f9f9f9;fill-rule:evenodd;stroke:#000000;stroke-width:2.02886438px;stroke-linecap:butt;stroke-linejoin:miter;stroke-opacity:1"
       d="m 329.50784,297.90416 2.17379,-7.97054 c 0,0 -16.66569,0.7246 -22.10014,2.17379 -5.43445,1.44919 -9.05742,3.62296 -6.88363,5.07215 2.17376,1.44921 26.80998,0.7246 26.80998,0.7246 z"
       id="path3882"
       inkscape:connector-curvature="0" />
    <path
       style="display:inline;fill:none;fill-rule:evenodd;stroke:#000000;stroke-width:2.02886438px;stroke-linecap:butt;stroke-linejoin:miter;stroke-opacity:1"
       d="m 392.70829,307.21465 96.55312,-19.176 -62.9154,-5.62094 -41.98121,9.44105 z"
       id="path3884"
       inkscape:connector-curvature="0"
       sodipodi:nodetypes="ccccc" />
    <path
       style="display:inline;fill:none;fill-rule:evenodd;stroke:#000000;stroke-width:2.02886438px;stroke-linecap:butt;stroke-linejoin:miter;stroke-opacity:1"
       d="m 487.7243,288.63895 40.51954,45.02781 -128.02589,-19.29407 -4.01101,-7.67039 z"
       id="path3886"
       inkscape:connector-curvature="0"
       sodipodi:nodetypes="ccccc" />
    <path
       style="display:inline;fill:none;fill-rule:evenodd;stroke:#000000;stroke-width:2.52811646px;stroke-linecap:butt;stroke-linejoin:miter;stroke-opacity:1"
       d="m 500.70957,299.36391 c 19.86377,0 24.97134,2.1344 32.19452,9.35759 7.22322,7.22317 24.5332,31.31821 24.5332,31.31821 l -27.61587,-5.19831 z"
       id="path3888"
       inkscape:connector-curvature="0"
       sodipodi:nodetypes="csccc" />
    <path
       style="display:inline;fill:none;fill-rule:evenodd;stroke:#000000;stroke-width:2.02886438px;stroke-linecap:butt;stroke-linejoin:miter;stroke-opacity:1"
       d="m 408.88943,439.38553 c 56.36023,-1.53709 82.49087,-18.95751 82.49087,-18.95751"
       id="path3890"
       inkscape:connector-curvature="0"
       sodipodi:nodetypes="cc" />
    <path
       style="display:inline;fill:none;fill-rule:evenodd;stroke:#000000;stroke-width:2.02886438px;stroke-linecap:butt;stroke-linejoin:miter;stroke-opacity:1"
       d="M 502.13997,428.62585 484.71955,425.0393"
       id="path3892"
       inkscape:connector-curvature="0" />
    <path
       style="display:inline;fill:#e6e6e6;fill-opacity:1;stroke:none;stroke-width:1.01015258;stroke-opacity:1"
       d="m 492.84435,324.84634 c -15.21727,-3.10187 -38.27371,-6.66389 -51.23658,-7.91561 -37.5011,-3.62118 -40.98924,-4.20209 -40.98924,-6.82622 0,-1.58982 15.40343,-5.43875 43.12623,-10.7762 l 43.12621,-8.30304 17.60028,19.1738 c 9.68019,10.54561 17.24943,19.42429 16.82058,19.73042 -0.42887,0.30614 -13.23023,-1.98128 -28.44748,-5.08315 z"
       id="path3957"
       inkscape:connector-curvature="0" />
    <path
       style="display:inline;fill:#e6e6e6;fill-opacity:1;stroke:#4d4d4d;stroke-width:2.04946256;stroke-opacity:1"
       d=""
       id="path3959"
       inkscape:connector-curvature="0" />
    <path
       style="display:inline;fill:#e6e6e6;fill-opacity:1;stroke:none;stroke-width:1.01015258;stroke-opacity:1"
       d="m 398.56907,302.25654 c 0,-0.9485 -1.77735,-3.50188 -3.94967,-5.67421 -3.89996,-3.89992 -3.71926,-4.00272 14.34567,-8.16208 16.44773,-3.787 20.52038,-3.98958 40.32764,-2.00604 12.11775,1.2135 22.21975,2.38401 22.44891,2.60113 0.22915,0.21711 -16.14094,3.67321 -36.37797,7.68022 -20.23702,4.00701 -36.79458,6.50945 -36.79458,5.56098 z"
       id="path3961"
       inkscape:connector-curvature="0" />
    <path
       style="display:inline;fill:#e6e6e6;fill-opacity:1;stroke:none;stroke-width:1.01015258;stroke-opacity:1"
       d="m 535.88305,333.89069 c -4.6026,-0.77975 -9.70964,-6.11587 -25.27685,-26.41061 l -3.75749,-4.8986 7.75586,0 c 6.76044,0 9.24914,1.53554 19.39078,11.96428 6.3992,6.58035 12.70213,13.95841 14.00653,16.39569 2.12073,3.96267 1.87619,4.39894 -2.31177,4.12436 -2.57586,-0.169 -6.98904,-0.69769 -9.80706,-1.17512 z"
       id="path3964"
       inkscape:connector-curvature="0" />
    <path
       style="fill:#e6e6e6;fill-opacity:1;stroke:#4d4d4d;stroke-width:1.02473128;stroke-opacity:1"
       d="m 172.07029,458.83307 -7.57064,-0.58394 69.82309,-58.71431 c 38.40268,-32.29286 69.8176,-59.03835 69.8109,-59.4344 -0.0435,-2.56827 -28.21389,-13.58435 -34.54005,-13.50691 -1.00415,0.0122 -33.64365,14.23492 -72.53218,31.60585 l -70.70645,31.5835 -4.23506,10.08492 c -4.52587,10.77747 -4.75751,10.9921 -13.18538,12.21642 -6.31596,0.91752 -10.127425,3.19169 -16.162424,9.64357 -6.493719,6.94233 -10.050467,14.44496 -11.442766,24.13743 -1.628291,11.33555 -2.213119,11.50565 -14.197536,4.1292 -5.384951,-3.31443 -9.580947,-6.36584 -9.324438,-6.78091 0.256529,-0.41504 -1.157933,-3.0156 -3.143237,-5.779 -1.985306,-2.76339 -4.30521,-6.68912 -5.155365,-8.72383 -3.121003,-7.46959 -1.225131,-23.82907 4.616477,-39.83543 9.777443,-26.79083 28.776869,-41.96291 65.969619,-52.68042 18.84714,-5.43099 148.42969,-33.19247 154.93292,-33.19247 0.97942,0 1.45031,1.18634 1.45031,3.65394 0,5.27609 1.32645,7.05471 7.11997,9.54701 15.77308,6.7854 73.46278,8.33179 98.23475,2.63322 15.56498,-3.58057 57.86443,-0.62774 97.97485,6.83941 29.89449,5.56531 55.0386,11.90177 105.62691,26.61858 45.61674,13.27052 72.78355,22.98377 98.63038,35.26435 l 11.52822,5.47738 0,5.70726 c 0,4.90223 -0.27168,5.70724 -1.92609,5.70724 -1.05934,0 -25.09703,-3.24666 -53.41708,-7.21481 -28.32003,-3.96816 -52.00842,-7.02304 -52.64084,-6.78861 -0.63243,0.23443 -2.3027,-0.64067 -3.7117,-1.94466 -1.69844,-1.57187 -32.2223,-13.09475 -90.56968,-34.19042 l -88.00784,-31.81952 -18.24673,7.69704 c -17.83161,7.52188 -30.66608,13.48023 -30.66608,14.23655 0,0.20771 12.33518,6.83317 27.41155,14.72324 42.38054,22.17945 68.26621,37.01215 92.21276,52.83866 14.30444,9.45393 14.28349,8.37323 0.26922,13.86892 -14.83037,5.81572 -33.91319,9.71478 -55.13742,11.26585 l -12.61112,0.92162 -28.89049,-13.59339 c -15.88981,-7.47636 -30.86499,-13.92516 -33.27826,-14.33067 l -4.3877,-0.7373 0.10698,-24.75416 c 0.1,-23.16996 -0.0122,-24.77952 -1.76068,-25.15097 -1.02712,-0.21823 -9.7067,-1.65846 -19.28794,-3.2005 l -17.42044,-2.80368 -22.03172,21.74418 -22.03172,21.74417 -8.19785,1.69143 c -15.23822,3.14401 -23.54238,8.81191 -32.31498,22.05612 -4.59323,6.93452 -6.11612,13.47898 -6.3029,27.08638 l -0.16454,11.99004 -16.47438,-0.18463 c -9.06088,-0.10166 -19.88114,-0.44742 -24.04503,-0.76856 z"
       id="path3941"
       inkscape:connector-curvature="0" />
    <path
       style="fill:none;fill-rule:evenodd;stroke:#000000;stroke-width:2.02886438px;stroke-linecap:butt;stroke-linejoin:miter;stroke-opacity:1"
       d="m 365.34718,316.82717 c 90.68872,-7.68548 182.48566,23.15271 244.29164,41.0734 63.65391,18.45643 107.90694,45.01911 107.90694,45.01911 l -5.45207,5.84743 -124.63024,-17.39027"
       id="path3902"
       inkscape:connector-curvature="0"
       sodipodi:nodetypes="csccc" />
    <path
       style="display:inline;fill:#999999;fill-rule:evenodd;stroke:#000000;stroke-width:2.02886438px;stroke-linecap:butt;stroke-linejoin:miter;stroke-opacity:1"
       d="m 503.67709,284.65113 c 7.54822,-5.49632 21.24442,1.66527 26.13065,14.85861 4.66841,12.60524 19.07761,36.83638 2.56181,50.21181 -8.07322,6.53814 -22.47622,1.70666 -29.71718,-16.39567 -6.14842,-15.37098 -15.55567,-36.60157 1.02472,-48.67475 z"
       id="path3970"
       inkscape:connector-curvature="0"
       sodipodi:nodetypes="sssss" />
    <path
       style="display:inline;fill:#b3b3b3;fill-rule:evenodd;stroke:#000000;stroke-width:2.02886438px;stroke-linecap:butt;stroke-linejoin:miter;stroke-opacity:1"
       d="m 514.69292,310.65367 c 0,0 9.31845,0.55354 11.01589,3.71466 1.51976,2.83028 -6.78887,10.2473 -6.78887,10.2473 0,0 -3.97083,-2.43373 -4.99555,-6.53267 -1.02474,-4.09892 0.89664,-7.42929 0.89664,-7.42929"
       id="path3976"
       inkscape:connector-curvature="0"
       sodipodi:nodetypes="cscsc" />
    <path
       style="display:inline;fill:#4d4d4d;fill-rule:evenodd;stroke:#000000;stroke-width:2.02886438px;stroke-linecap:butt;stroke-linejoin:miter;stroke-opacity:1"
       d="m 511.01875,347.90118 c 0,0 -4.70986,0.72458 -26.0854,-3.62297 -21.37554,-4.34757 -19.56405,-3.26069 -19.56405,-3.26069 l -2.17379,-23.18701 30.79526,-17.39028 c 0,0 -0.72458,4.70987 0.36231,11.23124 1.0869,6.52133 6.52135,19.20173 9.05743,25.36079 2.53608,6.15905 7.60824,10.86892 7.60824,10.86892 z"
       id="path3980"
       inkscape:connector-curvature="0"
       sodipodi:nodetypes="cscccssc" />
    <path
       style="fill:none;fill-rule:evenodd;stroke:#000000;stroke-width:2.02886438px;stroke-linecap:butt;stroke-linejoin:miter;stroke-opacity:1"
       d="M 160.67733,459.48872 301.97326,340.65523"
       id="path3701"
       inkscape:connector-curvature="0"
       sodipodi:nodetypes="cc" />
    <path
       style="fill:none;fill-rule:evenodd;stroke:#000000;stroke-width:2.02886438px;stroke-linecap:butt;stroke-linejoin:miter;stroke-opacity:1"
       d="m 223.71705,479.05278 -64.48889,-1.4492"
       id="path3707"
       inkscape:connector-curvature="0" />
    <path
       style="fill:none;fill-rule:evenodd;stroke:#000000;stroke-width:2.02886438px;stroke-linecap:butt;stroke-linejoin:miter;stroke-opacity:1"
       d="m 167.19868,460.93792 0.7246,15.94107"
       id="path3709"
       inkscape:connector-curvature="0" />
    <path
       style="fill:none;fill-rule:evenodd;stroke:#000000;stroke-width:2.02886438px;stroke-linecap:butt;stroke-linejoin:miter;stroke-opacity:1"
       d="m 172.99544,465.28546 37.67892,0.72462 0.7246,7.97053 -38.40352,0 z"
       id="path3711"
       inkscape:connector-curvature="0" />
    <path
       style="fill:none;fill-rule:evenodd;stroke:#000000;stroke-width:2.02886438px;stroke-linecap:butt;stroke-linejoin:miter;stroke-opacity:1"
       d="m 184.58896,466.01008 -0.72458,6.52133"
       id="path3713"
       inkscape:connector-curvature="0" />
    <path
       style="fill:none;fill-rule:evenodd;stroke:#000000;stroke-width:2.02886438px;stroke-linecap:butt;stroke-linejoin:miter;stroke-opacity:1"
       d="m 196.90706,466.01008 0,7.97053"
       id="path3716"
       inkscape:connector-curvature="0" />
    <path
       style="fill:none;fill-rule:evenodd;stroke:#000000;stroke-width:2.02886438px;stroke-linecap:butt;stroke-linejoin:miter;stroke-opacity:1"
       d="m 192.5595,431.95413 -25.36082,-34.78054 -39.85269,-5.79675 -7.97054,18.83946"
       id="path3718"
       inkscape:connector-curvature="0" />
    <path
       style="fill:none;fill-rule:evenodd;stroke:#000000;stroke-width:2.02886438px;stroke-linecap:butt;stroke-linejoin:miter;stroke-opacity:1"
       d="m 166.92699,397.26417 125.62655,-62.40569 10.8689,5.79675"
       id="path3720"
       inkscape:connector-curvature="0"
       sodipodi:nodetypes="ccc" />
    <path
       style="fill:none;fill-rule:evenodd;stroke:#000000;stroke-width:2.02886438px;stroke-linecap:butt;stroke-linejoin:miter;stroke-opacity:1"
       d="m 128.0706,390.65225 141.2959,-63.03972 23.3553,6.77754"
       id="path3722"
       inkscape:connector-curvature="0"
       sodipodi:nodetypes="ccc" />
    <path
       style="fill:none;fill-rule:evenodd;stroke:#000000;stroke-width:2.02886438px;stroke-linecap:butt;stroke-linejoin:miter;stroke-opacity:1"
       d="m 141.83789,408.04251 c 15.94106,1.44918 15.94109,2.89839 23.91162,7.97055 7.97054,5.07215 16.30336,25.3608 16.30336,25.3608"
       id="path3724"
       inkscape:connector-curvature="0"
       sodipodi:nodetypes="csc" />
    <path
       style="fill:none;fill-rule:evenodd;stroke:#000000;stroke-width:1.84268379px;stroke-linecap:butt;stroke-linejoin:miter;stroke-opacity:1"
       d="m 107.04156,417.43 c 23.69164,2.6324 31.02803,9.67275 38.16986,21.38828 7.99782,13.11982 5.67632,18.82474 6.25197,32.57601 0.56053,13.39075 -8.55532,23.36263 -17.11061,25.99503 -8.55533,2.63239 -26.48328,2.06459 -34.879386,-10.52963 -7.897217,-11.84583 -15.136329,-33.89222 -9.871497,-48.37045 5.2648,-14.47822 17.439663,-20.73018 17.439663,-20.73018"
       id="path3726"
       inkscape:connector-curvature="0"
       sodipodi:nodetypes="csssssc" />
    <path
       style="fill:none;fill-rule:evenodd;stroke:#000000;stroke-width:2.02886438px;stroke-linecap:butt;stroke-linejoin:miter;stroke-opacity:1"
       d="m 129.88207,504.41358 42.02648,-11.59352 c 0,0 4.34758,-4.34757 5.79675,-7.60824 1.44921,-3.26067 3.26069,-5.79676 3.26069,-5.79676"
       id="path3728"
       inkscape:connector-curvature="0" />
    <path
       style="fill:none;fill-rule:evenodd;stroke:#000000;stroke-width:2.02886438px;stroke-linecap:butt;stroke-linejoin:miter;stroke-opacity:1"
       d="m 148.61191,407.15425 -44.92484,7.24594 c 26.0854,2.89837 34.16304,10.65005 42.02645,23.54932 8.80593,14.4454 6.24985,20.72673 6.88366,35.86742 0.61718,14.74371 -9.41972,25.72312 -18.83946,28.62148 -9.41973,2.89838 -29.15904,2.27321 -38.403495,-11.59351 -8.695138,-13.04272 -16.665652,-37.31661 -10.868907,-53.25769 5.796755,-15.94107 19.201752,-22.82473 19.201752,-22.82473"
       id="path3726-8"
       inkscape:connector-curvature="0"
       sodipodi:nodetypes="ccsssssc" />
    <path
       style="fill:#e6e6e6;fill-opacity:1;stroke:#b3b3b3;stroke-width:0.51236564;stroke-opacity:1"
       d="m 115.42867,496.20633 c -8.39468,-2.19917 -13.59395,-6.67554 -18.135875,-15.61437 -5.437003,-10.70031 -8.09243,-20.59588 -8.09243,-30.15672 0,-2.97124 0.258492,-6.62404 0.574422,-8.11736 1.671686,-7.90164 8.327212,-17.28652 15.736383,-22.18968 l 2.22007,-1.46917 4.29894,0.62156 c 10.19034,1.47337 18.58981,4.92716 23.96828,9.85557 5.90579,5.41157 11.87073,15.5468 13.39705,22.76335 1.10953,5.2459 1.07643,23.65235 -0.0492,27.44665 -1.2636,4.25885 -3.12172,7.55152 -5.9477,10.53959 -5.29952,5.60344 -9.85368,7.37677 -18.82445,7.3299 -3.59302,-0.0182 -6.6536,-0.35655 -9.14535,-1.00932 l 0,0 z"
       id="path3754"
       inkscape:connector-curvature="0" />
    <path
       style="fill:#e6e6e6;fill-opacity:1;stroke:#b3b3b3;stroke-width:0.51236564;stroke-opacity:1"
       d="m 144.47518,497.17249 c 4.64295,-4.62491 7.59058,-10.04665 8.78328,-16.15555 0.92634,-4.74456 0.38167,-27.08296 -0.75995,-31.16689 -1.13048,-4.0442 -4.19524,-10.32179 -7.42584,-15.21054 -6.92738,-10.48296 -14.37564,-15.71139 -26.87965,-18.86855 -4.57347,-1.15477 -5.32008,-1.46901 -4.09892,-1.72509 5.49956,-1.15337 27.4005,-4.41653 29.64176,-4.41653 3.98536,0 10.90157,1.43296 13.85985,2.8716 5.44625,2.64852 10.11322,6.43809 13.1372,10.66729 2.69151,3.76423 8.64245,14.56047 9.36683,16.9933 0.26951,0.90518 -1.2597,2.39843 -9.86807,9.63605 -9.46752,7.95999 -11.81092,10.4197 -11.06968,11.61908 0.1611,0.2607 1.74295,0.47397 3.51522,0.47397 l 3.22228,0 0.33402,5.45955 c 0.18383,3.00274 0.33406,6.29276 0.33406,7.31118 l 0,1.85162 -3.84274,-0.19416 c -3.80011,-0.19193 -3.84273,-0.17996 -3.84273,1.07513 l 0,1.2692 10.21583,0.45199 10.21582,0.45201 -2.40226,4.17226 c -4.63342,8.04739 -3.52034,7.36991 -19.25909,11.72218 -7.58045,2.09626 -14.26683,3.95674 -14.85859,4.13441 -0.70386,0.21133 -0.12234,-0.62686 1.68137,-2.4236 z"
       id="path3756"
       inkscape:connector-curvature="0" />
    <path
       style="fill:#e6e6e6;fill-opacity:1;stroke:#b3b3b3;stroke-width:0.51236564;stroke-opacity:1"
       d="m 113.39423,501.3338 c -6.74708,-1.76775 -12.18389,-5.08911 -15.78027,-9.64016 -2.853133,-3.6105 -7.894151,-13.68958 -9.908855,-19.81186 -3.669134,-11.1498 -4.837496,-23.64693 -2.89391,-30.95378 1.183177,-4.44812 3.91969,-9.79362 7.277867,-14.21656 3.988839,-5.25362 10.918748,-10.93372 13.339508,-10.93372 1.52318,0 1.97733,0.86911 0.67085,1.2838 -2.12934,0.6758 -8.535006,6.3266 -11.360728,10.02191 -5.360869,7.01058 -8.103023,14.77836 -8.098091,22.93979 0.0083,13.45731 7.450351,33.72122 15.177599,41.32597 4.84062,4.7639 12.21485,7.75538 20.42666,8.28638 8.86949,0.57357 15.67512,-1.43883 21.13817,-6.25041 3.68106,-3.24211 3.39449,-2.16247 -0.44092,1.66107 -5.6326,5.6152 -10.33668,7.33872 -19.90516,7.29308 -4.09278,-0.0203 -7.06073,-0.329 -9.64272,-1.00551 z"
       id="path3759"
       inkscape:connector-curvature="0" />
    <path
       style="fill:#e6e6e6;fill-opacity:1;stroke:#b3b3b3;stroke-width:0.51236564;stroke-opacity:1"
       d="m 179.76657,433.52213 c -5.87125,-11.57606 -9.2978,-15.92711 -15.92279,-20.21881 -4.71257,-3.05282 -8.825,-4.77573 -13.03146,-5.45952 -1.36666,-0.22217 -2.17754,-0.62342 -2.17754,-1.07749 0,-0.39794 -0.17286,-0.72593 -0.38429,-0.72888 -0.21134,-0.002 -6.32707,0.95201 -13.59049,2.12207 -7.26341,1.17007 -13.32453,2.00904 -13.46917,1.8644 -0.2491,-0.24907 6.23507,-16.12966 6.89885,-16.8962 0.40601,-0.46886 37.95334,5.01247 38.57177,5.63091 0.25789,0.25787 5.86159,7.82405 12.45268,16.81376 l 11.98379,16.34487 -2.29015,2.14725 c -1.25957,1.181 -3.15486,2.83212 -4.21171,3.66916 l -1.92155,1.52191 -2.90794,-5.73343 z"
       id="path3761"
       inkscape:connector-curvature="0" />
    <path
       style="fill:#e6e6e6;fill-opacity:1;stroke:#b3b3b3;stroke-width:0.51236564;stroke-opacity:1"
       d="m 181.95271,415.2487 c -6.0799,-8.33309 -12.68882,-17.20478 -12.44132,-17.44853 0.24388,-0.24019 27.97727,-13.95167 61.46201,-30.70548 l 61.58785,-30.81487 3.61069,1.89736 c 1.98589,1.04356 3.61071,2.0711 3.61071,2.28345 0,0.45216 -105.28353,89.08191 -106.27065,89.46069 -0.42073,0.1615 -4.6913,-5.25935 -11.55929,-14.67262 z"
       id="path3763"
       inkscape:connector-curvature="0"
       sodipodi:nodetypes="ssscsscs" />
    <path
       style="fill:#e6e6e6;fill-opacity:1;stroke:#b3b3b3;stroke-width:0.51236564;stroke-opacity:1"
       d="m 166.87943,395.63404 -16.13629,-2.07697 c -9.48897,-1.22135 -17.63343,-2.59788 -18.13491,-2.79175 -0.62585,-0.24201 20.44761,-9.8824 67.21263,-30.74749 37.46837,-16.71723 68.58805,-30.51623 69.1548,-30.66443 0.56675,-0.14831 5.66699,0.94689 11.33384,2.43356 l 10.30343,2.70303 -4.5153,2.34454 c -2.48339,1.28949 -30.61055,13.68727 -61.25235,29.74241 -17.50006,8.52561 -41.30746,20.54568 -57.96585,29.0571 z"
       id="path3765"
       inkscape:connector-curvature="0"
       sodipodi:nodetypes="cscscscscc" />
    <path
       style="fill:#e6e6e6;fill-opacity:1;stroke:#b3b3b3;stroke-width:0.51236564;stroke-opacity:1"
       d="m 190.64875,477.12107 c -11.69474,-0.26268 -21.30813,-0.51797 -21.36309,-0.56733 -0.0549,-0.0493 -0.26397,-3.40409 -0.46449,-7.45497 l -0.36454,-7.36522 15.83545,0.33937 c 8.70948,0.18666 19.00571,0.36062 22.88047,0.38658 5.11709,0.0343 7.04503,0.21574 7.04503,0.66293 0,1.19892 4.20744,9.31 6.20481,11.96162 l 2.02624,2.68993 -5.26836,-0.0877 c -2.89758,-0.0483 -14.83675,-0.30256 -26.53152,-0.56525 z m 21.79361,-5.87977 c -0.5228,-6.3765 -0.40898,-6.16454 -3.47706,-6.47505 -1.47916,-0.14972 -10.47095,-0.38412 -19.98174,-0.52094 l -17.29234,-0.24878 0,5.6078 0,5.6078 20.53834,0 20.53836,0 -0.32556,-3.97083 z"
       id="path3769"
       inkscape:connector-curvature="0" />
    <path
       style="fill:#e6e6e6;fill-opacity:1;stroke:#b3b3b3;stroke-width:0.51236564;stroke-opacity:1"
       d="m 198.33423,469.8323 0,-2.81801 5.63602,0 c 5.59109,0 5.63602,0.009 5.63602,1.21686 0,0.66929 0.14406,1.93738 0.32025,2.81802 l 0.32024,1.60113 -5.95627,0 -5.95626,0 0,-2.818 z"
       id="path3771"
       inkscape:connector-curvature="0" />
    <path
       style="fill:#e6e6e6;fill-opacity:1;stroke:#b3b3b3;stroke-width:0.51236564;stroke-opacity:1"
       d="m 185.20216,471.49749 c 0.17002,-0.63405 0.31211,-1.90215 0.31594,-2.81801 l 0.006,-1.66519 5.12366,0 5.12365,0 0,2.81801 0,2.818 -5.43959,0 c -5.39101,0 -5.43682,-0.009 -5.13064,-1.15281 z"
       id="path3773"
       inkscape:connector-curvature="0" />
    <path
       style="fill:#cccccc;fill-opacity:1;stroke:#b3b3b3;stroke-width:0.51236564;stroke-opacity:1"
       d="m 174.25305,469.57613 0,-3.0742 4.50842,0 4.50841,0 -0.17815,1.92136 c -0.40856,4.4046 -0.20904,4.22701 -4.7494,4.22701 l -4.08917,0 0,-3.07417 z"
       id="path3775"
       inkscape:connector-curvature="0" />
    <path
       style="fill:#cccccc;fill-opacity:1;stroke:#b3b3b3;stroke-width:0.51236564;stroke-opacity:1"
       d="m 116.46264,495.98236 c -9.34399,-2.12259 -14.56604,-6.84317 -19.859197,-17.95222 -4.718676,-9.90328 -6.890714,-18.71848 -6.890714,-27.9658 0,-8.04668 1.370842,-12.63488 5.663684,-18.95636 2.974902,-4.38076 5.334307,-6.91533 8.866997,-9.52538 3.49499,-2.58218 4.22775,-2.66238 11.15929,-1.22118 8.3044,1.72665 14.37359,4.30789 19.21659,8.17286 4.94968,3.95011 10.97186,13.07844 13.55549,20.54721 1.01915,2.9461 1.17727,4.6015 1.37039,14.34624 0.13493,6.80327 0.002,12.19148 -0.34616,14.09006 -1.33283,7.25869 -6.63244,14.20487 -13.17267,17.26541 -3.19124,1.49336 -3.90302,1.62078 -9.88949,1.7703 -4.29515,0.10733 -7.5279,-0.0835 -9.67421,-0.57114 z"
       id="path3777"
       inkscape:connector-curvature="0" />
    <path
       style="fill:#cccccc;fill-opacity:1;stroke:#b3b3b3;stroke-width:0.51236564;stroke-opacity:1"
       d="m 174.76542,469.57613 0,-2.56184 4.14396,0 4.14397,0 -0.36032,2.17755 c -0.19822,1.19766 -0.46263,2.35048 -0.58765,2.56183 -0.12497,0.21134 -1.82765,0.38429 -3.78365,0.38429 l -3.55631,0 0,-2.56183 z"
       id="path3779"
       inkscape:connector-curvature="0" />
    <path
       style="fill:#cccccc;fill-opacity:1;stroke:#b3b3b3;stroke-width:0.51236564;stroke-opacity:1"
       d="m 185.71454,470.98511 c 0.17001,-0.63403 0.31208,-1.67157 0.31593,-2.30563 0.006,-1.10961 0.17976,-1.15283 4.61828,-1.15283 l 4.61131,0 0,2.30565 0,2.30566 -4.92725,0 c -4.85967,0 -4.92299,-0.0162 -4.61827,-1.15285 z"
       id="path3781"
       inkscape:connector-curvature="0" />
    <path
       style="fill:#cccccc;fill-opacity:1;stroke:#b3b3b3;stroke-width:0.51236564;stroke-opacity:1"
       d="m 198.8466,469.8323 0,-2.30565 5.12365,0 c 4.00577,0 5.12368,0.15379 5.12368,0.7045 0,0.38748 0.14405,1.42502 0.32021,2.30564 l 0.32023,1.60117 -5.44388,0 -5.44389,0 0,-2.30566 z"
       id="path3783"
       inkscape:connector-curvature="0" />
    <path
       style="fill:#4d4d4d;fill-opacity:1;stroke:#b3b3b3;stroke-width:0.51236564;stroke-opacity:1"
       d="m 187.61002,476.66131 c -9.70264,-0.24142 -17.72073,-0.5185 -17.81799,-0.61575 -0.0972,-0.0972 -0.32175,-3.20662 -0.49886,-6.90969 l -0.32206,-6.73287 10.96693,0.065 c 6.03178,0.0358 16.03932,0.20862 22.23894,0.38426 l 11.27205,0.31936 2.56182,4.93712 c 1.40901,2.71545 3.19916,5.8857 3.97811,7.04503 l 1.41629,2.10791 -8.07704,-0.0808 c -4.44236,-0.0444 -16.01555,-0.2782 -25.71819,-0.51961 z m 25.3043,-5.16382 c -0.54025,-6.54403 -0.68943,-6.72484 -5.87565,-7.12149 -2.39213,-0.183 -11.43918,-0.45284 -20.10456,-0.59977 l -15.75525,-0.26713 0,6.10771 0,6.10769 21.04221,0 21.04219,0 -0.34894,-4.22701 z"
       id="path3785"
       inkscape:connector-curvature="0" />
    <path
       style="fill:none;fill-rule:evenodd;stroke:#b3b3b3;stroke-width:2.02886438px;stroke-linecap:butt;stroke-linejoin:miter;stroke-opacity:1"
       d="m 131.69963,421.45274 32.7914,-6.1484"
       id="path3787"
       inkscape:connector-curvature="0" />
    <path
       style="fill:none;fill-rule:evenodd;stroke:#b3b3b3;stroke-width:2.02886438px;stroke-linecap:butt;stroke-linejoin:miter;stroke-opacity:1"
       d="m 143.99642,434.77425 30.74192,-6.1484"
       id="path3789"
       inkscape:connector-curvature="0" />
    <path
       style="fill:none;fill-rule:evenodd;stroke:#b3b3b3;stroke-width:2.02886438px;stroke-linecap:butt;stroke-linejoin:miter;stroke-opacity:1"
       d="m 151.16953,448.09575 30.22957,-6.66074"
       id="path3791"
       inkscape:connector-curvature="0" />
    <path
       style="fill:none;fill-rule:evenodd;stroke:#999999;stroke-width:2.02886438px;stroke-linecap:butt;stroke-linejoin:miter;stroke-opacity:1"
       d="m 152.70662,455.26886 16.90806,-3.58655"
       id="path3793"
       inkscape:connector-curvature="0" />
    <path
       style="fill:none;fill-rule:evenodd;stroke:#000000;stroke-width:2.02886438px;stroke-linecap:butt;stroke-linejoin:miter;stroke-opacity:1"
       d="M 490.35558,419.91563 C 445.26739,387.12423 358.67759,344.5979 358.67759,344.5979 l 6.66076,-3.0742 127.06668,48.16236 z"
       id="path3894"
       inkscape:connector-curvature="0" />
    <path
       style="fill:none;fill-rule:evenodd;stroke:#000000;stroke-width:2.02886438px;stroke-linecap:butt;stroke-linejoin:miter;stroke-opacity:1"
       d="m 365.33835,341.01134 39.96452,-16.90808 175.7414,63.53336 -30.22956,25.61828 -58.92204,-24.08119"
       id="path3896"
       inkscape:connector-curvature="0"
       sodipodi:nodetypes="ccccc" />
    <path
       style="fill:none;fill-rule:evenodd;stroke:#000000;stroke-width:2.02886438px;stroke-linecap:butt;stroke-linejoin:miter;stroke-opacity:1"
       d="m 580.53193,387.63661 9.73493,8.71021 -39.45213,36.89032 0.51234,-20.49461"
       id="path3898"
       inkscape:connector-curvature="0"
       sodipodi:nodetypes="cccc" />
    <path
       style="fill:none;fill-rule:evenodd;stroke:#000000;stroke-width:2.02886438px;stroke-linecap:butt;stroke-linejoin:miter;stroke-opacity:1"
       d="m 551.32707,433.23714 -59.4344,-12.80913"
       id="path3900"
       inkscape:connector-curvature="0"
       sodipodi:nodetypes="cc" />
    <path
       style="fill:none;fill-rule:evenodd;stroke:#000000;stroke-width:2.02886438px;stroke-linecap:butt;stroke-linejoin:miter;stroke-opacity:1"
       d="M 709.19532,426.15738 577.31914,408.76711"
       id="path3904"
       inkscape:connector-curvature="0" />
    <path
       style="fill:none;fill-rule:evenodd;stroke:#000000;stroke-width:2.02886438px;stroke-linecap:butt;stroke-linejoin:miter;stroke-opacity:1"
       d="m 711.36911,409.49169 -2.17379,16.66569"
       id="path3906"
       inkscape:connector-curvature="0" />
    <path
       style="fill:none;fill-rule:evenodd;stroke:#000000;stroke-width:2.02886438px;stroke-linecap:butt;stroke-linejoin:miter;stroke-opacity:1"
       d="m 710.05256,409.80945 6.52136,-6.52133 5.90286,5.43445 0.10612,6.96403 -2.02371,3.24244 -9.69413,6.35309 z"
       id="path3566-6"
       inkscape:connector-curvature="0"
       sodipodi:nodetypes="ccccccc" />
    <path
       style="fill:none;fill-rule:evenodd;stroke:#000000;stroke-width:2.02886438px;stroke-linecap:butt;stroke-linejoin:miter;stroke-opacity:1"
       d="m 710.41488,410.17175 4.02922,2.64221 0.25618,6.68964 -3.56082,5.16004 z"
       id="path3569-5"
       inkscape:connector-curvature="0"
       sodipodi:nodetypes="ccccc" />
    <path
       style="fill:none;fill-rule:evenodd;stroke:#000000;stroke-width:2.02886438px;stroke-linecap:butt;stroke-linejoin:miter;stroke-opacity:1"
       d="m 721.92048,408.21021 -7.88264,4.85993"
       id="path3571-4"
       inkscape:connector-curvature="0"
       sodipodi:nodetypes="cc" />
    <path
       style="fill:#cccccc;fill-rule:evenodd;stroke:#000000;stroke-width:2.02886438px;stroke-linecap:butt;stroke-linejoin:miter;stroke-opacity:1"
       d="m 714.94573,419.05808 7.68549,-3.33038"
       id="path3575-4"
       inkscape:connector-curvature="0" />
    <path
       style="fill:#ececec;fill-opacity:1;stroke:none;stroke-width:0.25253814;stroke-opacity:1"
       d="m 712.92002,410.33662 c -0.79792,-0.60623 -0.67588,-0.86223 1.36662,-2.86679 l 2.24276,-2.20112 1.57949,1.12471 c 0.86873,0.61858 1.57221,1.28192 1.56332,1.47407 -0.0223,0.48231 -4.51697,3.17117 -5.26722,3.15111 -0.33485,-0.008 -1.00308,-0.31585 -1.48497,-0.68198 z"
       id="path3579-2"
       inkscape:connector-curvature="0" />
    <path
       style="fill:#ececec;fill-opacity:1;stroke:#502d16;stroke-width:0.1811486;stroke-opacity:1"
       d="m 712.03071,420.09225 c -0.0599,-0.67835 -0.15704,-2.53763 -0.21517,-4.13172 -0.0582,-1.59412 -0.14303,-3.07895 -0.18868,-3.29964 -0.0797,-0.38647 -0.0504,-0.38105 0.79837,0.14648 l 0.88123,0.54781 0.11688,1.64748 c 0.0643,0.9061 0.11663,2.22595 0.11652,2.93296 -5.2e-4,1.18925 -0.053,1.36432 -0.70015,2.3377 l -0.69957,1.0522 -0.10938,-1.23333 z"
       id="path3588-3"
       inkscape:connector-curvature="0" />
    <path
       style="fill:#ececec;fill-opacity:1;stroke:none;stroke-width:0.04464286;stroke-opacity:1"
       d="m 714.69769,421.39703 c 0.003,-0.0415 0.24023,-0.40155 0.52465,-0.80006 l 0.51713,-0.72459 1.93237,-0.84139 c 1.0628,-0.46277 1.94684,-0.82693 1.96453,-0.80921 0.0292,0.0292 -4.68903,3.15001 -4.86914,3.22053 -0.0423,0.0162 -0.0736,-0.003 -0.0695,-0.0453 z"
       id="path3590-4"
       inkscape:connector-curvature="0" />
    <path
       style="fill:#f2f2f2;fill-opacity:1;stroke:#4d4d4d;stroke-width:1.02473128;stroke-opacity:1"
       d="m 521.38884,399.80885 c -15.49906,-6.3766 -55.97165,-22.08892 -89.93913,-34.91626 -33.96744,-12.82734 -61.40463,-23.65829 -60.97151,-24.06882 0.43315,-0.4105 8.47852,-3.97851 17.87866,-7.92889 l 17.09114,-7.1825 85.89434,31.06013 c 47.2419,17.08307 85.69127,31.45599 85.44305,31.93986 -0.6055,1.18038 -26.05227,22.88327 -26.70407,22.77524 -0.2818,-0.0467 -13.19342,-5.30218 -28.69248,-11.67876 z"
       id="path3943"
       inkscape:connector-curvature="0" />
    <path
       style="fill:#cccccc;fill-opacity:1;stroke:#4d4d4d;stroke-width:1.02473128;stroke-opacity:1"
       d="m 478.35015,409.98012 c -19.96396,-13.61998 -56.90161,-34.77434 -95.16366,-54.50059 -14.52826,-7.49014 -20.42086,-11.0117 -19.39057,-11.58826 0.9621,-0.53842 23.32682,7.45076 63.90932,22.82987 34.33612,13.01198 62.56977,23.77521 62.74143,23.91831 0.58996,0.49165 -1.12416,26.10805 -1.74277,26.0451 -0.34036,-0.0346 -4.99954,-3.05162 -10.35375,-6.70443 z"
       id="path3945"
       inkscape:connector-curvature="0" />
    <path
       style="fill:#cccccc;fill-opacity:1;stroke:#4d4d4d;stroke-width:1.02473128;stroke-opacity:1"
       d="m 519.54006,424.95994 c -14.82509,-3.26283 -27.11858,-6.09955 -27.31887,-6.30386 -0.4843,-0.49406 1.41772,-25.73678 1.98178,-26.30083 0.51365,-0.51364 53.90957,21.10388 55.23744,22.36308 1.32945,1.26071 -0.30017,16.39724 -1.75217,16.27472 -0.65642,-0.0555 -13.32311,-2.77029 -28.14818,-6.03311 z"
       id="path3947"
       inkscape:connector-curvature="0" />
    <path
       style="fill:#cccccc;fill-opacity:1;stroke:#4d4d4d;stroke-width:1.02473128;stroke-opacity:1"
       d="m 552.43169,421.58484 0,-7.66224 12.56477,-10.62812 c 6.91062,-5.84549 13.32989,-11.23071 14.26505,-11.96715 1.45695,-1.14737 2.18855,-0.88701 5.11185,1.81918 l 3.41155,3.1582 -11.7844,11.28322 c -6.48142,6.20577 -14.43588,13.61781 -17.67661,16.47117 l -5.89221,5.18797 0,-7.66223 z"
       id="path3949"
       inkscape:connector-curvature="0" />
    <path
       style="fill:#e6e6e6;fill-opacity:1;stroke:#4d4d4d;stroke-width:1.02473128;stroke-opacity:1"
       d="m 436.35023,458.4166 c -2.37323,-5.77211 -6.84125,-9.99641 -15.14674,-14.32047 l -6.72339,-3.50038 9.28522,-0.65369 c 17.60371,-1.2393 41.2311,-6.19809 53.72856,-11.27625 5.88432,-2.39103 6.03281,-2.3991 13.77284,-0.74963 l 7.82441,1.66743 -10.47624,16.63672 -10.47622,16.63669 -19.98225,-0.002 -19.98226,-0.002 -1.82393,-4.43612 z"
       id="path3951"
       inkscape:connector-curvature="0" />
    <path
       style="fill:#808080;fill-opacity:1;stroke:#4d4d4d;stroke-width:1.02473128;stroke-opacity:1"
       d="m 644.92904,416.18107 c -34.5122,-4.55612 -63.01243,-8.54686 -63.33387,-8.86827 -0.32141,-0.32144 1.95057,-2.81937 5.04885,-5.55102 5.24751,-4.62647 5.52119,-5.09041 3.99681,-6.77483 -0.90005,-0.99454 -1.42168,-1.80826 -1.1592,-1.80826 0.2625,0 26.73359,3.68497 58.8247,8.18883 32.09106,4.50385 58.67237,8.1929 59.06953,8.19785 1.26238,0.0162 1.92513,6.51822 1.09919,10.78466 l -0.79657,4.11489 -62.74944,-8.28385 z"
       id="path3953"
       inkscape:connector-curvature="0" />
    <path
       style="fill:#e6e6e6;fill-opacity:1;stroke:#4d4d4d;stroke-width:1.02473128;stroke-opacity:1"
       d="m 699.79203,405.757 -3.78753,-0.39867 0.60073,-5.32126 c 0.33039,-2.92669 0.73149,-5.47822 0.89129,-5.67003 0.15988,-0.19172 4.03179,1.59764 8.60435,3.97655 7.97646,4.1498 8.24346,4.40304 6.58016,6.24098 -1.72774,1.90911 -3.96062,2.11224 -12.889,1.17243 z"
       id="path3955"
       inkscape:connector-curvature="0" />
  </g>
</svg>
