<?xml version="1.0" encoding="UTF-8" standalone="no"?>
<!-- Created with Inkscape (http://www.inkscape.org/) -->

<svg
   xmlns:dc="http://purl.org/dc/elements/1.1/"
   xmlns:cc="http://creativecommons.org/ns#"
   xmlns:rdf="http://www.w3.org/1999/02/22-rdf-syntax-ns#"
   xmlns:svg="http://www.w3.org/2000/svg"
   xmlns="http://www.w3.org/2000/svg"
   xmlns:xlink="http://www.w3.org/1999/xlink"
   xmlns:sodipodi="http://sodipodi.sourceforge.net/DTD/sodipodi-0.dtd"
   xmlns:inkscape="http://www.inkscape.org/namespaces/inkscape"
   width="210mm"
   height="297mm"
   viewBox="0 0 744.09448819 1052.3622047"
   id="svg2"
   version="1.1"
   inkscape:version="0.91 r13725"
   sodipodi:docname="negaunee.svg">
  <defs
     id="defs4" />
  <sodipodi:namedview
     id="base"
     pagecolor="#ffffff"
     bordercolor="#666666"
     borderopacity="1.0"
     inkscape:pageopacity="0.0"
     inkscape:pageshadow="2"
     inkscape:zoom="0.7"
     inkscape:cx="599.70496"
     inkscape:cy="631.83333"
     inkscape:document-units="px"
     inkscape:current-layer="svg2"
     showgrid="false"
     inkscape:window-width="1280"
     inkscape:window-height="697"
     inkscape:window-x="-8"
     inkscape:window-y="-8"
     inkscape:window-maximized="1" />
  <metadata
     id="metadata7">
    <rdf:RDF>
      <cc:Work
         rdf:about="">
        <dc:format>image/svg+xml</dc:format>
        <dc:type
           rdf:resource="http://purl.org/dc/dcmitype/StillImage" />
        <dc:title />
      </cc:Work>
    </rdf:RDF>
  </metadata>
  <g
     inkscape:label="Layer 1"
     inkscape:groupmode="layer"
     id="layer1"
     style="display:inline">
    <rect
       style="fill:#b4ecfc;fill-opacity:1;stroke:#000000;stroke-width:0.80994618;stroke-opacity:1"
       id="rect4173"
       width="647.95691"
       height="364.47577"
       x="51.423824"
       y="252.98145" />
  </g>
  <g
     inkscape:groupmode="layer"
     id="layer3"
     inkscape:label="Layer 2">
    <path
       style="fill:none;fill-rule:evenodd;stroke:#000000;stroke-width:1px;stroke-linecap:butt;stroke-linejoin:miter;stroke-opacity:1"
       d="m 50.714286,573.07649 c 0,0 162.857144,-18.57143 340.000004,-24.28571 177.14285,-5.71429 307.14285,12.85714 307.14285,12.85714"
       id="path4176"
       inkscape:connector-curvature="0" />
    <path
       style="fill:#008000;fill-opacity:1;stroke:none;stroke-opacity:1"
       d="m 51.334913,595.3877 c 0,-12.22645 0.278497,-21.78572 0.634699,-21.78572 0.349085,0 13.286585,-1.2707 28.75,-2.82379 34.100438,-3.42491 84.769678,-7.91984 116.686728,-10.35142 60.43134,-4.60391 107.64265,-7.32765 182.85714,-10.54949 27.5987,-1.1822 128.22168,-1.17195 156.78572,0.016 55.18333,2.29496 105.86733,6.00083 143.77953,10.51275 8.16803,0.97208 15.31982,1.76741 15.89286,1.76741 0.89496,0 1.04189,3.87822 1.04189,27.5 l 0,27.5 -323.21428,0 -323.214287,0 0,-21.78571 z"
       id="path4180"
       inkscape:connector-curvature="0" />
  </g>
  <g
     inkscape:groupmode="layer"
     id="layer23"
     inkscape:label="Layer 6">
    <path
       style="fill:none;fill-rule:evenodd;stroke:#000000;stroke-width:1px;stroke-linecap:butt;stroke-linejoin:miter;stroke-opacity:1"
       d="m 119.28571,618.07649 28.57143,-27.14286 24.28572,-28.57142"
       id="path5699"
       inkscape:connector-curvature="0"
       sodipodi:nodetypes="ccc" />
    <path
       style="fill:none;fill-rule:evenodd;stroke:#000000;stroke-width:1px;stroke-linecap:butt;stroke-linejoin:miter;stroke-opacity:1"
       d="m 205.71428,558.07649 -47.14286,61.42857"
       id="path5701"
       inkscape:connector-curvature="0"
       sodipodi:nodetypes="cc" />
    <path
       style="fill:none;fill-rule:evenodd;stroke:#000000;stroke-width:1px;stroke-linecap:butt;stroke-linejoin:miter;stroke-opacity:1"
       d="m 306.42857,492.3622 -74.28571,-0.71428"
       id="path5728"
       inkscape:connector-curvature="0" />
    <ellipse
       style="fill:#28170b;fill-opacity:1;stroke:#28170b;stroke-opacity:1"
       id="path6534"
       ry="0.71428573"
       rx="1.4285715"
       cy="543.07648"
       cx="273.57144" />
  </g>
  <g
     inkscape:groupmode="layer"
     id="layer4"
     inkscape:label="Layer 3"
     style="display:none">
    <path
       style="fill:#ffefd5;fill-rule:evenodd;stroke:#000000;stroke-width:1px;stroke-linecap:butt;stroke-linejoin:miter;stroke-opacity:1"
       d="m 77.857143,578.07649 c 0,0 -5.714286,-87.14286 49.999997,-88.57143 55.71429,-1.42857 48.57143,87.85714 48.57143,87.85714 z"
       id="path4183"
       inkscape:connector-curvature="0" />
    <path
       style="fill:#ffe4c4;fill-rule:evenodd;stroke:#000000;stroke-width:1px;stroke-linecap:butt;stroke-linejoin:miter;stroke-opacity:1"
       d="m 150,577.3622 c 0,0 2.14286,-29.28571 20,-29.28571 17.85714,0 17.85714,29.28572 17.85714,29.28572 z"
       id="path4185"
       inkscape:connector-curvature="0"
       sodipodi:nodetypes="cscc" />
    <path
       style="fill:none;fill-rule:evenodd;stroke:#000000;stroke-width:1px;stroke-linecap:butt;stroke-linejoin:miter;stroke-opacity:1"
       d="m 136.42857,577.3622 c 0,0 0.009,-27.02458 18.57143,-28.57142 17.14286,-1.42858 15.71429,-1.42858 15.71429,-1.42858"
       id="path4187"
       inkscape:connector-curvature="0"
       sodipodi:nodetypes="csc" />
    <path
       style="fill:#000000;fill-rule:evenodd;stroke:#000000;stroke-width:0.755575px;stroke-linecap:butt;stroke-linejoin:miter;stroke-opacity:1"
       d="m 155.24371,577.12758 c 0,0 1.55078,-23.10219 14.47397,-23.10219 12.92319,0 12.92319,23.1022 12.92319,23.1022 z"
       id="path4185-7"
       inkscape:connector-curvature="0"
       sodipodi:nodetypes="cscc" />
  </g>
  <g
     inkscape:groupmode="layer"
     id="layer5"
     inkscape:label="Layer 4"
     style="display:none">
    <circle
       style="fill:#ffd700;fill-opacity:1;stroke:#000000;stroke-opacity:1"
       id="path4205"
       cx="627.85718"
       cy="423.07651"
       r="20" />
    <ellipse
       style="fill:#ffff00;fill-opacity:1;stroke:#000000;stroke-width:0.76435059;stroke-opacity:1"
       id="path4205-2"
       cx="675"
       cy="492.71936"
       rx="15.832109"
       ry="14.760682" />
  </g>
  <g
     inkscape:groupmode="layer"
     id="layer6"
     inkscape:label="Layer 5"
     style="display:inline" />
  <path
     style="fill:#aa4400;fill-opacity:1;stroke:#ff6600;stroke-width:0.71428573;stroke-opacity:1"
     d="m 132.12602,606.74878 c 5.85691,-5.60046 11.26785,-10.62159 12.02431,-11.15806 0.75647,-0.53648 7.01901,-7.60791 13.91676,-15.71429 6.89775,-8.10639 13.05823,-15.28077 13.68997,-15.94307 0.91901,-0.96349 4.05049,-1.44074 15.66585,-2.38753 7.98448,-0.65084 14.67107,-1.0295 14.85909,-0.84148 0.18803,0.18803 -9.24886,12.83384 -20.97085,28.10182 l -21.31272,27.75995 -19.26066,0.18266 -19.26067,0.18266 10.64892,-10.18266 z"
     id="path5703"
     inkscape:connector-curvature="0" />
  <path
     style="fill:none;fill-rule:evenodd;stroke:#000000;stroke-width:1.00015903px;stroke-linecap:butt;stroke-linejoin:miter;stroke-opacity:1"
     d="m 233.56348,558.80141 -0.74057,-68.08133 36.4641,-32.63962"
     id="path5705"
     inkscape:connector-curvature="0"
     sodipodi:nodetypes="ccc" />
  <path
     style="fill:none;fill-rule:evenodd;stroke:#000000;stroke-width:1px;stroke-linecap:butt;stroke-linejoin:miter;stroke-opacity:1"
     d="m 307.76685,552.55165 -0.71429,-61.42857 -38.57143,-32.85714"
     id="path5705-7"
     inkscape:connector-curvature="0"
     sodipodi:nodetypes="ccc" />
  <path
     style="fill:#000000;fill-rule:evenodd;stroke:#000000;stroke-width:1px;stroke-linecap:butt;stroke-linejoin:miter;stroke-opacity:1"
     d="m 233.57143,501.64792 -25.71429,15 0.71429,41.42857"
     id="path5722"
     inkscape:connector-curvature="0" />
  <path
     style="fill:none;fill-rule:evenodd;stroke:#000000;stroke-width:1px;stroke-linecap:butt;stroke-linejoin:miter;stroke-opacity:1"
     d="m 287.14286,553.07648 -0.71429,-29.28571 -17.85714,0 0.71428,32.14285"
     id="path5724"
     inkscape:connector-curvature="0"
     sodipodi:nodetypes="cccc" />
  <path
     style="fill:none;fill-rule:evenodd;stroke:#000000;stroke-width:1px;stroke-linecap:butt;stroke-linejoin:miter;stroke-opacity:1"
     d="m 241.42857,522.3622 0,18.57143 13.57143,0 0,-18.57143 z"
     id="path6541"
     inkscape:connector-curvature="0"
     sodipodi:nodetypes="ccccc" />
  <path
     style="fill:none;fill-rule:evenodd;stroke:#000000;stroke-width:1px;stroke-linecap:butt;stroke-linejoin:miter;stroke-opacity:1"
     d="m 254.28571,530.93363 -13.57142,0"
     id="path6543"
     inkscape:connector-curvature="0" />
  <path
     style="fill:none;fill-rule:evenodd;stroke:#000000;stroke-width:1px;stroke-linecap:butt;stroke-linejoin:miter;stroke-opacity:1"
     d="m 207.85714,516.64792 25,-0.71429"
     id="path6545"
     inkscape:connector-curvature="0" />
  <path
     style="fill:none;fill-rule:evenodd;stroke:#000000;stroke-width:1px;stroke-linecap:butt;stroke-linejoin:miter;stroke-opacity:1"
     d="m 271.42857,526.64792 0,11.42857 12.14286,0 0,-11.42857 z"
     id="path6549"
     inkscape:connector-curvature="0"
     sodipodi:nodetypes="ccccc" />
  <path
     style="fill:#d7e3f4;fill-opacity:1;stroke:none;stroke-width:0.71428573;stroke-opacity:1"
     d="m 234.22792,539.32579 c -0.0192,-9.37496 -0.20658,-23.71503 -0.41641,-31.86681 l -0.38152,-14.82143 20.95213,0.002 c 11.52367,9.6e-4 27.89477,0.21141 36.38024,0.46766 l 15.42811,0.4659 0.40005,28.99663 c 0.22003,15.94815 0.34881,29.03236 0.28617,29.07603 -0.0626,0.0437 -4.3728,0.286 -9.57816,0.53852 l -9.46429,0.45912 -0.003,-6.96709 c -0.002,-3.8319 -0.21161,-10.58317 -0.46627,-15.00281 l -0.46303,-8.03571 -9.64752,0 -9.64751,0 0.45375,15.60632 0.45375,15.60633 -14.08996,0.85639 c -7.74948,0.47101 -15.45603,1.03823 -17.12567,1.26049 l -3.03572,0.4041 -0.0349,-17.04539 z m 21.46347,-7.75967 0,-10.35714 -7.5,0 -7.5,0 0,10.35714 0,10.35714 7.5,0 7.5,0 0,-10.35714 z"
     id="path6609"
     inkscape:connector-curvature="0" />
  <path
     style="fill:#d7e3f4;fill-opacity:1;stroke:none;stroke-opacity:1"
     d="m 209.05165,537.9345 c -0.24313,-10.93501 -0.31924,-20.00464 -0.16913,-20.15475 0.1501,-0.15011 5.38751,-0.45041 11.63867,-0.66734 l 11.36575,-0.39441 0.47163,13.49549 c 0.2594,7.42252 0.47254,16.26645 0.47365,19.65319 l 0.002,6.15771 -4.82143,0.43407 c -2.65178,0.23874 -7.9034,0.64193 -11.67027,0.89597 l -6.84884,0.4619 -0.44205,-19.88183 z"
     id="path6611"
     inkscape:connector-curvature="0" />
  <path
     style="fill:#000000;fill-opacity:1;stroke:none;stroke-opacity:1"
     d="m 235.67984,490.62797 c -0.5907,-0.37522 3.96499,-4.89436 13.85018,-13.73906 8.10172,-7.24897 15.78339,-14.06506 17.07036,-15.14687 l 2.33996,-1.96694 17.73844,15.07489 c 9.75615,8.29119 18.0438,15.36381 18.41702,15.71694 0.84039,0.79516 -68.16471,0.85584 -69.41596,0.061 z"
     id="path6621"
     inkscape:connector-curvature="0" />
  <path
     style="fill:#000000;fill-opacity:1;stroke:none;stroke-opacity:1"
     d="m 232.11177,512.63755 c 0,-1.76786 0.1393,-2.49107 0.30955,-1.60715 0.17025,0.88393 0.17025,2.33036 0,3.21429 -0.17025,0.88393 -0.30955,0.16071 -0.30955,-1.60714 z"
     id="path6623"
     inkscape:connector-curvature="0" />
  <path
     style="fill:#000000;fill-opacity:1;stroke:none;stroke-opacity:1"
     d=""
     id="path6625"
     inkscape:connector-curvature="0" />
  <path
     style="fill:#000000;fill-opacity:1;stroke:none;stroke-opacity:1"
     d=""
     id="path6627"
     inkscape:connector-curvature="0" />
  <path
     style="fill:#000000;fill-opacity:1;stroke:none;stroke-opacity:1"
     d=""
     id="path6629"
     inkscape:connector-curvature="0" />
  <path
     style="fill:#800000;fill-opacity:1;stroke:none;stroke-opacity:1"
     d="m 207.78595,525.84173 -0.15444,-9.29582 12.32143,-7.16924 12.32143,-7.16924 0.35714,-5.6778 0.35714,-5.6778 4.28572,0.41564 4.28571,0.41564 -4.10714,0.12007 -4.10714,0.12008 -0.1248,15.17857 c -0.0686,8.34822 -0.24623,13.84511 -0.39467,12.21531 -0.24784,-2.72128 -0.46534,-2.99993 -2.66354,-3.41231 l -2.39365,-0.44905 1.89547,-4.31419 1.89547,-4.31419 0.43435,2.7265 c 0.36702,2.30381 0.44165,2.06208 0.48138,-1.55921 l 0.047,-4.28571 -2.8028,5.96983 c -1.54155,3.28341 -2.80281,6.25663 -2.80281,6.60715 0,0.35051 -3.1741,0.6373 -7.05357,0.6373 -3.87946,0 -8.04845,0.19898 -9.26441,0.44217 l -2.21084,0.44217 -0.224,8.66497 -0.224,8.66498 -0.15445,-9.29582 z m 24.61921,-11.90954 c -0.22802,-0.56981 -0.39727,-0.40055 -0.43155,0.43155 -0.031,0.75297 0.13781,1.17485 0.37516,0.9375 0.23735,-0.23735 0.26273,-0.85342 0.0564,-1.36905 z"
     id="path6631"
     inkscape:connector-curvature="0" />
  <path
     style="fill:#000000;fill-opacity:1;stroke:none;stroke-opacity:1"
     d="m 269.77384,539.24469 5.3e-4,-14.46429 7.74941,0 7.74941,0 0.46118,6.96429 c 0.45069,6.80595 0.64484,20.83371 0.29,20.95277 -0.0982,0.033 -3.79488,0.27403 -8.21481,0.53572 l -8.03624,0.4758 5.2e-4,-14.46429 z m 5.5631,4.01025 c 0.30758,-1.59712 -1.58005,-2.15599 -3.17172,-0.93905 -1.14827,0.87793 -1.18044,1.1031 -0.248,1.73576 1.46257,0.99235 3.15093,0.599 3.41972,-0.79671 z m 8.72314,-11.00134 0,-6.81252 -6.60714,0.20538 -6.60714,0.20537 -0.20538,6.60715 -0.20538,6.60714 6.81252,0 6.81252,0 0,-6.81252 z"
     id="path6633"
     inkscape:connector-curvature="0" />
  <path
     style="fill:#000000;fill-opacity:1;stroke:none;stroke-opacity:1"
     d="m 207.76121,519.42326 -0.0844,-2.85714 12.44178,-7.14286 12.44178,-7.14286 0.25506,-4.28571 c 0.14028,-2.35714 0.27138,-0.75 0.29133,3.57143 0.0202,4.37284 -0.15635,6.59012 -0.39809,5 l -0.43435,-2.85714 -2.80414,6.19953 c -1.93795,4.2845 -3.2618,6.32242 -4.28572,6.59738 -0.81486,0.21883 -4.53514,0.40718 -8.26729,0.41856 -3.73214,0.0114 -7.15849,0.25788 -7.61412,0.54779 -0.45562,0.2899 -0.96996,1.49033 -1.14297,2.66763 -0.26461,1.80056 -0.32797,1.68674 -0.39892,-0.71661 z"
     id="path6635"
     inkscape:connector-curvature="0" />
  <path
     style="fill:#000000;fill-opacity:1;stroke:none;stroke-opacity:1"
     d="m 232.88505,512.2804 c -0.002,-3.53571 0.11861,-5.07219 0.26841,-3.4144 0.1498,1.65778 0.15158,4.55064 0.004,6.42857 -0.14763,1.87792 -0.27019,0.52155 -0.27237,-3.01417 z"
     id="path6637"
     inkscape:connector-curvature="0" />
  <path
     style="fill:#000000;fill-opacity:1;stroke:none;stroke-opacity:1"
     d="m 229.55627,515.70899 c -0.70924,-0.18385 -1.18978,-0.54835 -1.06787,-0.81 0.12192,-0.26165 0.68642,-1.68109 1.25445,-3.1543 1.6273,-4.22046 2.28428,-3.64841 2.46077,2.14265 0.0702,2.30377 -0.16448,2.46526 -2.64735,1.82165 z"
     id="path6639"
     inkscape:connector-curvature="0" />
  <path
     style="fill:#803300;fill-opacity:1;stroke:none;stroke-opacity:1"
     d="m 269.77437,546.25675 0,-7.19063 7.32143,-0.14825 7.32142,-0.14824 -6.60714,-0.2357 -6.60714,-0.23571 0,-6.04462 0,-6.04462 6.42857,0 c 4.63392,0 6.44571,-0.24926 6.48997,-0.89286 0.0338,-0.49107 0.32533,-0.0166 0.64792,1.05426 0.64618,2.14518 1.29093,25.23215 0.71925,25.75502 -0.19643,0.17965 -3.8125,0.5506 -8.03571,0.82431 l -7.67857,0.49767 0,-7.19063 z m 5.5812,-3.08565 c 0.13127,-0.68869 -0.29216,-1.45585 -0.94094,-1.70482 -1.41805,-0.54415 -3.59342,1.40432 -2.87167,2.57214 0.7517,1.21627 3.53622,0.58282 3.81261,-0.86732 z m 7.99023,-10.8907 0,-5.35714 -5.71429,0 -5.71429,0 0,5.35714 0,5.35715 5.71429,0 5.71429,0 0,-5.35715 z"
     id="path6652"
     inkscape:connector-curvature="0" />
  <path
     style="fill:none;fill-rule:evenodd;stroke:#000000;stroke-width:0.91766298px;stroke-linecap:butt;stroke-linejoin:miter;stroke-opacity:1"
     d="m 275.17857,526.64792 0,11.42857"
     id="path6658"
     inkscape:connector-curvature="0" />
  <path
     style="fill:none;fill-rule:evenodd;stroke:#000000;stroke-width:0.85308039px;stroke-linecap:butt;stroke-linejoin:miter;stroke-opacity:1"
     d="m 279.63921,527.37057 0.36444,10.69755"
     id="path6660"
     inkscape:connector-curvature="0"
     sodipodi:nodetypes="cc" />
  <path
     style="fill:#ffe6d5;fill-opacity:1;stroke:none;stroke-opacity:1"
     d="m 241.91722,526.56612 0,-3.21429 6.07143,0 6.07143,0 0,3.21429 0,3.21428 -6.07143,0 -6.07143,0 0,-3.21428 z"
     id="path6662"
     inkscape:connector-curvature="0" />
  <path
     style="fill:#ffffff;fill-opacity:1;stroke:none;stroke-opacity:1"
     d="m 241.91722,535.85183 0,-3.92857 6.07143,0 6.07143,0 0,3.92857 0,3.92857 -6.07143,0 -6.07143,0 0,-3.92857 z"
     id="path6664"
     inkscape:connector-curvature="0" />
  <path
     style="fill:#ffffff;fill-opacity:1;stroke:none;stroke-opacity:1"
     d="m 241.91722,526.56612 0,-3.21429 6.07143,0 6.07143,0 0,3.21429 0,3.21428 -6.07143,0 -6.07143,0 0,-3.21428 z"
     id="path6666"
     inkscape:connector-curvature="0" />
  <path
     style="fill:#ffffff;fill-opacity:1;stroke:none;stroke-opacity:1"
     d="m 276.20294,532.2804 c 0,-4.16666 0.14652,-4.64285 1.42857,-4.64285 1.28205,0 1.42857,0.47619 1.42857,4.64285 0,4.16667 -0.14652,4.64286 -1.42857,4.64286 -1.28205,0 -1.42857,-0.47619 -1.42857,-4.64286 z"
     id="path6668"
     inkscape:connector-curvature="0" />
  <path
     style="fill:#ffffff;fill-opacity:1;stroke:none;stroke-opacity:1"
     d="m 271.91722,532.2804 c 0,-3.65079 0.22894,-4.64285 1.07143,-4.64285 0.84249,0 1.07143,0.99206 1.07143,4.64285 0,3.6508 -0.22894,4.64286 -1.07143,4.64286 -0.84249,0 -1.07143,-0.99206 -1.07143,-4.64286 z"
     id="path6670"
     inkscape:connector-curvature="0" />
  <path
     style="fill:#ffffff;fill-opacity:1;stroke:none;stroke-opacity:1"
     d="m 280.48865,532.2804 c 0,-3.65079 0.22894,-4.64285 1.07143,-4.64285 0.84249,0 1.07143,0.99206 1.07143,4.64285 0,3.6508 -0.22894,4.64286 -1.07143,4.64286 -0.84249,0 -1.07143,-0.99206 -1.07143,-4.64286 z"
     id="path6674"
     inkscape:connector-curvature="0" />
  <path
     style="fill:none;fill-rule:evenodd;stroke:#000000;stroke-width:1.32431304px;stroke-linecap:butt;stroke-linejoin:miter;stroke-opacity:1"
     d="m 237.87851,473.0352 0.67155,13.65401"
     id="path6676"
     inkscape:connector-curvature="0"
     sodipodi:nodetypes="cc" />
  <path
     style="fill:none;fill-rule:evenodd;stroke:#000000;stroke-width:1.32414579px;stroke-linecap:butt;stroke-linejoin:miter;stroke-opacity:1"
     d="m 247.93572,470.87831 c 1.36325,13.12416 -0.18556,10.09102 -0.18556,10.09102"
     id="path6678"
     inkscape:connector-curvature="0"
     sodipodi:nodetypes="cc" />
  <path
     style="fill:none;fill-rule:evenodd;stroke:#000000;stroke-width:1.09321177px;stroke-linecap:butt;stroke-linejoin:miter;stroke-opacity:1"
     d="m 247.86581,471.65406 -12.1602,0.702"
     id="path6680"
     inkscape:connector-curvature="0" />
  <path
     style="fill:#000000;fill-opacity:1;stroke:none;stroke-opacity:1"
     d="m 239.40795,482.47271 c -0.25029,-0.25029 -0.45508,-2.46105 -0.45508,-4.91278 l 0,-4.45771 3.9607,-0.24468 c 3.64078,-0.22491 3.99416,-0.1111 4.37482,1.40895 0.30146,1.20381 -0.14446,2.24165 -1.63928,3.81527 -2.73888,2.88328 -5.67977,4.95234 -6.24116,4.39095 z"
     id="path6682"
     inkscape:connector-curvature="0" />
  <g
     inkscape:groupmode="layer"
     id="layer24"
     inkscape:label="Layer 7">
    <path
       style="fill:none;fill-rule:evenodd;stroke:#000000;stroke-width:1px;stroke-linecap:butt;stroke-linejoin:miter;stroke-opacity:1"
       d="m 701.42857,406.64792 c 0,0 -140,-59.28571 -165,-53.57143 -25,5.71429 -127.85714,-5 -153.57143,42.85714 -25.71428,47.85714 -75.71428,110 -75.71428,110"
       id="path6684"
       inkscape:connector-curvature="0"
       sodipodi:nodetypes="cssc" />
  </g>
  <path
     style="fill:#502d16;fill-opacity:1;stroke:none;stroke-opacity:1"
     d="m 698.07776,590.11287 c -0.15914,-14.73215 -0.24823,-27.31428 -0.19797,-27.96031 0.1128,-1.4497 -0.19992,-1.50802 -20.22218,-3.77108 -56.8701,-6.42789 -119.15277,-10.12696 -185.67132,-11.02731 -55.45596,-0.75061 -100.29206,0.11661 -161.78312,3.12922 -11.56423,0.56657 -21.11246,0.94353 -21.2183,0.83768 -0.10584,-0.10583 -0.38784,-10.30491 -0.62667,-22.6646 l -0.43422,-22.47218 9.17408,-11.78571 c 26.15817,-33.60474 50.0561,-68.66824 65.23516,-95.71429 9.82844,-17.51231 24.94941,-27.64145 51.03867,-34.18948 19.01452,-4.77236 33.46293,-6.4057 73.57143,-8.31699 12.17857,-0.58035 24.07143,-1.37694 26.42857,-1.77021 2.35715,-0.39327 6.11762,-0.7169 8.3566,-0.71918 12.56901,-0.0128 44.50218,9.29795 89.85769,26.19972 20.2951,7.56299 65.72086,25.65987 66.58894,26.52794 0.30727,0.30728 0.47617,47.79154 0.37534,105.52059 -0.10084,57.72904 -0.31356,92.90833 -0.4727,78.17619 z"
     id="path6692"
     inkscape:connector-curvature="0" />
  <path
     style="fill:none;fill-rule:evenodd;stroke:#999999;stroke-width:1.84967256px;stroke-linecap:butt;stroke-linejoin:miter;stroke-opacity:1"
     d="m 422.15132,306.60161 0,60.76059"
     id="path6694"
     inkscape:connector-curvature="0"
     sodipodi:nodetypes="cc" />
  <path
     style="fill:none;fill-rule:evenodd;stroke:#808080;stroke-width:7.57972002px;stroke-linecap:butt;stroke-linejoin:miter;stroke-opacity:1"
     d="m 443.67165,307.51827 -2.8e-4,56.11995"
     id="path6696"
     inkscape:connector-curvature="0"
     sodipodi:nodetypes="cc" />
  <path
     style="fill:none;fill-rule:evenodd;stroke:#999999;stroke-width:1.74788582px;stroke-linecap:butt;stroke-linejoin:miter;stroke-opacity:1"
     d="m 465.28473,306.60195 -1e-5,50.64016"
     id="path6696-3"
     inkscape:connector-curvature="0"
     sodipodi:nodetypes="cc" />
  <path
     style="fill:#999999;fill-rule:evenodd;stroke:#000000;stroke-width:1.68259501px;stroke-linecap:butt;stroke-linejoin:miter;stroke-opacity:1"
     d="m 444.75444,269.24025 c -25.29593,0.22923 -29.28881,7.78485 -29.81765,21.54723 -0.44079,11.47112 1.72046,20.31957 32.57435,19.71611 24.92488,-0.48748 25.56326,-10.9908 25.62651,-20.17601 0.0727,-10.56351 -3.08728,-21.31659 -28.38321,-21.08733 z"
     id="path3415"
     inkscape:connector-curvature="0"
     sodipodi:nodetypes="zsssz" />
  <path
     style="fill:none;fill-rule:evenodd;stroke:#000000;stroke-width:1.80989015px;stroke-linecap:butt;stroke-linejoin:miter;stroke-opacity:1"
     d="m 412.72211,295.81379 c 0,0 16.55855,3.11209 31.08051,3.19947 15.01119,0.0903 31.08051,-3.65654 31.08051,-3.65654"
     id="path3417"
     inkscape:connector-curvature="0"
     sodipodi:nodetypes="csc" />
  <text
     xml:space="preserve"
     style="font-style:normal;font-weight:normal;font-size:5.79868555px;line-height:125%;font-family:sans-serif;letter-spacing:0px;word-spacing:0px;fill:#000000;fill-opacity:1;stroke:none;stroke-width:1px;stroke-linecap:butt;stroke-linejoin:miter;stroke-opacity:1"
     id="text3426"
     sodipodi:linespacing="125%"
     x="1.0101526"
     y="-1.1364216"
     transform="matrix(1.6414569,-0.18702039,0.18702039,1.6414569,-313.81801,-112.93839)"><textPath
       xlink:href="#path3417"
       id="textPath3430"><tspan
   id="tspan3428">NEGAUNEE</tspan></textPath></text>
  <text
     xml:space="preserve"
     style="font-style:normal;font-weight:normal;font-size:3.99482727px;line-height:125%;font-family:sans-serif;letter-spacing:0px;word-spacing:0px;fill:#000000;fill-opacity:1;stroke:none;stroke-width:1px;stroke-linecap:butt;stroke-linejoin:miter;stroke-opacity:1"
     id="text3433"
     sodipodi:linespacing="125%"
     x="16.414978"
     y="-6.8185296"
     transform="matrix(1.7788136,-0.36190373,0.36190373,1.7788136,-399.35154,-89.707771)"><textPath
       xlink:href="#path3417"
       id="textPath3437"><tspan
   id="tspan3435">IRONTO</tspan></textPath></text>
  <path
     style="fill:none;fill-rule:evenodd;stroke:#000000;stroke-width:1px;stroke-linecap:butt;stroke-linejoin:miter;stroke-opacity:1"
     d="m 129.29953,564.45853 c 0,0 -1.51523,0.50507 -5.55584,-5.05077 -4.04061,-5.55584 -8.5863,-60.60915 -8.5863,-60.60915"
     id="path3440"
     inkscape:connector-curvature="0" />
  <path
     style="fill:none;fill-rule:evenodd;stroke:#000000;stroke-width:1.02955997px;stroke-linecap:butt;stroke-linejoin:miter;stroke-opacity:1"
     d="m 77.62063,569.25197 c 0,0 1.513351,0.53604 5.548949,-5.36043 4.035603,-5.89647 8.575655,-64.32511 8.575655,-64.32511"
     id="path3440-9"
     inkscape:connector-curvature="0" />
  <path
     style="fill:#008000;fill-rule:evenodd;stroke:#000000;stroke-width:1px;stroke-linecap:butt;stroke-linejoin:miter;stroke-opacity:1"
     d="m 52.142857,409.50506 c 0,0 -2.142857,-12.85714 11.428572,-15.71428 13.571428,-2.85715 17.857142,7.14285 17.857142,7.14285 0,0 1.428572,-14.28571 17.142858,-15.71428 15.714281,-1.42857 18.571431,10 18.571431,10 0,0 20,-7.14286 27.14285,5 7.14286,12.14285 -2.14285,20.71428 -2.14285,20.71428 0,0 10.71428,-2.14285 16.42857,10 C 164.28571,443.07649 150,449.50506 150,449.50506 c 0,0 16.45703,6.55112 12.34464,19.49492 -4.08083,12.84444 -21.63035,7.64794 -21.63035,7.64794 0,0 8.72987,11.92621 -0.55584,21.21193 -9.28572,9.28571 -22.30131,-5.49765 -22.30131,-5.49765 0,0 -5,23.06635 -12.85714,23.06635 -7.857143,0 -18.571429,-20.92349 -18.571429,-20.92349 0,0 0.467616,17.42979 -13.354785,13.23223 -11.920302,-3.61993 -5.216643,-22.51794 -5.216643,-22.51794 0,0 -8.571429,18.57143 -15.714286,14.28571"
     id="path3459"
     inkscape:connector-curvature="0"
     sodipodi:nodetypes="cscscscscscscscscc" />
  <path
     style="fill:#784421;fill-opacity:1;stroke:#999999;stroke-width:0.71428573;stroke-opacity:1"
     d="m 82.627833,565.87703 c 1.833656,-2.7248 2.69845,-5.12547 3.566286,-9.90002 1.55442,-8.55189 3.736809,-26.20094 4.820253,-38.98152 0.491227,-5.79464 1.075129,-10.52812 1.29756,-10.51883 0.222431,0.009 1.368705,1.34006 2.547277,2.95728 2.950798,4.04904 7.192321,7.02583 10.010841,7.02583 3.19108,0 5.59024,-2.13901 8.15427,-7.27011 2.11265,-4.22777 2.19203,-4.29843 2.19204,-1.95112 1e-5,3.6545 3.36718,32.69723 4.69372,40.4846 1.48206,8.70038 2.71318,12.13267 5.31451,14.81656 l 2.09033,2.15668 -21.94214,2.01298 c -12.068179,1.10714 -22.667418,2.18212 -23.553866,2.38885 -1.516128,0.35358 -1.468149,0.16252 0.808919,-3.22118 z"
     id="path3461"
     inkscape:connector-curvature="0" />
  <path
     style="fill:none;fill-rule:evenodd;stroke:#000000;stroke-width:0.63003248px;stroke-linecap:butt;stroke-linejoin:miter;stroke-opacity:1"
     d="m 668.72862,557.31545 c 0,0 -0.95465,0.31821 -3.50036,-3.18215 -2.54572,-3.50036 -5.40965,-38.18573 -5.40965,-38.18573"
     id="path3440-7"
     inkscape:connector-curvature="0" />
  <path
     style="fill:none;fill-rule:evenodd;stroke:#000000;stroke-width:0.64865625px;stroke-linecap:butt;stroke-linejoin:miter;stroke-opacity:1"
     d="m 636.16923,560.33548 c 0,0 0.95346,0.33772 3.49602,-3.37725 2.54256,-3.71497 5.40294,-40.52691 5.40294,-40.52691"
     id="path3440-9-6"
     inkscape:connector-curvature="0" />
  <path
     style="fill:#008000;fill-rule:evenodd;stroke:#000000;stroke-width:0.63003248px;stroke-linecap:butt;stroke-linejoin:miter;stroke-opacity:1"
     d="m 620.11741,459.68973 c 0,0 -1.35007,-8.10042 7.20037,-9.90051 8.55044,-1.80009 11.25058,4.50023 11.25058,4.50023 0,0 0.90004,-9.00046 10.80056,-9.90051 9.9005,-0.90004 7.65999,16.40186 7.65999,16.40186 0,0 16.64126,-14.60177 21.14149,-6.95137 4.50023,7.65039 -8.42114,16.5862 -8.42114,16.5862 0,0 13.82142,-4.88559 17.42161,2.7648 3.60018,7.65039 -14.99673,11.7006 -14.99673,11.7006 0,0 19.96491,4.12742 17.37397,12.28243 -2.57105,8.09242 -23.72935,-1.24247 -23.72935,-1.24247 0,0 15.60163,13.57482 9.75133,19.42513 -5.85031,5.8503 -12.53532,-1.94847 -12.53532,-1.94847 0,0 -4.66539,13.01732 -9.61565,13.01732 -4.95025,0 -11.7006,-13.18248 -11.7006,-13.18248 0,0 0.29461,10.98134 -8.41395,8.33674 -7.51018,-2.28067 -3.28666,-14.18704 -3.28666,-14.18704 0,0 -5.40028,11.70061 -9.9005,9.00047"
     id="path3459-5"
     inkscape:connector-curvature="0"
     sodipodi:nodetypes="cscscscscscscscscc" />
  <path
     style="fill:#784421;fill-opacity:1;stroke:#999999;stroke-width:0.45002323;stroke-opacity:1"
     d="m 639.32393,558.20915 c 1.15526,-1.71671 1.70011,-3.22921 2.24688,-6.23733 0.97933,-5.38797 2.35431,-16.50744 3.03691,-24.55962 0.30949,-3.65082 0.67737,-6.63306 0.81751,-6.62721 0.14014,0.006 0.86233,0.84428 1.60487,1.86318 1.8591,2.55103 4.53139,4.4265 6.30715,4.4265 2.01049,0 3.52203,-1.34764 5.13746,-4.5804 1.33103,-2.66363 1.38105,-2.70815 1.38105,-1.22927 10e-6,2.30245 2.12144,20.60032 2.9572,25.50661 0.93374,5.48153 1.70939,7.64398 3.34831,9.33492 l 1.31698,1.35878 -13.82426,1.26824 c -7.60335,0.69753 -14.28121,1.37481 -14.83971,1.50505 -0.9552,0.22277 -0.92497,0.1024 0.50965,-2.02945 z"
     id="path3461-2"
     inkscape:connector-curvature="0" />
  <path
     style="fill:none;fill-rule:evenodd;stroke:#000000;stroke-width:1px;stroke-linecap:butt;stroke-linejoin:miter;stroke-opacity:1"
     d="m 624.64748,575.3469 c 0,0 -1.51523,0.50507 -5.55584,-5.05077 -4.04061,-5.55584 -8.5863,-60.60915 -8.5863,-60.60915"
     id="path3440-3"
     inkscape:connector-curvature="0" />
  <path
     style="fill:none;fill-rule:evenodd;stroke:#000000;stroke-width:1.02955997px;stroke-linecap:butt;stroke-linejoin:miter;stroke-opacity:1"
     d="m 572.96858,580.14034 c 0,0 1.51335,0.53604 5.54895,-5.36043 4.0356,-5.89647 8.57565,-64.32511 8.57565,-64.32511"
     id="path3440-9-1"
     inkscape:connector-curvature="0" />
  <path
     style="fill:#008000;fill-rule:evenodd;stroke:#000000;stroke-width:1px;stroke-linecap:butt;stroke-linejoin:miter;stroke-opacity:1"
     d="m 547.49081,420.39343 c 0,0 -2.14286,-12.85714 11.42857,-15.71428 13.57143,-2.85715 17.85714,7.14285 17.85714,7.14285 0,0 1.42857,-14.28571 17.14286,-15.71428 15.71428,-1.42857 18.57143,10 18.57143,10 0,0 20,-7.14286 27.14285,5 7.14286,12.14285 -2.14285,20.71428 -2.14285,20.71428 0,0 10.71428,-2.14285 16.42857,10 5.71428,12.14286 -8.57143,18.57143 -8.57143,18.57143 0,0 16.45703,6.55112 12.34464,19.49492 -4.08083,12.84444 -21.63035,7.64794 -21.63035,7.64794 0,0 8.72987,11.92621 -0.55584,21.21193 -9.28572,9.28571 -22.30131,-5.49765 -22.30131,-5.49765 0,0 -5,23.06635 -12.85714,23.06635 -7.85714,0 -18.57143,-20.92349 -18.57143,-20.92349 0,0 0.46762,17.42979 -13.35479,13.23223 -11.9203,-3.61993 -5.21664,-22.51794 -5.21664,-22.51794 0,0 -8.57143,18.57143 -15.71428,14.28571"
     id="path3459-2"
     inkscape:connector-curvature="0"
     sodipodi:nodetypes="cscscscscscscscscc" />
  <path
     style="fill:#784421;fill-opacity:1;stroke:#999999;stroke-width:0.71428573;stroke-opacity:1"
     d="m 577.97578,576.7654 c 1.83366,-2.7248 2.69845,-5.12547 3.56629,-9.90002 1.55442,-8.55189 3.73681,-26.20094 4.82025,-38.98152 0.49123,-5.79464 1.07513,-10.52812 1.29756,-10.51883 0.22243,0.009 1.36871,1.34006 2.54728,2.95728 2.9508,4.04904 7.19232,7.02583 10.01084,7.02583 3.19108,0 5.59024,-2.13901 8.15427,-7.27011 2.11265,-4.22777 2.19203,-4.29843 2.19204,-1.95112 10e-6,3.6545 3.36718,32.69723 4.69372,40.4846 1.48206,8.70038 2.71318,12.13267 5.31451,14.81656 l 2.09033,2.15668 -21.94214,2.01298 c -12.06818,1.10714 -22.66742,2.18212 -23.55387,2.38885 -1.51613,0.35358 -1.46815,0.16252 0.80892,-3.22118 z"
     id="path3461-6"
     inkscape:connector-curvature="0" />
  <path
     style="fill:none;fill-rule:evenodd;stroke:#000000;stroke-width:1px;stroke-linecap:butt;stroke-linejoin:miter;stroke-opacity:1"
     d="m 560.36177,559.63262 c 0,0 -1.51523,0.50507 -5.55584,-5.05077 -4.04061,-5.55584 -8.5863,-60.60915 -8.5863,-60.60915"
     id="path3440-0"
     inkscape:connector-curvature="0" />
  <path
     style="fill:none;fill-rule:evenodd;stroke:#000000;stroke-width:1.02955997px;stroke-linecap:butt;stroke-linejoin:miter;stroke-opacity:1"
     d="m 508.68287,564.42606 c 0,0 1.51335,0.53604 5.54894,-5.36043 4.03561,-5.89647 8.57566,-64.32511 8.57566,-64.32511"
     id="path3440-9-10"
     inkscape:connector-curvature="0" />
  <path
     style="fill:#008000;fill-rule:evenodd;stroke:#000000;stroke-width:1px;stroke-linecap:butt;stroke-linejoin:miter;stroke-opacity:1"
     d="m 483.20509,404.67915 c 0,0 -2.14285,-12.85714 11.42857,-15.71428 13.57143,-2.85715 16.34192,1.08193 16.34192,1.08193 0,0 2.9438,-8.22479 18.65808,-9.65336 15.71429,-1.42857 24.12728,7.47462 24.12728,7.47462 0,0 14.44416,-4.61748 21.58701,7.52538 7.14286,12.14285 6.94852,17.68382 6.94852,17.68382 0,0 0,0 7.3372,13.03046 6.58457,11.69383 0.51994,18.06635 0.51994,18.06635 0,0 7.36566,7.0562 3.25327,20 -4.08083,12.84444 -14.55928,11.18347 -14.55928,11.18347 0,0 1.6588,8.39068 -7.62691,17.6764 -9.28572,9.28571 -20.78608,5.61403 -20.78608,5.61403 0,0 -6.51523,11.95467 -14.37237,11.95467 -7.85715,0 -21.09681,-11.32704 -21.09681,-11.32704 0,0 1.98284,2.78258 -11.83956,-1.41498 -11.9203,-3.61993 -4.20649,-17.46718 -4.20649,-17.46718 0,0 -8.57143,18.57143 -15.71429,14.28571"
     id="path3459-9"
     inkscape:connector-curvature="0"
     sodipodi:nodetypes="cscscscscscscscscc" />
  <path
     style="fill:#784421;fill-opacity:1;stroke:#999999;stroke-width:0.71428573;stroke-opacity:1"
     d="m 513.69007,561.05112 c 1.83365,-2.7248 2.69845,-5.12547 3.56628,-9.90002 1.55442,-8.55189 3.73681,-26.20094 4.82026,-38.98152 0.49122,-5.79464 1.07513,-10.52812 1.29756,-10.51883 0.22243,0.009 1.3687,1.34006 2.54727,2.95728 2.9508,4.04904 7.19233,7.02583 10.01085,7.02583 3.19108,0 5.59024,-2.13901 8.15427,-7.27011 2.11265,-4.22777 2.19203,-4.29843 2.19204,-1.95112 10e-6,3.6545 3.36718,32.69723 4.69372,40.4846 1.48206,8.70038 2.71318,12.13267 5.31451,14.81656 l 11.1817,7.71252 -31.03351,-3.54286 c -12.04065,-1.37459 -22.66742,2.18212 -23.55387,2.38885 -1.51613,0.35358 -1.46815,0.16252 0.80892,-3.22118 z"
     id="path3461-5"
     inkscape:connector-curvature="0"
     sodipodi:nodetypes="ssscsssssscsss" />
  <path
     style="fill:none;fill-rule:evenodd;stroke:#000000;stroke-width:0.74484998px;stroke-linecap:butt;stroke-linejoin:miter;stroke-opacity:1"
     d="m 493.37339,542.41881 c 0,0 -1.12862,0.3762 -4.13827,-3.76206 -3.00964,-4.13827 -6.3955,-45.14473 -6.3955,-45.14473"
     id="path3440-1"
     inkscape:connector-curvature="0" />
  <path
     style="fill:none;fill-rule:evenodd;stroke:#000000;stroke-width:0.76686776px;stroke-linecap:butt;stroke-linejoin:miter;stroke-opacity:1"
     d="m 454.88036,545.98921 c 0,0 1.12722,0.39927 4.13314,-3.99272 3.00591,-4.39198 6.38757,-47.91256 6.38757,-47.91256"
     id="path3440-9-7"
     inkscape:connector-curvature="0" />
  <path
     style="fill:#008000;fill-rule:evenodd;stroke:#000000;stroke-width:0.74484998px;stroke-linecap:butt;stroke-linejoin:miter;stroke-opacity:1"
     d="m 435.90324,427.00172 c -1.17409,-12.0431 14.41486,-15.28508 3.63072,-7.89966 0,0 7.12499,-3.56964 18.82978,-4.63371 11.70478,-1.06407 12.3177,11.99419 12.3177,11.99419 0,0 18.43253,-14.91681 23.75288,-5.8722 5.32036,9.0446 9.01051,16.43918 9.01051,16.43918 0,0 7.47545,-3.11133 11.73174,5.93327 4.25628,9.04461 -6.38443,13.83293 -6.38443,13.83293 0,0 12.25802,4.8796 9.1949,14.52079 -3.0396,9.56718 -16.11136,5.69657 -16.11136,5.69657 0,0 6.50244,8.88324 -0.41402,15.79971 -6.91647,6.91646 -12.06544,-1.06447 -12.06544,-1.06447 0,0 -8.26994,14.15051 -14.12233,14.15051 -5.85239,0 -17.36846,-10.02902 -17.36846,-10.02902 -0.79712,13.52181 -21.85212,1.72237 -17.87354,-11.46215 0,0 1.19171,12.82278 -4.12865,9.63056"
     id="path3459-58"
     inkscape:connector-curvature="0"
     sodipodi:nodetypes="ccscscscscscsccc" />
  <path
     style="fill:#784421;fill-opacity:1;stroke:#999999;stroke-width:0.53203571;stroke-opacity:1"
     d="m 452.54906,548.52614 c 1.3658,-2.02956 8.07086,-8.86846 8.71727,-12.42479 1.15781,-6.36987 2.78336,-19.51577 3.59036,-29.03538 0.36589,-4.31614 0.80081,-7.84187 0.96649,-7.83495 0.16567,0.007 1.01948,0.99814 1.89734,2.20273 2.1979,3.01592 5.3572,5.23319 7.45657,5.23319 2.37688,0 4.16389,-1.59324 6.07371,-5.41514 1.57361,-3.14906 1.63273,-3.20169 1.63274,-1.4533 1e-5,2.72206 2.50805,24.35454 3.49612,30.15496 1.10391,6.48048 2.02091,9.03702 3.95851,11.03611 l 4.08236,6.1521 -18.3639,0.4892 c -15.53786,-0.96837 -24.34465,2.92291 -23.50757,0.89527 z"
     id="path3461-61"
     inkscape:connector-curvature="0"
     sodipodi:nodetypes="csscssssssccc" />
  <path
     style="fill:none;fill-rule:evenodd;stroke:#000000;stroke-width:1px;stroke-linecap:butt;stroke-linejoin:miter;stroke-opacity:1"
     d="m 426.07605,565.3469 c 0,0 -1.51523,0.50507 -5.55584,-5.05077 -4.04061,-5.55584 -8.5863,-60.60915 -8.5863,-60.60915"
     id="path3440-4"
     inkscape:connector-curvature="0" />
  <path
     style="fill:none;fill-rule:evenodd;stroke:#000000;stroke-width:1.02955997px;stroke-linecap:butt;stroke-linejoin:miter;stroke-opacity:1"
     d="m 374.39715,570.14034 c 0,0 1.51335,0.53604 5.54895,-5.36043 4.0356,-5.89647 8.57565,-64.32511 8.57565,-64.32511"
     id="path3440-9-9"
     inkscape:connector-curvature="0" />
  <path
     style="fill:#008000;fill-rule:evenodd;stroke:#000000;stroke-width:1px;stroke-linecap:butt;stroke-linejoin:miter;stroke-opacity:1"
     d="m 348.91938,410.39343 c 0,0 -2.14286,-12.85714 11.42857,-15.71428 13.57143,-2.85715 17.85714,7.14285 17.85714,7.14285 0,0 1.42857,-14.28571 17.14286,-15.71428 15.71428,-1.42857 18.57143,10 18.57143,10 0,0 20,-7.14286 27.14285,5 7.14286,12.14285 -2.14285,20.71428 -2.14285,20.71428 0,0 10.71428,-2.14285 16.42857,10 5.71428,12.14286 -8.57143,18.57143 -8.57143,18.57143 0,0 16.45703,6.55112 12.34464,19.49492 -4.08083,12.84444 -21.63035,7.64794 -21.63035,7.64794 0,0 8.72987,11.92621 -0.55584,21.21193 -9.28572,9.28571 -22.30131,-5.49765 -22.30131,-5.49765 0,0 -5,23.06635 -12.85714,23.06635 -7.85714,0 -18.57143,-20.92349 -18.57143,-20.92349 0,0 0.46762,17.42979 -13.35478,13.23223 -11.92031,-3.61993 -5.21665,-22.51794 -5.21665,-22.51794 0,0 -8.57143,18.57143 -15.71428,14.28571"
     id="path3459-1"
     inkscape:connector-curvature="0"
     sodipodi:nodetypes="cscscscscscscscscc" />
  <path
     style="fill:#784421;fill-opacity:1;stroke:#999999;stroke-width:0.71428573;stroke-opacity:1"
     d="m 379.40435,566.7654 c 1.83366,-2.7248 2.69845,-5.12547 3.56629,-9.90002 1.55442,-8.55189 3.73681,-26.20094 4.82025,-38.98152 0.49123,-5.79464 1.07513,-10.52812 1.29756,-10.51883 0.22243,0.009 1.36871,1.34006 2.54728,2.95728 2.9508,4.04904 7.19232,7.02583 10.01084,7.02583 3.19108,0 5.59024,-2.13901 8.15427,-7.27011 2.11265,-4.22777 2.19203,-4.29843 2.19204,-1.95112 10e-6,3.6545 3.36718,32.69723 4.69372,40.4846 1.48206,8.70038 2.71318,12.13267 5.31451,14.81656 l 2.09033,2.15668 -21.94214,2.01298 c -12.06818,1.10714 -22.66742,2.18212 -23.55387,2.38885 -1.51612,0.35358 -1.46814,0.16252 0.80892,-3.22118 z"
     id="path3461-3"
     inkscape:connector-curvature="0" />
  <path
     style="fill:#008000;fill-rule:evenodd;stroke:#000000;stroke-width:1px;stroke-linecap:butt;stroke-linejoin:miter;stroke-opacity:1"
     d="m 349.0077,410.41027 c 0,0 -12.12183,0 -13.63706,6.06091 -1.51523,6.06092 3.03046,13.63706 3.03046,13.63706 0,0 -19.69797,0 -18.68782,11.61676 1.01015,11.61675 16.16244,11.11167 16.16244,11.11167 0,0 -28.78935,2.02031 -23.73859,13.13199 5.05077,11.11167 26.26397,5.05076 26.26397,5.05076 0,0 -3.53553,28.28427 11.11168,29.29442"
     id="path3572"
     inkscape:connector-curvature="0" />
</svg>
