<?xml version="1.0" encoding="UTF-8" standalone="no"?>
<!-- Created with Inkscape (http://www.inkscape.org/) -->

<svg
   xmlns:dc="http://purl.org/dc/elements/1.1/"
   xmlns:cc="http://creativecommons.org/ns#"
   xmlns:rdf="http://www.w3.org/1999/02/22-rdf-syntax-ns#"
   xmlns:svg="http://www.w3.org/2000/svg"
   xmlns="http://www.w3.org/2000/svg"
   xmlns:sodipodi="http://sodipodi.sourceforge.net/DTD/sodipodi-0.dtd"
   xmlns:inkscape="http://www.inkscape.org/namespaces/inkscape"
   width="210mm"
   height="297mm"
   viewBox="0 0 744.09448819 1052.3622047"
   id="svg2"
   version="1.1"
   inkscape:version="0.91 r13725"
   sodipodi:docname="beginning of scene 2 mike skywalker.svg">
  <defs
     id="defs4">
    <inkscape:path-effect
       effect="spiro"
       id="path-effect4277-4"
       is_visible="true" />
    <inkscape:path-effect
       effect="spiro"
       id="path-effect4277"
       is_visible="true" />
    <inkscape:path-effect
       effect="spiro"
       id="path-effect4271"
       is_visible="true" />
    <inkscape:path-effect
       effect="spiro"
       id="path-effect4265"
       is_visible="true" />
    <inkscape:path-effect
       effect="spiro"
       id="path-effect4257"
       is_visible="true" />
    <inkscape:path-effect
       effect="spiro"
       id="path-effect4241"
       is_visible="true" />
  </defs>
  <sodipodi:namedview
     id="base"
     pagecolor="#ffffff"
     bordercolor="#666666"
     borderopacity="1.0"
     inkscape:pageopacity="0.0"
     inkscape:pageshadow="2"
     inkscape:zoom="0.98994949"
     inkscape:cx="110.88908"
     inkscape:cy="555.40528"
     inkscape:document-units="px"
     inkscape:current-layer="layer8"
     showgrid="false"
     inkscape:window-width="1280"
     inkscape:window-height="697"
     inkscape:window-x="-8"
     inkscape:window-y="-8"
     inkscape:window-maximized="1" />
  <metadata
     id="metadata7">
    <rdf:RDF>
      <cc:Work
         rdf:about="">
        <dc:format>image/svg+xml</dc:format>
        <dc:type
           rdf:resource="http://purl.org/dc/dcmitype/StillImage" />
        <dc:title />
      </cc:Work>
    </rdf:RDF>
  </metadata>
  <g
     inkscape:label="Layer 1"
     inkscape:groupmode="layer"
     id="layer1"
     style="display:inline" />
  <rect
     style="fill:#b4ecfc;fill-opacity:1;stroke:#000000;stroke-width:0.80994618;stroke-opacity:1"
     id="rect4173"
     width="647.95691"
     height="364.47577"
     x="51.066666"
     y="252.98146" />
  <g
     inkscape:groupmode="layer"
     id="layer3"
     inkscape:label="Layer 2"
     style="display:inline">
    <path
       style="fill:none;fill-rule:evenodd;stroke:#000000;stroke-width:1px;stroke-linecap:butt;stroke-linejoin:miter;stroke-opacity:1"
       d="m 50.714286,573.07649 c 0,0 162.857144,-18.57143 340.000004,-24.28571 177.14285,-5.71429 307.14285,12.85714 307.14285,12.85714"
       id="path4176"
       inkscape:connector-curvature="0" />
    <path
       style="fill:#ffdab9;fill-opacity:1;stroke:none;stroke-opacity:1"
       d="m 51.334913,595.3877 c 0,-12.22645 0.278497,-21.78572 0.634699,-21.78572 0.349085,0 13.286585,-1.2707 28.75,-2.82379 34.100438,-3.42491 84.769678,-7.91984 116.686728,-10.35142 60.43134,-4.60391 107.64265,-7.32765 182.85714,-10.54949 27.5987,-1.1822 128.22168,-1.17195 156.78572,0.016 55.18333,2.29496 105.86733,6.00083 143.77953,10.51275 8.16803,0.97208 15.31982,1.76741 15.89286,1.76741 0.89496,0 1.04189,3.87822 1.04189,27.5 l 0,27.5 -323.21428,0 -323.214287,0 0,-21.78571 z"
       id="path4180"
       inkscape:connector-curvature="0" />
  </g>
  <g
     inkscape:groupmode="layer"
     id="layer4"
     inkscape:label="Layer 3"
     style="display:inline">
    <path
       style="fill:#ffefd5;fill-rule:evenodd;stroke:#000000;stroke-width:1px;stroke-linecap:butt;stroke-linejoin:miter;stroke-opacity:1"
       d="m 77.857143,578.07649 c 0,0 -5.714286,-87.14286 49.999997,-88.57143 55.71429,-1.42857 48.57143,87.85714 48.57143,87.85714 z"
       id="path4183"
       inkscape:connector-curvature="0" />
    <path
       style="fill:#ffe4c4;fill-rule:evenodd;stroke:#000000;stroke-width:1px;stroke-linecap:butt;stroke-linejoin:miter;stroke-opacity:1"
       d="m 150,577.3622 c 0,0 2.14286,-29.28571 20,-29.28571 17.85714,0 17.85714,29.28572 17.85714,29.28572 z"
       id="path4185"
       inkscape:connector-curvature="0"
       sodipodi:nodetypes="cscc" />
    <path
       style="fill:none;fill-rule:evenodd;stroke:#000000;stroke-width:1px;stroke-linecap:butt;stroke-linejoin:miter;stroke-opacity:1"
       d="m 136.42857,577.3622 c 0,0 0.009,-27.02458 18.57143,-28.57142 17.14286,-1.42858 15.71429,-1.42858 15.71429,-1.42858"
       id="path4187"
       inkscape:connector-curvature="0"
       sodipodi:nodetypes="csc" />
    <path
       style="fill:#000000;fill-rule:evenodd;stroke:#000000;stroke-width:0.755575px;stroke-linecap:butt;stroke-linejoin:miter;stroke-opacity:1"
       d="m 155.24371,577.12758 c 0,0 1.55078,-23.10219 14.47397,-23.10219 12.92319,0 12.92319,23.1022 12.92319,23.1022 z"
       id="path4185-7"
       inkscape:connector-curvature="0"
       sodipodi:nodetypes="cscc" />
  </g>
  <g
     inkscape:groupmode="layer"
     id="layer5"
     inkscape:label="Layer 4"
     style="display:inline">
    <circle
       style="fill:#ffd700;fill-opacity:1;stroke:#000000;stroke-opacity:1"
       id="path4205"
       cx="627.85718"
       cy="423.07651"
       r="20" />
    <ellipse
       style="fill:#ffff00;fill-opacity:1;stroke:#000000;stroke-width:0.76435059;stroke-opacity:1"
       id="path4205-2"
       cx="675"
       cy="492.71936"
       rx="15.832109"
       ry="14.760682" />
  </g>
  <g
     inkscape:groupmode="layer"
     id="layer6"
     inkscape:label="Layer 5"
     style="display:inline">
    <path
       style="display:inline;fill:#ffffff;fill-rule:evenodd;stroke:#000000;stroke-width:1px;stroke-linecap:butt;stroke-linejoin:miter;stroke-opacity:1"
       d="m 498.72698,549.26218 c -3.53363,-0.10506 -7.62304,1.74415 -9.06074,3.16307 -5.20942,4.45596 -6.90583,15.24799 -7.72408,20.14441 -0.38411,2.77472 -0.87743,4.04436 0.13661,6.66443 0.89007,1.75187 2.06811,0.8441 3.81071,0.74956 2.20949,-0.55471 2.49313,-2.22658 3.34039,-4.02658 1.89348,-3.33602 1.94779,-8.52781 4.78182,-11.69842 0,0 -1.10876,12.946 -0.90862,13.72157 -1.12023,5.20727 -2.35306,9.5354 -2.72606,11.85587 -0.37197,2.31775 -1.0633,10.93552 -0.65474,12.93616 2.36155,0.0501 10.3215,0.21701 12.54813,0.11731 0.58696,-2.17223 2.26356,-4.57282 3.3747,-6.33906 0,0 2.20027,4.27029 3.47861,6.21928 3.92697,0.0921 7.82012,0.0922 11.97457,0.13509 1.10099,-2.6904 1.37421,-7.80418 0.82894,-11.28018 -0.54527,-3.47601 -1.31187,-7.78966 -2.33006,-12.58358 -0.79233,-3.73054 0.0939,-11.88276 0.11587,-13.86159 0,0 2.03725,9.38896 3.57886,11.93583 1.01564,1.75613 2.009,3.38169 3.68438,4.15774 1.41557,0.39946 2.86764,0.31107 3.87194,-0.47907 1.31054,-1.58522 0.87442,-5.63963 0.68816,-7.43869 -0.84883,-7.99832 -0.1327,-15.69608 -6.06836,-21.12393 -1.83178,-1.67507 -4.8551,-2.04948 -7.04305,-3.22172"
       id="path4248"
       inkscape:connector-curvature="0"
       sodipodi:nodetypes="cccccccccccccczscccccsc" />
    <path
       style="display:inline;fill:#f3bfad;fill-rule:evenodd;stroke:#000000;stroke-width:1px;stroke-linecap:butt;stroke-linejoin:miter;stroke-opacity:1"
       d="m 497.96937,520.47283 c 3.13708,-2.13809 6.87585,-3.40503 10.67038,-3.52432 3.79454,-0.1193 7.63068,0.9222 10.79535,3.01924 2.36207,1.5652 4.34364,3.70999 5.67693,6.21031 1.33329,2.50032 2.01111,5.353 1.89922,8.18438 -0.19307,4.88558 -2.7736,9.5408 -6.56598,12.6269 -3.38367,2.7535 -7.71548,4.31878 -12.07769,4.36422 -4.36221,0.0454 -8.72569,-1.42926 -12.16598,-4.11168 -4.02681,-2.92276 -6.46967,-7.90619 -6.31345,-12.87945 0.0873,-2.7785 0.94304,-5.51684 2.36957,-7.90277 1.42653,-2.38593 3.41457,-4.42124 5.71165,-5.98683 z"
       id="path4239"
       inkscape:path-effect="#path-effect4241"
       inkscape:original-d="m 497.96937,520.47283 c 7.16933,-4.20963 14.96959,-4.37369 21.46573,-0.50508 0,0 7.82869,4.79824 7.57615,14.39469 -0.25254,9.59645 -6.56598,12.6269 -6.56598,12.6269 -8.71749,3.8727 -18.82629,2.32004 -24.24367,0.25254 0,0 -6.06091,-3.283 -6.31345,-12.87945 -0.25254,-9.59644 8.08122,-13.8896 8.08122,-13.8896 z"
       inkscape:connector-curvature="0"
       sodipodi:nodetypes="ccsccsc" />
    <path
       style="display:inline;fill:none;fill-rule:evenodd;stroke:#000000;stroke-width:1px;stroke-linecap:butt;stroke-linejoin:miter;stroke-opacity:1"
       d="m 481.61734,574.9844 c 1.08685,0.50404 2.23417,0.87755 3.40945,1.10996 1.28632,0.25436 2.606,0.3395 3.91434,0.25254 l 0,0"
       id="path4255"
       inkscape:path-effect="#path-effect4257"
       inkscape:original-d="m 481.61734,574.9844 c 0,0 0.9472,0.54175 3.40945,1.10996 2.46225,0.56821 3.91434,0.25254 3.91434,0.25254 l 0,0"
       inkscape:connector-curvature="0" />
    <path
       style="display:inline;fill:#f1b6a1;fill-opacity:1;stroke:#000000;stroke-width:0.06313454;stroke-opacity:1"
       d="m 482.97194,579.55062 c -0.2686,-0.23583 -0.4863,-0.67264 -0.69009,-1.38464 -0.22975,-0.8027 -0.36881,-2.11942 -0.24447,-2.31486 0.0337,-0.053 0.25025,-0.003 0.77243,0.17767 1.45614,0.50423 2.93947,0.7861 4.54352,0.86337 l 0.88647,0.0427 -0.31571,0.64311 c -0.5814,1.18434 -1.33278,1.77453 -2.43747,1.91459 -0.27258,0.0346 -0.71971,0.10535 -0.99362,0.15731 -0.27391,0.052 -0.67856,0.0945 -0.89922,0.0945 -0.35774,0 -0.4251,-0.021 -0.62184,-0.19373 z"
       id="path4261"
       inkscape:connector-curvature="0" />
    <path
       style="display:inline;fill:#f3bfad;fill-rule:evenodd;stroke:#000000;stroke-width:1px;stroke-linecap:butt;stroke-linejoin:miter;stroke-opacity:1"
       d="m 523.60199,577.48332 c 1.33101,0.3682 2.72783,0.49714 4.10375,0.37881 1.37543,-0.11829 2.72924,-0.48361 3.97747,-1.07329"
       id="path4263"
       inkscape:path-effect="#path-effect4265"
       inkscape:original-d="m 523.60199,577.48332 c 0,0 0.50508,0.63134 4.10375,0.37881 3.59866,-0.25254 3.97747,-1.07329 3.97747,-1.07329"
       inkscape:connector-curvature="0" />
    <path
       style="display:inline;fill:#f3bfad;fill-opacity:1;stroke:#000000;stroke-width:0.06313454;stroke-opacity:1"
       d="m 527.4843,580.85553 c -0.51217,-0.11712 -0.99915,-0.43021 -1.6301,-1.04805 -0.56396,-0.55223 -1.25523,-1.46453 -1.13906,-1.50325 0.036,-0.012 0.31452,0.009 0.61891,0.0461 1.68083,0.20614 3.92943,-0.0519 5.46652,-0.62732 0.20205,-0.0756 0.3788,-0.1261 0.39277,-0.11213 0.014,0.014 -0.004,0.28949 -0.0401,0.61227 -0.12591,1.12778 -0.43793,2.01054 -0.80237,2.27004 -0.43302,0.30834 -0.8233,0.40708 -1.68543,0.4264 -0.51514,0.0115 -0.95494,-0.0123 -1.18112,-0.064 z"
       id="path4267"
       inkscape:connector-curvature="0" />
    <path
       style="display:inline;fill:#000000;fill-rule:evenodd;stroke:#000000;stroke-width:1px;stroke-linecap:butt;stroke-linejoin:miter;stroke-opacity:1"
       d="m 520.82407,585.1226 c -5.02845,0.13084 -10.05921,0.17294 -15.08915,0.12626 -4.82095,-0.0447 -9.64114,-0.17103 -14.45781,-0.3788"
       id="path4269"
       inkscape:path-effect="#path-effect4271"
       inkscape:original-d="m 520.82407,585.1226 c 0,0 -1.19956,0.1894 -15.08915,0.12626 -13.8896,-0.0631 -14.45781,-0.3788 -14.45781,-0.3788"
       inkscape:connector-curvature="0" />
    <path
       style="display:inline;fill:#000000;fill-opacity:1;stroke:#000000;stroke-width:0.06313454;stroke-opacity:1"
       d="m 494.03613,602.33029 c -2.1008,-0.0319 -3.8316,-0.0699 -3.84621,-0.0843 -0.0146,-0.0144 -0.0395,-0.47533 -0.0553,-1.0242 -0.068,-2.35947 0.373,-8.78683 0.77969,-11.36357 0.10402,-0.65905 0.35114,-1.79948 0.73284,-3.38196 l 0.25693,-1.06523 0.86085,0.0421 c 5.44756,0.2665 15.24597,0.3995 22.17962,0.30106 2.95652,-0.042 5.38951,-0.0623 5.40665,-0.0452 0.0611,0.0611 0.92199,5.04988 1.11151,6.44125 0.4128,3.03053 0.17047,7.22936 -0.5585,9.67716 l -0.14518,0.4875 -5.296,-0.0135 c -2.9128,-0.007 -5.47202,-0.0308 -5.68716,-0.052 l -0.39116,-0.0385 -0.47045,-0.8003 c -0.71271,-1.21243 -1.22732,-2.14531 -2.23509,-4.05174 -0.50479,-0.95491 -0.93884,-1.75983 -0.96457,-1.78872 -0.0481,-0.054 -1.69986,2.50278 -2.37909,3.68276 -0.50857,0.8835 -0.93055,1.73223 -1.22421,2.46224 -0.23587,0.58636 -0.24663,0.60076 -0.48062,0.64349 -0.30101,0.055 -2.70244,0.046 -7.59452,-0.0284 z"
       id="path4273"
       inkscape:connector-curvature="0" />
    <path
       style="display:inline;fill:none;fill-rule:evenodd;stroke:#480c00;stroke-width:1px;stroke-linecap:butt;stroke-linejoin:miter;stroke-opacity:1"
       d="m 489.95128,589.79455 c 4.98713,1.73419 10.32676,2.44758 15.59423,2.08344 5.59718,-0.38694 11.107,-1.99216 16.03618,-4.67196"
       id="path4275"
       inkscape:path-effect="#path-effect4277"
       inkscape:original-d="m 489.95128,589.79455 c 0,0 5.74525,3.21986 15.59423,2.08344 9.84899,-1.13642 16.03618,-4.67196 16.03618,-4.67196"
       inkscape:connector-curvature="0"
       sodipodi:nodetypes="csc" />
    <path
       style="display:inline;fill:#000000;fill-opacity:1;fill-rule:evenodd;stroke:#480c00;stroke-width:1px;stroke-linecap:butt;stroke-linejoin:miter;stroke-opacity:1"
       d="m 490.1323,588.13405 c 4.93647,1.47443 10.13851,2.05483 15.27855,1.70463 5.60237,-0.38169 11.12712,-1.87079 16.16245,-4.35628"
       id="path4275-7"
       inkscape:path-effect="#path-effect4277-4"
       inkscape:original-d="m 490.1323,588.13405 c 0,0 5.89358,4.90091 15.27855,1.70463 10.18204,-3.46774 16.16245,-4.35628 16.16245,-4.35628"
       inkscape:connector-curvature="0"
       sodipodi:nodetypes="csc" />
    <path
       style="display:inline;fill:#480c00;fill-opacity:1;stroke:#480c00;stroke-width:0.06313454;stroke-opacity:1"
       d="m 501.2019,591.42281 c -3.03674,-0.13014 -6.05626,-0.62406 -9.12294,-1.49231 -0.43405,-0.12288 -0.87442,-0.25925 -0.97859,-0.30303 -0.22978,-0.0966 -0.86862,-0.28668 -0.96333,-0.28668 -0.0376,0 -0.0875,0.0873 -0.11095,0.19392 -0.0778,0.35431 -0.1028,0.1415 -0.0313,-0.26628 0.11696,-0.66671 0.067,-0.62508 0.57297,-0.47749 l 0.44243,0.12906 -0.0373,0.28932 c -0.0291,0.22621 -0.022,0.2651 0.0327,0.17833 0.0385,-0.0611 0.0551,-0.13499 0.037,-0.16432 -0.0181,-0.0293 0.003,-0.10204 0.0462,-0.16156 0.0738,-0.10098 0.13811,-0.0934 0.96078,0.11286 2.37202,0.5948 4.95586,0.99155 7.69049,1.1809 1.41135,0.0977 5.47547,0.0418 6.79664,-0.0935 4.91039,-0.50293 9.07691,-1.59592 13.71199,-3.59701 0.22238,-0.096 0.23453,-0.0949 0.2724,0.0244 0.13682,0.43109 0.1521,0.41189 -0.64616,0.81188 -5.54846,2.78017 -12.2864,4.1952 -18.67309,3.92151 z"
       id="path4299"
       inkscape:connector-curvature="0" />
    <path
       style="display:inline;fill:#808080;fill-opacity:1;stroke:#000000;stroke-width:0.06313454;stroke-opacity:1"
       d="m 521.50094,587.03874 -0.15113,-0.27665 -0.31016,0.15718 c -0.1706,0.0864 -0.32394,0.1434 -0.34077,0.12657 -0.0168,-0.0168 -0.0461,-0.14612 -0.065,-0.28732 l -0.0344,-0.25672 0.42763,-0.19187 c 0.2352,-0.10553 0.43367,-0.18412 0.44105,-0.17465 0.025,0.0321 0.21705,1.14702 0.20045,1.16362 -0.009,0.009 -0.0845,-0.108 -0.16761,-0.26016 z"
       id="path4301"
       inkscape:connector-curvature="0" />
    <rect
       style="display:inline;fill:#808080;fill-opacity:1;stroke:#000000;stroke-opacity:1"
       id="rect4303"
       width="5.8083978"
       height="4.3562613"
       x="501.94684"
       y="589.03693" />
    <path
       style="display:inline;fill:none;fill-rule:evenodd;stroke:#000000;stroke-width:1.07242119px;stroke-linecap:butt;stroke-linejoin:miter;stroke-opacity:1"
       d="m 499.83751,533.13973 c 0,0 -1.05152,-0.3662 -1.20173,-1.34276"
       id="path4343-3-2"
       inkscape:connector-curvature="0" />
    <path
       style="display:inline;fill:#e4c880;fill-rule:evenodd;stroke:#000000;stroke-width:1px;stroke-linecap:butt;stroke-linejoin:miter;stroke-opacity:1"
       d="m 516.8466,521.92493 c 0,0 0.12789,6.18447 -7.37211,6.54162 -7.5,0.35714 -11.07143,-3.48215 -13.83929,-1.16072 -2.76786,2.32143 -0.625,13.03572 -2.76786,18.48214 -2.14285,5.44643 -6.96428,6.51786 -8.30357,10.35715 -1.33928,3.83928 -2.85714,10 -2.85714,10 0,0 0.0893,-1.96429 -0.625,-4.01786 -0.71429,-2.05357 -4.28572,-7.85714 -3.57143,-11.875 0.71429,-4.01786 6.24475,-13.28453 6.24475,-18.19525 0,-4.91071 0.87381,-9.3029 3.82024,-11.8029 2.94643,-2.5 7.34572,-5.35899 9.31001,-5.71613 1.96429,-0.35714 11.78571,-2.85715 22.14285,0.17857 10.35715,3.03571 8.48215,3.125 10.89286,5.17856 1.22532,1.04379 6.07144,8.48215 4.10715,17.58929 -1.96428,9.10715 2.23214,12.76786 3.48214,17.76786 1.25,5 -5.17857,11.16071 -5.17857,11.16071 0,0 1.25,-6.25 -1.60714,-10.625 -2.85715,-4.375 -4.46429,-2.94642 -6.875,-8.03571 -2.41072,-5.08929 1.69642,-5.625 0.44642,-12.58929 -1.25,-6.96428 -7.44931,-13.23804 -7.44931,-13.23804 z"
       id="path4398"
       inkscape:connector-curvature="0"
       sodipodi:nodetypes="csssscssssssssscsssc" />
    <path
       style="display:inline;fill:none;fill-rule:evenodd;stroke:#00b8f8;stroke-width:1px;stroke-linecap:butt;stroke-linejoin:miter;stroke-opacity:1"
       d="m 478.52393,547.74695 1.13643,1.51523 2.65165,-1.6415 -0.63135,3.03046 4.04061,-4.67195 -1.01015,5.93464 3.40926,-4.79822 1.76777,2.90419"
       id="path4401"
       inkscape:connector-curvature="0"
       sodipodi:nodetypes="cccccccc" />
    <path
       style="display:inline;fill:#00a0f0;fill-opacity:1;stroke:#00b8f8;stroke-width:0.12626907;stroke-opacity:1"
       d="m 481.58944,561.99752 c -0.14627,-0.43405 -0.75099,-1.84096 -1.34384,-3.12646 -1.63588,-3.54718 -2.22979,-5.52625 -2.22979,-7.4303 0,-0.93196 0.27487,-2.36334 0.49647,-2.58536 0.0575,-0.0577 0.29153,0.15542 0.51997,0.47351 0.22843,0.31809 0.47059,0.57834 0.53812,0.57834 0.0675,0 0.48932,-0.23148 0.93731,-0.51442 0.44799,-0.28293 0.84491,-0.48404 0.88204,-0.44691 0.0371,0.0371 -0.0872,0.81244 -0.27637,1.72289 -0.18913,0.91046 -0.32024,1.67902 -0.29135,1.70791 0.0289,0.0289 0.92928,-0.96365 2.00086,-2.20563 1.07159,-1.24199 1.96092,-2.2467 1.97628,-2.23269 0.0154,0.014 -0.11193,0.84627 -0.28289,1.84948 -0.17095,1.0032 -0.31137,1.88947 -0.31204,1.96949 -10e-4,0.12812 0.62266,0.42273 0.89498,0.42273 0.0555,0 0.65325,-0.78129 1.32834,-1.7362 0.6751,-0.95491 1.32645,-1.86532 1.44746,-2.02313 l 0.22,-0.28693 0.58127,0.95742 0.58126,0.95742 -0.66479,0.60479 c -0.36564,0.33263 -1.09212,0.97775 -1.61441,1.43359 -1.07895,0.9417 -1.81324,1.77435 -2.36802,2.68526 -0.39787,0.65327 -1.45917,3.79995 -2.18137,6.46758 -0.23032,0.85074 -0.45359,1.5468 -0.49616,1.5468 -0.0426,0 -0.19707,-0.35513 -0.34333,-0.78918 z"
       id="path4403"
       inkscape:connector-curvature="0" />
    <path
       style="display:inline;fill:none;fill-rule:evenodd;stroke:#14ccfc;stroke-width:1px;stroke-linecap:butt;stroke-linejoin:miter;stroke-opacity:1"
       d="m 526.0011,550.90368 1.6415,-3.40927 0.50508,4.04062 1.38896,-4.9245 2.0203,7.57615 0.50508,-3.03046 2.65165,2.27284 0.12627,-4.67195"
       id="path4409"
       inkscape:connector-curvature="0" />
    <path
       style="display:inline;fill:#007ce8;fill-opacity:1;stroke:#14ccfc;stroke-width:0.12626907;stroke-opacity:1"
       d="m 533.15127,563.90281 c 0.18198,-1.94878 -0.42222,-5.32977 -1.2756,-7.13802 -0.80128,-1.69784 -2.22225,-3.48145 -3.62034,-4.54426 l -0.63454,-0.48237 0.54467,-0.0631 0.54468,-0.0631 0.36906,-1.36218 c 0.20299,-0.74919 0.41124,-1.3174 0.46279,-1.26269 0.0516,0.0547 0.40189,1.26432 0.77855,2.688 l 0.68484,2.58852 0.5545,0 0.5545,0 0.15582,-0.93062 c 0.0857,-0.51183 0.18347,-0.95827 0.21728,-0.99207 0.0338,-0.0338 0.63498,0.43515 1.33594,1.04213 0.70096,0.60697 1.29457,1.08182 1.31913,1.05521 0.0246,-0.0266 0.0937,-0.75426 0.1536,-1.61701 l 0.10895,-1.56862 0.52656,1.25295 c 0.93066,2.2145 1.11494,2.90162 1.11494,4.15714 0,1.96256 -0.8888,4.07632 -2.79529,6.64781 -1.14898,1.54976 -1.19158,1.57269 -1.10004,0.59235 z"
       id="path4413"
       inkscape:connector-curvature="0" />
    <path
       style="display:inline;fill:#007ce8;fill-opacity:1;stroke:#14ccfc;stroke-width:0.12626907;stroke-opacity:1"
       d="m 527.10048,551.26465 -0.45488,-0.41038 0.33849,-0.75761 0.33848,-0.75762 0.14045,1.13643 c 0.0772,0.62503 0.12962,1.15062 0.11639,1.16799 -0.0132,0.0174 -0.22874,-0.1531 -0.47893,-0.37881 z"
       id="path4415"
       inkscape:connector-curvature="0" />
    <path
       style="display:inline;fill:#007ce8;fill-opacity:1;stroke:#14ccfc;stroke-width:0.12626907;stroke-opacity:1"
       d="m 481.74468,562.38467 c -0.0512,-0.16085 -0.11018,-0.36085 -0.13115,-0.44445 -0.021,-0.0836 -0.56084,-1.33367 -1.19972,-2.77792 -2.01575,-4.55684 -2.55208,-6.61372 -2.26421,-8.68343 0.075,-0.53913 0.19345,-1.12979 0.26325,-1.31257 l 0.12691,-0.33233 0.48957,0.56821 0.48957,0.56821 0.88996,-0.48091 c 1.04544,-0.56493 1.00749,-0.64584 0.6301,1.34346 -0.1427,0.75219 -0.23972,1.42682 -0.2156,1.49917 0.0241,0.0724 0.89381,-0.84148 1.93265,-2.03073 1.03884,-1.18926 1.90552,-2.1121 1.92597,-2.05076 0.0204,0.0613 -0.079,0.79221 -0.2209,1.62415 -0.14195,0.83195 -0.25808,1.62728 -0.25808,1.76739 0,0.27282 0.62339,0.61646 0.91519,0.50449 0.0892,-0.0342 0.78206,-0.91857 1.53977,-1.96523 0.75772,-1.04667 1.41711,-1.87865 1.46533,-1.84885 0.12164,0.0752 1.0042,1.56849 1.0042,1.69913 0,0.0585 -0.61083,0.64585 -1.35739,1.30525 -0.74657,0.65939 -1.59332,1.44557 -1.88168,1.74707 -0.67701,0.70786 -1.55915,1.9824 -1.55915,2.25269 0,0.11581 -0.0426,0.25318 -0.0947,0.30526 -0.0521,0.0521 -0.0954,0.13259 -0.0962,0.17889 -8e-4,0.0463 -0.0665,0.25464 -0.146,0.46298 -0.28368,0.74347 -0.33615,0.88512 -0.36249,0.97859 -0.0147,0.0521 -0.0409,0.12311 -0.0583,0.15783 -0.0174,0.0347 -0.0436,0.10575 -0.0583,0.15784 -0.0147,0.0521 -0.0599,0.17993 -0.1006,0.28411 -0.12921,0.33108 -0.57238,1.78492 -0.98151,3.21986 -0.43524,1.52649 -0.54759,1.73963 -0.6866,1.3026 z"
       id="path4417"
       inkscape:connector-curvature="0" />
    <path
       style="display:inline;fill:#000000;fill-rule:evenodd;stroke:#000000;stroke-width:1px;stroke-linecap:butt;stroke-linejoin:miter;stroke-opacity:1"
       d="m 481.2602,575.52012 -3.92857,-1.42857 -5.53572,11.42857 2.85715,1.78571 3.57143,-7.85714 4.64285,1.96429 0.71429,-0.89286"
       id="path4420"
       inkscape:connector-curvature="0" />
    <path
       style="display:inline;fill:#808080;fill-rule:evenodd;stroke:#000000;stroke-width:1px;stroke-linecap:butt;stroke-linejoin:miter;stroke-opacity:1"
       d="m 471.43877,585.34155 -1.25,2.32143 3.21429,1.60714 1.42857,-1.96428"
       id="path4422"
       inkscape:connector-curvature="0" />
    <path
       style="display:inline;fill:#808080;fill-rule:evenodd;stroke:#000000;stroke-width:1px;stroke-linecap:butt;stroke-linejoin:miter;stroke-opacity:1"
       d="m 473.7602,588.91297 c 0,0 -1.42858,1.07143 -1.96429,3.21429 -0.53571,2.14286 -0.71429,3.92857 -0.71429,3.92857 l -6.78571,-3.03571 3.57143,-2.32144 2.5,-2.85714"
       id="path4424"
       inkscape:connector-curvature="0"
       sodipodi:nodetypes="cscccc" />
    <path
       style="display:inline;fill:none;fill-rule:evenodd;stroke:#000000;stroke-width:1px;stroke-linecap:butt;stroke-linejoin:miter;stroke-opacity:1"
       d="m 476.08163,577.30583 -1.96429,-1.07143"
       id="path4426"
       inkscape:connector-curvature="0" />
    <path
       style="display:inline;fill:none;fill-rule:evenodd;stroke:#000000;stroke-width:1px;stroke-linecap:butt;stroke-linejoin:miter;stroke-opacity:1"
       d="m 473.93877,582.12726 -2.14286,-1.07143"
       id="path4428"
       inkscape:connector-curvature="0" />
    <path
       style="display:inline;fill:none;fill-rule:evenodd;stroke:#000000;stroke-width:1px;stroke-linecap:butt;stroke-linejoin:miter;stroke-opacity:1"
       d="m 476.08163,571.94869 -5.35714,10.89286"
       id="path4430"
       inkscape:connector-curvature="0" />
    <path
       style="display:inline;fill:none;fill-rule:evenodd;stroke:#000000;stroke-width:1px;stroke-linecap:butt;stroke-linejoin:miter;stroke-opacity:1"
       d="m 510.84881,551.28249 c 0,0 -2.52538,4.16688 -2.0203,17.80394 0.50508,13.63706 0.37881,13.25825 1.26269,13.88959 0.88388,0.63135 2.90419,1.13642 5.42957,1.26269 2.52538,0.12627 5.17703,-0.12627 5.17703,-0.12627"
       id="path4310"
       inkscape:connector-curvature="0" />
    <path
       style="display:inline;fill:#000000;fill-rule:evenodd;stroke:#000000;stroke-width:1px;stroke-linecap:butt;stroke-linejoin:miter;stroke-opacity:1"
       d="m 520.44526,550.27233 c 0,0 -0.88388,3.53554 -1.01015,7.70242 -0.12627,4.16688 0.37881,7.70241 0.37881,7.70241"
       id="path4312"
       inkscape:connector-curvature="0" />
    <path
       style="display:inline;fill:#000000;fill-opacity:1;stroke:#000000;stroke-width:0.12626907;stroke-opacity:1"
       d="m 514.2837,583.58857 c -2.19868,-0.26005 -3.88354,-0.86769 -4.19233,-1.51194 -0.31541,-0.65808 -0.87489,-14.69441 -0.73954,-18.55359 0.17606,-5.0198 0.81681,-9.30675 1.68407,-11.26734 l 0.24932,-0.56362 1.2467,-0.28727 c 1.6187,-0.37298 3.12321,-0.90743 4.49813,-1.59788 0.60767,-0.30515 1.10485,-0.49431 1.10485,-0.42034 0,0.11383 0.7852,0.51594 1.5333,0.78523 0.18935,0.0682 0.19154,0.14989 0.025,0.93614 -0.7024,3.31645 -0.97781,8.21254 -0.68009,12.09019 0.13296,1.73172 0.12455,2.53053 -0.0573,5.44379 -0.14064,2.25282 -0.19574,4.46492 -0.16197,6.50286 0.0505,3.04771 0.0583,3.1234 0.59095,5.71876 0.29688,1.4466 0.50455,2.66541 0.46149,2.70847 -0.13107,0.13107 -4.48476,0.14401 -5.56258,0.0165 z"
       id="path4314"
       inkscape:connector-curvature="0" />
    <path
       style="display:inline;fill:none;fill-rule:evenodd;stroke:#000000;stroke-width:1px;stroke-linecap:butt;stroke-linejoin:miter;stroke-opacity:1"
       d="m 495.69653,549.76726 c 0,0 0.88388,2.14657 0.88388,6.56599 0,4.41942 -2.77792,8.20749 -2.77792,8.20749"
       id="path4318"
       inkscape:connector-curvature="0" />
    <path
       style="display:inline;fill:none;fill-rule:evenodd;stroke:#000000;stroke-width:1px;stroke-linecap:butt;stroke-linejoin:miter;stroke-opacity:1"
       d="m 505.54551,551.40876 c 0,0 1.13643,6.56599 0.63135,16.92005 -0.50508,10.35406 -0.25254,12.87945 -1.51523,14.14214 -1.26269,1.26269 -2.27284,1.26269 -5.05076,1.38896 -2.77792,0.12627 -7.82868,-0.50508 -7.82868,-0.50508"
       id="path4320"
       inkscape:connector-curvature="0" />
    <path
       style="display:inline;fill:#000000;fill-opacity:1;stroke:#000000;stroke-width:0.12626907;stroke-opacity:1"
       d="m 497.17424,583.2678 c -0.24307,-0.0215 -1.3417,-0.10555 -2.4414,-0.1868 -1.31951,-0.0975 -2.01924,-0.19929 -2.05765,-0.29938 -0.032,-0.0834 0.16645,-1.14089 0.44102,-2.34995 0.41686,-1.83563 0.51251,-2.52115 0.57979,-4.15545 0.0443,-1.07644 0.24961,-4.14478 0.45621,-6.81853 l 0.37564,-4.86136 0.74574,-1.45209 c 1.11205,-2.16536 1.64346,-3.91845 1.83877,-6.06608 0.1092,-1.20072 -0.12244,-4.23762 -0.44232,-5.7989 -0.13432,-0.65562 -0.22144,-1.21481 -0.1936,-1.24265 0.0278,-0.0278 0.52296,-0.10226 1.10026,-0.16538 0.5773,-0.0631 1.12358,-0.14179 1.21397,-0.17481 0.0904,-0.033 0.48814,0.10327 0.88389,0.30287 0.99976,0.50425 2.64194,1.0666 4.08685,1.39952 1.02198,0.23548 1.23184,0.32551 1.28894,0.55298 0.13271,0.52877 0.45279,4.09024 0.58035,6.45736 0.18513,3.43569 0.16258,5.76255 -0.12165,12.55325 -0.41707,9.96413 -0.46295,10.31157 -1.4862,11.2543 -0.35408,0.32622 -0.85578,0.64377 -1.16209,0.73554 -0.93073,0.27885 -4.1077,0.45515 -5.68652,0.31556 z"
       id="path4324"
       inkscape:connector-curvature="0" />
    <ellipse
       style="display:inline;fill:#000000;fill-opacity:1;stroke:#000000;stroke-width:1.12630951;stroke-opacity:1"
       id="path4326"
       cx="517.00708"
       cy="535.4632"
       rx="1.7361796"
       ry="1.9571503" />
    <ellipse
       style="display:inline;fill:#000000;fill-opacity:1;stroke:#000000;stroke-width:1.13210428;stroke-opacity:1"
       id="path4326-1"
       cx="500.21167"
       cy="535.07227"
       rx="1.7017149"
       ry="2.0173876" />
    <path
       style="display:inline;fill:none;fill-rule:evenodd;stroke:#000000;stroke-width:1.1907475px;stroke-linecap:butt;stroke-linejoin:miter;stroke-opacity:1"
       d="m 518.66339,534.29866 c 0,0 1.45021,-0.32735 1.65737,-1.20031"
       id="path4343"
       inkscape:connector-curvature="0" />
    <path
       style="display:inline;fill:none;fill-rule:evenodd;stroke:#000000;stroke-width:1.07242119px;stroke-linecap:butt;stroke-linejoin:miter;stroke-opacity:1"
       d="m 517.6934,533.51713 c 0,0 1.05152,-0.3662 1.20173,-1.34276"
       id="path4343-3"
       inkscape:connector-curvature="0" />
    <path
       style="display:inline;fill:none;fill-rule:evenodd;stroke:#000000;stroke-width:1.1907475px;stroke-linecap:butt;stroke-linejoin:miter;stroke-opacity:1"
       d="m 498.67583,533.92468 c 0,0 -1.45021,-0.32735 -1.65737,-1.20031"
       id="path4343-8"
       inkscape:connector-curvature="0" />
    <ellipse
       style="display:inline;fill:#dcc078;fill-opacity:1;stroke:#000000;stroke-opacity:1"
       id="path4394"
       cx="508.07861"
       cy="539.72705"
       rx="1.1995561"
       ry="1.2626907" />
    <path
       style="display:inline;fill:none;fill-rule:evenodd;stroke:#000000;stroke-width:1px;stroke-linecap:butt;stroke-linejoin:miter;stroke-opacity:1"
       d="m 503.65148,543.89574 c 0,0 2.08344,1.38896 4.54569,1.38896 2.46224,0 4.29314,-1.45209 4.29314,-1.45209"
       id="path4396"
       inkscape:connector-curvature="0" />
  </g>
  <path
     style="fill:none;fill-rule:evenodd;stroke:#000000;stroke-width:0.46601477px;stroke-linecap:butt;stroke-linejoin:miter;stroke-opacity:1"
     d="m 215.90594,577.0278 4.99301,0.33287"
     id="path4014"
     inkscape:connector-curvature="0" />
  <path
     style="fill:none;fill-rule:evenodd;stroke:#000000;stroke-width:0.46601477px;stroke-linecap:butt;stroke-linejoin:miter;stroke-opacity:1"
     d="m 230.55211,573.5327 c 0,0 -1.66434,1.33146 -4.16084,1.16503 -2.49651,-0.16643 -2.66294,-0.66574 -2.66294,-0.66574"
     id="path4087"
     inkscape:connector-curvature="0" />
  <path
     style="fill:none;fill-rule:evenodd;stroke:#000000;stroke-width:0.46601477px;stroke-linecap:butt;stroke-linejoin:miter;stroke-opacity:1"
     d="m 222.06399,574.19843 c -1.99721,0.4993 -1.66434,0.83217 -4.16085,0.4993 -2.49651,-0.33287 -2.99581,-0.66574 -2.99581,-0.66574"
     id="path4095"
     inkscape:connector-curvature="0" />
  <g
     inkscape:groupmode="layer"
     id="layer2"
     inkscape:label="Layer 6"
     style="display:inline">
    <path
       style="fill:#e9c6af;fill-rule:evenodd;stroke:#000000;stroke-width:0.46601477px;stroke-linecap:butt;stroke-linejoin:miter;stroke-opacity:1"
       d="m 213.91882,543.32077 c 0,0 0.59507,5.67375 5.50732,6.59851 l 6.79869,-0.35306 c 0,0 4.89379,-0.77333 5.32588,-6.65735 0,0 -0.13787,-6.36141 -4.32727,-6.99023 0,0 -5.79144,-0.93976 -8.82936,0.0386 -4.1623,1.57116 -4.48292,3.1631 -4.47526,7.36349 z"
       id="path4035"
       inkscape:connector-curvature="0"
       sodipodi:nodetypes="ccccccc" />
    <path
       style="fill:none;fill-rule:evenodd;stroke:#000000;stroke-width:0.46601477px;stroke-linecap:butt;stroke-linejoin:miter;stroke-opacity:1"
       d="m 217.73671,550.89769 c 0,0 -8.15526,4.49371 -9.15386,13.48114 0,0 0.4993,3.99441 4.32728,-0.33287 l 3.16224,-3.82798"
       id="path4049"
       inkscape:connector-curvature="0" />
    <path
       style="fill:none;fill-rule:evenodd;stroke:#000000;stroke-width:0.46601477px;stroke-linecap:butt;stroke-linejoin:miter;stroke-opacity:1"
       d="m 227.74487,550.9608 c 0,0 8.15526,4.49371 9.15386,13.48114 0,0 -0.4993,3.99441 -4.32728,-0.33286 l -3.16224,-3.82799"
       id="path4049-7"
       inkscape:connector-curvature="0" />
    <path
       style="fill:none;fill-rule:evenodd;stroke:#000000;stroke-width:0.46601477px;stroke-linecap:butt;stroke-linejoin:miter;stroke-opacity:1"
       d="m 227.29112,549.57033 c 0,0 3.32867,9.8196 1.9972,11.15107 0,0 2.66294,16.31052 0,16.31052"
       id="path4010-5"
       inkscape:connector-curvature="0" />
    <path
       style="fill:none;fill-rule:evenodd;stroke:#000000;stroke-width:0.47970459px;stroke-linecap:butt;stroke-linejoin:miter;stroke-opacity:1"
       d="m 220.90531,577.18821 1.94532,-3.98332 1.76847,3.98332 4.77487,0"
       id="path4016"
       inkscape:connector-curvature="0" />
    <path
       style="fill:none;fill-rule:evenodd;stroke:#000000;stroke-width:0.46601477px;stroke-linecap:butt;stroke-linejoin:miter;stroke-opacity:1"
       d="m 221.23181,575.86277 c 0,0 -2.4965,0.33286 -4.32727,0.16643 -1.83078,-0.16643 -1.99721,-0.4993 -1.99721,-0.4993"
       id="path4097"
       inkscape:connector-curvature="0" />
    <path
       style="fill:none;fill-rule:evenodd;stroke:#000000;stroke-width:0.46601477px;stroke-linecap:butt;stroke-linejoin:miter;stroke-opacity:1"
       d="m 218.06958,549.56622 c 0,0 -3.32868,9.8196 -1.99721,11.15107 0,0 -2.66294,16.31052 0,16.31052"
       id="path4010"
       inkscape:connector-curvature="0" />
  </g>
  <path
     style="fill:none;fill-rule:evenodd;stroke:#000000;stroke-width:0.46601477px;stroke-linecap:butt;stroke-linejoin:miter;stroke-opacity:1"
     d="m 223.80595,576.042 c 0,0 2.49651,0.33287 4.32728,0.16644 1.83077,-0.16644 1.99721,-0.49931 1.99721,-0.49931"
     id="path4097-2"
     inkscape:connector-curvature="0" />
  <path
     style="fill:none;fill-rule:evenodd;stroke:#000000;stroke-width:0.46601477px;stroke-linecap:butt;stroke-linejoin:miter;stroke-opacity:1"
     d="m 221.56469,565.7103 2.4965,0 0,1.99721 -2.4965,0 z"
     id="path4208"
     inkscape:connector-curvature="0" />
  <path
     style="fill:none;fill-rule:evenodd;stroke:#000000;stroke-width:0.46601477px;stroke-linecap:butt;stroke-linejoin:miter;stroke-opacity:1"
     d="m 224.06119,566.2096 c 0,0 5.49232,0.33287 5.82519,-0.4993"
     id="path4214"
     inkscape:connector-curvature="0" />
  <path
     style="fill:none;fill-rule:evenodd;stroke:#000000;stroke-width:0.46601477px;stroke-linecap:butt;stroke-linejoin:miter;stroke-opacity:1"
     d="m 224.39406,567.37464 c 0,0 5.82519,0.99861 5.65875,-0.33287"
     id="path4218"
     inkscape:connector-curvature="0" />
  <path
     style="fill:none;fill-rule:evenodd;stroke:#000000;stroke-width:0.46601477px;stroke-linecap:butt;stroke-linejoin:miter;stroke-opacity:1"
     d="m 221.23182,566.2096 c 0,0 -5.49232,0.16644 -5.99162,-0.4993"
     id="path4220"
     inkscape:connector-curvature="0" />
  <path
     style="fill:none;fill-rule:evenodd;stroke:#000000;stroke-width:0.46601477px;stroke-linecap:butt;stroke-linejoin:miter;stroke-opacity:1"
     d="m 221.23182,567.37464 c 0,0 -3.66154,0.4993 -5.99162,0"
     id="path4222"
     inkscape:connector-curvature="0" />
  <path
     style="fill:none;fill-rule:evenodd;stroke:#000000;stroke-width:0.46601477px;stroke-linecap:butt;stroke-linejoin:miter;stroke-opacity:1"
     d="m 227.22344,549.89909 c 0,0 -9.98603,12.14967 -9.98603,16.14408"
     id="path4230"
     inkscape:connector-curvature="0" />
  <path
     style="fill:none;fill-rule:evenodd;stroke:#000000;stroke-width:0.46601477px;stroke-linecap:butt;stroke-linejoin:miter;stroke-opacity:1"
     d="m 217.90314,550.06552 c 0,0 3.32868,7.65596 4.32728,6.65736"
     id="path4232"
     inkscape:connector-curvature="0" />
  <path
     style="fill:none;fill-rule:evenodd;stroke:#000000;stroke-width:0.46601477px;stroke-linecap:butt;stroke-linejoin:miter;stroke-opacity:1"
     d="m 217.07097,567.70751 -0.16643,3.32867 -1.83077,-0.9986"
     id="path4238"
     inkscape:connector-curvature="0" />
  <path
     style="fill:#2b0000;fill-opacity:1;stroke:none;stroke-opacity:1"
     d="m 215.94367,570.16568 -0.64272,-0.37065 0.0872,-0.97015 c 0.048,-0.53357 0.11927,-1.00219 0.15844,-1.04136 0.0392,-0.0392 0.30787,-0.0239 0.59711,0.034 l 0.52588,0.10518 0,1.31067 c 0,0.72086 -0.0187,1.30894 -0.0416,1.30684 -0.0229,-0.002 -0.33083,-0.17062 -0.68433,-0.37448 z"
     id="path4240"
     inkscape:connector-curvature="0" />
  <path
     style="fill:none;fill-rule:evenodd;stroke:#000000;stroke-width:0.46601477px;stroke-linecap:butt;stroke-linejoin:miter;stroke-opacity:1"
     d="m 236.21087,562.21519 -2.66295,3.16224"
     id="path4242"
     inkscape:connector-curvature="0" />
  <path
     style="fill:#ffffff;fill-rule:evenodd;stroke:#000000;stroke-width:0.46601477px;stroke-linecap:butt;stroke-linejoin:miter;stroke-opacity:1"
     d="m 209.08215,562.54806 2.66294,2.49651"
     id="path4244"
     inkscape:connector-curvature="0" />
  <path
     style="fill:#ffffff;fill-opacity:1;stroke:none;stroke-opacity:1"
     d="m 217.60498,565.42614 c 0.37514,-1.56726 2.11274,-4.80217 4.11933,-7.669 0.95144,-1.35934 4.52504,-6.16734 5.14422,-6.92113 l 0.39826,-0.48487 0.691,2.48207 c 1.16631,4.18943 1.53498,6.44298 1.21343,7.41728 -0.14661,0.44423 -0.11666,1.05538 0.1415,2.88769 0.2212,1.57008 0.27273,2.37907 0.1588,2.49331 -0.094,0.0943 -1.2701,0.19285 -2.65731,0.22272 -2.1746,0.0468 -2.48865,0.0206 -2.48865,-0.20804 0,-0.21852 -0.24688,-0.26164 -1.4979,-0.26164 -1.22052,0 -1.49791,0.0462 -1.49791,0.24965 0,0.20746 -0.32397,0.24965 -1.91716,0.24965 l -1.91716,0 0.10955,-0.45769 z"
     id="path4246"
     inkscape:connector-curvature="0" />
  <path
     style="fill:#ffffff;fill-opacity:1;stroke:none;stroke-opacity:1"
     d="m 216.33673,565.71631 c -0.67698,-0.098 -0.66025,0.11851 -0.23476,-3.03842 0.22536,-1.67202 0.24477,-2.21525 0.0912,-2.55234 -0.34601,-0.7594 0.30612,-4.36562 1.51695,-8.38859 l 0.22541,-0.74896 1.11585,2.16364 c 0.61372,1.19 1.40555,2.54605 1.75963,3.01344 l 0.64377,0.8498 -1.23749,1.89636 c -1.46522,2.24531 -2.84452,4.94128 -3.10876,6.07636 -0.18799,0.80753 -0.1932,0.81245 -0.77179,0.72871 z"
     id="path4249"
     inkscape:connector-curvature="0" />
  <path
     style="fill:#ffffff;fill-opacity:1;stroke:none;stroke-opacity:1"
     d="m 231.66975,562.52065 -1.81954,-2.19815 -0.005,-1.18395 c -0.005,-1.14984 -0.51578,-3.79066 -1.18918,-6.14244 -0.18176,-0.63477 -0.30349,-1.18112 -0.27051,-1.2141 0.12897,-0.12897 2.57006,1.9529 3.57069,3.04526 0.58128,0.63456 1.46829,1.77176 1.97114,2.52712 1.09157,1.63969 2.44064,4.69834 2.07425,4.70279 -0.0601,9.3e-4 -0.59606,0.59929 -1.19106,1.33015 -0.595,0.73084 -1.13577,1.32941 -1.20171,1.33014 -0.0659,9.3e-4 -0.93868,-0.98784 -1.93944,-2.19682 z"
     id="path4251"
     inkscape:connector-curvature="0" />
  <path
     style="fill:#ffffff;fill-opacity:1;stroke:none;stroke-opacity:1"
     d="m 218.08429,574.42621 c -0.27461,-0.0342 -1.04229,-0.17795 -1.70595,-0.31929 l -1.20664,-0.25697 0,-1.38972 c 0,-1.99846 0.023,-2.02898 1.07894,-1.43304 l 0.87321,0.49281 0.10575,-1.01173 c 0.0582,-0.55645 0.10574,-1.36376 0.10574,-1.79402 l 0,-0.78229 1.9556,-0.10516 c 1.22377,-0.0658 1.97636,-0.0442 2.01107,0.0578 0.0763,0.22417 2.97951,0.21183 3.05444,-0.013 0.041,-0.12298 0.50831,-0.11924 1.55339,0.0124 0.82211,0.10358 2.05646,0.16401 2.743,0.13429 l 1.24826,-0.054 0.10306,1.24826 c 0.0567,0.68653 0.11287,1.9318 0.12483,2.76727 l 0.0218,1.51901 -0.87377,0.37867 c -1.05828,0.45863 -2.84497,0.60443 -4.11924,0.33614 -0.50346,-0.106 -1.06518,-0.20735 -1.24826,-0.22523 -0.21592,-0.0211 -0.4562,-0.29478 -0.68393,-0.77909 l -0.35107,-0.7466 -0.35049,0.68702 c -0.31982,0.6269 -0.45156,0.71772 -1.50554,1.03785 -1.08774,0.33039 -1.76053,0.38511 -2.93415,0.23865 z"
     id="path4253"
     inkscape:connector-curvature="0" />
  <path
     style="fill:#ececec;fill-opacity:1;stroke:none;stroke-opacity:1"
     d="m 224.0996,575.26674 c -0.33867,-0.71021 -0.2988,-0.79307 0.27636,-0.57439 1.31471,0.49985 3.9121,0.36321 5.16613,-0.27178 0.59043,-0.29897 0.65811,-0.23183 0.51818,0.51404 -0.0955,0.50915 -0.20084,0.62137 -0.71807,0.76504 -0.33338,0.0926 -1.58463,0.16877 -2.78057,0.16928 l -2.17442,9.4e-4 -0.28761,-0.60313 z"
     id="path4258"
     inkscape:connector-curvature="0" />
  <path
     style="fill:#ececec;fill-opacity:1;stroke:none;stroke-opacity:1"
     d="m 215.79583,575.58422 c -0.38031,-0.0576 -0.4577,-0.15243 -0.4577,-0.56075 0,-0.51922 -0.0122,-0.51685 1.16504,-0.22604 0.13731,0.0339 0.88885,0.13941 1.67011,0.23441 1.15623,0.14061 1.6018,0.12551 2.39536,-0.0812 0.5362,-0.13966 1.00777,-0.22107 1.04793,-0.18092 0.19191,0.19192 -0.33307,0.73491 -0.80101,0.8285 -0.56099,0.11219 -4.25467,0.10189 -5.01973,-0.014 z"
     id="path4260"
     inkscape:connector-curvature="0" />
  <path
     style="fill:#ececec;fill-opacity:1;stroke:none;stroke-opacity:1"
     d=""
     id="path4262"
     inkscape:connector-curvature="0" />
  <path
     style="fill:#ececec;fill-opacity:1;stroke:none;stroke-opacity:1"
     d=""
     id="path4264"
     inkscape:connector-curvature="0" />
  <path
     style="fill:#ececec;fill-opacity:1;stroke:none;stroke-opacity:1"
     d=""
     id="path4270"
     inkscape:connector-curvature="0" />
  <path
     style="fill:#e6e6e6;fill-opacity:1;stroke:none;stroke-opacity:1"
     d=""
     id="path4274"
     inkscape:connector-curvature="0" />
  <path
     style="fill:#e6e6e6;fill-opacity:1;stroke:none;stroke-opacity:1"
     d=""
     id="path4276"
     inkscape:connector-curvature="0" />
  <path
     style="fill:#e6e6e6;fill-opacity:1;stroke:none;stroke-opacity:1"
     d="m 216.08709,575.56284 c -0.57008,-0.0934 -0.66574,-0.16885 -0.66574,-0.52515 0,-0.28266 0.0797,-0.39841 0.24853,-0.36098 1.33436,0.29586 3.93491,0.50474 4.54142,0.36477 0.3863,-0.0892 0.88752,-0.16391 1.11383,-0.16615 l 0.41146,-0.004 -0.37433,0.37448 c -0.34575,0.34588 -0.53602,0.37645 -2.49189,0.40032 -1.16465,0.0142 -2.41713,-0.0232 -2.78328,-0.0832 z"
     id="path4278"
     inkscape:connector-curvature="0" />
  <path
     style="fill:#e6e6e6;fill-opacity:1;stroke:none;stroke-opacity:1"
     d="m 225.82347,567.27257 c -1.31229,-0.2013 -1.49791,-0.25865 -1.49791,-0.46275 0,-0.17425 0.54498,-0.24017 2.4549,-0.29693 1.35019,-0.0401 2.56279,-0.10447 2.69467,-0.14297 0.36316,-0.10603 0.42766,0.53811 0.0794,0.79277 -0.28398,0.20765 -2.64121,0.27707 -3.73105,0.10988 z"
     id="path4282"
     inkscape:connector-curvature="0" />
  <path
     style="fill:#e6e6e6;fill-opacity:1;stroke:none;stroke-opacity:1"
     d="m 215.60564,567.07775 c -0.0468,-0.0756 -0.0465,-0.28504 9.3e-4,-0.4653 0.0774,-0.29607 0.17721,-0.31631 1.03218,-0.20937 0.52056,0.0651 1.78904,0.12472 2.81885,0.13244 1.47093,0.011 1.87238,0.0631 1.87238,0.24289 0,0.12587 -0.23404,0.27566 -0.5201,0.33287 -0.77069,0.15414 -5.10529,0.12621 -5.20401,-0.0335 z"
     id="path4284"
     inkscape:connector-curvature="0" />
  <path
     style="fill:#e6e6e6;fill-opacity:1;stroke:none;stroke-opacity:1"
     d=""
     id="path4286"
     inkscape:connector-curvature="0" />
  <path
     style="fill:#e6e6e6;fill-opacity:1;stroke:none;stroke-opacity:1"
     d="m 225.86507,576.91148 c 0.61789,-0.032 1.62898,-0.032 2.24686,0 0.61788,0.032 0.11234,0.0582 -1.12343,0.0582 -1.23577,0 -1.74131,-0.0262 -1.12343,-0.0582 z"
     id="path4288"
     inkscape:connector-curvature="0" />
  <path
     style="fill:#e6e6e6;fill-opacity:1;stroke:none;stroke-opacity:1"
     d="m 217.80047,576.86254 c -1.71856,-0.127 -2.12947,-0.21607 -2.12947,-0.46159 0,-0.0632 1.18899,-0.115 2.64219,-0.115 2.57192,0 2.63894,0.009 2.5201,0.33286 -0.1463,0.39887 -0.52332,0.42917 -3.03282,0.24373 z"
     id="path4292"
     inkscape:connector-curvature="0" />
  <path
     style="fill:#e6e6e6;fill-opacity:1;stroke:none;stroke-opacity:1"
     d="m 224.76938,576.75751 c -0.26697,-0.26698 0.0292,-0.30553 2.39934,-0.31232 2.09103,-0.006 2.4595,0.0286 2.21414,0.20805 -0.31149,0.22777 -4.39762,0.32012 -4.61348,0.10427 z"
     id="path4294"
     inkscape:connector-curvature="0" />
  <path
     style="fill:#666666;fill-opacity:1;stroke:none;stroke-opacity:1"
     d="m 221.82905,566.716 0,-0.66574 0.99861,0 0.9986,0 0,0.66574 0,0.66573 -0.9986,0 -0.99861,0 0,-0.66573 z"
     id="path4296"
     inkscape:connector-curvature="0" />
  <path
     style="fill:#ffe6d5;fill-opacity:1;stroke:none;stroke-opacity:1"
     d="m 221.47057,555.94051 c -0.57707,-0.62611 -1.50135,-2.20465 -2.39294,-4.08682 -0.91587,-1.93341 -0.93745,-2.13984 -0.20278,-1.93991 0.30367,0.0826 2.14689,0.092 4.20246,0.0213 2.01385,-0.0693 3.68658,-0.11027 3.71718,-0.0911 0.0306,0.0192 -0.4987,0.73376 -1.17622,1.58804 -0.67752,0.85427 -1.74515,2.26473 -2.37251,3.13434 -0.62736,0.86962 -1.18827,1.63779 -1.24649,1.70705 -0.0582,0.0693 -0.29612,-0.0805 -0.5287,-0.33287 z"
     id="path4298"
     inkscape:connector-curvature="0" />
  <path
     style="fill:#ffe6d5;fill-opacity:1;stroke:none;stroke-opacity:1"
     d="m 235.03986,565.69366 c -0.97252,-0.2644 -0.9564,-0.46648 0.1413,-1.77054 0.5576,-0.66242 1.03933,-1.17888 1.07053,-1.14768 0.0312,0.0312 0.12533,0.42397 0.20919,0.87284 0.26738,1.43119 -0.35977,2.3339 -1.42102,2.04538 z"
     id="path4300"
     inkscape:connector-curvature="0" />
  <path
     style="fill:#ffe6d5;fill-opacity:1;stroke:none;stroke-opacity:1"
     d="m 210.45683,563.40199 -1.18035,-1.15037 0.305,-0.97166 c 0.71948,-2.29209 2.14505,-4.5813 4.16417,-6.68689 1.24053,-1.29365 3.25682,-3.01079 3.25682,-2.77361 0,0.0561 -0.18255,0.75323 -0.40566,1.54924 -0.6452,2.30185 -1.09224,4.73583 -1.09224,5.94681 l 0,1.11857 -1.19137,1.43501 c -1.48554,1.78934 -2.32629,2.68327 -2.52366,2.68327 -0.0838,0 -0.68351,-0.51767 -1.33271,-1.15037 z"
     id="path4304"
     inkscape:connector-curvature="0" />
  <path
     style="fill:#ffffff;fill-opacity:1;stroke:none;stroke-opacity:1"
     d="m 210.51746,563.40365 -1.23488,-1.12286 0.46433,-1.31911 c 0.57065,-1.62119 1.20056,-2.77333 2.40461,-4.39814 1.33869,-1.80652 4.68452,-5.01788 4.68452,-4.49625 0,0.10552 -0.18228,0.91694 -0.40507,1.80314 -0.61491,2.44603 -0.92564,4.27648 -0.93354,5.49926 l -0.007,1.10504 -1.63646,1.89577 c -0.90006,1.04267 -1.7411,1.95432 -1.86899,2.02589 -0.15954,0.0893 -0.62008,-0.22228 -1.46739,-0.99274 z"
     id="path4311"
     inkscape:connector-curvature="0" />
  <path
     style="fill:#e9c6af;fill-opacity:1;stroke:none;stroke-opacity:1"
     d="m 209.37652,565.5039 c -0.36757,-0.44289 -0.51214,-1.11655 -0.38994,-1.81704 l 0.12484,-0.71562 1.11836,1.06872 1.11837,1.06872 -0.45991,0.30326 c -0.53604,0.35347 -1.25823,0.3974 -1.51172,0.092 z"
     id="path4313"
     inkscape:connector-curvature="0" />
  <path
     style="fill:#e9c6af;fill-opacity:1;stroke:none;stroke-opacity:1"
     d="m 234.68607,565.54578 c -0.20596,-0.0828 -0.37448,-0.22111 -0.37448,-0.30737 0,-0.18792 1.14154,-1.64216 1.62781,-2.07371 0.3419,-0.30344 0.34553,-0.29984 0.45881,0.45555 0.24839,1.65643 -0.44409,2.43522 -1.71214,1.92553 z"
     id="path4315"
     inkscape:connector-curvature="0" />
  <path
     style="fill:#e9c6af;fill-opacity:1;stroke:none;stroke-opacity:1"
     d="m 221.5907,555.96854 c -0.66778,-0.66778 -2.78255,-4.45978 -3.14888,-5.64627 -0.10064,-0.32595 -0.0161,-0.33379 4.06533,-0.37722 3.41559,-0.0364 4.14379,-0.005 4.03347,0.17509 -0.24202,0.39449 -4.57521,6.11053 -4.63225,6.11053 -0.0306,0 -0.1735,-0.11796 -0.31767,-0.26213 z"
     id="path4317"
     inkscape:connector-curvature="0" />
  <ellipse
     style="fill:#000000;fill-opacity:1;stroke:none;stroke-opacity:1"
     id="path4323"
     cx="219.40105"
     cy="541.32776"
     rx="1.1650369"
     ry="1.08182" />
  <ellipse
     style="fill:#000000;fill-opacity:1;stroke:none;stroke-opacity:1"
     id="path4323-5"
     cx="226.72414"
     cy="541.41095"
     rx="1.1650369"
     ry="1.08182" />
  <ellipse
     style="display:inline;fill:#dcc078;fill-opacity:1;stroke:#000000;stroke-width:0.46601477;stroke-opacity:1"
     id="path4394-9"
     cx="222.89616"
     cy="543.74103"
     rx="0.55901086"
     ry="0.58843249" />
  <path
     style="display:inline;fill:none;fill-rule:evenodd;stroke:#000000;stroke-width:0.46601477px;stroke-linecap:butt;stroke-linejoin:miter;stroke-opacity:1"
     d="m 220.82887,546.06982 c 0,0 0.97092,0.64728 2.11836,0.64728 1.14744,0 2.00067,-0.6767 2.00067,-0.6767"
     id="path4396-7"
     inkscape:connector-curvature="0" />
  <path
     style="fill:#000000;fill-rule:evenodd;stroke:#000000;stroke-width:0.46601477px;stroke-linecap:butt;stroke-linejoin:miter;stroke-opacity:1"
     d="m 225.22623,548.06832 -2.4965,3.66154 -2.33008,-3.16224 c 0,0 1.83077,0.83217 1.4979,0.9986 -0.33286,0.16643 1.66434,-1.16504 1.66434,-1.16504 l 0.16644,0.83217 z"
     id="path4404"
     inkscape:connector-curvature="0" />
  <path
     style="fill:none;fill-rule:evenodd;stroke:#000000;stroke-width:0.46601477px;stroke-linecap:butt;stroke-linejoin:miter;stroke-opacity:1"
     d="m 214.46594,539.10844 c 0,0 1.23136,0.83306 3.53059,0.4119 2.16494,-0.39656 3.41291,-2.05951 3.41291,-2.05951 0,0 0.11769,0.35306 -0.11768,1.23571 -0.23537,0.88265 -0.4119,0.88265 -0.4119,0.88265 0,0 4.14702,0.34828 5.64895,-0.17654 2.41123,-0.84255 3.58944,-1.47107 3.58944,-1.47107"
     id="path3459"
     inkscape:connector-curvature="0"
     sodipodi:nodetypes="cscscsc" />
  <g
     inkscape:groupmode="layer"
     id="layer8"
     inkscape:label="Layer 7">
    <path
       style="fill:#502d16;fill-opacity:1;stroke:none;stroke-opacity:1"
       d="m 221.65336,539.37017 c -0.26198,-0.0205 -0.28235,-0.0329 -0.24763,-0.15121 0.22362,-0.76209 0.27839,-1.0855 0.25469,-1.50388 -0.014,-0.24706 -0.0584,-0.52863 -0.0986,-0.62572 l -0.0731,-0.17653 -0.12637,0.17653 c -0.6619,0.92467 -1.88483,1.76095 -3.07182,2.10059 -0.41258,0.11806 -0.60161,0.13464 -1.52992,0.13424 -1.00948,-4.5e-4 -1.08125,-0.008 -1.52936,-0.16578 -0.25859,-0.0909 -0.4799,-0.17505 -0.49181,-0.18695 -0.0119,-0.0119 0.0745,-0.17986 0.19195,-0.37324 0.76371,-1.25721 2.999,-2.45316 5.0656,-2.71026 1.51557,-0.18855 3.67289,-0.13607 6.09027,0.14814 1.81031,0.21285 2.38858,0.43277 3.16779,1.20476 0.56674,0.5615 0.56632,0.55162 0.0339,0.79423 -0.66295,0.30212 -2.27549,0.93259 -2.82284,1.10368 -0.26089,0.0815 -0.72985,0.17676 -1.04215,0.21158 -0.52241,0.0583 -3.10441,0.0718 -3.77064,0.0198 z"
       id="path3464"
       inkscape:connector-curvature="0" />
  </g>
  <g
     inkscape:groupmode="layer"
     id="layer9"
     inkscape:label="Layer 8"
     style="display:inline" />
</svg>
