<?xml version="1.0" encoding="UTF-8" standalone="no"?>
<!-- Created with Inkscape (http://www.inkscape.org/) -->

<svg
   xmlns:dc="http://purl.org/dc/elements/1.1/"
   xmlns:cc="http://creativecommons.org/ns#"
   xmlns:rdf="http://www.w3.org/1999/02/22-rdf-syntax-ns#"
   xmlns:svg="http://www.w3.org/2000/svg"
   xmlns="http://www.w3.org/2000/svg"
   xmlns:sodipodi="http://sodipodi.sourceforge.net/DTD/sodipodi-0.dtd"
   xmlns:inkscape="http://www.inkscape.org/namespaces/inkscape"
   width="210mm"
   height="297mm"
   viewBox="0 0 744.09448819 1052.3622047"
   id="svg2"
   version="1.1"
   inkscape:version="0.91 r13725"
   sodipodi:docname="scene1.svg">
  <defs
     id="defs4">
    <inkscape:path-effect
       effect="spiro"
       id="path-effect4277"
       is_visible="true" />
    <inkscape:path-effect
       effect="spiro"
       id="path-effect4271"
       is_visible="true" />
    <inkscape:path-effect
       effect="spiro"
       id="path-effect4265"
       is_visible="true" />
    <inkscape:path-effect
       effect="spiro"
       id="path-effect4257"
       is_visible="true" />
    <inkscape:path-effect
       effect="spiro"
       id="path-effect4250"
       is_visible="true" />
    <inkscape:path-effect
       effect="spiro"
       id="path-effect4241"
       is_visible="true" />
    <inkscape:path-effect
       effect="spiro"
       id="path-effect4277-4"
       is_visible="true" />
  </defs>
  <sodipodi:namedview
     id="base"
     pagecolor="#ffffff"
     bordercolor="#666666"
     borderopacity="1.0"
     inkscape:pageopacity="0.0"
     inkscape:pageshadow="2"
     inkscape:zoom="1.4142136"
     inkscape:cx="403.03599"
     inkscape:cy="620.13967"
     inkscape:document-units="px"
     inkscape:current-layer="layer18"
     showgrid="false"
     inkscape:window-width="1280"
     inkscape:window-height="697"
     inkscape:window-x="-8"
     inkscape:window-y="-8"
     inkscape:window-maximized="1" />
  <metadata
     id="metadata7">
    <rdf:RDF>
      <cc:Work
         rdf:about="">
        <dc:format>image/svg+xml</dc:format>
        <dc:type
           rdf:resource="http://purl.org/dc/dcmitype/StillImage" />
        <dc:title />
      </cc:Work>
    </rdf:RDF>
  </metadata>
  <g
     inkscape:label="Layer 1"
     inkscape:groupmode="layer"
     id="layer1"
     style="display:inline" />
  <rect
     style="fill:#b4ecfc;fill-opacity:1;stroke:#000000;stroke-width:0.80994618;stroke-opacity:1"
     id="rect4173"
     width="647.95691"
     height="364.47577"
     x="50.709538"
     y="253.69574" />
  <g
     inkscape:groupmode="layer"
     id="layer3"
     inkscape:label="Layer 2"
     style="display:inline">
    <path
       style="fill:none;fill-rule:evenodd;stroke:#000000;stroke-width:1px;stroke-linecap:butt;stroke-linejoin:miter;stroke-opacity:1"
       d="m 50.714286,573.07649 c 0,0 162.857144,-18.57143 340.000004,-24.28571 177.14285,-5.71429 307.14285,12.85714 307.14285,12.85714"
       id="path4176"
       inkscape:connector-curvature="0" />
    <path
       style="fill:#ffdab9;fill-opacity:1;stroke:none;stroke-opacity:1"
       d="m 51.334913,595.3877 c 0,-12.22645 0.278497,-21.78572 0.634699,-21.78572 0.349085,0 13.286585,-1.2707 28.75,-2.82379 34.100438,-3.42491 84.769678,-7.91984 116.686728,-10.35142 60.43134,-4.60391 107.64265,-7.32765 182.85714,-10.54949 27.5987,-1.1822 128.22168,-1.17195 156.78572,0.016 55.18333,2.29496 105.86733,6.00083 143.77953,10.51275 8.16803,0.97208 15.31982,1.76741 15.89286,1.76741 0.89496,0 1.04189,3.87822 1.04189,27.5 l 0,27.5 -323.21428,0 -323.214287,0 0,-21.78571 z"
       id="path4180"
       inkscape:connector-curvature="0" />
  </g>
  <g
     inkscape:groupmode="layer"
     id="layer4"
     inkscape:label="Layer 3"
     style="display:inline">
    <path
       style="fill:#ffefd5;fill-rule:evenodd;stroke:#000000;stroke-width:0.69860363px;stroke-linecap:butt;stroke-linejoin:miter;stroke-opacity:1"
       d="m 63.525068,572.16744 c 0,0 -4.367623,-55.64298 38.216692,-56.55516 42.58432,-0.91217 37.12479,56.09907 37.12479,56.09907 z"
       id="path4183"
       inkscape:connector-curvature="0" />
    <path
       style="fill:#ffe4c4;fill-rule:evenodd;stroke:#000000;stroke-width:0.69860363px;stroke-linecap:butt;stroke-linejoin:miter;stroke-opacity:1"
       d="m 118.6663,571.71135 c 0,0 1.63786,-18.69969 15.28668,-18.69969 13.64882,0 13.64882,18.69969 13.64882,18.69969 z"
       id="path4185"
       inkscape:connector-curvature="0"
       sodipodi:nodetypes="cscc" />
    <path
       style="fill:none;fill-rule:evenodd;stroke:#000000;stroke-width:0.69860363px;stroke-linecap:butt;stroke-linejoin:miter;stroke-opacity:1"
       d="m 108.29319,571.71135 c 0,0 0.007,-17.2559 14.19478,-18.2436 13.10287,-0.91218 12.01097,-0.91218 12.01097,-0.91218"
       id="path4187"
       inkscape:connector-curvature="0"
       sodipodi:nodetypes="csc" />
    <path
       style="fill:#000000;fill-rule:evenodd;stroke:#000000;stroke-width:0.52784747px;stroke-linecap:butt;stroke-linejoin:miter;stroke-opacity:1"
       d="m 122.67425,571.56154 c 0,0 1.18531,-14.75135 11.06294,-14.75135 9.87764,0 9.87764,14.75135 9.87764,14.75135 z"
       id="path4185-7"
       inkscape:connector-curvature="0"
       sodipodi:nodetypes="cscc" />
  </g>
  <g
     inkscape:groupmode="layer"
     id="layer5"
     inkscape:label="Layer 4"
     style="display:inline">
    <circle
       style="fill:#ffd700;fill-opacity:1;stroke:#000000;stroke-opacity:1"
       id="path4205"
       cx="627.85718"
       cy="423.07651"
       r="20" />
    <ellipse
       style="fill:#ffff00;fill-opacity:1;stroke:#000000;stroke-width:0.76435059;stroke-opacity:1"
       id="path4205-2"
       cx="675"
       cy="492.71936"
       rx="15.832109"
       ry="14.760682" />
  </g>
  <g
     inkscape:groupmode="layer"
     id="layer6"
     inkscape:label="Layer 5"
     style="display:inline">
    <path
       style="fill:#ffffff;fill-rule:evenodd;stroke:#000000;stroke-width:1.48581612px;stroke-linecap:butt;stroke-linejoin:miter;stroke-opacity:1"
       d="m 553.73742,528.2259 c -5.00725,-0.16368 -10.80206,2.71729 -12.83932,4.92788 -7.38188,6.94214 -9.78575,23.75551 -10.94523,31.38386 -0.54429,4.32286 -1.24334,6.30088 0.19358,10.38281 1.26125,2.72931 2.93057,1.31506 5.39988,1.16778 3.13091,-0.86422 3.53283,-3.4689 4.73342,-6.27319 2.68311,-5.19733 2.76007,-13.28585 6.77598,-18.22549 0,0 -1.57115,20.16915 -1.28754,21.37744 -1.5874,8.11263 -3.33436,14.85562 -3.8629,18.47078 -0.5271,3.61092 -1.50673,17.03693 -0.92779,20.15381 3.34638,0.0781 14.62584,0.33809 17.78104,0.18277 0.83175,-3.38422 3.20753,-7.1242 4.78205,-9.87591 0,0 3.11784,6.65288 4.92928,9.68929 5.56463,0.14349 11.08133,0.14364 16.9683,0.21047 1.56013,-4.1915 1.94729,-12.15848 1.17463,-17.57389 -0.77266,-5.41542 -1.85895,-12.13586 -3.30176,-19.60451 -1.12275,-5.81197 0.13306,-18.51267 0.1642,-21.59558 0,0 2.88683,14.62747 5.07133,18.59535 1.43919,2.73596 2.84682,5.26848 5.22087,6.47753 2.00591,0.62233 4.06353,0.48463 5.48665,-0.74637 1.85707,-2.46968 1.23908,-8.78622 0.97514,-11.58906 -1.20281,-12.46093 -0.18804,-24.45361 -8.59904,-32.9099 -2.59568,-2.60966 -6.8798,-3.19297 -9.98019,-5.01926"
       id="path4248"
       inkscape:connector-curvature="0"
       sodipodi:nodetypes="cccccccccccccczscccccsc" />
  </g>
  <g
     inkscape:groupmode="layer"
     id="layer7"
     inkscape:label="Layer 6"
     style="display:inline">
    <path
       style="fill:#f3bfad;fill-rule:evenodd;stroke:#000000;stroke-width:1.48581612px;stroke-linecap:butt;stroke-linejoin:miter;stroke-opacity:1"
       d="m 552.66387,483.37371 c 4.3814,-3.17611 9.69812,-5.0792 15.10642,-5.2655 5.40829,-0.18629 10.88392,1.36665 15.31111,4.47861 3.53448,2.48446 6.37392,5.92936 8.21402,9.83822 1.8401,3.90885 2.68496,8.27068 2.52159,12.5879 -0.28208,7.45418 -3.67648,14.77574 -9.30417,19.672 -4.69914,4.08839 -10.87635,6.43986 -17.10466,6.51119 -6.22831,0.0713 -12.45775,-2.13805 -17.24929,-6.11775 -5.69767,-4.9669 -9.05976,-12.50763 -8.94634,-20.06545 0.12697,-8.46062 4.60044,-16.67297 11.45132,-21.63922 z"
       id="path4239"
       inkscape:path-effect="#path-effect4241"
       inkscape:original-d="m 552.66387,483.37371 c 10.15914,-6.55837 21.21232,-6.81397 30.41753,-0.78689 0,0 11.09347,7.47539 10.73561,22.42612 -0.35785,14.95073 -9.30417,19.672 -9.30417,19.672 -12.35293,6.03345 -26.67737,3.61449 -34.35395,0.39344 0,0 -8.58847,-5.11472 -8.94634,-20.06545 -0.35785,-14.95072 11.45132,-21.63922 11.45132,-21.63922 z"
       inkscape:connector-curvature="0"
       sodipodi:nodetypes="ccsccsc" />
    <path
       style="fill:none;fill-rule:evenodd;stroke:#000000;stroke-width:1.48581612px;stroke-linecap:butt;stroke-linejoin:miter;stroke-opacity:1"
       d="m 529.49258,568.29967 c 1.52574,0.78399 3.1546,1.36701 4.83129,1.72926 1.81785,0.39275 3.69164,0.52566 5.54673,0.39344 l 0,0"
       id="path4255"
       inkscape:path-effect="#path-effect4257"
       inkscape:original-d="m 529.49258,568.29967 c 0,0 1.34222,0.84402 4.83129,1.72926 3.48908,0.88524 5.54673,0.39344 5.54673,0.39344 l 0,0"
       inkscape:connector-curvature="0" />
    <path
       style="fill:#f1b6a1;fill-opacity:1;stroke:#000000;stroke-width:0.09380632;stroke-opacity:1"
       d="m 531.4121,575.41359 c -0.38062,-0.36742 -0.68911,-1.04794 -0.97788,-2.1572 -0.32557,-1.25056 -0.52261,-3.30194 -0.34642,-3.60642 0.0478,-0.0826 0.3546,-0.005 1.09456,0.27681 2.06338,0.78555 4.16531,1.22469 6.43829,1.34507 l 1.25614,0.0666 -0.44736,1.00192 c -0.82386,1.84515 -1.88859,2.76462 -3.45397,2.98283 -0.38624,0.0539 -1.01985,0.16413 -1.40798,0.24508 -0.38813,0.081 -0.96154,0.14723 -1.27421,0.14723 -0.50694,0 -0.60239,-0.0327 -0.88117,-0.30182 z"
       id="path4261"
       inkscape:connector-curvature="0" />
    <path
       style="fill:#f3bfad;fill-rule:evenodd;stroke:#000000;stroke-width:1.48581612px;stroke-linecap:butt;stroke-linejoin:miter;stroke-opacity:1"
       d="m 588.98599,572.19285 c 1.87574,0.57068 3.86298,0.77235 5.81513,0.59016 1.96365,-0.18327 3.89029,-0.75486 5.63618,-1.67213"
       id="path4263"
       inkscape:path-effect="#path-effect4265"
       inkscape:original-d="m 588.98599,572.19285 c 0,0 0.71572,0.98359 5.81513,0.59016 5.0994,-0.39344 5.63618,-1.67213 5.63618,-1.67213"
       inkscape:connector-curvature="0" />
    <path
       style="fill:#f3bfad;fill-opacity:1;stroke:#000000;stroke-width:0.09380632;stroke-opacity:1"
       d="m 594.48733,577.44656 c -0.72576,-0.18247 -1.41582,-0.67024 -2.30989,-1.6328 -0.79915,-0.86034 -1.7787,-2.28165 -1.61408,-2.34198 0.0511,-0.0187 0.44568,0.014 0.87701,0.0718 2.38179,0.32116 5.56812,-0.0809 7.74621,-0.97733 0.28632,-0.11778 0.53677,-0.19646 0.55657,-0.17469 0.0199,0.0218 -0.006,0.451 -0.0568,0.95388 -0.17842,1.75702 -0.62055,3.13231 -1.13697,3.5366 -0.61361,0.48037 -1.16664,0.63421 -2.3883,0.6643 -0.72998,0.0179 -1.35319,-0.0191 -1.67368,-0.0997 z"
       id="path4267"
       inkscape:connector-curvature="0" />
    <path
       style="fill:#000000;fill-rule:evenodd;stroke:#000000;stroke-width:1.48581612px;stroke-linecap:butt;stroke-linejoin:miter;stroke-opacity:1"
       d="m 585.04961,584.09442 c -7.12508,0.20384 -14.25412,0.26943 -21.38175,0.19671 -6.8319,-0.0697 -13.66251,-0.26647 -20.4871,-0.59016"
       id="path4269"
       inkscape:path-effect="#path-effect4271"
       inkscape:original-d="m 585.04961,584.09442 c 0,0 -1.69981,0.29508 -21.38175,0.19671 -19.68194,-0.0984 -20.4871,-0.59016 -20.4871,-0.59016"
       inkscape:connector-curvature="0" />
    <path
       style="fill:#000000;fill-opacity:1;stroke:#000000;stroke-width:0.09380632;stroke-opacity:1"
       d="m 547.09036,610.90303 c -2.97689,-0.0497 -5.42948,-0.1089 -5.45018,-0.13133 -0.0207,-0.0224 -0.0559,-0.74054 -0.0784,-1.59564 -0.0964,-3.67593 0.52856,-13.6894 1.10484,-17.70381 0.14741,-1.02676 0.49758,-2.8035 1.03846,-5.26891 l 0.36408,-1.65957 1.21985,0.0657 c 7.71934,0.41519 21.60395,0.6224 31.42913,0.46903 4.18947,-0.0654 7.63709,-0.097 7.66137,-0.0704 0.0865,0.0952 1.30648,7.86743 1.57504,10.03511 0.58495,4.72139 0.24156,11.26293 -0.79141,15.07647 l -0.20572,0.75949 -7.50458,-0.021 c -4.12752,-0.0109 -7.754,-0.0479 -8.05886,-0.081 l -0.55428,-0.06 -0.66665,-1.24682 c -1.00993,-1.8889 -1.73914,-3.34227 -3.16718,-6.31238 -0.7153,-1.4877 -1.33036,-2.74172 -1.36682,-2.78673 -0.0681,-0.0842 -2.40876,3.8992 -3.37124,5.73754 -0.72065,1.37644 -1.31861,2.69872 -1.73474,3.83603 -0.33424,0.91351 -0.34948,0.93595 -0.68105,1.00252 -0.42654,0.0857 -3.82944,0.0717 -10.76164,-0.0442 z"
       id="path4273"
       inkscape:connector-curvature="0" />
    <path
       style="fill:none;fill-rule:evenodd;stroke:#480c00;stroke-width:1.48581612px;stroke-linecap:butt;stroke-linejoin:miter;stroke-opacity:1"
       d="m 541.30201,591.37305 c 7.00802,2.68675 14.61282,3.80381 22.09745,3.24589 8.0055,-0.59675 15.86136,-3.11307 22.72372,-7.27865"
       id="path4275"
       inkscape:path-effect="#path-effect4277"
       inkscape:original-d="m 541.30201,591.37305 c 0,0 8.14118,5.01637 22.09745,3.24589 13.9563,-1.77048 22.72372,-7.27865 22.72372,-7.27865"
       inkscape:connector-curvature="0"
       sodipodi:nodetypes="csc" />
    <path
       style="fill:#000000;fill-opacity:1;fill-rule:evenodd;stroke:#480c00;stroke-width:1.48581612px;stroke-linecap:butt;stroke-linejoin:miter;stroke-opacity:1"
       d="m 541.55852,588.78609 c 6.95123,2.28573 14.35254,3.19361 21.65013,2.65572 8.00205,-0.58982 15.87118,-2.92172 22.90264,-6.78685"
       id="path4275-7"
       inkscape:path-effect="#path-effect4277-4"
       inkscape:original-d="m 541.55852,588.78609 c 0,0 8.35136,7.63534 21.65013,2.65572 14.42823,-5.40255 22.90264,-6.78685 22.90264,-6.78685"
       inkscape:connector-curvature="0"
       sodipodi:nodetypes="csc" />
    <path
       style="fill:#480c00;fill-opacity:1;stroke:#480c00;stroke-width:0.09380632;stroke-opacity:1"
       d="m 557.24445,593.90979 c -4.30315,-0.20275 -8.58189,-0.97225 -12.92745,-2.32493 -0.61507,-0.19144 -1.23909,-0.4039 -1.3867,-0.4721 -0.3256,-0.15051 -1.23085,-0.44664 -1.36506,-0.44664 -0.0533,0 -0.12399,0.13601 -0.15722,0.30211 -0.11028,0.552 -0.14567,0.22046 -0.0444,-0.41485 0.16574,-1.03868 0.0949,-0.97384 0.81192,-0.74389 l 0.62693,0.20107 -0.0529,0.45074 c -0.0412,0.35242 -0.0312,0.41301 0.0463,0.27783 0.0546,-0.0952 0.0781,-0.21031 0.0524,-0.25601 -0.0256,-0.0457 0.005,-0.15897 0.0654,-0.2517 0.10452,-0.15732 0.19571,-0.14551 1.36145,0.17583 3.36122,0.92667 7.02259,1.54478 10.89764,1.83978 1.99992,0.15221 7.75889,0.0651 9.63103,-0.14567 6.95816,-0.78354 12.86223,-2.48635 19.43026,-5.60394 0.31512,-0.14957 0.33234,-0.14785 0.386,0.038 0.19388,0.67161 0.21552,0.6417 -0.91562,1.26486 -7.86232,4.33135 -17.41018,6.53588 -26.46029,6.10949 z"
       id="path4299"
       inkscape:connector-curvature="0" />
    <path
       style="fill:#808080;fill-opacity:1;stroke:#000000;stroke-width:0.09380632;stroke-opacity:1"
       d="m 586.00875,587.07965 -0.21416,-0.431 -0.4395,0.24488 c -0.24174,0.13461 -0.45903,0.22341 -0.48288,0.19718 -0.0238,-0.0261 -0.0653,-0.22764 -0.0921,-0.44762 l -0.0487,-0.39995 0.60597,-0.29893 c 0.33328,-0.16441 0.61452,-0.28685 0.62498,-0.27209 0.0354,0.05 0.30756,1.78699 0.28404,1.81285 -0.0128,0.014 -0.11974,-0.16826 -0.23751,-0.40532 z"
       id="path4301"
       inkscape:connector-curvature="0" />
    <rect
       style="fill:#808080;fill-opacity:1;stroke:#000000;stroke-width:1.48581612;stroke-opacity:1"
       id="rect4303"
       width="8.2306595"
       height="6.7868104"
       x="558.30005"
       y="590.19275" />
    <path
       style="fill:none;fill-rule:evenodd;stroke:#000000;stroke-width:1.59342062px;stroke-linecap:butt;stroke-linejoin:miter;stroke-opacity:1"
       d="m 555.31107,503.10803 c 0,0 -1.49002,-0.57052 -1.70288,-2.09195"
       id="path4343-3-2"
       inkscape:connector-curvature="0" />
    <path
       style="fill:#e4c880;fill-rule:evenodd;stroke:#000000;stroke-width:1.48581612px;stroke-linecap:butt;stroke-linejoin:miter;stroke-opacity:1"
       d="m 579.41343,485.63599 c 0,0 0.18121,9.63506 -10.44649,10.19148 -10.6277,0.55641 -15.68852,-5.42499 -19.61065,-1.80833 -3.92215,3.61665 -0.88564,20.30892 -3.92215,28.79414 -3.03646,8.48523 -9.86856,10.15446 -11.76638,16.13585 -1.8978,5.98138 -4.04865,15.57944 -4.04865,15.57944 0,0 0.12655,-3.06026 -0.88564,-6.2596 -1.01217,-3.19934 -6.07298,-12.24098 -5.06081,-18.50059 1.01216,-6.25959 8.84898,-20.69655 8.84898,-28.34718 0,-7.6506 1.23822,-14.49339 5.41339,-18.38825 4.17518,-3.89485 10.40909,-8.349 13.19254,-8.90541 2.78345,-0.5564 16.70067,-4.45127 31.37702,0.27821 14.67638,4.72946 12.01944,4.86857 15.43549,8.0679 1.73631,1.62617 8.60339,13.21472 5.81994,27.40312 -2.78344,14.18844 3.16301,19.89161 4.93429,27.68133 1.77128,7.78972 -7.33817,17.38777 -7.33817,17.38777 0,0 1.77128,-9.73715 -2.27736,-16.55315 -4.04866,-6.81601 -6.32603,-4.59036 -9.74207,-12.51919 -3.41606,-7.92883 2.40387,-8.76344 0.63259,-19.61341 -1.77128,-10.84996 -10.55587,-20.62413 -10.55587,-20.62413 z"
       id="path4398"
       inkscape:connector-curvature="0"
       sodipodi:nodetypes="csssscssssssssscsssc" />
  </g>
  <g
     inkscape:groupmode="layer"
     id="layer9"
     inkscape:label="Layer 8"
     style="display:inline">
    <path
       style="fill:none;fill-rule:evenodd;stroke:#00b8f8;stroke-width:1.48581612px;stroke-linecap:butt;stroke-linejoin:miter;stroke-opacity:1"
       d="m 525.10915,525.86526 1.61035,2.36064 3.75746,-2.55736 -0.89464,4.72128 5.72565,-7.27864 -1.4314,9.24584 4.83101,-7.47536 2.50497,4.52456"
       id="path4401"
       inkscape:connector-curvature="0"
       sodipodi:nodetypes="cccccccc" />
    <path
       style="fill:#00a0f0;fill-opacity:1;stroke:#00b8f8;stroke-width:0.18761262;stroke-opacity:1"
       d="m 529.45305,548.06684 c -0.20726,-0.67622 -1.06417,-2.86811 -1.90425,-4.87085 -2.31809,-5.52631 -3.15967,-8.60959 -3.15967,-11.57598 0,-1.45195 0.38949,-3.68195 0.70351,-4.02785 0.0815,-0.0899 0.4131,0.24213 0.73681,0.7377 0.32368,0.49557 0.66683,0.90102 0.76253,0.90102 0.0957,0 0.69337,-0.36063 1.32819,-0.80144 0.63482,-0.44079 1.19726,-0.7541 1.24987,-0.69626 0.0525,0.0578 -0.12356,1.26574 -0.39162,2.68417 -0.268,1.41844 -0.45378,2.61582 -0.41285,2.66082 0.0409,0.0451 1.31682,-1.5013 2.83527,-3.43625 1.51848,-1.93495 2.77868,-3.50023 2.80044,-3.4784 0.0218,0.0218 -0.1586,1.31844 -0.40085,2.88139 -0.24224,1.56293 -0.44123,2.94369 -0.44218,3.06835 -10e-4,0.1996 0.88233,0.65859 1.26822,0.65859 0.0786,0 0.92567,-1.21721 1.88229,-2.7049 0.95663,-1.4877 1.87962,-2.90607 2.05109,-3.15192 l 0.31174,-0.44702 0.82368,1.4916 0.82367,1.49161 -0.94203,0.94223 c -0.51813,0.51822 -1.54757,1.52328 -2.28767,2.23345 -1.52889,1.46712 -2.56941,2.76434 -3.35554,4.18349 -0.5638,1.01776 -2.06769,5.9201 -3.09107,10.07613 -0.32637,1.3254 -0.64274,2.40982 -0.70307,2.40982 -0.0603,0 -0.27925,-0.55327 -0.48651,-1.2295 z"
       id="path4403"
       inkscape:connector-curvature="0" />
    <path
       style="fill:none;fill-rule:evenodd;stroke:#14ccfc;stroke-width:1.48581612px;stroke-linecap:butt;stroke-linejoin:miter;stroke-opacity:1"
       d="m 592.3856,530.78326 2.32605,-5.31145 0.71572,6.29506 1.96819,-7.67209 2.86282,11.80321 0.71571,-4.72129 3.75746,3.54097 0.17893,-7.27864"
       id="path4409"
       inkscape:connector-curvature="0" />
    <path
       style="fill:#007ce8;fill-opacity:1;stroke:#14ccfc;stroke-width:0.18761262;stroke-opacity:1"
       d="m 602.51759,551.03518 c 0.25787,-3.03609 -0.59829,-8.30348 -1.80756,-11.12064 -1.13544,-2.64514 -3.14899,-5.4239 -5.13012,-7.0797 l -0.89916,-0.75151 0.7718,-0.0983 0.77183,-0.0984 0.52298,-2.1222 c 0.28764,-1.16719 0.58273,-2.05244 0.65578,-1.9672 0.0731,0.0852 0.56949,1.96974 1.10323,4.18776 l 0.97044,4.03276 0.78573,0 0.78575,0 0.2208,-1.44985 c 0.12143,-0.7974 0.25998,-1.49294 0.30789,-1.54559 0.0479,-0.0527 0.89979,0.67793 1.89306,1.62358 0.99328,0.94562 1.83445,1.68541 1.86925,1.64395 0.0348,-0.0415 0.13277,-1.17508 0.21765,-2.5192 l 0.15439,-2.44383 0.74615,1.95203 c 1.31877,3.45007 1.57989,4.52056 1.57989,6.47659 0,3.05756 -1.25944,6.35068 -3.961,10.35691 -1.62813,2.41444 -1.68849,2.45017 -1.55878,0.92285 z"
       id="path4413"
       inkscape:connector-curvature="0" />
    <path
       style="fill:#007ce8;fill-opacity:1;stroke:#14ccfc;stroke-width:0.18761262;stroke-opacity:1"
       d="m 593.94346,531.34563 -0.64458,-0.63935 0.47964,-1.18031 0.47964,-1.18033 0.19902,1.7705 c 0.10937,0.97376 0.18367,1.7926 0.16493,1.81966 -0.0186,0.0271 -0.32414,-0.23853 -0.67865,-0.59017 z"
       id="path4415"
       inkscape:connector-curvature="0" />
    <path
       style="fill:#007ce8;fill-opacity:1;stroke:#14ccfc;stroke-width:0.18761262;stroke-opacity:1"
       d="m 529.67303,548.67 c -0.0725,-0.25059 -0.15612,-0.56218 -0.18583,-0.69243 -0.0297,-0.13024 -0.79473,-2.07779 -1.70005,-4.32784 -2.85637,-7.09931 -3.61637,-10.30381 -3.20845,-13.52829 0.10633,-0.83995 0.27413,-1.76016 0.37304,-2.04492 l 0.17984,-0.51774 0.69373,0.88523 0.69373,0.88524 1.2611,-0.74924 c 1.48141,-0.88013 1.42764,-1.00617 0.89287,2.09304 -0.20221,1.17188 -0.33969,2.22291 -0.30552,2.33562 0.0341,0.1128 1.26656,-1.31097 2.73863,-3.16376 1.47206,-1.8528 2.70018,-3.29053 2.72915,-3.19497 0.0289,0.0955 -0.11198,1.23422 -0.31302,2.53033 -0.20115,1.29613 -0.3657,2.53522 -0.3657,2.7535 0,0.42504 0.88335,0.96041 1.29684,0.78597 0.1264,-0.0533 1.1082,-1.43108 2.1819,-3.06171 1.0737,-1.63066 2.00808,-2.92684 2.07641,-2.88041 0.17237,0.11716 1.42298,2.44361 1.42298,2.64714 0,0.0912 -0.86556,1.0062 -1.92345,2.03351 -1.05792,1.0273 -2.25779,2.25212 -2.6664,2.72184 -0.95934,1.1028 -2.20936,3.08847 -2.20936,3.50956 0,0.18043 -0.0603,0.39445 -0.13419,0.47558 -0.0738,0.0812 -0.13518,0.20657 -0.13632,0.2787 -0.001,0.0721 -0.0942,0.39672 -0.20689,0.7213 -0.40197,1.15828 -0.47633,1.37896 -0.51365,1.52459 -0.0208,0.0812 -0.058,0.1918 -0.0826,0.24589 -0.0246,0.054 -0.0618,0.16475 -0.0826,0.2459 -0.0208,0.0812 -0.0848,0.28033 -0.14254,0.44263 -0.18311,0.5158 -0.81108,2.7808 -1.39084,5.01636 -0.61674,2.37818 -0.77595,2.71025 -0.97292,2.02938 z"
       id="path4417"
       inkscape:connector-curvature="0" />
  </g>
  <g
     inkscape:groupmode="layer"
     id="layer10"
     inkscape:label="Layer 9"
     style="display:inline">
    <path
       style="fill:#000000;fill-rule:evenodd;stroke:#000000;stroke-width:1.48581612px;stroke-linecap:butt;stroke-linejoin:miter;stroke-opacity:1"
       d="m 528.98651,569.13429 -5.56689,-2.22563 -7.84427,17.80507 4.04867,2.78204 5.0608,-12.24098 6.57906,3.06025 1.01217,-1.39103"
       id="path4420"
       inkscape:connector-curvature="0" />
    <path
       style="fill:#808080;fill-rule:evenodd;stroke:#000000;stroke-width:1.48581612px;stroke-linecap:butt;stroke-linejoin:miter;stroke-opacity:1"
       d="m 515.06928,584.43553 -1.77129,3.61666 4.55474,2.50383 2.02432,-3.06024"
       id="path4422"
       inkscape:connector-curvature="0" />
    <path
       style="fill:#808080;fill-rule:evenodd;stroke:#000000;stroke-width:1.48581612px;stroke-linecap:butt;stroke-linejoin:miter;stroke-opacity:1"
       d="m 518.35881,589.9996 c 0,0 -2.02434,1.66923 -2.78346,5.00768 -0.75912,3.33846 -1.01217,6.12049 -1.01217,6.12049 l -9.61553,-4.72945 5.06081,-3.61669 3.54256,-4.45126"
       id="path4424"
       inkscape:connector-curvature="0"
       sodipodi:nodetypes="cscccc" />
    <path
       style="fill:none;fill-rule:evenodd;stroke:#000000;stroke-width:1.48581612px;stroke-linecap:butt;stroke-linejoin:miter;stroke-opacity:1"
       d="m 521.64833,571.91633 -2.78345,-1.66923"
       id="path4426"
       inkscape:connector-curvature="0" />
    <path
       style="fill:none;fill-rule:evenodd;stroke:#000000;stroke-width:1.48581612px;stroke-linecap:butt;stroke-linejoin:miter;stroke-opacity:1"
       d="m 518.61184,579.42784 -3.03649,-1.66922"
       id="path4428"
       inkscape:connector-curvature="0" />
    <path
       style="fill:none;fill-rule:evenodd;stroke:#000000;stroke-width:1.48581612px;stroke-linecap:butt;stroke-linejoin:miter;stroke-opacity:1"
       d="m 521.64833,563.5702 -7.59121,16.97047"
       id="path4430"
       inkscape:connector-curvature="0" />
  </g>
  <g
     inkscape:groupmode="layer"
     id="layer14"
     inkscape:label="Layer 13"
     style="display:inline">
    <path
       style="fill:#e9c6af;fill-rule:evenodd;stroke:#a05a2c;stroke-width:1px;stroke-linecap:butt;stroke-linejoin:miter;stroke-opacity:1"
       d="m 443,581.48721 1.75,-1.5 0.25,2 1.625,-1.75 1.25,1.625 0.375,-1.875 0.75,2.25 1.5,-2.625 0.625,2.25 1.625,-2.875 1,2.25 3.5,-4.75 3.75,2.75 -1,-3.25 2.75,-0.375 0,-0.625 2.25,0.125 1.125,0 -1.75,-0.875 4.25,0 -1.5,-1.25 c 0,0 1.625,0.875 4,0.625 2.375,-0.25 1.875,0.875 -0.625,-0.875 -2.5,-1.75 -2.5,-2.75 -2.5,-2.75 0,0 1.125,1.5 3.875,2.25 2.75,0.75 7.625,-1.375 7.625,-1.375 0,0 -1.375,1.375 -5,0.125 -3.625,-1.25 -2.75,-1.875 -2.75,-1.875 0,0 4.25,1.5 7.25,1.125 3,-0.375 5,-1.125 5,-1.125 0,0 -2.375,0.25 -5.625,0.125 -3.25,-0.125 -2.75,-2.25 -2.75,-2.25 0,0 1.875,1.5 4,1.375 2.125,-0.125 5.375,-1.625 5.375,-1.625 0,0 -2.5,-1.875 -4,-1.375 -1.5,0.5 -1.75,-0.5 1,-2.5 2.75,-2 6.25,-0.25 6.25,-0.25 0,0 -4.75,-5.25 -7.25,-4.25 -2.5,1 4.25,0 5.75,-1.5 1.5,-1.5 -1.25,-4 -3.75,-2.5 -2.5,1.5 -6.25,2.5 -6.25,2.5 0,0 0.5,-2 2.25,-3.5 1.75,-1.5 4.5,-3 4.5,-3 0,0 -9,2 -10.25,3.5 -1.25,1.5 -4,5.25 -4,5.25 0,0 1.5,-5.25 2.25,-6.75 0.75,-1.5 4,-2.25 4,-2.25 0,0 -7.25,-0.75 -7.5,0.75 -0.25,1.5 -2.5,7.5 -2.5,7.5 0,0 -1.25,-1.75 -0.5,-4.25 0.75,-2.5 2,-4.5 2,-4.5 0,0 -6.25,6.25 -6.25,8.5 0,2.25 -0.5,4.75 -0.5,4.75 0,0 -3.25,-5 -1.75,-7.5 1.5,-2.5 0.5,-2 0.5,-2 0,0 -3,5.75 -3,7.25 0,1.5 0.25,3.75 0.25,3.75 l -1.75,-0.75 -0.75,2.5 -0.5,-1 -1.25,2.25 -1.5,-2 -3,3.5 -0.5,-1.5 -2,4.25 -1,-3 -1.5,4 -1,-1.75 -1,2"
       id="path3846"
       inkscape:connector-curvature="0" />
  </g>
  <g
     inkscape:groupmode="layer"
     id="layer13"
     inkscape:label="Layer 12"
     style="display:inline">
    <path
       style="fill:#ff9955;fill-rule:evenodd;stroke:#a05a2c;stroke-width:1.31842029px;stroke-linecap:butt;stroke-linejoin:miter;stroke-opacity:1"
       d="m 402.64908,536.23734 c 0,0 -13.21288,13.80308 -15.05265,22.73449 -1.83977,8.93141 -2.67602,20.62343 -2.67602,20.62343 l 1.83976,-1.29912 0.50175,1.94867 2.00702,-1.78629 0,2.43586 1.67253,-1.94867 0.3345,1.78628 1.83977,-1.62389 0.3345,1.78628 1.50526,-1.62389 0.16725,2.43583 1.17076,-2.76061 0.66901,3.08538 1.17077,-2.43583 0.16724,2.76061 1.50528,-2.76061 0.16725,2.27345 1.67251,-2.27345"
       id="path3828"
       inkscape:connector-curvature="0" />
    <path
       style="fill:#ff9955;fill-rule:evenodd;stroke:#a05a2c;stroke-width:1.23398185px;stroke-linecap:butt;stroke-linejoin:miter;stroke-opacity:1"
       d="m 440.57472,536.61376 c 0,0 12.91595,12.36964 14.71437,20.37353 1.79842,8.00389 2.61589,18.48171 2.61589,18.48171 l -1.79842,-1.16421 -0.49048,1.74631 -1.96192,-1.60078 0,2.18287 -1.63493,-1.74629 -0.32698,1.60077 -1.79843,-1.45525 -0.32698,1.60077 -1.47144,-1.45525 -0.16349,2.18288 -1.14446,-2.47392 -0.65396,2.76498 -1.14446,-2.18288 -0.16349,2.47392 -1.47144,-2.47392 -0.16349,2.03735 -1.63493,-2.03735"
       id="path3828-5"
       inkscape:connector-curvature="0" />
  </g>
  <g
     inkscape:groupmode="layer"
     id="layer8"
     inkscape:label="Layer 7"
     style="display:inline">
    <path
       style="fill:none;fill-rule:evenodd;stroke:#000000;stroke-width:1.48581612px;stroke-linecap:butt;stroke-linejoin:miter;stroke-opacity:1"
       d="m 570.91438,531.37343 c 0,0 -3.57853,6.49177 -2.86281,27.73753 0.71571,21.24578 0.53678,20.65562 1.78927,21.63921 1.25248,0.9836 4.11531,1.77048 7.69384,1.9672 3.57854,0.19672 7.336,-0.19672 7.336,-0.19672"
       id="path4310"
       inkscape:connector-curvature="0" />
    <path
       style="fill:#000000;fill-rule:evenodd;stroke:#000000;stroke-width:1.48581612px;stroke-linecap:butt;stroke-linejoin:miter;stroke-opacity:1"
       d="m 584.51282,529.79965 c 0,0 -1.25248,5.50817 -1.43141,11.99994 -0.17893,6.49177 0.53678,11.99992 0.53678,11.99992"
       id="path4312"
       inkscape:connector-curvature="0" />
    <path
       style="fill:#000000;fill-opacity:1;stroke:#000000;stroke-width:0.18761262;stroke-opacity:1"
       d="m 575.78173,581.70448 c -3.1156,-0.40513 -5.50309,-1.35181 -5.94065,-2.35551 -0.44695,-1.02525 -1.23974,-22.89307 -1.04795,-28.90546 0.24948,-7.82056 1.15743,-14.49939 2.38637,-17.55388 l 0.35329,-0.87809 1.76662,-0.44754 c 2.29373,-0.58109 4.42567,-1.41373 6.37396,-2.48941 0.86109,-0.47541 1.56561,-0.77011 1.56561,-0.65487 0,0.17734 1.11265,0.80381 2.17272,1.22335 0.26832,0.10625 0.27143,0.23352 0.0355,1.45845 -0.99532,5.16684 -1.38559,12.79468 -0.9637,18.83583 0.1884,2.69793 0.17649,3.94243 -0.0812,8.48113 -0.1993,3.50976 -0.27738,6.95609 -0.22952,10.13109 0.0715,4.74815 0.0826,4.86608 0.83738,8.9095 0.4207,2.25373 0.71497,4.15256 0.65396,4.21965 -0.18574,0.2042 -6.35503,0.22435 -7.88233,0.0257 z"
       id="path4314"
       inkscape:connector-curvature="0" />
    <path
       style="fill:none;fill-rule:evenodd;stroke:#000000;stroke-width:1.48581612px;stroke-linecap:butt;stroke-linejoin:miter;stroke-opacity:1"
       d="m 549.44319,529.01279 c 0,0 1.25249,3.34423 1.25249,10.22944 0,6.8852 -3.9364,12.7868 -3.9364,12.7868"
       id="path4318"
       inkscape:connector-curvature="0" />
    <path
       style="fill:none;fill-rule:evenodd;stroke:#000000;stroke-width:1.48581612px;stroke-linecap:butt;stroke-linejoin:miter;stroke-opacity:1"
       d="m 563.39946,531.57015 c 0,0 1.61036,10.22944 0.89465,26.36048 -0.71572,16.13105 -0.35786,20.06547 -2.14712,22.03267 -1.78927,1.96719 -3.22068,1.96719 -7.15707,2.16392 -3.93639,0.19672 -11.09346,-0.78688 -11.09346,-0.78688"
       id="path4320"
       inkscape:connector-curvature="0" />
    <path
       style="fill:#000000;fill-opacity:1;stroke:#000000;stroke-width:0.18761262;stroke-opacity:1"
       d="m 551.53715,581.20474 c -0.34444,-0.0335 -1.90123,-0.16444 -3.45954,-0.29102 -1.86978,-0.1519 -2.86131,-0.31048 -2.91574,-0.46642 -0.0453,-0.12993 0.23586,-1.77744 0.62494,-3.66108 0.5907,-2.85982 0.72623,-3.92782 0.82158,-6.47397 0.0628,-1.67703 0.3537,-6.45733 0.64646,-10.62288 l 0.53228,-7.57373 1.05675,-2.26227 c 1.57579,-3.37351 2.32882,-6.10473 2.60558,-9.45062 0.15474,-1.87064 -0.1735,-6.60196 -0.62678,-9.03435 -0.19034,-1.02143 -0.31379,-1.89262 -0.27433,-1.93598 0.0394,-0.0433 0.74104,-0.15932 1.5591,-0.25766 0.81805,-0.0983 1.59214,-0.2209 1.72022,-0.27234 0.12811,-0.0514 0.69171,0.16089 1.25249,0.47186 1.4167,0.78558 3.74371,1.66169 5.79119,2.18036 1.44817,0.36688 1.74555,0.50713 1.82647,0.86152 0.18805,0.82379 0.64161,6.37236 0.82236,10.06021 0.26233,5.35261 0.23038,8.97772 -0.17238,19.55726 -0.591,15.52355 -0.65601,16.06484 -2.10599,17.53356 -0.50173,0.50823 -1.21266,1.00296 -1.64671,1.14593 -1.31887,0.43443 -5.82072,0.70909 -8.05795,0.49162 z"
       id="path4324"
       inkscape:connector-curvature="0" />
    <ellipse
       style="fill:#000000;fill-opacity:1;stroke:#000000;stroke-width:1.67348886;stroke-opacity:1"
       id="path4326"
       cx="579.64081"
       cy="506.72781"
       rx="2.4602144"
       ry="3.0491304" />
    <ellipse
       style="fill:#000000;fill-opacity:1;stroke:#000000;stroke-width:1.68209875;stroke-opacity:1"
       id="path4326-1"
       cx="555.84125"
       cy="506.11877"
       rx="2.411377"
       ry="3.1429765" />
    <path
       style="fill:none;fill-rule:evenodd;stroke:#000000;stroke-width:1.7692318px;stroke-linecap:butt;stroke-linejoin:miter;stroke-opacity:1"
       d="m 581.98787,504.91358 c 0,0 2.05499,-0.51 2.34854,-1.87002"
       id="path4343"
       inkscape:connector-curvature="0" />
    <path
       style="fill:none;fill-rule:evenodd;stroke:#000000;stroke-width:1.59342062px;stroke-linecap:butt;stroke-linejoin:miter;stroke-opacity:1"
       d="m 580.61336,503.69599 c 0,0 1.49003,-0.57051 1.70289,-2.09195"
       id="path4343-3"
       inkscape:connector-curvature="0" />
    <path
       style="fill:none;fill-rule:evenodd;stroke:#000000;stroke-width:1.7692318px;stroke-linecap:butt;stroke-linejoin:miter;stroke-opacity:1"
       d="m 553.66494,504.33093 c 0,0 -2.05499,-0.50999 -2.34854,-1.87001"
       id="path4343-8"
       inkscape:connector-curvature="0" />
    <ellipse
       style="fill:#dcc078;fill-opacity:1;stroke:#000000;stroke-width:1.48581612;stroke-opacity:1"
       id="path4394"
       cx="566.98895"
       cy="513.37067"
       rx="1.6998041"
       ry="1.9672011" />
    <path
       style="fill:none;fill-rule:evenodd;stroke:#000000;stroke-width:1.48581612px;stroke-linecap:butt;stroke-linejoin:miter;stroke-opacity:1"
       d="m 560.71557,519.86529 c 0,0 2.95229,2.16392 6.44138,2.16392 3.48906,0 6.08349,-2.26227 6.08349,-2.26227"
       id="path4396"
       inkscape:connector-curvature="0" />
  </g>
  <g
     inkscape:groupmode="layer"
     id="layer18"
     inkscape:label="Layer 17">
    <path
       style="display:inline;fill:#ffe6d5;fill-rule:evenodd;stroke:#a05a2c;stroke-width:1px;stroke-linecap:butt;stroke-linejoin:miter;stroke-opacity:1"
       d="m 402.71293,545.0191 c 0,0 -3.91063,8.41888 -5.21293,23.41453 -2.56767,29.56598 -1.07143,37.85714 -1.07143,37.85714 0,0 7.5,1.42858 12.5,1.42858 5,0 12.14286,-0.71429 12.14286,-0.71429 l 0.71429,-14.61748 c 0,0 0.0433,2.77049 0.0433,8.3585 0,5.71429 0.71429,6.0931 0.71429,6.0931 0,0 2.79958,1.38525 13.15673,1.0281 10.35714,-0.35714 13.9428,-3.00508 13.9428,-3.00508 0,0 -0.64152,-10.74126 -4.45531,-37.73087 -2.24747,-15.90491 -5,-22.5 -5,-22.5"
       id="path3715"
       inkscape:connector-curvature="0"
       sodipodi:nodetypes="cscsccscscsc" />
  </g>
  <path
     style="fill:#ffe6d5;fill-rule:evenodd;stroke:#a05a2c;stroke-width:1px;stroke-linecap:butt;stroke-linejoin:miter;stroke-opacity:1"
     d="m 402.41952,511.67806 c 0,0 8.33375,-3.78808 18.18274,-3.78808 9.85223,0 17.1726,3.03045 17.1726,3.03045 0,0 1.51523,-1.51522 3.03046,-3.28299 1.51523,-1.76776 8.58629,-5.3033 9.59644,-4.54568 1.01016,0.75761 1.26269,3.78807 0.75762,6.06091 -0.50508,2.27285 -2.27284,7.95495 -2.27284,7.95495 l 3.28299,4.16688 c 4.23136,5.37058 -2.84462,17.02487 -8.08122,20.96067 -5.71348,4.29421 -13.63706,3.28299 -25.00128,3.28299 -11.36421,0 -18.91725,-0.18637 -23.2335,-3.53553 -4.62211,-3.58648 -11.19979,-14.68414 -6.56599,-20.70812 l 2.52537,-3.28301 c 0,0 -2.0203,-3.28299 -2.27283,-7.3236 -0.25254,-4.04061 0.25253,-6.81853 2.27284,-7.07107 2.0203,-0.25254 5.55584,2.27285 7.07107,4.29315 1.51523,2.02031 3.53553,3.78808 3.53553,3.78808 z"
     id="path3540"
     inkscape:connector-curvature="0"
     sodipodi:nodetypes="cscssscssssscsssc" />
  <g
     inkscape:groupmode="layer"
     id="layer11"
     inkscape:label="Layer 10"
     style="display:inline">
    <path
       style="fill:none;fill-rule:evenodd;stroke:#000000;stroke-width:1px;stroke-linecap:butt;stroke-linejoin:miter;stroke-opacity:1"
       d="m 416.30912,537.43694 c 0,0 4.04061,1.01015 9.09137,-1.51523 5.05076,-2.52538 3.78807,-3.03045 3.78807,-3.03045"
       id="path3543"
       inkscape:connector-curvature="0" />
    <path
       style="fill:#d40000;fill-rule:evenodd;stroke:#aa0000;stroke-width:1px;stroke-linecap:butt;stroke-linejoin:miter;stroke-opacity:1"
       d="m 421.86495,537.68948 c 0,0 1.76777,1.76777 4.04061,2.77792 2.27285,1.01015 4.29315,0.50508 5.05077,-0.50508 0.75761,-1.01015 1.01015,-2.77792 0,-3.53553 -1.01016,-0.75761 -4.04061,-1.01015 -4.04061,-1.01015"
       id="path3545"
       inkscape:connector-curvature="0" />
    <path
       style="fill:#000000;fill-rule:evenodd;stroke:#aa0000;stroke-width:1px;stroke-linecap:butt;stroke-linejoin:miter;stroke-opacity:1"
       d="m 424.64287,536.67932 2.27284,0.25254 2.02031,1.51523"
       id="path3547"
       inkscape:connector-curvature="0" />
  </g>
  <ellipse
     style="fill:#000000;fill-opacity:1;stroke:#000000;stroke-opacity:1"
     id="path3549"
     cx="420.47598"
     cy="532.38617"
     rx="2.6516504"
     ry="1.5152289" />
  <ellipse
     style="fill:#000000;fill-opacity:1;stroke:#000000;stroke-opacity:1"
     id="path3551"
     cx="402.92459"
     cy="523.79987"
     rx="4.7982244"
     ry="4.5456862" />
  <ellipse
     style="fill:#000000;fill-opacity:1;stroke:#000000;stroke-opacity:1"
     id="path3551-1"
     cx="436.51218"
     cy="523.5473"
     rx="4.7982244"
     ry="4.5456862" />
  <ellipse
     style="fill:#ffffff;fill-opacity:1;stroke:#000000;stroke-width:0.80846876;stroke-opacity:1"
     id="path3568"
     cx="439.03757"
     cy="522.0321"
     rx="1.6109945"
     ry="1.3584564" />
  <g
     inkscape:groupmode="layer"
     id="layer12"
     inkscape:label="Layer 11" />
  <g
     inkscape:groupmode="layer"
     id="layer15"
     inkscape:label="Layer 14">
    <path
       style="fill:none;fill-rule:evenodd;stroke:#a05a2c;stroke-width:1px;stroke-linecap:butt;stroke-linejoin:miter;stroke-opacity:1"
       d="m 410.75,600.86221 -2.25,-2.5 2.5,0.75 -2,-2.25 1.5,0 -2,-2.25 2.75,-0.25 -1.25,-2 2,0 -1.25,-2 2.25,-0.25"
       id="path3849"
       inkscape:connector-curvature="0" />
    <path
       style="fill:none;fill-rule:evenodd;stroke:#a05a2c;stroke-width:1px;stroke-linecap:butt;stroke-linejoin:miter;stroke-opacity:1"
       d="m 433.25,592.36221 2.25,2.75 -2.5,-6.25 2.25,1.5 -2.25,-5.25 2.75,1.75 -1.25,-3.5 2.75,3.75 -4,-8.75"
       id="path3851"
       inkscape:connector-curvature="0" />
    <path
       style="fill:none;fill-rule:evenodd;stroke:#a05a2c;stroke-width:1px;stroke-linecap:butt;stroke-linejoin:miter;stroke-opacity:1"
       d="m 433,570.36221 2,3 c 0,0 -2.5,-6.5 -2.5,-9 0,-2.5 3,-0.25 3,-0.25 0,0 -0.25,-2.25 -1.5,-3.75 -1.25,-1.5 -3,-2.5 -3,-2.5"
       id="path3853"
       inkscape:connector-curvature="0" />
    <path
       style="fill:none;fill-rule:evenodd;stroke:#a05a2c;stroke-width:1px;stroke-linecap:butt;stroke-linejoin:miter;stroke-opacity:1"
       d="m 409,563.11221 c 0,0 0,-0.25 0,-2.5 0,-2.25 -1.75,-5.5 -1.75,-5.5 0,0 2,3.75 3.25,4.25 1.25,0.5 3,0 3,0 l -3.75,-3.5 3.75,0.25 -3.25,-4.75"
       id="path3855"
       inkscape:connector-curvature="0" />
    <path
       style="fill:none;fill-rule:evenodd;stroke:#c8b7b7;stroke-width:1px;stroke-linecap:butt;stroke-linejoin:miter;stroke-opacity:1"
       d="m 397.5,514.11221 -1.75,0.25 1.25,-2.25 -2.25,1.25 1.75,-2.5 -1.5,0.5 0,-1.25 -1,0 0.5,-1.25 -1.25,0"
       id="path3857"
       inkscape:connector-curvature="0" />
    <path
       style="fill:none;fill-rule:evenodd;stroke:#c8b7b7;stroke-width:1px;stroke-linecap:butt;stroke-linejoin:miter;stroke-opacity:1"
       d="m 443.26847,513.04352 1.75,0.25 -1.25,-2.25 2.25,1.25 -1.75,-2.5 1.5,0.5 0,-1.25 1,0 -0.5,-1.25 1.25,0"
       id="path3857-7"
       inkscape:connector-curvature="0" />
    <path
       style="fill:none;fill-rule:evenodd;stroke:#d45500;stroke-width:1px;stroke-linecap:butt;stroke-linejoin:miter;stroke-opacity:1"
       d="m 402,515.11221 0.75,1.5 0.75,-2.25 0,1.5 0.75,-1.25 -0.25,1.5 0.75,-1 0.25,1.25 1,-1 0,1.25 1,-1.25 0.75,2.5 0.25,-1 0.75,1"
       id="path3874"
       inkscape:connector-curvature="0" />
    <path
       style="fill:none;fill-rule:evenodd;stroke:#d45500;stroke-width:0.99700969px;stroke-linecap:butt;stroke-linejoin:miter;stroke-opacity:1"
       d="m 435.32535,515.46209 -0.62262,1.79608 -0.62263,-2.6941 0,1.79605 -0.62262,-1.4967 0.20753,1.79606 -0.62262,-1.19739 -0.20755,1.49674 -0.83016,-1.19739 0,1.49673 -0.83017,-1.49673 -0.62262,2.99346 -0.20755,-1.19739 -0.62262,1.19739"
       id="path3874-6"
       inkscape:connector-curvature="0" />
    <path
       style="fill:none;fill-rule:evenodd;stroke:#a05a2c;stroke-width:1px;stroke-linecap:butt;stroke-linejoin:miter;stroke-opacity:1"
       d="m 450.42702,566.40307 c 0,0 0.70711,-0.88388 0.35355,-2.65165 -0.35355,-1.76777 -2.2981,-4.77297 -2.2981,-4.77297 0,0 2.12133,1.23744 2.65166,2.65165 0.53033,1.41421 0.35355,2.12132 0.35355,2.12132 0,0 0,-2.82843 -0.70711,-3.88909 -0.70711,-1.06066 -1.41421,-2.47487 -1.41421,-2.47487"
       id="path3891"
       inkscape:connector-curvature="0" />
    <path
       style="fill:none;fill-rule:evenodd;stroke:#a05a2c;stroke-width:1.0517751px;stroke-linecap:butt;stroke-linejoin:miter;stroke-opacity:1"
       d="m 392.58272,566.31749 1.14181,0.96883 -1.71272,-3.63314 1.14181,0.24219 -1.28454,-4.35978 1.42727,1.93768 0.71363,2.4221 0.42818,-3.87535 -1.14181,-1.45326 0.85635,-0.72662 -0.71363,-2.17991 0.99909,0.96883 -0.85637,-4.11755"
       id="path3893"
       inkscape:connector-curvature="0" />
  </g>
  <ellipse
     style="fill:#ffffff;fill-opacity:1;stroke:#000000;stroke-width:0.837318;stroke-opacity:1"
     id="path3568-8"
     cx="405.07117"
     cy="521.90582"
     rx="1.4703008"
     ry="1.5965699" />
  <path
     style="fill:none;fill-rule:evenodd;stroke:#000000;stroke-width:1px;stroke-linecap:butt;stroke-linejoin:miter;stroke-opacity:1"
     d="m 440.99472,522.00054 c 0,0 1.01015,0.75762 2.0203,0.25254 1.01016,-0.50508 1.15221,-0.66291 1.15221,-0.66291"
     id="path3585"
     inkscape:connector-curvature="0"
     sodipodi:nodetypes="csc" />
  <path
     style="fill:none;fill-rule:evenodd;stroke:#000000;stroke-width:1px;stroke-linecap:butt;stroke-linejoin:miter;stroke-opacity:1"
     d="m 441.46247,524.50338 c 0,0 1.37553,0.30566 1.95268,0.22051 1.65878,-0.24472 2.48794,-1.31189 2.48794,-1.31189"
     id="path3585-8"
     inkscape:connector-curvature="0"
     sodipodi:nodetypes="csc" />
  <path
     style="fill:none;fill-rule:evenodd;stroke:#000000;stroke-width:1px;stroke-linecap:butt;stroke-linejoin:miter;stroke-opacity:1"
     d="m 439.83676,520.36807 c 0,0 1.59217,0.59638 2.65165,0.20519 1.02594,-0.37881 1.57837,-1.68884 1.57837,-1.68884"
     id="path3585-0"
     inkscape:connector-curvature="0"
     sodipodi:nodetypes="csc" />
  <path
     style="fill:none;fill-rule:evenodd;stroke:#000000;stroke-width:1px;stroke-linecap:butt;stroke-linejoin:miter;stroke-opacity:1"
     d="m 400.05773,520.6206 c 0,0 -2.27284,0.31568 -3.28299,-0.1894 -1.01016,-0.50508 -1.32583,-1.19955 -1.32583,-1.19955"
     id="path3585-9"
     inkscape:connector-curvature="0"
     sodipodi:nodetypes="csc" />
  <path
     style="fill:none;fill-rule:evenodd;stroke:#000000;stroke-width:1px;stroke-linecap:butt;stroke-linejoin:miter;stroke-opacity:1"
     d="m 398.5425,522.26211 c 0,0 -0.94701,0.82076 -1.95716,0.31568 -1.01016,-0.50508 -1.32583,-0.88389 -1.32583,-0.88389"
     id="path3585-9-8"
     inkscape:connector-curvature="0"
     sodipodi:nodetypes="csc" />
  <path
     style="fill:none;fill-rule:evenodd;stroke:#000000;stroke-width:1px;stroke-linecap:butt;stroke-linejoin:miter;stroke-opacity:1"
     d="m 398.5425,524.59809 c 0,0 -2.1247,1.03061 -3.8512,0.12627 l -1.32583,-0.69448"
     id="path3585-9-5"
     inkscape:connector-curvature="0"
     sodipodi:nodetypes="csc" />
  <path
     style="fill:#f4e3d7;fill-rule:evenodd;stroke:#917c6f;stroke-width:1px;stroke-linecap:butt;stroke-linejoin:miter;stroke-opacity:1"
     d="m 452.19478,521.67858 c 0,0 2.12133,0.7071 2.82843,0.7071 0.70711,0 3.53554,-2.65165 3.53554,-2.65165 0,0 -0.70711,2.82843 -2.12132,4.24264 -1.41422,1.41422 -4.5962,2.12132 -4.5962,2.12132 0,0 3.00521,0.53033 4.5962,-0.35355 1.59099,-0.88388 3.18198,-3.53553 3.18198,-3.53553 0,0 -0.88389,4.41941 -2.82843,5.83363 -1.94454,1.41421 -5.3033,2.12132 -5.3033,2.12132 0,0 3.53553,0.35355 4.94975,-0.17678 1.41421,-0.53033 2.47487,-2.65165 2.47487,-2.65165 0,0 0,3.71231 -3.0052,4.77297 -3.00521,1.06066 -6.54074,1.23744 -6.54074,1.23744 0,0 2.47487,1.23744 3.53553,0.88388 1.06066,-0.35355 2.47488,-1.06066 2.47488,-1.06066 0,0 -2.47488,2.2981 -4.77298,2.47488 -2.29809,0.17677 -4.59619,1.06066 -4.59619,1.06066"
     id="path3895"
     inkscape:connector-curvature="0" />
  <path
     style="fill:#f4e3d7;fill-rule:evenodd;stroke:#917c6f;stroke-width:1px;stroke-linecap:butt;stroke-linejoin:miter;stroke-opacity:1"
     d="m 388.44542,522.38514 c 0,0 -2.12133,0.7071 -2.82843,0.7071 -0.70711,0 -3.53554,-2.65165 -3.53554,-2.65165 0,0 0.70711,2.82843 2.12132,4.24264 1.41422,1.41422 4.5962,2.12132 4.5962,2.12132 0,0 -3.00521,0.53033 -4.5962,-0.35355 -1.59099,-0.88388 -3.18198,-3.53553 -3.18198,-3.53553 0,0 0.88389,4.41941 2.82843,5.83363 1.94454,1.41421 5.3033,2.12132 5.3033,2.12132 0,0 -3.53553,0.35355 -4.94975,-0.17678 -1.41421,-0.53033 -2.47487,-2.65165 -2.47487,-2.65165 0,0 0,3.71231 3.0052,4.77297 3.00521,1.06066 6.54074,1.23744 6.54074,1.23744 0,0 -2.47487,1.23744 -3.53553,0.88388 -1.06066,-0.35355 -2.47488,-1.06066 -2.47488,-1.06066 0,0 2.47488,2.2981 4.77298,2.47488 2.29809,0.17677 4.59619,1.06066 4.59619,1.06066"
     id="path3895-9"
     inkscape:connector-curvature="0" />
  <g
     inkscape:groupmode="layer"
     id="layer16"
     inkscape:label="Layer 15">
    <path
       style="fill:#502d16;fill-rule:evenodd;stroke:#502d16;stroke-width:1px;stroke-linecap:butt;stroke-linejoin:miter;stroke-opacity:1"
       d="m 396.6869,584.61107 6.89429,0 -0.53033,8.48528 c 0,0 0.17678,0.35356 -2.82842,2.12132 -3.00521,1.76777 -3.88909,0.70711 -3.88909,0.70711"
       id="path3913"
       inkscape:connector-curvature="0" />
    <path
       style="fill:none;fill-rule:evenodd;stroke:#502d16;stroke-width:1px;stroke-linecap:butt;stroke-linejoin:miter;stroke-opacity:1"
       d="m 403.75797,584.25752 c 0,0 12.55115,-5.65686 18.38478,-13.43503 5.83363,-7.77818 15.55635,-25.45585 15.55635,-25.45585"
       id="path3915"
       inkscape:connector-curvature="0" />
    <path
       style="fill:none;fill-rule:evenodd;stroke:#502d16;stroke-width:1.09829664px;stroke-linecap:butt;stroke-linejoin:miter;stroke-opacity:1"
       d="m 402.95361,586.75808 c 0,0 13.90056,-6.16121 20.36138,-14.63285 6.46082,-8.47166 17.22886,-27.72542 17.22886,-27.72542"
       id="path3915-2"
       inkscape:connector-curvature="0" />
    <path
       style="fill:#502d16;fill-opacity:1;stroke:#502d16;stroke-width:0.17677669;stroke-opacity:1"
       d=""
       id="path3932"
       inkscape:connector-curvature="0" />
    <path
       style="fill:#502d16;fill-opacity:1;stroke:#502d16;stroke-width:0.17677669;stroke-opacity:1"
       d="m 396.32093,596.41627 c -0.20862,-0.1212 -0.2603,-0.23548 -0.1401,-0.30977 0.16059,-0.0993 0.55532,-7.95402 0.55833,-11.11049 l 7.2e-4,-0.7513 3.53554,0 c 2.77142,0 3.53553,-0.0494 3.53553,-0.22834 0,-0.12559 0.4456,-0.44688 0.99022,-0.71399 6.66876,-3.27067 13.30139,-8.12617 16.44787,-12.04086 2.56431,-3.1904 7.52367,-11.07424 13.14292,-20.89315 2.50401,-4.37544 2.99169,-5.1253 3.24212,-4.98515 0.16212,0.0907 0.29477,0.23699 0.29477,0.32503 0,0.22149 -5.06231,9.05187 -7.65091,13.34578 -4.28732,7.1117 -7.22983,11.48397 -9.18294,13.64494 -3.36086,3.71853 -8.92203,7.74932 -14.85337,10.76586 -2.12249,1.07944 -2.2539,1.17682 -2.2539,1.67018 0,0.28815 0.053,0.52391 0.11786,0.52391 0.21377,0 4.35784,-2.23052 6.06932,-3.26678 2.12444,-1.28629 5.19358,-3.38714 6.80175,-4.65586 1.97531,-1.55835 4.79652,-4.39686 6.1816,-6.21949 3.52877,-4.64353 11.20442,-16.99817 16.68721,-26.85954 0.20022,-0.36013 0.43664,-0.40359 0.79,-0.14521 0.27822,0.20344 0.0214,0.71043 -2.84408,5.61504 -5.47217,9.36618 -7.4924,12.64034 -11.18002,18.11934 -3.46676,5.15084 -5.20343,7.10265 -9.07852,10.20317 -3.05947,2.44794 -8.1784,5.67 -12.26349,7.71915 -1.32486,0.66457 -1.45841,0.77866 -1.45841,1.24586 0,0.28286 -0.0855,1.73375 -0.19001,3.2242 -0.21371,3.04794 -0.17344,2.95702 -1.80031,4.06489 -2.38116,1.62153 -4.51352,2.28553 -5.4997,1.71258 z"
       id="path3934"
       inkscape:connector-curvature="0" />
    <path
       style="fill:#502d16;fill-opacity:1;stroke:#502d16;stroke-width:0.17677669;stroke-opacity:1"
       d=""
       id="path3936"
       inkscape:connector-curvature="0" />
    <path
       style="fill:#502d16;fill-opacity:1;stroke:#502d16;stroke-width:0.17677669;stroke-opacity:1"
       d="m 396.27871,596.48379 c -0.13393,-0.0888 -0.15286,-0.48966 -0.0598,-1.26604 0.0749,-0.62489 0.18482,-2.69318 0.2442,-4.59619 0.0594,-1.90302 0.15257,-4.11021 0.20709,-4.90487 l 0.0991,-1.44482 3.29982,-0.0578 c 3.0285,-0.053 3.34343,-0.0887 3.83016,-0.43349 0.29168,-0.20664 1.18031,-0.70154 1.97473,-1.09978 3.01032,-1.50905 7.43364,-4.33677 10.19515,-6.5175 1.8539,-1.46399 4.42698,-4.01151 5.60303,-5.54736 2.53929,-3.31615 7.88931,-11.90487 13.44041,-21.57675 1.8984,-3.30764 2.23892,-3.80511 2.50652,-3.66189 0.17032,0.0911 0.30967,0.25472 0.30967,0.36349 0,0.45987 -7.39439,13.12122 -10.9239,18.70491 -3.81611,6.03707 -5.8233,8.57127 -8.84704,11.16991 -3.22065,2.76786 -6.74405,5.12678 -11.43014,7.65247 -2.06081,1.11072 -2.66424,1.51662 -2.70814,1.82161 -0.0762,0.5295 0.11812,0.49927 1.60769,-0.25013 3.63307,-1.82779 8.60783,-4.98268 11.44176,-7.25611 1.96378,-1.57538 4.78906,-4.4223 6.04574,-6.09205 3.2804,-4.35861 10.75773,-16.29759 15.34436,-24.50017 1.484,-2.65394 1.81583,-3.01402 2.27152,-2.46494 0.21716,0.26166 -0.97303,2.42401 -5.85565,10.63863 -4.82451,8.11685 -8.96634,14.47716 -11.44445,17.57444 -3.68434,4.60489 -8.83624,8.45015 -17.94027,13.39021 l -1.59099,0.86331 -0.21618,3.16323 c -0.21075,3.08384 -0.2285,3.17614 -0.70711,3.67768 -0.64122,0.67194 -2.80496,2.01743 -3.93457,2.44664 -0.89013,0.33823 -2.39234,0.44879 -2.76277,0.20334 z"
       id="path3938"
       inkscape:connector-curvature="0" />
    <path
       style="fill:#502d16;fill-opacity:1;stroke:#502d16;stroke-width:0.08838835;stroke-opacity:1"
       d=""
       id="path3940"
       inkscape:connector-curvature="0" />
    <path
       style="fill:#502d16;fill-opacity:1;stroke:#502d16;stroke-width:0.08838835;stroke-opacity:1"
       d="m 396.46286,596.61963 c -0.25093,-0.0777 -0.51564,-0.35474 -0.42848,-0.44839 0.1162,-0.12485 0.25913,-2.69861 0.49518,-8.91675 0.0526,-1.38548 0.11514,-2.64833 0.13898,-2.80633 l 0.0433,-0.28726 2.36039,-0.005 c 2.85785,-0.006 4.29286,-0.0956 4.50618,-0.28083 0.0838,-0.0727 0.96768,-0.56007 1.96426,-1.08298 3.61459,-1.89659 6.70218,-3.82271 9.53831,-5.95025 2.693,-2.02017 5.25244,-4.52345 6.93086,-6.77878 2.45717,-3.30175 7.35842,-11.19351 12.65318,-20.37351 1.30381,-2.26054 2.42293,-4.19617 2.48693,-4.30142 0.13714,-0.22553 0.4103,-0.19277 0.71852,0.0862 l 0.19864,0.17976 -0.57694,1.09641 c -1.01038,1.92008 -4.59405,8.12046 -7.13943,12.35244 -4.05919,6.74888 -6.93897,11.05241 -8.96607,13.39882 -3.07555,3.56003 -8.03014,7.23427 -14.47398,10.73365 -2.50003,1.35765 -2.87262,1.62027 -2.87262,2.02467 0,0.22972 0.28072,0.16007 1.23432,-0.30627 3.93292,-1.92329 9.75151,-5.67224 12.59845,-8.11726 1.20016,-1.03072 3.64419,-3.48715 4.52362,-4.54657 2.46485,-2.96932 9.35339,-13.73732 14.42972,-22.5562 3.15863,-5.48735 3.1531,-5.47835 3.38621,-5.50686 0.13734,-0.0168 0.32319,0.0609 0.49847,0.20839 l 0.27948,0.23517 -0.41552,0.76388 c -1.8058,3.31981 -6.33838,11.00456 -9.33918,15.8341 -3.87828,6.24177 -6.82737,10.50744 -8.85467,12.80774 -3.43625,3.89898 -8.78023,7.74204 -16.70572,12.01373 -0.82643,0.44543 -1.55079,0.84139 -1.60968,0.87991 -0.0725,0.0475 -0.1655,0.91001 -0.28823,2.67439 -0.26993,3.88074 -0.23308,3.64509 -0.64281,4.11057 -0.65434,0.74337 -3.18942,2.29363 -4.39776,2.68934 -0.65458,0.21436 -1.85069,0.30674 -2.27396,0.17563 z"
       id="path3942"
       inkscape:connector-curvature="0" />
    <path
       style="fill:#502d16;fill-opacity:1;stroke:#502d16;stroke-width:0.08838835;stroke-opacity:1"
       d="m 396.48291,596.64847 c -0.31013,-0.0756 -0.4966,-0.30439 -0.448,-0.54977 0.0814,-0.41093 0.22453,-2.91755 0.35866,-6.28094 0.0727,-1.82301 0.15816,-3.84158 0.18991,-4.48571 l 0.0577,-1.17115 1.51184,-0.005 c 2.70142,-0.009 5.03572,-0.13048 5.32032,-0.27671 5.7892,-2.9746 10.428,-5.94241 13.6978,-8.76359 1.27364,-1.09889 3.46389,-3.33785 4.29414,-4.38965 2.4338,-3.08322 7.22788,-10.755 13.55365,-21.68933 1.00928,-1.74459 1.91708,-3.32563 2.01732,-3.51344 0.10024,-0.1878 0.24203,-0.34146 0.31507,-0.34146 0.16183,0 0.71684,0.36749 0.71768,0.4752 10e-4,0.18169 -2.4838,4.60894 -4.84373,8.6288 -0.7563,1.28826 -1.61916,2.75993 -1.91748,3.27037 -0.59792,1.0231 -2.29939,3.8192 -3.57675,5.87782 -1.21444,1.95722 -3.75796,5.76808 -4.66052,6.98268 -1.18267,1.59155 -1.99445,2.52144 -3.39755,3.89184 -3.08458,3.01269 -6.85569,5.67683 -12.33392,8.71344 -1.15815,0.64197 -2.3124,1.29824 -2.56501,1.45839 -0.53548,0.33947 -0.81339,0.6973 -0.66039,0.8503 0.0742,0.0742 0.43402,-0.0647 1.40101,-0.54084 3.98935,-1.96433 9.51455,-5.54887 12.44659,-8.07487 1.56367,-1.34711 4.15703,-4.05943 5.14935,-5.38553 3.2588,-4.35495 9.1716,-13.74251 14.60911,-23.1944 2.22599,-3.8694 2.23124,-3.87751 2.52775,-3.90308 0.16937,-0.0146 0.33892,0.0547 0.51367,0.20993 l 0.26085,0.23173 -0.34065,0.62976 c -1.25204,2.31471 -6.13859,10.63772 -8.51708,14.50673 -3.61811,5.88545 -6.80739,10.6368 -8.91976,13.28855 -0.87116,1.0936 -3.31002,3.53315 -4.62033,4.62163 -3.13115,2.60108 -6.89278,5.06334 -12.14656,7.95081 -2.27441,1.25 -2.42317,1.34697 -2.47234,1.61149 -0.0288,0.15481 -0.1316,1.37527 -0.22847,2.71214 -0.25448,3.51159 -0.21845,3.31432 -0.69918,3.82873 -0.83403,0.89247 -3.41738,2.39671 -4.66329,2.71536 -0.62926,0.16094 -1.51496,0.21131 -1.93144,0.10985 z"
       id="path3944"
       inkscape:connector-curvature="0" />
    <path
       style="fill:#502d16;fill-opacity:1;stroke:#502d16;stroke-width:0.08838835;stroke-opacity:1"
       d="m 396.2892,596.60647 c -0.10655,-0.0515 -0.21532,-0.14991 -0.24173,-0.21871 -0.0264,-0.0688 -0.0104,-0.61067 0.0356,-1.20414 0.0828,-1.06841 0.15583,-2.54816 0.39947,-8.09492 0.0691,-1.5739 0.14232,-2.87827 0.16265,-2.8986 0.0203,-0.0203 1.18537,-0.0573 2.58898,-0.082 1.40361,-0.0248 2.91223,-0.0794 3.35249,-0.12129 l 0.80047,-0.0762 2.11634,-1.14459 c 8.14476,-4.40495 13.13722,-8.28417 16.55458,-12.86316 2.56576,-3.43794 8.17807,-12.5579 14.32921,-23.28488 0.52782,-0.92047 0.87465,-1.43619 0.96572,-1.43598 0.18925,4.4e-4 0.71662,0.32633 0.71662,0.44283 0,0.46593 -6.31567,11.37091 -10.23741,17.67645 -1.13916,1.8316 -3.25891,5.04395 -4.25774,6.45235 -3.59669,5.0715 -8.13682,8.77168 -16.48462,13.43488 -2.18547,1.22083 -2.53967,1.43462 -2.78759,1.68253 -0.20559,0.2056 -0.22793,0.43894 -0.042,0.43894 0.24874,0 3.44899,-1.67132 5.17157,-2.70084 3.12635,-1.8685 6.39899,-4.12599 8.30585,-5.72943 0.95255,-0.80098 3.4571,-3.30144 4.37384,-4.36669 2.69479,-3.13134 9.43985,-13.70197 15.77618,-24.72389 2.01903,-3.51208 2.06412,-3.57973 2.38578,-3.57973 0.14607,0 0.37174,0.0961 0.52155,0.2222 l 0.26407,0.2222 -0.42054,0.77217 c -0.99796,1.8324 -3.48619,6.1023 -6.50206,11.1578 -4.01848,6.73617 -8.133,13.01661 -10.58475,16.15662 -0.92659,1.18671 -2.88405,3.21497 -4.30882,4.46465 -2.95141,2.58872 -6.8196,5.17273 -12.45316,8.31887 -1.28251,0.71624 -2.40697,1.34892 -2.49881,1.40595 -0.25578,0.15885 -0.31127,0.51803 -0.51443,3.32987 -0.10362,1.4341 -0.22628,2.7523 -0.27258,2.92934 -0.14839,0.56735 -1.0779,1.34842 -2.75459,2.31467 -1.02463,0.59049 -1.89884,0.97357 -2.53116,1.10918 -0.57263,0.12281 -1.66912,0.11916 -1.92898,-0.006 l 0,0 z"
       id="path3946"
       inkscape:connector-curvature="0" />
    <path
       style="fill:#502d16;fill-opacity:1;stroke:#502d16;stroke-width:0.08838835;stroke-opacity:1"
       d="m 404.21689,585.14103 c 0,-0.17359 0.61025,-0.57097 2.67172,-1.73978 8.5945,-4.87289 12.66501,-8.12228 16.33672,-13.0412 1.45045,-1.94314 4.83341,-7.17107 6.89681,-10.65815 0.40911,-0.69138 0.76373,-1.25691 0.78803,-1.25672 0.0243,1.8e-4 0.12006,0.0577 0.21279,0.12792 0.19606,0.14838 0.35585,-0.14137 -1.87627,3.40233 -2.65215,4.21055 -5.54811,8.45692 -6.89186,10.10561 -0.69332,0.85065 -2.79375,3.01212 -3.98608,4.10192 -2.80831,2.56679 -9.31771,6.81686 -13.32519,8.70018 -0.77529,0.36434 -0.82667,0.38037 -0.82667,0.25789 z"
       id="path3948"
       inkscape:connector-curvature="0" />
    <path
       style="fill:#502d16;fill-opacity:1;stroke:#502d16;stroke-width:0.08838835;stroke-opacity:1"
       d="m 396.17137,596.55128 -0.19854,-0.16077 0.0978,-1.49651 c 0.0538,-0.82309 0.17883,-3.38582 0.27785,-5.69496 0.099,-2.30915 0.20956,-4.39732 0.24562,-4.64039 l 0.0656,-0.44194 2.12132,-0.0217 c 1.16673,-0.0119 2.67462,-0.0609 3.35087,-0.10872 l 1.22955,-0.087 1.90824,-1.03231 c 4.59861,-2.48773 8.05105,-4.69822 10.87312,-6.96173 1.97643,-1.58524 4.51132,-4.17304 5.89597,-6.01904 2.51033,-3.34672 7.51578,-11.47608 14.286,-23.20194 0.68627,-1.1886 0.88149,-1.46327 1.05522,-1.48471 0.24493,-0.0302 0.68965,0.28239 0.68965,0.48478 0,0.1661 -0.81773,1.67203 -2.65476,4.88902 -1.16421,2.03873 -3.86604,6.67671 -4.53115,7.77817 -0.12169,0.20153 -0.13941,0.27137 -0.0508,0.20038 0.10836,-0.0869 0.16895,-0.0849 0.29829,0.01 0.156,0.11407 0.15422,0.13201 -0.0461,0.46254 -0.43069,0.71073 -0.47016,0.7836 -0.3777,0.69741 0.21117,-0.19683 4.35964,-7.09288 6.56674,-10.91596 1.94287,-3.36539 2.47676,-4.26668 2.63098,-4.44151 0.18615,-0.21102 0.56323,-0.19432 0.87053,0.0385 0.14024,0.10627 0.26771,0.20186 0.28325,0.21241 0.0967,0.0657 -2.87816,5.22792 -6.76996,11.74777 -4.28184,7.17325 -8.42481,13.48991 -10.83636,16.52186 -0.88314,1.11034 -3.14333,3.42444 -4.43064,4.53631 -2.89979,2.50461 -6.77847,5.07247 -12.50695,8.28017 -1.19103,0.66693 -2.22932,1.28652 -2.3073,1.37687 -0.16859,0.1953 -0.19243,0.38861 -0.43607,3.53527 -0.21377,2.76086 -0.26372,2.94537 -0.9534,3.5221 -1.10055,0.92031 -3.35784,2.17632 -4.38724,2.44116 -0.76236,0.19614 -2.00334,0.18228 -2.25961,-0.0252 z m 8.13391,-11.28031 c 0,-0.0214 -0.0398,-0.0636 -0.0884,-0.0936 -0.0486,-0.03 -0.0884,-0.0125 -0.0884,0.039 0,0.0515 0.0398,0.0936 0.0884,0.0936 0.0486,0 0.0884,-0.0175 0.0884,-0.039 z m 1.48051,-1.23879 c 0.40106,-0.2294 0.7292,-0.43584 0.7292,-0.45876 0,-0.0229 -0.0298,-0.0252 -0.0663,-0.005 -0.93659,0.51804 -1.9784,1.16697 -2.10785,1.31296 -0.10008,0.11286 0.0108,0.0638 0.27379,-0.12124 0.24307,-0.17098 0.77008,-0.49856 1.17115,-0.72796 l 0,10e-6 z m 1.5247,-0.27525 c 0,-0.0243 -0.0796,-0.002 -0.17678,0.0504 -0.0972,0.052 -0.17678,0.11449 -0.17678,0.1388 0,0.0243 0.0795,0.002 0.17678,-0.0504 0.0972,-0.052 0.17678,-0.1145 0.17678,-0.13881 z m 0.97227,-0.52865 c 0,-0.0243 -0.11933,0.0175 -0.26517,0.0929 -0.14584,0.0754 -0.26516,0.15701 -0.26516,0.18132 0,0.0243 0.11932,-0.0175 0.26516,-0.0929 0.14584,-0.0754 0.26517,-0.15701 0.26517,-0.18132 z m -1.14905,-0.002 c 0,-0.0243 -0.0795,-0.002 -0.17678,0.0504 -0.0972,0.052 -0.17677,0.11449 -0.17677,0.1388 0,0.0243 0.0795,0.002 0.17677,-0.0504 0.0972,-0.052 0.17678,-0.1145 0.17678,-0.13881 z m 1.76777,-0.35187 c 0,-0.0243 -0.11933,0.0175 -0.26517,0.0929 -0.14584,0.0754 -0.26516,0.15701 -0.26516,0.18132 0,0.0243 0.11932,-0.0175 0.26516,-0.0929 0.14584,-0.0754 0.26517,-0.15701 0.26517,-0.18132 z m -1.14905,-0.002 c 0,-0.0243 -0.0795,-0.002 -0.17678,0.0504 -0.0972,0.052 -0.17678,0.11449 -0.17678,0.1388 0,0.0243 0.0796,0.002 0.17678,-0.0504 0.0972,-0.052 0.17678,-0.11449 0.17678,-0.1388 z m 1.59099,-0.26516 c 0,-0.0243 -0.0795,-0.002 -0.17678,0.0504 -0.0972,0.052 -0.17678,0.1145 -0.17678,0.1388 0,0.0243 0.0795,0.002 0.17678,-0.0504 0.0972,-0.052 0.17678,-0.1145 0.17678,-0.1388 z m 0.44194,-0.26517 c 0,-0.0243 -0.0796,-0.002 -0.17678,0.0504 -0.0972,0.052 -0.17677,0.11449 -0.17677,0.1388 0,0.0243 0.0795,0.002 0.17677,-0.0504 0.0972,-0.052 0.17678,-0.11449 0.17678,-0.1388 z m 1.98874,-1.21509 c 1.59706,-1.01701 3.69838,-2.4897 5.03244,-3.52692 1.8532,-1.44086 4.89551,-4.51372 6.27812,-6.34116 0.61738,-0.81601 2.67636,-3.75121 3.00947,-4.29018 0.37806,-0.61168 -0.0868,-0.004 -0.84509,1.10485 -1.23507,1.80595 -2.13847,3.06143 -2.76664,3.8449 -0.79083,0.98633 -3.34395,3.60379 -4.42859,4.54019 -1.65223,1.42641 -4.15124,3.23344 -6.67746,4.82848 -0.75351,0.47576 -1.4098,0.90557 -1.45841,0.95513 -0.12361,0.12603 0.41618,-0.19831 1.85616,-1.11529 z m 4.82844,-4.0157 c 0.10994,-0.14019 0.10681,-0.14332 -0.0334,-0.0334 -0.0851,0.0667 -0.15468,0.13632 -0.15468,0.15468 0,0.0727 0.0726,0.0259 0.18806,-0.12131 z m 0.38647,-0.28726 c 0.088,-0.0972 0.14009,-0.17678 0.11579,-0.17678 -0.0243,0 -0.11619,0.0796 -0.20418,0.17678 -0.088,0.0972 -0.14009,0.17677 -0.11579,0.17677 0.0243,0 0.11619,-0.0795 0.20418,-0.17677 z m 0.53033,-0.44194 c 0.088,-0.0972 0.14009,-0.17678 0.11579,-0.17678 -0.0243,0 -0.11619,0.0795 -0.20418,0.17678 -0.088,0.0972 -0.14009,0.17677 -0.11579,0.17677 0.0243,0 0.11619,-0.0795 0.20418,-0.17677 z m 0.57452,-0.48614 c 0.11418,-0.12153 0.18771,-0.22097 0.1634,-0.22097 -0.0243,0 -0.13761,0.0994 -0.25178,0.22097 -0.11418,0.12153 -0.18771,0.22097 -0.1634,0.22097 0.0243,0 0.13761,-0.0994 0.25178,-0.22097 z m 0.83969,-0.7513 c 0.18988,-0.19445 0.32535,-0.35355 0.30104,-0.35355 -0.0243,0 -0.19955,0.1591 -0.38943,0.35355 -0.18987,0.19445 -0.32534,0.35355 -0.30104,0.35355 0.0243,0 0.19955,-0.1591 0.38943,-0.35355 z m 8.32511,-9.94369 c 0.59008,-0.89187 0.71872,-1.10652 0.58268,-0.97227 -0.0894,0.0882 -1.07687,1.56067 -1.21516,1.81196 -0.18232,0.33128 0.14707,-0.10601 0.63248,-0.83969 z m 1.30714,-2.02709 0.14941,-0.27101 -0.1747,0.21514 c -0.0961,0.11832 -0.24193,0.33708 -0.3241,0.48613 l -0.14941,0.27101 0.1747,-0.21514 c 0.0961,-0.11832 0.24193,-0.33708 0.3241,-0.48613 z m 0.67635,-1.0665 c 0.0868,-0.17678 0.0868,-0.17678 -0.0571,0 -0.0792,0.0972 -0.18299,0.25632 -0.23072,0.35355 -0.0868,0.17678 -0.0868,0.17678 0.0572,0 0.0792,-0.0972 0.18298,-0.25632 0.23072,-0.35355 z m 0.44194,-0.70711 c 0.0868,-0.17678 0.0868,-0.17678 -0.0572,0 -0.0792,0.0972 -0.18299,0.25633 -0.23072,0.35355 -0.0868,0.17678 -0.0868,0.17678 0.0571,0 0.0792,-0.0972 0.18299,-0.25632 0.23072,-0.35355 z m 0.43059,-0.66291 c 0.052,-0.0972 0.0747,-0.17678 0.0504,-0.17678 -0.0243,0 -0.0868,0.0796 -0.1388,0.17678 -0.052,0.0972 -0.0747,0.17678 -0.0504,0.17678 0.0243,0 0.0868,-0.0795 0.1388,-0.17678 z m 0.44194,-0.70711 c 0.052,-0.0972 0.0747,-0.17677 0.0504,-0.17677 -0.0243,0 -0.0868,0.0795 -0.1388,0.17677 -0.052,0.0972 -0.0747,0.17678 -0.0504,0.17678 0.0243,0 0.0868,-0.0796 0.1388,-0.17678 z"
       id="path3950"
       inkscape:connector-curvature="0" />
    <path
       style="fill:#502d16;fill-opacity:1;stroke:#502d16;stroke-width:0.08838835;stroke-opacity:1"
       d="m 431.13322,558.49653 c -0.1712,-0.12518 -0.17119,-0.12893 0.001,-0.45469 0.19964,-0.37761 0.34288,-0.46204 0.52601,-0.31005 0.11145,0.0925 0.11222,0.13923 0.006,0.34134 -0.26323,0.49906 -0.34275,0.56227 -0.53266,0.4234 z"
       id="path3952"
       inkscape:connector-curvature="0" />
    <path
       style="fill:#502d16;fill-opacity:1;stroke:#502d16;stroke-width:0.08838835;stroke-opacity:1"
       d="m 396.14381,596.51317 c -0.19062,-0.191 -0.19588,-0.23738 -0.13284,-1.17114 0.0361,-0.53475 0.16686,-3.14 0.29057,-5.78944 0.12371,-2.64944 0.24845,-4.96632 0.27721,-5.14862 l 0.0523,-0.33146 1.7379,-5e-5 c 0.95585,-3e-5 2.46858,-0.0416 3.36162,-0.0924 l 1.62372,-0.0924 1.95601,-1.07049 c 8.9415,-4.89353 13.66357,-8.65576 17.33939,-13.81487 2.16855,-3.04363 6.89017,-10.68501 11.44189,-18.51736 3.1253,-5.37785 3.07883,-5.3033 3.30589,-5.3033 0.25323,0 0.67218,0.31559 0.67218,0.50635 0,0.26783 -2.59366,4.90281 -5.60215,10.01129 -0.72077,1.22388 -1.0789,1.91194 -1.00661,1.93398 0.0617,0.0188 0.17306,0.0869 0.24743,0.15134 0.1176,0.10187 0.22005,-0.0235 0.78608,-0.96171 1.67916,-2.78336 3.80797,-6.38649 5.41568,-9.16638 0.96998,-1.67717 1.87542,-3.15413 2.01209,-3.28215 0.28985,-0.27148 0.5487,-0.25665 0.93796,0.0537 0.3076,0.24527 0.45494,-0.0899 -1.34896,3.06842 -4.19228,7.33996 -8.4554,14.34841 -11.73746,19.29607 -2.84462,4.28824 -4.12409,6.00846 -5.78666,7.78005 -3.5116,3.74185 -7.31334,6.50918 -14.80913,10.77976 -2.85596,1.62713 -2.95094,1.68734 -3.04274,1.92879 -0.0753,0.19808 -0.15474,0.98739 -0.41088,4.08336 -0.16634,2.0105 -0.24133,2.22589 -0.99269,2.85118 -1.06973,0.89024 -3.39266,2.16606 -4.36537,2.39759 -0.22814,0.0543 -0.77685,0.0987 -1.21936,0.0987 -0.71663,0 -0.82626,-0.0217 -1.00305,-0.19888 z"
       id="path3954"
       inkscape:connector-curvature="0" />
    <path
       style="fill:#502d16;fill-opacity:1;stroke:#502d16;stroke-width:0.08838835;stroke-opacity:1"
       d="m 396.09394,596.52448 c -0.18315,-0.17063 -0.19645,-0.24047 -0.14734,-0.7734 0.0297,-0.32221 0.13208,-2.21659 0.22753,-4.20975 0.24312,-5.07672 0.35715,-7.13675 0.40413,-7.30044 0.0353,-0.12312 0.37919,-0.14946 2.71259,-0.20786 4.29983,-0.1076 3.73223,0.0142 6.16439,-1.32309 3.53232,-1.94224 6.56891,-3.81802 8.79373,-5.4321 3.07561,-2.23131 5.96529,-5.0333 7.97307,-7.73111 2.09924,-2.82072 6.87979,-10.54191 12.4861,-20.16664 1.27426,-2.18762 2.38567,-4.04881 2.4698,-4.13598 0.1815,-0.18809 0.49825,-0.10438 0.79001,0.20879 l 0.18047,0.19371 -0.35998,0.71769 c -0.47921,0.95539 -1.979,3.61319 -4.33018,7.67352 -1.06115,1.83255 -1.92937,3.39496 -1.92937,3.47202 0,0.24686 0.2784,0.27004 0.46612,0.0388 0.1989,-0.245 2.96612,-4.88057 5.43027,-9.09664 2.36037,-4.03851 2.41461,-4.12572 2.64159,-4.24719 0.23849,-0.12764 0.62698,-0.005 0.88444,0.27972 0.19522,0.21572 0.2013,0.20238 -1.2239,2.68584 -7.20782,12.55988 -13.3868,22.29029 -16.642,26.20714 -0.90155,1.0848 -3.19836,3.37678 -4.32863,4.31954 -2.73509,2.28133 -6.18262,4.59146 -10.69499,7.16654 -3.55952,2.03131 -3.83798,2.2128 -3.92889,2.56066 -0.0455,0.174 -0.1666,1.33063 -0.26915,2.57027 -0.24027,2.90419 -0.30735,3.32515 -0.58861,3.69391 -0.46517,0.60986 -1.82754,1.53855 -3.43456,2.34123 -1.12218,0.56051 -1.59542,0.68238 -2.64994,0.68238 -0.79036,0 -0.91898,-0.022 -1.0967,-0.18757 z"
       id="path3956"
       inkscape:connector-curvature="0" />
    <path
       style="fill:#502d16;fill-opacity:1;stroke:#502d16;stroke-width:0.08838835;stroke-opacity:1"
       d="m 396.60343,596.71861 c -0.68942,-0.0953 -0.72775,-0.16704 -0.6641,-1.24271 0.0302,-0.51115 0.15621,-2.99766 0.27992,-5.52556 0.1237,-2.52791 0.25353,-4.87462 0.28849,-5.21491 l 0.0636,-0.61872 2.07713,-0.0641 c 1.14242,-0.0353 2.64272,-0.10057 3.33401,-0.14511 1.46867,-0.0946 1.43236,-0.0809 4.00222,-1.51203 4.75439,-2.64769 8.31788,-5.01722 11.00435,-7.31731 1.10018,-0.94195 3.21096,-3.06989 4.09794,-4.13128 2.26149,-2.70614 6.52121,-9.46866 13.80299,-21.91298 1.13549,-1.94052 2.15056,-3.62822 2.2557,-3.75046 0.17613,-0.20475 0.21255,-0.21339 0.4628,-0.10973 0.43089,0.17848 0.57152,0.3807 0.46307,0.66593 -0.15838,0.41657 -1.62481,3.05101 -3.88958,6.98763 -2.57978,4.48416 -2.70911,4.72789 -2.55822,4.82114 0.0606,0.0374 0.15974,0.049 0.22038,0.0258 0.111,-0.0426 2.78173,-4.47646 5.60816,-9.3105 2.5944,-4.43721 2.46562,-4.24264 2.80826,-4.24264 0.27208,0 0.81432,0.32574 0.81432,0.48919 0,0.22631 -0.20991,0.61262 -2.30372,4.23959 -6.49621,11.25295 -12.25361,20.30538 -15.39261,24.20199 -0.95502,1.18552 -3.55505,3.78464 -4.88689,4.88519 -2.74294,2.2666 -5.68954,4.21633 -11.00835,7.28411 -2.68426,1.54823 -3.22753,1.89313 -3.30663,2.09927 -0.0312,0.0814 -0.1544,1.22352 -0.2737,2.53805 -0.25041,2.75919 -0.28849,3.08559 -0.40411,3.46361 -0.16568,0.54164 -1.46454,1.56051 -3.18324,2.497 -1.36467,0.7436 -2.62739,1.04961 -3.71215,0.89963 z"
       id="path3958"
       inkscape:connector-curvature="0" />
    <path
       style="fill:#502d16;fill-opacity:1;stroke:#502d16;stroke-width:0.08838835;stroke-opacity:1"
       d="m 431.72726,557.39461 c 0.0232,-0.0888 1.19591,-2.18689 2.606,-4.66249 3.20227,-5.62201 3.82909,-6.7709 3.86186,-7.07826 0.0226,-0.21183 0.0839,-0.25953 0.45852,-0.35658 0.23785,-0.0616 0.4578,-0.10291 0.48877,-0.0918 0.031,0.0112 -0.48133,0.93512 -1.13846,2.05324 -5.22786,8.89527 -6.4818,10.92018 -6.27669,10.13584 z"
       id="path3960"
       inkscape:connector-curvature="0" />
  </g>
  <g
     inkscape:groupmode="layer"
     id="layer17"
     inkscape:label="Layer 16">
    <path
       style="fill:#cccccc;fill-rule:evenodd;stroke:#000000;stroke-width:1px;stroke-linecap:butt;stroke-linejoin:miter;stroke-opacity:1"
       d="m 406,580.11221 6,-4.75 4.5,6 -7,5.25 z"
       id="path3963"
       inkscape:connector-curvature="0"
       sodipodi:nodetypes="ccccc" />
    <path
       style="fill:#cccccc;fill-rule:evenodd;stroke:#000000;stroke-width:1px;stroke-linecap:butt;stroke-linejoin:miter;stroke-opacity:1"
       d="m 416,572.36221 5.5,5.75 5.25,-7.25 -6.25,-4 z"
       id="path3965"
       inkscape:connector-curvature="0" />
    <path
       style="fill:#cccccc;fill-rule:evenodd;stroke:#000000;stroke-width:1px;stroke-linecap:butt;stroke-linejoin:miter;stroke-opacity:1"
       d="m 422.75,564.61221 6.25,4.25 3.5,-7.25 -6.5,-3.75 z"
       id="path3967"
       inkscape:connector-curvature="0"
       sodipodi:nodetypes="ccccc" />
    <path
       style="fill:#cccccc;fill-rule:evenodd;stroke:#000000;stroke-width:1px;stroke-linecap:butt;stroke-linejoin:miter;stroke-opacity:1"
       d="m 428.75,554.86221 7,4.75 3,-7.25 -6.25,-3.5 z"
       id="path3969"
       inkscape:connector-curvature="0"
       sodipodi:nodetypes="ccccc" />
  </g>
</svg>
