<?xml version="1.0" encoding="UTF-8" standalone="no"?>
<!-- Created with Inkscape (http://www.inkscape.org/) -->

<svg
   xmlns:dc="http://purl.org/dc/elements/1.1/"
   xmlns:cc="http://creativecommons.org/ns#"
   xmlns:rdf="http://www.w3.org/1999/02/22-rdf-syntax-ns#"
   xmlns:svg="http://www.w3.org/2000/svg"
   xmlns="http://www.w3.org/2000/svg"
   xmlns:sodipodi="http://sodipodi.sourceforge.net/DTD/sodipodi-0.dtd"
   xmlns:inkscape="http://www.inkscape.org/namespaces/inkscape"
   width="210mm"
   height="297mm"
   viewBox="0 0 744.09448819 1052.3622047"
   id="svg2"
   version="1.1"
   inkscape:version="0.91 r13725"
   sodipodi:docname="trinsolo.svg">
  <defs
     id="defs4">
    <inkscape:path-effect
       effect="spiro"
       id="path-effect4277"
       is_visible="true" />
    <inkscape:path-effect
       effect="spiro"
       id="path-effect4271"
       is_visible="true" />
    <inkscape:path-effect
       effect="spiro"
       id="path-effect4265"
       is_visible="true" />
    <inkscape:path-effect
       effect="spiro"
       id="path-effect4257"
       is_visible="true" />
    <inkscape:path-effect
       effect="spiro"
       id="path-effect4250"
       is_visible="true" />
    <inkscape:path-effect
       effect="spiro"
       id="path-effect4241"
       is_visible="true" />
    <inkscape:path-effect
       effect="spiro"
       id="path-effect4277-4"
       is_visible="true" />
  </defs>
  <sodipodi:namedview
     id="base"
     pagecolor="#ffffff"
     bordercolor="#666666"
     borderopacity="1.0"
     inkscape:pageopacity="0.0"
     inkscape:pageshadow="2"
     inkscape:zoom="0.98994949"
     inkscape:cx="284.07888"
     inkscape:cy="480.41118"
     inkscape:document-units="px"
     inkscape:current-layer="svg2"
     showgrid="false"
     inkscape:window-width="1280"
     inkscape:window-height="697"
     inkscape:window-x="-8"
     inkscape:window-y="-8"
     inkscape:window-maximized="1" />
  <metadata
     id="metadata7">
    <rdf:RDF>
      <cc:Work
         rdf:about="">
        <dc:format>image/svg+xml</dc:format>
        <dc:type
           rdf:resource="http://purl.org/dc/dcmitype/StillImage" />
        <dc:title></dc:title>
      </cc:Work>
    </rdf:RDF>
  </metadata>
  <g
     inkscape:label="Layer 1"
     inkscape:groupmode="layer"
     id="layer1"
     style="display:none" />
  <g
     inkscape:groupmode="layer"
     id="layer3"
     inkscape:label="Layer 2"
     style="display:none">
    <path
       style="fill:none;fill-rule:evenodd;stroke:#000000;stroke-width:1px;stroke-linecap:butt;stroke-linejoin:miter;stroke-opacity:1"
       d="m 50.714286,573.07649 c 0,0 162.857144,-18.57143 340.000004,-24.28571 177.14285,-5.71429 307.14285,12.85714 307.14285,12.85714"
       id="path4176"
       inkscape:connector-curvature="0" />
    <path
       style="fill:#ffdab9;fill-opacity:1;stroke:none;stroke-opacity:1"
       d="m 51.334913,595.3877 c 0,-12.22645 0.278497,-21.78572 0.634699,-21.78572 0.349085,0 13.286585,-1.2707 28.75,-2.82379 34.100438,-3.42491 84.769678,-7.91984 116.686728,-10.35142 60.43134,-4.60391 107.64265,-7.32765 182.85714,-10.54949 27.5987,-1.1822 128.22168,-1.17195 156.78572,0.016 55.18333,2.29496 105.86733,6.00083 143.77953,10.51275 8.16803,0.97208 15.31982,1.76741 15.89286,1.76741 0.89496,0 1.04189,3.87822 1.04189,27.5 l 0,27.5 -323.21428,0 -323.214287,0 0,-21.78571 z"
       id="path4180"
       inkscape:connector-curvature="0" />
  </g>
  <g
     inkscape:groupmode="layer"
     id="layer4"
     inkscape:label="Layer 3"
     style="display:none">
    <path
       style="fill:#ffefd5;fill-rule:evenodd;stroke:#000000;stroke-width:1px;stroke-linecap:butt;stroke-linejoin:miter;stroke-opacity:1"
       d="m 77.857143,578.07649 c 0,0 -5.714286,-87.14286 49.999997,-88.57143 55.71429,-1.42857 48.57143,87.85714 48.57143,87.85714 z"
       id="path4183"
       inkscape:connector-curvature="0" />
    <path
       style="fill:#ffe4c4;fill-rule:evenodd;stroke:#000000;stroke-width:1px;stroke-linecap:butt;stroke-linejoin:miter;stroke-opacity:1"
       d="m 150,577.3622 c 0,0 2.14286,-29.28571 20,-29.28571 17.85714,0 17.85714,29.28572 17.85714,29.28572 z"
       id="path4185"
       inkscape:connector-curvature="0"
       sodipodi:nodetypes="cscc" />
    <path
       style="fill:none;fill-rule:evenodd;stroke:#000000;stroke-width:1px;stroke-linecap:butt;stroke-linejoin:miter;stroke-opacity:1"
       d="m 136.42857,577.3622 c 0,0 0.009,-27.02458 18.57143,-28.57142 17.14286,-1.42858 15.71429,-1.42858 15.71429,-1.42858"
       id="path4187"
       inkscape:connector-curvature="0"
       sodipodi:nodetypes="csc" />
    <path
       style="fill:#000000;fill-rule:evenodd;stroke:#000000;stroke-width:0.755575px;stroke-linecap:butt;stroke-linejoin:miter;stroke-opacity:1"
       d="m 155.24371,577.12758 c 0,0 1.55078,-23.10219 14.47397,-23.10219 12.92319,0 12.92319,23.1022 12.92319,23.1022 z"
       id="path4185-7"
       inkscape:connector-curvature="0"
       sodipodi:nodetypes="cscc" />
  </g>
  <g
     inkscape:groupmode="layer"
     id="layer5"
     inkscape:label="Layer 4"
     style="display:none">
    <circle
       style="fill:#ffd700;fill-opacity:1;stroke:#000000;stroke-opacity:1"
       id="path4205"
       cx="627.85718"
       cy="423.07651"
       r="20" />
    <ellipse
       style="fill:#ffff00;fill-opacity:1;stroke:#000000;stroke-width:0.76435059;stroke-opacity:1"
       id="path4205-2"
       cx="675"
       cy="492.71936"
       rx="15.832109"
       ry="14.760682" />
  </g>
  <g
     inkscape:groupmode="layer"
     id="layer6"
     inkscape:label="Layer 5"
     style="display:inline">
    <path
       style="fill:#ffffff;fill-rule:evenodd;stroke:#000000;stroke-width:1px;stroke-linecap:butt;stroke-linejoin:miter;stroke-opacity:1"
       d="m 551.03821,507.88998 c -3.53363,-0.10506 -7.62304,1.74415 -9.06074,3.16307 -5.20942,4.45596 -6.90583,15.24799 -7.72408,20.14441 -0.38411,2.77472 -0.87743,4.04436 0.13661,6.66443 0.89007,1.75187 2.06811,0.8441 3.81071,0.74956 2.20949,-0.55471 2.49313,-2.22658 3.34039,-4.02658 1.89348,-3.33602 1.94779,-8.52781 4.78182,-11.69842 0,0 -1.10876,12.946 -0.90862,13.72157 -1.12023,5.20727 -2.35306,9.5354 -2.72606,11.85587 -0.37197,2.31775 -1.0633,10.93552 -0.65474,12.93616 2.36155,0.0501 10.3215,0.21701 12.54813,0.11731 0.58696,-2.17223 2.26356,-4.57282 3.3747,-6.33906 0,0 2.20027,4.27029 3.47861,6.21928 3.92697,0.0921 7.82012,0.0922 11.97457,0.13509 1.10099,-2.6904 1.37421,-7.80418 0.82894,-11.28018 -0.54527,-3.47601 -1.31187,-7.78966 -2.33006,-12.58358 -0.79233,-3.73054 0.0939,-11.88276 0.11587,-13.86159 0,0 2.03725,9.38896 3.57886,11.93583 1.01564,1.75613 2.009,3.38169 3.68438,4.15774 1.41557,0.39946 2.86764,0.31107 3.87194,-0.47907 1.31054,-1.58522 0.87442,-5.63963 0.68816,-7.43869 -0.84883,-7.99832 -0.1327,-15.69608 -6.06836,-21.12393 -1.83178,-1.67507 -4.8551,-2.04948 -7.04305,-3.22172"
       id="path4248"
       inkscape:connector-curvature="0"
       sodipodi:nodetypes="cccccccccccccczscccccsc" />
  </g>
  <g
     inkscape:groupmode="layer"
     id="layer7"
     inkscape:label="Layer 6"
     style="display:inline">
    <path
       style="fill:#f3bfad;fill-rule:evenodd;stroke:#000000;stroke-width:1px;stroke-linecap:butt;stroke-linejoin:miter;stroke-opacity:1"
       d="m 550.2806,479.10063 c 3.13708,-2.13809 6.87585,-3.40503 10.67038,-3.52432 3.79454,-0.1193 7.63068,0.9222 10.79535,3.01924 2.36207,1.5652 4.34364,3.70999 5.67693,6.21031 1.33329,2.50032 2.01111,5.353 1.89922,8.18438 -0.19307,4.88558 -2.7736,9.5408 -6.56598,12.6269 -3.38367,2.7535 -7.71548,4.31878 -12.07769,4.36422 -4.36221,0.0454 -8.72569,-1.42926 -12.16598,-4.11168 -4.02681,-2.92276 -6.46967,-7.90619 -6.31345,-12.87945 0.0873,-2.7785 0.94304,-5.51684 2.36957,-7.90277 1.42653,-2.38593 3.41457,-4.42124 5.71165,-5.98683 z"
       id="path4239"
       inkscape:path-effect="#path-effect4241"
       inkscape:original-d="m 550.2806,479.10063 c 7.16933,-4.20963 14.96959,-4.37369 21.46573,-0.50508 0,0 7.82869,4.79824 7.57615,14.39469 -0.25254,9.59645 -6.56598,12.6269 -6.56598,12.6269 -8.71749,3.8727 -18.82629,2.32004 -24.24367,0.25254 0,0 -6.06091,-3.283 -6.31345,-12.87945 -0.25254,-9.59644 8.08122,-13.8896 8.08122,-13.8896 z"
       inkscape:connector-curvature="0"
       sodipodi:nodetypes="ccsccsc" />
    <path
       style="fill:none;fill-rule:evenodd;stroke:#000000;stroke-width:1px;stroke-linecap:butt;stroke-linejoin:miter;stroke-opacity:1"
       d="m 533.92857,533.6122 c 1.08685,0.50404 2.23417,0.87755 3.40945,1.10996 1.28632,0.25436 2.606,0.3395 3.91434,0.25254 l 0,0"
       id="path4255"
       inkscape:path-effect="#path-effect4257"
       inkscape:original-d="m 533.92857,533.6122 c 0,0 0.9472,0.54175 3.40945,1.10996 2.46225,0.56821 3.91434,0.25254 3.91434,0.25254 l 0,0"
       inkscape:connector-curvature="0" />
    <path
       style="fill:#f1b6a1;fill-opacity:1;stroke:#000000;stroke-width:0.06313454;stroke-opacity:1"
       d="m 535.28317,538.17842 c -0.2686,-0.23583 -0.4863,-0.67264 -0.69009,-1.38464 -0.22975,-0.8027 -0.36881,-2.11942 -0.24447,-2.31486 0.0337,-0.053 0.25025,-0.003 0.77243,0.17767 1.45614,0.50423 2.93947,0.7861 4.54352,0.86337 l 0.88647,0.0427 -0.31571,0.64311 c -0.5814,1.18434 -1.33278,1.77453 -2.43747,1.91459 -0.27258,0.0346 -0.71971,0.10535 -0.99362,0.15731 -0.27391,0.052 -0.67856,0.0945 -0.89922,0.0945 -0.35774,0 -0.4251,-0.021 -0.62184,-0.19373 z"
       id="path4261"
       inkscape:connector-curvature="0" />
    <path
       style="fill:#f3bfad;fill-rule:evenodd;stroke:#000000;stroke-width:1px;stroke-linecap:butt;stroke-linejoin:miter;stroke-opacity:1"
       d="m 575.91322,536.11112 c 1.33101,0.3682 2.72783,0.49714 4.10375,0.37881 1.37543,-0.11829 2.72924,-0.48361 3.97747,-1.07329"
       id="path4263"
       inkscape:path-effect="#path-effect4265"
       inkscape:original-d="m 575.91322,536.11112 c 0,0 0.50508,0.63134 4.10375,0.37881 3.59866,-0.25254 3.97747,-1.07329 3.97747,-1.07329"
       inkscape:connector-curvature="0" />
    <path
       style="fill:#f3bfad;fill-opacity:1;stroke:#000000;stroke-width:0.06313454;stroke-opacity:1"
       d="m 579.79553,539.48333 c -0.51217,-0.11712 -0.99915,-0.43021 -1.6301,-1.04805 -0.56396,-0.55223 -1.25523,-1.46453 -1.13906,-1.50325 0.036,-0.012 0.31452,0.009 0.61891,0.0461 1.68083,0.20614 3.92943,-0.0519 5.46652,-0.62732 0.20205,-0.0756 0.3788,-0.1261 0.39277,-0.11213 0.014,0.014 -0.004,0.28949 -0.0401,0.61227 -0.12591,1.12778 -0.43793,2.01054 -0.80237,2.27004 -0.43302,0.30834 -0.8233,0.40708 -1.68543,0.4264 -0.51514,0.0115 -0.95494,-0.0123 -1.18112,-0.064 z"
       id="path4267"
       inkscape:connector-curvature="0" />
    <path
       style="fill:#000000;fill-rule:evenodd;stroke:#000000;stroke-width:1px;stroke-linecap:butt;stroke-linejoin:miter;stroke-opacity:1"
       d="m 573.1353,543.7504 c -5.02845,0.13084 -10.05921,0.17294 -15.08915,0.12626 -4.82095,-0.0447 -9.64114,-0.17103 -14.45781,-0.3788"
       id="path4269"
       inkscape:path-effect="#path-effect4271"
       inkscape:original-d="m 573.1353,543.7504 c 0,0 -1.19956,0.1894 -15.08915,0.12626 -13.8896,-0.0631 -14.45781,-0.3788 -14.45781,-0.3788"
       inkscape:connector-curvature="0" />
    <path
       style="fill:#000000;fill-opacity:1;stroke:#000000;stroke-width:0.06313454;stroke-opacity:1"
       d="m 546.34736,560.95809 c -2.1008,-0.0319 -3.8316,-0.0699 -3.84621,-0.0843 -0.0146,-0.0144 -0.0395,-0.47533 -0.0553,-1.0242 -0.068,-2.35947 0.373,-8.78683 0.77969,-11.36357 0.10402,-0.65905 0.35114,-1.79948 0.73284,-3.38196 l 0.25693,-1.06523 0.86085,0.0421 c 5.44756,0.2665 15.24597,0.3995 22.17962,0.30106 2.95652,-0.042 5.38951,-0.0623 5.40665,-0.0452 0.0611,0.0611 0.92199,5.04988 1.11151,6.44125 0.4128,3.03053 0.17047,7.22936 -0.5585,9.67716 l -0.14518,0.4875 -5.296,-0.0135 c -2.9128,-0.007 -5.47202,-0.0308 -5.68716,-0.052 l -0.39116,-0.0385 -0.47045,-0.8003 c -0.71271,-1.21243 -1.22732,-2.14531 -2.23509,-4.05174 -0.50479,-0.95491 -0.93884,-1.75983 -0.96457,-1.78872 -0.0481,-0.054 -1.69986,2.50278 -2.37909,3.68276 -0.50857,0.8835 -0.93055,1.73223 -1.22421,2.46224 -0.23587,0.58636 -0.24663,0.60076 -0.48062,0.64349 -0.30101,0.055 -2.70244,0.046 -7.59452,-0.0284 z"
       id="path4273"
       inkscape:connector-curvature="0" />
    <path
       style="fill:none;fill-rule:evenodd;stroke:#480c00;stroke-width:1px;stroke-linecap:butt;stroke-linejoin:miter;stroke-opacity:1"
       d="m 542.26251,548.42235 c 4.98713,1.73419 10.32676,2.44758 15.59423,2.08344 5.59718,-0.38694 11.107,-1.99216 16.03618,-4.67196"
       id="path4275"
       inkscape:path-effect="#path-effect4277"
       inkscape:original-d="m 542.26251,548.42235 c 0,0 5.74525,3.21986 15.59423,2.08344 9.84899,-1.13642 16.03618,-4.67196 16.03618,-4.67196"
       inkscape:connector-curvature="0"
       sodipodi:nodetypes="csc" />
    <path
       style="fill:#000000;fill-opacity:1;fill-rule:evenodd;stroke:#480c00;stroke-width:1px;stroke-linecap:butt;stroke-linejoin:miter;stroke-opacity:1"
       d="m 542.44353,546.76185 c 4.93647,1.47443 10.13851,2.05483 15.27855,1.70463 5.60237,-0.38169 11.12712,-1.87079 16.16245,-4.35628"
       id="path4275-7"
       inkscape:path-effect="#path-effect4277-4"
       inkscape:original-d="m 542.44353,546.76185 c 0,0 5.89358,4.90091 15.27855,1.70463 10.18204,-3.46774 16.16245,-4.35628 16.16245,-4.35628"
       inkscape:connector-curvature="0"
       sodipodi:nodetypes="csc" />
    <path
       style="fill:#480c00;fill-opacity:1;stroke:#480c00;stroke-width:0.06313454;stroke-opacity:1"
       d="m 553.51313,550.05061 c -3.03674,-0.13014 -6.05626,-0.62406 -9.12294,-1.49231 -0.43405,-0.12288 -0.87442,-0.25925 -0.97859,-0.30303 -0.22978,-0.0966 -0.86862,-0.28668 -0.96333,-0.28668 -0.0376,0 -0.0875,0.0873 -0.11095,0.19392 -0.0778,0.35431 -0.1028,0.1415 -0.0313,-0.26628 0.11696,-0.66671 0.067,-0.62508 0.57297,-0.47749 l 0.44243,0.12906 -0.0373,0.28932 c -0.0291,0.22621 -0.022,0.2651 0.0327,0.17833 0.0385,-0.0611 0.0551,-0.13499 0.037,-0.16432 -0.0181,-0.0293 0.003,-0.10204 0.0462,-0.16156 0.0738,-0.10098 0.13811,-0.0934 0.96078,0.11286 2.37202,0.5948 4.95586,0.99155 7.69049,1.1809 1.41135,0.0977 5.47547,0.0418 6.79664,-0.0935 4.91039,-0.50293 9.07691,-1.59592 13.71199,-3.59701 0.22238,-0.096 0.23453,-0.0949 0.2724,0.0244 0.13682,0.43109 0.1521,0.41189 -0.64616,0.81188 -5.54846,2.78017 -12.2864,4.1952 -18.67309,3.92151 z"
       id="path4299"
       inkscape:connector-curvature="0" />
    <path
       style="fill:#808080;fill-opacity:1;stroke:#000000;stroke-width:0.06313454;stroke-opacity:1"
       d="m 573.81217,545.66654 -0.15113,-0.27665 -0.31016,0.15718 c -0.1706,0.0864 -0.32394,0.1434 -0.34077,0.12657 -0.0168,-0.0168 -0.0461,-0.14612 -0.065,-0.28732 l -0.0344,-0.25672 0.42763,-0.19187 c 0.2352,-0.10553 0.43367,-0.18412 0.44105,-0.17465 0.025,0.0321 0.21705,1.14702 0.20045,1.16362 -0.009,0.009 -0.0845,-0.108 -0.16761,-0.26016 z"
       id="path4301"
       inkscape:connector-curvature="0" />
    <rect
       style="fill:#808080;fill-opacity:1;stroke:#000000;stroke-opacity:1"
       id="rect4303"
       width="5.8083978"
       height="4.3562613"
       x="554.25806"
       y="547.66473" />
    <path
       style="fill:none;fill-rule:evenodd;stroke:#000000;stroke-width:1.07242119px;stroke-linecap:butt;stroke-linejoin:miter;stroke-opacity:1"
       d="m 552.14874,491.76753 c 0,0 -1.05152,-0.3662 -1.20173,-1.34276"
       id="path4343-3-2"
       inkscape:connector-curvature="0" />
    <path
       style="fill:#e4c880;fill-rule:evenodd;stroke:#000000;stroke-width:1px;stroke-linecap:butt;stroke-linejoin:miter;stroke-opacity:1"
       d="m 569.15783,480.55273 c 0,0 0.12789,6.18447 -7.37211,6.54162 -7.5,0.35714 -11.07143,-3.48215 -13.83929,-1.16072 -2.76786,2.32143 -0.625,13.03572 -2.76786,18.48214 -2.14285,5.44643 -6.96428,6.51786 -8.30357,10.35715 -1.33928,3.83928 -2.85714,10 -2.85714,10 0,0 0.0893,-1.96429 -0.625,-4.01786 -0.71429,-2.05357 -4.28572,-7.85714 -3.57143,-11.875 0.71429,-4.01786 6.24475,-13.28453 6.24475,-18.19525 0,-4.91071 0.87381,-9.3029 3.82024,-11.8029 2.94643,-2.5 7.34572,-5.35899 9.31001,-5.71613 1.96429,-0.35714 11.78571,-2.85715 22.14285,0.17857 10.35715,3.03571 8.48215,3.125 10.89286,5.17856 1.22532,1.04379 6.07144,8.48215 4.10715,17.58929 -1.96428,9.10715 2.23214,12.76786 3.48214,17.76786 1.25,5 -5.17857,11.16071 -5.17857,11.16071 0,0 1.25,-6.25 -1.60714,-10.625 -2.85715,-4.375 -4.46429,-2.94642 -6.875,-8.03571 -2.41072,-5.08929 1.69642,-5.625 0.44642,-12.58929 -1.25,-6.96428 -7.44931,-13.23804 -7.44931,-13.23804 z"
       id="path4398"
       inkscape:connector-curvature="0"
       sodipodi:nodetypes="csssscssssssssscsssc" />
  </g>
  <g
     inkscape:groupmode="layer"
     id="layer9"
     inkscape:label="Layer 8"
     style="display:inline">
    <path
       style="fill:none;fill-rule:evenodd;stroke:#00b8f8;stroke-width:1px;stroke-linecap:butt;stroke-linejoin:miter;stroke-opacity:1"
       d="m 530.83516,506.37475 1.13643,1.51523 2.65165,-1.6415 -0.63135,3.03046 4.04061,-4.67195 -1.01015,5.93464 3.40926,-4.79822 1.76777,2.90419"
       id="path4401"
       inkscape:connector-curvature="0"
       sodipodi:nodetypes="cccccccc" />
    <path
       style="fill:#00a0f0;fill-opacity:1;stroke:#00b8f8;stroke-width:0.12626907;stroke-opacity:1"
       d="m 533.90067,520.62532 c -0.14627,-0.43405 -0.75099,-1.84096 -1.34384,-3.12646 -1.63588,-3.54718 -2.22979,-5.52625 -2.22979,-7.4303 0,-0.93196 0.27487,-2.36334 0.49647,-2.58536 0.0575,-0.0577 0.29153,0.15542 0.51997,0.47351 0.22843,0.31809 0.47059,0.57834 0.53812,0.57834 0.0675,0 0.48932,-0.23148 0.93731,-0.51442 0.44799,-0.28293 0.84491,-0.48404 0.88204,-0.44691 0.0371,0.0371 -0.0872,0.81244 -0.27637,1.72289 -0.18913,0.91046 -0.32024,1.67902 -0.29135,1.70791 0.0289,0.0289 0.92928,-0.96365 2.00086,-2.20563 1.07159,-1.24199 1.96092,-2.2467 1.97628,-2.23269 0.0154,0.014 -0.11193,0.84627 -0.28289,1.84948 -0.17095,1.0032 -0.31137,1.88947 -0.31204,1.96949 -10e-4,0.12812 0.62266,0.42273 0.89498,0.42273 0.0555,0 0.65325,-0.78129 1.32834,-1.7362 0.6751,-0.95491 1.32645,-1.86532 1.44746,-2.02313 l 0.22,-0.28693 0.58127,0.95742 0.58126,0.95742 -0.66479,0.60479 c -0.36564,0.33263 -1.09212,0.97775 -1.61441,1.43359 -1.07895,0.9417 -1.81324,1.77435 -2.36802,2.68526 -0.39787,0.65327 -1.45917,3.79995 -2.18137,6.46758 -0.23032,0.85074 -0.45359,1.5468 -0.49616,1.5468 -0.0426,0 -0.19707,-0.35513 -0.34333,-0.78918 z"
       id="path4403"
       inkscape:connector-curvature="0" />
    <path
       style="fill:none;fill-rule:evenodd;stroke:#14ccfc;stroke-width:1px;stroke-linecap:butt;stroke-linejoin:miter;stroke-opacity:1"
       d="m 578.31233,509.53148 1.6415,-3.40927 0.50508,4.04062 1.38896,-4.9245 2.0203,7.57615 0.50508,-3.03046 2.65165,2.27284 0.12627,-4.67195"
       id="path4409"
       inkscape:connector-curvature="0" />
    <path
       style="fill:#007ce8;fill-opacity:1;stroke:#14ccfc;stroke-width:0.12626907;stroke-opacity:1"
       d="m 585.4625,522.53061 c 0.18198,-1.94878 -0.42222,-5.32977 -1.2756,-7.13802 -0.80128,-1.69784 -2.22225,-3.48145 -3.62034,-4.54426 l -0.63454,-0.48237 0.54467,-0.0631 0.54468,-0.0631 0.36906,-1.36218 c 0.20299,-0.74919 0.41124,-1.3174 0.46279,-1.26269 0.0516,0.0547 0.40189,1.26432 0.77855,2.688 l 0.68484,2.58852 0.5545,0 0.5545,0 0.15582,-0.93062 c 0.0857,-0.51183 0.18347,-0.95827 0.21728,-0.99207 0.0338,-0.0338 0.63498,0.43515 1.33594,1.04213 0.70096,0.60697 1.29457,1.08182 1.31913,1.05521 0.0246,-0.0266 0.0937,-0.75426 0.1536,-1.61701 l 0.10895,-1.56862 0.52656,1.25295 c 0.93066,2.2145 1.11494,2.90162 1.11494,4.15714 0,1.96256 -0.8888,4.07632 -2.79529,6.64781 -1.14898,1.54976 -1.19158,1.57269 -1.10004,0.59235 z"
       id="path4413"
       inkscape:connector-curvature="0" />
    <path
       style="fill:#007ce8;fill-opacity:1;stroke:#14ccfc;stroke-width:0.12626907;stroke-opacity:1"
       d="m 579.41171,509.89245 -0.45488,-0.41038 0.33849,-0.75761 0.33848,-0.75762 0.14045,1.13643 c 0.0772,0.62503 0.12962,1.15062 0.11639,1.16799 -0.0132,0.0174 -0.22874,-0.1531 -0.47893,-0.37881 z"
       id="path4415"
       inkscape:connector-curvature="0" />
    <path
       style="fill:#007ce8;fill-opacity:1;stroke:#14ccfc;stroke-width:0.12626907;stroke-opacity:1"
       d="m 534.05591,521.01247 c -0.0512,-0.16085 -0.11018,-0.36085 -0.13115,-0.44445 -0.021,-0.0836 -0.56084,-1.33367 -1.19972,-2.77792 -2.01575,-4.55684 -2.55208,-6.61372 -2.26421,-8.68343 0.075,-0.53913 0.19345,-1.12979 0.26325,-1.31257 l 0.12691,-0.33233 0.48957,0.56821 0.48957,0.56821 0.88996,-0.48091 c 1.04544,-0.56493 1.00749,-0.64584 0.6301,1.34346 -0.1427,0.75219 -0.23972,1.42682 -0.2156,1.49917 0.0241,0.0724 0.89381,-0.84148 1.93265,-2.03073 1.03884,-1.18926 1.90552,-2.1121 1.92597,-2.05076 0.0204,0.0613 -0.079,0.79221 -0.2209,1.62415 -0.14195,0.83195 -0.25808,1.62728 -0.25808,1.76739 0,0.27282 0.62339,0.61646 0.91519,0.50449 0.0892,-0.0342 0.78206,-0.91857 1.53977,-1.96523 0.75772,-1.04667 1.41711,-1.87865 1.46533,-1.84885 0.12164,0.0752 1.0042,1.56849 1.0042,1.69913 0,0.0585 -0.61083,0.64585 -1.35739,1.30525 -0.74657,0.65939 -1.59332,1.44557 -1.88168,1.74707 -0.67701,0.70786 -1.55915,1.9824 -1.55915,2.25269 0,0.11581 -0.0426,0.25318 -0.0947,0.30526 -0.0521,0.0521 -0.0954,0.13259 -0.0962,0.17889 -8e-4,0.0463 -0.0665,0.25464 -0.146,0.46298 -0.28368,0.74347 -0.33615,0.88512 -0.36249,0.97859 -0.0147,0.0521 -0.0409,0.12311 -0.0583,0.15783 -0.0174,0.0347 -0.0436,0.10575 -0.0583,0.15784 -0.0147,0.0521 -0.0599,0.17993 -0.1006,0.28411 -0.12921,0.33108 -0.57238,1.78492 -0.98151,3.21986 -0.43524,1.52649 -0.54759,1.73963 -0.6866,1.3026 z"
       id="path4417"
       inkscape:connector-curvature="0" />
  </g>
  <g
     inkscape:groupmode="layer"
     id="layer10"
     inkscape:label="Layer 9"
     style="display:inline">
    <path
       style="fill:#000000;fill-rule:evenodd;stroke:#000000;stroke-width:1px;stroke-linecap:butt;stroke-linejoin:miter;stroke-opacity:1"
       d="m 533.57143,534.14792 -3.92857,-1.42857 -5.53572,11.42857 2.85715,1.78571 3.57143,-7.85714 4.64285,1.96429 0.71429,-0.89286"
       id="path4420"
       inkscape:connector-curvature="0" />
    <path
       style="fill:#808080;fill-rule:evenodd;stroke:#000000;stroke-width:1px;stroke-linecap:butt;stroke-linejoin:miter;stroke-opacity:1"
       d="m 523.75,543.96935 -1.25,2.32143 3.21429,1.60714 1.42857,-1.96428"
       id="path4422"
       inkscape:connector-curvature="0" />
    <path
       style="fill:#808080;fill-rule:evenodd;stroke:#000000;stroke-width:1px;stroke-linecap:butt;stroke-linejoin:miter;stroke-opacity:1"
       d="m 526.07143,547.54077 c 0,0 -1.42858,1.07143 -1.96429,3.21429 -0.53571,2.14286 -0.71429,3.92857 -0.71429,3.92857 l -6.78571,-3.03571 3.57143,-2.32144 2.5,-2.85714"
       id="path4424"
       inkscape:connector-curvature="0"
       sodipodi:nodetypes="cscccc" />
    <path
       style="fill:none;fill-rule:evenodd;stroke:#000000;stroke-width:1px;stroke-linecap:butt;stroke-linejoin:miter;stroke-opacity:1"
       d="m 528.39286,535.93363 -1.96429,-1.07143"
       id="path4426"
       inkscape:connector-curvature="0" />
    <path
       style="fill:none;fill-rule:evenodd;stroke:#000000;stroke-width:1px;stroke-linecap:butt;stroke-linejoin:miter;stroke-opacity:1"
       d="m 526.25,540.75506 -2.14286,-1.07143"
       id="path4428"
       inkscape:connector-curvature="0" />
    <path
       style="fill:none;fill-rule:evenodd;stroke:#000000;stroke-width:1px;stroke-linecap:butt;stroke-linejoin:miter;stroke-opacity:1"
       d="m 528.39286,530.57649 -5.35714,10.89286"
       id="path4430"
       inkscape:connector-curvature="0" />
  </g>
  <g
     inkscape:groupmode="layer"
     id="layer8"
     inkscape:label="Layer 7"
     style="display:inline">
    <path
       style="fill:none;fill-rule:evenodd;stroke:#000000;stroke-width:1px;stroke-linecap:butt;stroke-linejoin:miter;stroke-opacity:1"
       d="m 563.16004,509.91029 c 0,0 -2.52538,4.16688 -2.0203,17.80394 0.50508,13.63706 0.37881,13.25825 1.26269,13.88959 0.88388,0.63135 2.90419,1.13642 5.42957,1.26269 2.52538,0.12627 5.17703,-0.12627 5.17703,-0.12627"
       id="path4310"
       inkscape:connector-curvature="0" />
    <path
       style="fill:#000000;fill-rule:evenodd;stroke:#000000;stroke-width:1px;stroke-linecap:butt;stroke-linejoin:miter;stroke-opacity:1"
       d="m 572.75649,508.90013 c 0,0 -0.88388,3.53554 -1.01015,7.70242 -0.12627,4.16688 0.37881,7.70241 0.37881,7.70241"
       id="path4312"
       inkscape:connector-curvature="0" />
    <path
       style="fill:#000000;fill-opacity:1;stroke:#000000;stroke-width:0.12626907;stroke-opacity:1"
       d="m 566.59493,542.21637 c -2.19868,-0.26005 -3.88354,-0.86769 -4.19233,-1.51194 -0.31541,-0.65808 -0.87489,-14.69441 -0.73954,-18.55359 0.17606,-5.0198 0.81681,-9.30675 1.68407,-11.26734 l 0.24932,-0.56362 1.2467,-0.28727 c 1.6187,-0.37298 3.12321,-0.90743 4.49813,-1.59788 0.60767,-0.30515 1.10485,-0.49431 1.10485,-0.42034 0,0.11383 0.7852,0.51594 1.5333,0.78523 0.18935,0.0682 0.19154,0.14989 0.025,0.93614 -0.7024,3.31645 -0.97781,8.21254 -0.68009,12.09019 0.13296,1.73172 0.12455,2.53053 -0.0573,5.44379 -0.14064,2.25282 -0.19574,4.46492 -0.16197,6.50286 0.0505,3.04771 0.0583,3.1234 0.59095,5.71876 0.29688,1.4466 0.50455,2.66541 0.46149,2.70847 -0.13107,0.13107 -4.48476,0.14401 -5.56258,0.0165 z"
       id="path4314"
       inkscape:connector-curvature="0" />
    <path
       style="fill:none;fill-rule:evenodd;stroke:#000000;stroke-width:1px;stroke-linecap:butt;stroke-linejoin:miter;stroke-opacity:1"
       d="m 548.00776,508.39506 c 0,0 0.88388,2.14657 0.88388,6.56599 0,4.41942 -2.77792,8.20749 -2.77792,8.20749"
       id="path4318"
       inkscape:connector-curvature="0" />
    <path
       style="fill:none;fill-rule:evenodd;stroke:#000000;stroke-width:1px;stroke-linecap:butt;stroke-linejoin:miter;stroke-opacity:1"
       d="m 557.85674,510.03656 c 0,0 1.13643,6.56599 0.63135,16.92005 -0.50508,10.35406 -0.25254,12.87945 -1.51523,14.14214 -1.26269,1.26269 -2.27284,1.26269 -5.05076,1.38896 -2.77792,0.12627 -7.82868,-0.50508 -7.82868,-0.50508"
       id="path4320"
       inkscape:connector-curvature="0" />
    <path
       style="fill:#000000;fill-opacity:1;stroke:#000000;stroke-width:0.12626907;stroke-opacity:1"
       d="m 549.48547,541.8956 c -0.24307,-0.0215 -1.3417,-0.10555 -2.4414,-0.1868 -1.31951,-0.0975 -2.01924,-0.19929 -2.05765,-0.29938 -0.032,-0.0834 0.16645,-1.14089 0.44102,-2.34995 0.41686,-1.83563 0.51251,-2.52115 0.57979,-4.15545 0.0443,-1.07644 0.24961,-4.14478 0.45621,-6.81853 l 0.37564,-4.86136 0.74574,-1.45209 c 1.11205,-2.16536 1.64346,-3.91845 1.83877,-6.06608 0.1092,-1.20072 -0.12244,-4.23762 -0.44232,-5.7989 -0.13432,-0.65562 -0.22144,-1.21481 -0.1936,-1.24265 0.0278,-0.0278 0.52296,-0.10226 1.10026,-0.16538 0.5773,-0.0631 1.12358,-0.14179 1.21397,-0.17481 0.0904,-0.033 0.48814,0.10327 0.88389,0.30287 0.99976,0.50425 2.64194,1.0666 4.08685,1.39952 1.02198,0.23548 1.23184,0.32551 1.28894,0.55298 0.13271,0.52877 0.45279,4.09024 0.58035,6.45736 0.18513,3.43569 0.16258,5.76255 -0.12165,12.55325 -0.41707,9.96413 -0.46295,10.31157 -1.4862,11.2543 -0.35408,0.32622 -0.85578,0.64377 -1.16209,0.73554 -0.93073,0.27885 -4.1077,0.45515 -5.68652,0.31556 z"
       id="path4324"
       inkscape:connector-curvature="0" />
    <ellipse
       style="fill:#000000;fill-opacity:1;stroke:#000000;stroke-width:1.12630951;stroke-opacity:1"
       id="path4326"
       cx="569.3183"
       cy="494.09097"
       rx="1.7361796"
       ry="1.9571503" />
    <ellipse
       style="fill:#000000;fill-opacity:1;stroke:#000000;stroke-width:1.13210428;stroke-opacity:1"
       id="path4326-1"
       cx="552.52289"
       cy="493.70004"
       rx="1.7017149"
       ry="2.0173876" />
    <path
       style="fill:none;fill-rule:evenodd;stroke:#000000;stroke-width:1.1907475px;stroke-linecap:butt;stroke-linejoin:miter;stroke-opacity:1"
       d="m 570.97462,492.92646 c 0,0 1.45021,-0.32735 1.65737,-1.20031"
       id="path4343"
       inkscape:connector-curvature="0" />
    <path
       style="fill:none;fill-rule:evenodd;stroke:#000000;stroke-width:1.07242119px;stroke-linecap:butt;stroke-linejoin:miter;stroke-opacity:1"
       d="m 570.00463,492.14493 c 0,0 1.05152,-0.3662 1.20173,-1.34276"
       id="path4343-3"
       inkscape:connector-curvature="0" />
    <path
       style="fill:none;fill-rule:evenodd;stroke:#000000;stroke-width:1.1907475px;stroke-linecap:butt;stroke-linejoin:miter;stroke-opacity:1"
       d="m 550.98706,492.55248 c 0,0 -1.45021,-0.32735 -1.65737,-1.20031"
       id="path4343-8"
       inkscape:connector-curvature="0" />
    <ellipse
       style="fill:#dcc078;fill-opacity:1;stroke:#000000;stroke-opacity:1"
       id="path4394"
       cx="560.38983"
       cy="498.35483"
       rx="1.1995561"
       ry="1.2626907" />
    <path
       style="fill:none;fill-rule:evenodd;stroke:#000000;stroke-width:1px;stroke-linecap:butt;stroke-linejoin:miter;stroke-opacity:1"
       d="m 555.96271,502.52354 c 0,0 2.08344,1.38896 4.54569,1.38896 2.46224,0 4.29314,-1.45209 4.29314,-1.45209"
       id="path4396"
       inkscape:connector-curvature="0" />
  </g>
</svg>
